<svg width="32" height="32" viewBox="0 0 32 32" fill="none" xmlns="http://www.w3.org/2000/svg">
<g clip-path="url(#clip0_222_71)">
<path fill-rule="evenodd" clip-rule="evenodd" d="M0.143487 18.1529C0.791713 17.8863 1.43933 17.615 2.09691 17.3337C1.39795 17.0431 0.698985 16.7418 0.00585938 16.4416C0.0215388 17.0202 0.0679385 17.5912 0.143487 18.1529ZM0.319654 19.1986C0.391347 19.5519 0.474684 19.9011 0.569247 20.2455C0.99294 19.6901 1.41711 19.1341 1.84908 18.5704L1.84907 18.5704L1.84904 18.5704C1.34909 18.77 0.849144 18.9695 0.319654 19.1986ZM0.973111 21.5078C1.32624 22.4709 1.76933 23.3907 2.2922 24.2569C2.87102 24.3746 3.44875 24.4934 4.02648 24.6123C5.18599 24.8507 6.34549 25.0892 7.51385 25.3189C7.67317 25.3542 7.84134 25.3896 8.00951 25.4249C8.17769 25.4602 8.34586 25.4956 8.50518 25.5309C8.52288 25.5309 8.53173 25.5397 8.54058 25.5486C8.54944 25.5574 8.55829 25.5662 8.57599 25.5662C9.12476 25.4956 9.66469 25.4249 10.2046 25.3542C10.7445 25.2836 11.2845 25.2129 11.8332 25.1422C11.4792 24.7536 11.1163 24.3649 10.7534 23.9763C10.3905 23.5876 10.0276 23.199 9.67354 22.8103H6.98277H6.55792C6.27468 22.8103 5.99144 22.563 6.02685 22.2803C6.02685 21.9976 6.27468 21.7503 6.55792 21.7503H8.6822C8.48748 21.5383 8.3016 21.3352 8.11573 21.132C7.92985 20.9288 7.74398 20.7257 7.54925 20.5137C7.42534 20.39 7.31027 20.2663 7.19521 20.1427C7.08014 20.019 6.96507 19.8954 6.84116 19.7717C6.38089 19.277 7.12439 18.4997 7.62006 18.9944C7.92101 19.3124 8.21311 19.6304 8.50521 19.9484C8.79729 20.2664 9.08937 20.5843 9.3903 20.9023V19.3477V18.9237C9.3903 18.641 9.63813 18.3584 9.92137 18.3937C10.2046 18.3937 10.4524 18.641 10.4524 18.9237V21.8563V22.0683L10.4526 22.0684C11.1252 22.8104 11.7979 23.5523 12.4705 24.2589C12.6829 24.5063 12.8954 24.7536 13.1432 24.9656C13.391 24.9303 13.6389 24.8949 13.8513 24.8596C14.046 24.8419 14.2407 24.8154 14.4354 24.7889L14.4355 24.7889L14.4356 24.7889C14.6303 24.7624 14.825 24.7359 15.0197 24.7183C14.5771 23.7113 14.1345 22.6955 13.692 21.6796C13.2494 20.6638 12.8069 19.648 12.3643 18.641C12.0988 18.0227 11.8244 17.3955 11.55 16.7684C11.2756 16.1412 11.0012 15.5141 10.7357 14.8958C8.43447 15.8851 6.13326 16.839 3.83204 17.7929L3.83175 17.7931C3.28299 18.4997 2.73423 19.2152 2.18547 19.9306C1.78135 20.4575 1.37723 20.9844 0.973111 21.5078ZM3.13527 25.515C3.2988 25.7357 3.46788 25.9521 3.64229 26.1639C4.17456 26.0942 4.70695 26.0246 5.24794 25.9549C4.57525 25.8136 3.8937 25.6722 3.21216 25.5309C3.18653 25.5256 3.1609 25.5203 3.13527 25.515ZM4.49759 27.1219C4.74122 27.3739 4.99305 27.6178 5.25266 27.8533C5.64346 27.5296 6.03378 27.2055 6.4163 26.8735C5.95605 26.9265 5.4958 26.9884 5.03555 27.0502C4.85623 27.0743 4.67691 27.0984 4.49759 27.1219ZM6.10749 28.5763C6.97794 29.2619 7.9213 29.8591 8.92404 30.3543C9.59873 29.8733 10.2734 29.3871 10.9481 28.8875C11.2668 28.0042 11.5854 27.0855 11.8686 26.2022C10.7003 26.3436 9.56732 26.4849 8.39897 26.6615C7.77954 27.1737 7.16896 27.6859 6.55838 28.1981L6.55791 28.1985L6.55771 28.1987C6.40768 28.3245 6.25765 28.4504 6.10749 28.5763ZM10.0552 30.8592C10.1204 30.8853 10.1857 30.911 10.2513 30.9363C10.2829 30.8428 10.3146 30.7489 10.3462 30.6541C10.2492 30.7219 10.1522 30.7903 10.0552 30.8592ZM11.2626 31.2871C11.3195 31.3047 11.3766 31.322 11.4339 31.339C11.4014 31.2521 11.3693 31.1651 11.3376 31.0781C11.3107 31.1497 11.2861 31.2189 11.2626 31.2871ZM12.7256 31.6647C13.3509 31.7947 13.9896 31.8883 14.6393 31.943C14.7545 30.8436 14.9038 29.3433 15.0551 27.6155C15.0735 27.2835 15.1017 26.9516 15.1294 26.6246L15.1294 26.6245L15.1294 26.6244C15.1548 26.3251 15.1798 26.03 15.1967 25.7429C14.8426 25.7959 14.4974 25.8401 14.1522 25.8842L14.152 25.8843C13.8069 25.9284 13.4618 25.9726 13.1078 26.0256C12.9131 26.6085 12.7095 27.1827 12.5059 27.7569C12.3023 28.331 12.0988 28.9052 11.904 29.4882C12.174 30.2228 12.4439 30.9405 12.7256 31.6647ZM15.7217 31.9976C15.8142 31.9992 15.907 32 15.9999 32C16.2851 32 16.5686 31.9925 16.8501 31.9778C16.977 29.9924 17.1712 26.8681 17.2836 24.6473C17.2836 24.5955 17.2824 24.5366 17.2811 24.4728C17.2754 24.1881 17.2677 23.8053 17.3544 23.5167V23.3753C17.6731 22.0681 18.0006 20.7608 18.328 19.4535C18.6555 18.1462 18.983 16.8388 19.3017 15.5315C19.9036 13.1642 20.5055 10.7616 21.0719 8.39431C20.2996 5.66151 19.5272 2.9287 18.7203 0.230338C17.8362 0.0788948 16.9272 0 15.9999 0C15.8634 0 15.7273 0.00170926 15.5916 0.00510755C15.2704 0.399716 14.9504 0.793053 14.6305 1.18639L14.6293 1.18779C14.0189 1.93825 13.4085 2.68872 12.7892 3.44802C12.7445 3.50373 12.6998 3.55593 12.6563 3.60682C12.5617 3.71733 12.4724 3.82172 12.3997 3.94267C11.9748 6.27463 11.55 8.60658 11.0897 10.9032C11.0897 10.9385 11.0809 10.965 11.072 10.9915C11.0632 11.018 11.0543 11.0445 11.0543 11.0799C11.904 10.5145 12.7449 9.95805 13.5858 9.40156C14.4266 8.84508 15.2675 8.28859 16.1172 7.72326C16.2411 7.24629 16.3739 6.76049 16.5066 6.27468L16.5067 6.27462C16.6394 5.7888 16.7722 5.30298 16.8961 4.82599C17.0731 4.15467 18.1353 4.43733 17.9229 5.10865C17.8521 5.39125 17.7724 5.67385 17.6928 5.95645L17.6927 5.95663L17.6927 5.95679C17.613 6.2394 17.5334 6.52201 17.4626 6.80462C17.5334 6.76928 17.6042 6.73395 17.6396 6.69862C17.8166 6.57496 17.9937 6.46013 18.1707 6.3453C18.3477 6.23046 18.5247 6.11563 18.7018 5.99197C19.2682 5.60331 19.8347 6.52196 19.2328 6.91061L17.6396 7.97059L19.339 8.81858C19.5869 8.95991 19.6577 9.31323 19.5161 9.56056C19.3745 9.80789 19.0558 9.87855 18.7726 9.73722C18.4008 9.56056 18.0379 9.37506 17.675 9.18956C17.3121 9.00407 16.9492 8.81857 16.5775 8.64191C15.7986 9.17191 15.0108 9.69307 14.223 10.2142L14.2228 10.2144C13.4351 10.7355 12.6475 11.2566 11.8686 11.7865C11.6916 11.9102 11.5146 12.025 11.3376 12.1398C11.1605 12.2547 10.9835 12.3695 10.8065 12.4932C11.2576 13.5061 11.6943 14.519 12.135 15.541L12.135 15.541C12.3861 16.1233 12.6384 16.7085 12.8954 17.2984C12.9828 17.4874 13.0642 17.6764 13.1446 17.863L13.1446 17.863C13.2595 18.1298 13.3723 18.3915 13.4973 18.641C13.5858 18.4467 13.6831 18.2524 13.7805 18.0581L13.7805 18.0581L13.7805 18.058C13.8779 17.8637 13.9752 17.6694 14.0637 17.4751C14.1345 17.3337 14.2142 17.1924 14.2939 17.0511C14.3735 16.9097 14.4532 16.7684 14.524 16.6271C14.4355 16.2031 14.3558 15.7703 14.2762 15.3374C14.1965 14.9046 14.1168 14.4718 14.0283 14.0478C14.0117 13.9815 14.0029 13.9153 13.9946 13.8526C13.9851 13.7817 13.9763 13.7154 13.9575 13.6591C13.9221 13.3765 14.0283 13.0585 14.347 12.9878C14.6302 12.9172 14.9489 13.0585 15.0197 13.3765C15.1259 13.9771 15.2321 14.5425 15.3737 15.1431C15.4622 14.9665 15.5596 14.781 15.6569 14.5955C15.7543 14.41 15.8517 14.2245 15.9402 14.0478C16.011 13.9065 16.0818 13.774 16.1526 13.6415L16.1526 13.6415C16.2234 13.509 16.2942 13.3765 16.365 13.2352C16.6837 12.6345 17.6396 13.1645 17.2856 13.7651C17.1262 14.0478 16.9669 14.3393 16.8076 14.6308C16.6483 14.9223 16.489 15.2138 16.3296 15.4964C16.489 15.4258 16.6483 15.3463 16.8076 15.2668L16.8077 15.2667C16.967 15.1872 17.1263 15.1078 17.2856 15.0371C17.3387 15.0018 17.4006 14.9753 17.4626 14.9488C17.5246 14.9223 17.5865 14.8958 17.6396 14.8605C17.8874 14.7545 18.2415 14.7898 18.3831 15.0371C18.5247 15.2844 18.4539 15.6378 18.2061 15.7791C17.8799 15.9348 17.5538 16.0961 17.2253 16.2586L17.225 16.2588C16.7335 16.5019 16.237 16.7475 15.7278 16.9804C15.6569 17.0157 15.5861 17.0511 15.4799 17.0864C15.3029 17.4397 15.1259 17.7842 14.9489 18.1287C14.7718 18.4732 14.5948 18.8177 14.4178 19.171L14.0991 19.807C14.0991 19.8424 14.0637 19.8777 14.0637 19.8777L15.9756 24.2236C16.0042 24.2879 16.0358 24.3537 16.0679 24.4206L16.0679 24.4206C16.1945 24.6845 16.3296 24.9664 16.3296 25.2482C16.3119 25.5309 16.2854 25.8135 16.2588 26.0962C16.2323 26.3789 16.2057 26.6615 16.188 26.9442C16.0344 28.7644 15.8544 30.6514 15.7217 31.9976ZM14.0957 0.112131C13.7726 0.15045 13.4524 0.198398 13.1355 0.255682C13.0436 0.736474 12.9518 1.22184 12.86 1.71672C13.2633 1.17998 13.6772 0.643232 14.0957 0.112131ZM12.0181 0.499389C11.6119 0.603425 11.2119 0.723007 10.8189 0.857465C10.9478 1.06219 11.0767 1.26778 11.2064 1.47463C11.3665 1.72985 11.5277 1.98697 11.6916 2.24671C11.7447 1.92871 11.8067 1.61072 11.8686 1.29273C11.9202 1.02828 11.9717 0.763835 12.0181 0.499389ZM9.79095 1.24934C7.88009 2.05465 6.15839 3.22043 4.71101 4.66151C5.26903 6.10608 5.83172 7.55066 6.4163 8.99524L6.41633 8.99531C6.48713 9.17195 6.55793 9.34859 6.62873 9.56056C6.85924 9.69588 7.08976 9.83639 7.32226 9.9781L7.32232 9.97814C7.69687 10.2064 8.07658 10.4379 8.46978 10.6559C8.71761 10.7972 8.96544 10.9474 9.21326 11.0975L9.21334 11.0976C9.46115 11.2477 9.70897 11.3979 9.95678 11.5392C10.2046 10.2496 10.4436 8.95128 10.6825 7.65291L10.6826 7.65255C10.9216 6.35409 11.1605 5.05564 11.4084 3.76601C11.1792 3.40809 10.9501 3.05297 10.7218 2.69908L10.7216 2.69881L10.7215 2.69873C10.4092 2.21466 10.0983 1.73287 9.79095 1.24934ZM3.89704 5.53437C3.44839 6.05275 3.03247 6.60026 2.65253 7.17368C2.7918 7.25675 2.93114 7.33983 3.07049 7.4229L3.07054 7.42294L3.07065 7.423C3.75216 7.82931 4.43367 8.23561 5.10632 8.64191C4.84079 7.95294 4.57526 7.27281 4.30973 6.59267C4.17217 6.24031 4.03461 5.88795 3.89704 5.53437ZM2.09002 8.08773C1.86056 8.49025 1.64807 8.9037 1.45353 9.3271C1.56464 9.3283 1.67583 9.32952 1.78711 9.33075H1.78719L1.78733 9.33076C2.59267 9.33964 3.40246 9.34857 4.2212 9.34857C3.58391 8.95991 2.94663 8.57125 2.30934 8.21792C2.23623 8.175 2.16313 8.13157 2.09002 8.08773ZM19.9351 0.487545C19.9824 0.63931 20.0308 0.789934 20.0806 0.93913L20.2994 0.58429C20.1786 0.550653 20.0571 0.518399 19.9351 0.487545ZM21.3631 0.921039L20.5763 2.2111C20.5586 2.24644 20.5409 2.27293 20.5232 2.29943C20.5055 2.32593 20.4878 2.35243 20.4701 2.38777C20.6648 3.04142 20.8507 3.69507 21.0365 4.34872L21.0365 4.34873C21.2224 5.00238 21.4083 5.65604 21.603 6.30969L21.603 6.30956C21.8863 5.21429 22.1695 4.11902 22.4173 2.98842C22.5412 2.51143 22.6563 2.03444 22.7714 1.55745C22.7756 1.54005 22.7798 1.52265 22.784 1.50525C22.322 1.28865 21.8479 1.09348 21.3631 0.921039ZM23.782 2.01673C23.349 3.7674 22.9111 5.52295 22.4527 7.299C22.7891 7.03401 23.1254 6.77785 23.4618 6.52169C23.7981 6.26553 24.1344 6.00936 24.4708 5.74437C24.8138 4.8642 25.1568 3.98403 25.488 3.11557C24.9446 2.71471 24.3749 2.34741 23.782 2.01673ZM26.3808 3.82432C26.2896 4.05406 26.1961 4.28252 26.0994 4.50773C26.2411 4.40172 26.3915 4.28687 26.542 4.17203C26.5842 4.13985 26.6264 4.10767 26.6683 4.07569C26.5735 3.99078 26.4776 3.90698 26.3808 3.82432ZM27.4513 4.82565C27.1747 5.03475 26.8987 5.24427 26.6305 5.46171C27.0855 5.44489 27.5405 5.42807 27.9917 5.40744C27.8163 5.20907 27.6361 5.01507 27.4513 4.82565ZM28.8051 6.40546C28.481 6.42064 28.1576 6.43583 27.8343 6.45102C27.0819 6.48635 26.3295 6.52168 25.5683 6.55702C25.4267 6.55702 25.2497 6.55702 25.1081 6.59235L22.7714 8.39431C22.6475 8.48265 22.5235 8.57981 22.3996 8.67698C22.2757 8.77414 22.1518 8.87131 22.0279 8.95964C21.8635 9.61597 21.699 10.2713 21.5348 10.926L21.5316 10.9385L21.5316 10.9389C20.7065 14.2273 19.8856 17.4994 19.0893 20.7961C19.0185 21.0611 18.9565 21.3261 18.8945 21.5911C18.8326 21.856 18.7706 22.121 18.6998 22.386L18.6999 22.386C19.0893 22.1387 19.4787 21.8914 19.9036 21.644C20.5939 21.2201 21.2753 20.7962 21.9568 20.3722L21.9571 20.3721L21.9578 20.3716C22.6391 19.9478 23.3204 19.5239 24.0105 19.1001C24.0813 19.0648 24.1433 19.0206 24.2053 18.9764C24.2672 18.9323 24.3292 18.8881 24.4 18.8528C24.3781 18.6996 24.3969 18.5329 24.4144 18.3778C24.4251 18.2824 24.4354 18.1915 24.4354 18.1108C24.4531 17.5101 24.4619 16.9095 24.4708 16.3089C24.4796 15.7082 24.4885 15.1075 24.5062 14.5069C24.1699 14.1359 23.8247 13.7649 23.4795 13.3939C23.1343 13.0229 22.7891 12.6519 22.4527 12.2809C21.9925 11.7862 22.736 11.0089 23.2316 11.5036C23.4441 11.7509 23.6653 11.9894 23.8866 12.2279C24.1079 12.4664 24.3292 12.7049 24.5416 12.9522C24.5593 12.4576 24.5682 11.9541 24.577 11.4506L24.577 11.4503C24.5859 10.9469 24.5947 10.4435 24.6124 9.94895C24.6124 9.2423 25.71 9.2423 25.6746 9.94895C25.6746 10.4039 25.6659 10.8589 25.6571 11.3182C25.6482 11.7862 25.6392 12.2587 25.6392 12.7402C26.241 12.1042 26.8429 11.4683 27.4802 10.7969C27.9405 10.3023 28.7194 11.0443 28.2591 11.5743C27.8165 12.0336 27.3828 12.4929 26.9491 12.9523C26.5154 13.4116 26.0817 13.8709 25.6392 14.3302C25.6215 14.9132 25.6126 15.4873 25.6037 16.0615C25.5949 16.6356 25.586 17.2098 25.5683 17.7928V18.1814C25.5898 18.1708 25.6145 18.1568 25.6414 18.1416L25.6414 18.1416C25.7035 18.1066 25.7775 18.0648 25.8516 18.0401C26.1879 17.8811 26.5155 17.7221 26.843 17.5631L26.8434 17.5629C27.1707 17.404 27.4981 17.2451 27.8343 17.0861C27.8474 17.073 27.8557 17.0549 27.8646 17.0356C27.8795 17.0031 27.896 16.967 27.9405 16.9448C28.6309 16.1675 29.3124 15.3902 29.9939 14.6129C30.5485 13.9804 31.1031 13.3479 31.6624 12.7154C31.1764 10.386 30.1838 8.24254 28.8051 6.40546ZM31.8887 14.1042C31.859 14.1383 31.8293 14.1724 31.7996 14.2065C31.2685 14.816 30.7374 15.4255 30.2064 16.0262L31.9807 15.2089C31.9626 14.8372 31.9318 14.4688 31.8887 14.1042ZM31.996 16.3578C31.9423 16.3827 31.8887 16.4076 31.835 16.4325C31.2066 16.724 30.5781 17.0155 29.9585 17.2981C30.4455 17.45 30.9324 17.6084 31.4222 17.7677L31.4226 17.7678C31.5768 17.818 31.7313 17.8682 31.8861 17.9184C31.9474 17.4053 31.9844 16.8847 31.996 16.3578ZM31.7249 18.9692C30.6641 18.6268 29.6032 18.2895 28.5423 17.9695C28.2591 18.1108 27.967 18.2433 27.6749 18.3758C27.3828 18.5083 27.0908 18.6408 26.8075 18.7821C26.719 18.8174 26.6305 18.8616 26.542 18.9057L26.542 18.9058L26.5419 18.9058C26.4534 18.95 26.3649 18.9941 26.2764 19.0294C26.6125 19.2412 26.9397 19.4442 27.2669 19.6472L27.2678 19.6478L27.2681 19.648C27.5955 19.8511 27.9229 20.0542 28.2591 20.2661C28.339 20.3159 28.4162 20.3658 28.492 20.4149L28.4921 20.4149C28.6851 20.5396 28.8701 20.6593 29.0734 20.7607C29.1442 20.7961 29.215 20.8491 29.2859 20.9021C29.3567 20.9551 29.4275 21.0081 29.4983 21.0434C29.5445 21.0665 29.6059 21.0594 29.6725 21.0517C29.7079 21.0476 29.7447 21.0434 29.7815 21.0434C30.1002 21.0081 30.4188 20.9727 30.7374 20.9727C30.9009 20.9546 31.0644 20.9388 31.2278 20.9241C31.4331 20.2889 31.5997 19.6364 31.7249 18.9692ZM30.8379 21.9974C30.7217 21.9982 30.582 22.0221 30.4188 22.05L30.4183 22.0501C30.3841 22.056 30.3488 22.062 30.3126 22.068C30.4149 22.2212 30.5173 22.3662 30.6196 22.5109C30.6952 22.3413 30.768 22.1701 30.8379 21.9974ZM30.0766 23.6121C29.9251 23.395 29.7737 23.182 29.6222 22.969C29.4275 22.6952 29.2327 22.4214 29.038 22.1387C29.0026 22.1034 28.9672 22.068 28.9672 22.0327C28.2498 21.6524 27.5608 21.2012 26.8732 20.7509C26.4749 20.4901 26.0771 20.2296 25.6746 19.9834C25.5329 19.9128 25.3559 19.8068 25.1789 19.7008C24.5062 20.1071 23.8335 20.5222 23.1608 20.9374C22.4881 21.3526 21.8154 21.7677 21.1427 22.174C20.7002 22.4567 20.2488 22.7305 19.7974 23.0044C19.346 23.2782 18.8945 23.552 18.452 23.8347C18.452 23.976 18.4431 24.1173 18.4343 24.2587C18.4254 24.4 18.4166 24.5413 18.4166 24.6827L24.2584 26.2726C25.0909 26.0688 25.9235 25.8581 26.7591 25.6466L26.7593 25.6465L26.7595 25.6464C27.5718 25.4408 28.387 25.2345 29.2079 25.033C29.5212 24.5759 29.8113 24.1017 30.0766 23.6121ZM28.1681 26.3896C27.5755 26.539 26.9817 26.6885 26.3827 26.8379C26.759 26.9404 27.1353 27.0428 27.4796 27.1452C27.717 26.9008 27.9466 26.6487 28.1681 26.3896ZM26.5822 28.0008C26.2443 27.9099 25.9063 27.8176 25.5683 27.7213C25.7356 27.9524 25.9076 28.1883 26.0809 28.4254C26.2509 28.2873 26.4181 28.1457 26.5822 28.0008ZM25.2258 29.0738C24.793 28.4841 24.3552 27.8972 23.9043 27.2973L23.9042 27.2972C22.8421 27.0146 21.78 26.7319 20.6825 26.414C20.771 26.7319 20.8507 27.0588 20.9303 27.3856C21.01 27.7124 21.0896 28.0393 21.1782 28.3572C21.603 28.7282 22.019 29.0992 22.435 29.4702L22.435 29.4702L22.4353 29.4704C22.7231 29.7271 23.0109 29.9838 23.3017 30.2405C23.9719 29.8961 24.6146 29.5059 25.2258 29.0738ZM22.2197 30.7461C22.0282 30.574 21.8355 30.4019 21.6384 30.2299C21.6915 30.4242 21.7358 30.6097 21.78 30.7952C21.7894 30.8345 21.7988 30.8737 21.8082 30.9131C21.9463 30.8593 22.0835 30.8036 22.2197 30.7461ZM20.8012 31.2671C20.7476 31.0627 20.6953 30.8583 20.6471 30.6539C20.5993 30.8924 20.5474 31.1269 20.4943 31.3601C20.597 31.3301 20.6993 31.2991 20.8012 31.2671ZM19.2967 31.66C19.3458 31.4424 19.3945 31.2248 19.4433 31.0072C19.5938 30.3359 19.7443 29.6646 19.9036 28.9932L19.9185 28.9171C19.9496 28.7579 19.9843 28.5798 20.0452 28.4279V28.3926C19.9634 28.0455 19.8697 27.6985 19.7779 27.3583L19.7779 27.3583C19.7108 27.1096 19.6447 26.8646 19.5849 26.6259C19.5672 26.5376 19.5407 26.4493 19.5141 26.361C19.4876 26.2726 19.461 26.1843 19.4433 26.096C19.4079 26.0783 19.3637 26.0695 19.3194 26.0606C19.2751 26.0518 19.2309 26.043 19.1955 26.0253C19.0362 25.99 18.8857 25.9458 18.7352 25.9016C18.5848 25.8575 18.4343 25.8133 18.275 25.778L18.1687 28.2159C18.1145 29.2806 18.0554 30.2018 17.9964 31.1215L17.9964 31.1216L17.9963 31.1222C17.9801 31.3748 17.9639 31.6273 17.9479 31.8826C18.4037 31.8273 18.8536 31.7528 19.2967 31.66ZM0.0156568 15.2831C1.1816 15.7882 2.33727 16.2884 3.5131 16.7684C4.30452 16.4466 5.09594 16.1188 5.88988 15.7899L5.89059 15.7896L5.89061 15.7896C7.01436 15.3242 8.14315 14.8566 9.28409 14.4011C9.3618 14.3701 9.44123 14.3391 9.52161 14.3077C9.80741 14.1961 10.1053 14.0797 10.3816 13.9418C10.2931 13.7475 10.2135 13.5531 10.1338 13.3588C10.0541 13.1645 9.97448 12.9702 9.88597 12.7758C9.24866 12.3872 8.60251 11.9985 7.95635 11.6098C7.31023 11.2212 6.66411 10.8325 6.02685 10.4439C4.36306 10.4439 2.69928 10.4171 1.01216 10.3869C0.437347 11.921 0.09133 13.5669 0.0156568 15.2831Z" fill="#A0862F"/>
</g>
<defs>
<clipPath id="clip0_222_71">
<rect width="32" height="32" fill="white"/>
</clipPath>
</defs>
</svg>
