<svg width="24" height="24" fill="none" xmlns="http://www.w3.org/2000/svg"><g clip-path="url(#clip0_35_503)"><path d="M11.992 2.001c-5.523 0-10 4.477-10 10 0 4.991 3.657 9.128 8.438 9.879v-6.989H7.89v-2.89h2.54V9.798c0-2.506 1.492-3.89 3.777-3.89 1.094 0 2.238.195 2.238.195v2.46h-1.26c-1.243 0-1.63.771-1.63 1.562v1.876h2.773l-.443 2.89h-2.33v6.989c4.78-.75 8.437-4.889 8.437-9.879 0-5.523-4.477-10-10-10z" fill="#A0862F"/></g><defs><clipPath id="clip0_35_503"><path fill="#fff" d="M0 0h24v24H0z"/></clipPath></defs></svg>