<svg width="121" height="130" fill="none" xmlns="http://www.w3.org/2000/svg"><path fill-rule="evenodd" clip-rule="evenodd" d="M59.553.94c-.762.802-.892 1.297-.892 3.397v2.458l-1.655-.14c-3.078-.258-5.132 1.479-5.143 4.35-.007 1.742 1.458 3.202 3.213 3.202.663 0 1.52.195 1.908.435.623.386.648.54.214 1.366-.268.512-1.621 2.013-3.006 3.336l-2.52 2.406-2.021-.153c-2.298-.173-4.28.622-5.557 2.23-.412.52-.861.942-.998.94-.348-.007-2.046-2.573-2.287-3.457-.212-.775-1.824-1.251-1.824-.538 0 .233-.331.84-.736 1.35-.882 1.111-.985 3.664-.208 5.154.291.555 1.198 1.61 2.016 2.341l1.486 1.33-1.739-.207c-.956-.114-3.394-.591-5.416-1.06-7.325-1.7-10.553-1.892-14.712-.874-4.325 1.06-6.958 2.831-7.39 4.974-.298 1.472 1.107 3.012 2.747 3.012h1.091l.121 2.713c.067 1.492-.018 3.337-.19 4.098-.28 1.25-.348 2.57-.244 4.657.02.397-.192.889-.472 1.093-.744.544-1.363 1.836-1.363 2.847 0 .486-.497 1.504-1.104 2.26-.607.756-1.103 1.794-1.103 2.307 0 .513-.406 1.515-.903 2.227-.496.712-.968 1.89-1.047 2.617-.08.727-.495 1.693-.922 2.147-.427.455-.884 1.534-1.015 2.4-.131.866-.465 1.761-.743 1.989-.277.228-.613 1.23-.747 2.229-.138 1.03-.464 1.898-.756 2.009-.693.263-1.691 2.235-1.449 2.861.108.277-.02.716-.283.977-.682.675-1.37 2.028-1.301 2.556.151 1.163-.08 1.727-.707 1.727C.897 80.506 0 81.676 0 82.98c0 1.026.594 1.734 1.563 1.86.152.02.359.057.46.082.1.025.38.066.62.09.239.026.859.887 1.378 1.914 1.673 3.31.567 3.052 13.034 3.038 12.246-.012 11.935.045 12.952-2.393.816-1.956 1.514-2.642 2.963-2.91 2.16-.402 2.083-3.174-.118-4.22-.767-.363-1.084-.832-1.25-1.85-.124-.749-.499-1.663-.834-2.03-.336-.367-.61-1.092-.61-1.612s-.426-1.447-.946-2.06c-.52-.612-1.021-1.73-1.112-2.486-.091-.755-.466-1.783-.832-2.284-.367-.5-.77-1.549-.897-2.329-.126-.78-.546-1.763-.932-2.185-.387-.422-.789-1.446-.894-2.276-.106-.842-.533-1.847-.967-2.277-.427-.422-.776-1.186-.776-1.697 0-1.079-.958-3.078-1.476-3.078-.194 0-.461-.667-.593-1.48-.131-.815-.641-2.068-1.133-2.787-.63-.92-.925-1.907-.997-3.346-.057-1.122-.392-3.024-.746-4.226-.557-1.892-.581-2.444-.18-4.099.253-1.051.65-1.912.881-1.912.23 0 .626-.205.88-.455.42-.418 1.45-.596 3.645-.632.459-.007 1.922-.445 3.254-.973 2.352-.933 2.546-.95 6.89-.64 5.261.377 12.27.427 14.525.103 1.086-.156 1.948-.055 2.699.316.736.364 1.768.49 3.109.38 1.103-.09 2.089-.033 2.19.129.1.161-.072.782-.384 1.379-1.173 2.248-.432 5.483 1.535 6.695.697.43.575.984-.218.984-.38 0-.89.238-1.133.529-.599.713-.13 2.02.724 2.02.887 0 1.26.59.546.862-.841.32-.7 2.082.186 2.311.724.188.736.497.736 20.159v19.967l-.828.116c-1.057.15-1.353 1.7-.45 2.355.576.416.547.48-.317.694-2.133.53-2.149 2.35-.021 2.35 1.558 0 1.569.316.128 3.498-2 4.416-1.749 6.731.962 8.843.65.506.757.747.394.885-.275.104-.594.659-.71 1.233-.224 1.111-2.195 2.485-4.642 3.235-.7.215-1.45.692-1.665 1.061-.215.369-.68.971-1.035 1.339-.354.369-.643.972-.643 1.342 0 .37-.316.956-.703 1.302-.386.346-.813 1.067-.948 1.602-.329 1.294-.822 1.836-2.184 2.4-1.309.542-6.17 7.158-5.751 7.828.364.585 42.75.395 42.948-.192.076-.228-.082-.637-.352-.911-.27-.274-1.39-1.792-2.49-3.374-1.312-1.887-2.391-3.038-3.14-3.348-1.39-.576-1.78-1.035-2.34-2.759-.24-.734-.675-1.426-.968-1.537-.294-.112-.534-.546-.534-.964 0-.962-2.136-3.631-2.912-3.639-.32-.003-.996-.236-1.501-.52a89.402 89.402 0 00-2.135-1.138c-.825-.424-1.284-.967-1.431-1.697-.12-.59-.436-1.156-.704-1.258-.334-.127-.142-.472.618-1.105 2.535-2.113 2.714-4.239.726-8.628-1.441-3.182-1.43-3.498.128-3.498 1.991 0 2.216-1.504.331-2.214-.747-.282-.84-.447-.487-.868.69-.824.32-2.183-.632-2.317l-.828-.116V69.595c0-19.662.012-19.971.736-20.159.934-.242.998-1.898.092-2.401-.54-.3-.555-.386-.092-.53.303-.094.841-.264 1.195-.377 1.27-.406.52-2.414-.901-2.414-.798 0-.88-.669-.118-.959.3-.114.9-.777 1.336-1.475.651-1.044.754-1.623.583-3.267-.115-1.1-.4-2.227-.632-2.505-.71-.848-.117-1.154 1.923-.992 1.098.087 2.428-.045 3.05-.302 1.403-.581 1.236-.581 5.192-.005 2.543.371 3.919.395 5.7.1 1.291-.214 4.195-.5 6.452-.637 3.85-.232 4.258-.19 6.62.698 1.384.52 2.847.955 3.252.966 2.206.06 3.135.227 3.549.637.252.25.675.455.938.455.263 0 .478.275.478.612 0 .336.191 1.135.425 1.775.345.947.301 1.596-.236 3.486-.364 1.278-.709 3.27-.768 4.427-.084 1.63-.321 2.355-1.052 3.216-.519.611-.947 1.55-.95 2.085-.004.535-.506 1.702-1.115 2.593-.609.89-1.083 1.874-1.054 2.186.102 1.081-.035 1.452-.797 2.155-.451.416-.848 1.357-.967 2.291-.11.871-.508 1.92-.883 2.33-.376.41-.79 1.313-.921 2.004-.13.692-.564 1.796-.963 2.454-.398.658-.782 1.801-.85 2.54-.07.74-.357 1.512-.639 1.718-.731.535-1.367 1.83-1.367 2.785 0 .451-.35 1.19-.778 1.64-.427.451-.823 1.363-.878 2.027-.153 1.807-.155 1.814-.548 1.574-.555-.34-2.21 1.492-2.204 2.44.009 1.222.394 1.641 1.834 1.997 1.069.264 1.46.655 2.305 2.31.56 1.097 1.295 2.199 1.633 2.449.812.6 21.844.656 22.968.06.41-.217 1.135-1.268 1.611-2.334.954-2.137 1.07-2.254 2.488-2.509 1.445-.26 1.727-.526 1.727-1.635 0-1.199-.606-2.097-1.845-2.734-.503-.259-.862-.692-.799-.963.184-.788-.247-2.078-.915-2.738-.551-.546-.723-1.102-.824-2.647-.016-.26-.419-.833-.894-1.275-.534-.495-.941-1.389-1.066-2.337-.112-.845-.551-1.974-.976-2.508-.425-.535-.772-1.43-.772-1.989 0-.558-.389-1.479-.865-2.045-.487-.58-.958-1.74-1.079-2.656-.118-.895-.466-1.81-.774-2.033-.309-.223-.74-1.196-.959-2.162-.218-.966-.804-2.236-1.302-2.822-.498-.587-.906-1.532-.906-2.103 0-.57-.398-1.506-.885-2.079-1.025-1.207-1.2-1.812-.833-2.88.145-.422.041-1.652-.233-2.731-.298-1.177-.434-3.078-.338-4.746l.159-2.783 1.427-.226c1.763-.279 2.717-1.515 2.372-3.073-.601-2.708-5.661-4.995-11.783-5.325-2.833-.153-4.787.117-10.297 1.423-2.023.48-4.362.947-5.197 1.04l-1.519.17 1.45-1.297c.798-.714 1.689-1.754 1.98-2.31.777-1.49.674-4.042-.209-5.153-.404-.51-.735-1.117-.735-1.35 0-.732-1.638-.238-1.784.538-.076.401-.606 1.364-1.18 2.14l-1.041 1.41-1.032-1.047c-1.736-1.763-3.503-2.456-5.629-2.206l-1.859.218-2.59-2.42c-2.822-2.637-4.093-4.47-3.1-4.47.309 0 .561-.164.561-.364 0-.2.638-.364 1.418-.364 2.086 0 3.364-1.29 3.364-3.394 0-2.774-2.246-4.504-5.449-4.2l-1.355.13.12-2.217c.107-1.964.009-2.35-.86-3.372C61.427.52 60.865 0 60.715 0c-.149 0-.672.423-1.162.94zm1.063 3.431c-.014.741-.052.775-.201.182-.102-.4-.336-.823-.522-.94-.186-.116-.22-.513-.077-.883.25-.647.272-.646.539.029.152.386.27 1.111.26 1.612zm-1.098 4.645c1.07 1.083 1.35 1.65 1.35 2.732 0 .752-.124 1.366-.276 1.366-.152 0-.279-.615-.281-1.366-.008-1.951-.387-2.338-2.32-2.366-2.218-.033-2.925.566-2.755 2.336.086.894.007 1.252-.225 1.022-.522-.517-.439-2.74.127-3.417.268-.32.963-.58 1.545-.58 1.075 0 1.438-.516.599-.852-.264-.106-.174-.196.213-.212.37-.016 1.28.586 2.023 1.337zm4.32-1.046c-.213.34-1.683.816-1.683.545 0-.088.372-.308.828-.49 1.079-.429 1.089-.43.855-.055zm-9.039.214c0 .092-.372.365-.827.606-.75.396-.78.38-.323-.17.47-.564 1.15-.822 1.15-.436zm3.678 3.452c0 .75-.216 1.085-.8 1.236-1.064.276-1.407.016-1.407-1.066 0-.6.277-1.005.828-1.21 1.095-.41 1.38-.196 1.38 1.04zm5.909-1.06c.75.399.977 1.968.34 2.358-.793.485-1.835-.22-1.835-1.241 0-1.483.333-1.732 1.495-1.116zm-4.865 4.358c.767 1.027.782 1.157.244 2.186-.692 1.326-1.075 1.464-.48.174.653-1.423-.204-2.04-.93-.67-.304.574-1.27 1.7-2.146 2.5l-1.594 1.457 1.546-1.639c1.59-1.686 2.874-4.136 2.49-4.751-.491-.788.113-.272.87.743zm3.122.093c-.087 1.62-.094 1.631-.515.915-.254-.432-.246-.866.024-1.366.526-.973.566-.937.491.45zm-5.017 6.395c-1.167 1.206-1.227 1.764-.3 2.78.377.413.992 1.243 1.366 1.844l.68 1.093-1.091-1.103c-.6-.607-1.63-1.513-2.288-2.014l-1.198-.912 1.75-1.332c2.12-1.615 2.383-1.702 1.081-.356zm3.227.355c.165.926.083 1.173-.39 1.173-.443 0-.542-.215-.379-.82.122-.451.224-1.052.227-1.336.008-.84.318-.28.542.983zm4.954.627c1.223.613 1.238.645.474 1.05-.433.229-1.571 1.152-2.529 2.05-1.813 1.703-1.833 1.468-.064-.785 1.292-1.647 1.295-1.997.03-3.388-.902-.991-.912-1.027-.092-.335.506.427 1.487 1.06 2.181 1.408zm-6.594-.365c0 .3-.269.546-.597.546-.489 0-.514-.098-.139-.546.252-.3.52-.547.597-.547.076 0 .139.246.139.547zm-17.953 2.27c2.231 3.24 5.003 5.052 8.503 5.559l1.91.276-1.539.046c-.846.025-1.964-.115-2.482-.31-.614-.23-.944-.23-.944 0 0 .195-.31.355-.69.355-.683 0-1.31-.556-2.054-1.82-.21-.357-1.251-1.66-2.313-2.894-1.126-1.31-1.919-2.579-1.902-3.046.02-.542.097-.624.239-.254.115.3.687 1.24 1.272 2.089zm39.071.3c-.754 1.124-2.083 2.563-2.955 3.198-.871.634-1.591 1.34-1.599 1.57-.02.572-.592.745-3.496 1.052-1.829.195-2.436.155-2.249-.146.142-.227.704-.412 1.25-.412 3.508 0 7.92-3.24 9.71-7.132.244-.53.504-.787.577-.57.072.217-.484 1.315-1.238 2.44zm-31.685-1.056c-.249.1-.745.106-1.103.013-.358-.092-.154-.174.452-.181.607-.007.9.068.651.168zm8.043 2.521a35.87 35.87 0 012.156 2.146l.92 1.024-1.472-.881a85.428 85.428 0 00-2.206-1.283c-.405-.221-.687-.667-.628-.991.06-.324-.023-.596-.184-.604-.16-.008-.871-.525-1.579-1.149l-1.287-1.134 1.522.876c.837.481 2.078 1.38 2.758 1.996zm2.355-2.371c.396.634-.055.768-.56.166-.29-.346-.318-.555-.073-.555.214 0 .5.175.633.389zm1.764 1.455l-.254 1.252-.301-1.093c-.353-1.28-.094-2.304.447-1.768.201.199.249.912.107 1.61zm14.127-1.593a3.043 3.043 0 01-1.287 0c-.354-.091-.064-.167.644-.167s.997.076.643.167zm-7.857.907c-1.63 1.22-1.946 1.316-.708.218.615-.546 1.264-.997 1.443-1.002.18-.005-.152.348-.735.784zm5.712-.663c-.084.072-.65.241-1.257.375-.805.179-.954.145-.551-.125.496-.333 2.177-.565 1.808-.25zm-20.083 2.217c2.549 1.279 3.153 1.926.916.981-2.214-.936-5.06-1.562-7.41-1.63-1.1-.033-1.916-.198-1.812-.368.103-.17 1.534-.252 3.178-.183 2.42.103 3.399.332 5.128 1.2zm24.343-.89c.139.222-.415.364-1.42.364-.905 0-1.944.113-2.307.25-.591.226-.605.188-.122-.35.6-.669 3.473-.867 3.85-.265zm-36.397 1.912c.568.852.796 1.356.51 1.12-.553-.451-1.962-2.668-1.696-2.668.086 0 .62.696 1.186 1.548zm10.957.645c1.152.427 2.005.92 1.896 1.095-.478.766-6.576-.519-8.085-1.704-.686-.539-.572-.564 1.68-.372 1.327.113 3.357.554 4.509.98zm24.197-.507c-1.206.837-3.702 1.523-5.798 1.595-2.54.088-2.651.039-1.418-.63 1.463-.794 4.389-1.49 6.426-1.528 1.622-.03 1.633-.022.79.563zM79.93 28.6c-1.507 1.785-4.328 3.118-6.48 3.061-1.018-.026-.927-.093.658-.48 2.326-.57 3.665-1.274 5.517-2.901.809-.711 1.52-1.3 1.581-1.308.06-.008-.514.724-1.276 1.628zm-22.337.27l.7.819-.92-.725a28.04 28.04 0 00-1.072-.82c-.084-.052.014-.095.219-.095s.687.37 1.073.82zm-34.607 1.009c-2.777.552-5.556 1.813-6.803 3.088-1.164 1.189-2.575 1.705-2.575.94 0-.964.665-1.624 2.622-2.603 2.532-1.266 4.287-1.726 6.572-1.72l1.655.002-1.47.293zm10.206.695l2.551.642-2.337.217c-1.285.118-2.666.323-3.069.454-.592.193-.626.164-.179-.155.61-.435.446-.497-1.471-.557-.589-.019-.88-.213-.808-.542.061-.282-.105-.663-.368-.846-.653-.453 2.471-.02 5.68.787zm58.538-.533c-1.434.258-2.954.653-3.378.878-.424.225-1.32.396-1.991.38-1.646-.041 4.927-1.745 6.688-1.734.814.005.33.18-1.32.476zm10.35.227c1.756.537 2.337.855 1.972 1.079-.437.267-.425.39.077.786.732.578 1.193 2.213.568 2.014-.237-.076-.762-.653-1.167-1.282-.877-1.365-3.349-2.623-5.884-2.997l-1.839-.27 1.892-.046c1.04-.025 3.012.297 4.381.716zm-47.183-.14c-.453.086-1.28.088-1.84.005-.558-.084-.189-.155.823-.158 1.011-.002 1.469.066 1.017.152zm-5.162 1.58l2.674.308-2.978-.124c-1.807-.075-3.433-.357-4.137-.717-1.628-.834-1.445-1.047.303-.354.806.32 2.668.719 4.138.888zm50.086-.36c1.48.548 2.229 1.084 2.805 2.008.433.693 1.092 1.422 1.465 1.62.881.467 2.566.464 2.566-.005 0-.2.185-.364.412-.364.286 0 .272.169-.045.546-.511.61-2.102.716-2.932.196-.352-.22-.631-.197-.796.067-.26.417-1.784-1.712-1.787-2.497-.001-.227-.291-.506-.645-.62-2.72-.877-4.56-1.678-3.876-1.688.448-.006 1.723.325 2.833.737zm-78.485.508c-.503.275-1.072.405-1.263.288-.376-.23.726-.757 1.626-.777.303-.007.14.212-.363.488zm62.702-.164c-.125.2-.92.34-1.769.31l-1.541-.055 1.655-.255c.91-.14 1.706-.28 1.769-.31.062-.03.011.11-.114.31zm-39.567.597c.297.255-3.85.086-5.302-.216-1-.208-.413-.243 1.839-.11 1.82.107 3.379.254 3.463.326zm26.235-.356a1.429 1.429 0 01-.92 0c-.252-.1-.046-.183.46-.183s.713.083.46.183zm35.767.488c.366.4.583.729.481.729-.101 0-.483-.328-.849-.73-.366-.4-.583-.728-.482-.728.101 0 .484.328.85.729zm-86.98-.227c0 .076-.29.363-.644.638-.584.453-.596.44-.14-.138.482-.607.783-.8.783-.5zm26.48.591c0 .2-.249.365-.552.365-.303 0-.552-.164-.552-.365 0-.2.249-.364.552-.364.303 0 .552.164.552.364zm-23.17.729c-.709.384-1.453.698-1.656.698-.202 0 .212-.314.92-.698.708-.384 1.453-.698 1.655-.698.202 0-.212.314-.92.698zm76.038-.004c1.661 1.003 1.506 1.248-.184.29-1.699-.963-1.767-1.015-1.348-1.013.185 0 .875.326 1.532.723zm-79.888.71c-.307.588-.726 1.171-.93 1.296-.204.125-.023-.356.402-1.07.931-1.564 1.31-1.727.528-.227zm42.285 1.571c1.257 1.07 1.646 3.498.772 4.819-.334.505-.852.918-1.15.918a.547.547 0 00-.544.546c0 .3-.174.547-.386.547-.57 0-1.453-2.33-1.453-3.835 0-1.734-.722-1.283-.778.487-.024.74-.118 1.057-.21.707-.093-.351-.405-.638-.694-.638-.627 0-.645.164-.137 1.208.375.769.369.772-.183.089-.6-.74-.755-2.589-.313-3.726.227-.585.288-.555.5.244l.24.91.442-1.08c.242-.595.617-1.292.832-1.549.6-.717 1.994-.556 3.062.353zm3.397-.092c.134.486.107.486-.245 0-.352-.485-.436-.485-.758 0-.307.464-.363.446-.368-.117-.007-.801 1.145-.702 1.371.117zm-5.238 9.107c.14.226-.447.348-1.542.322-1.57-.038-1.644-.075-.665-.322 1.61-.405 1.954-.405 2.207 0zm-41.743 1.479c0 1.068-.476 1.418-.933.686-.343-.55.148-2.237.575-1.976.197.12.358.7.358 1.29zm47.344-1.259c-.123.121-.44.134-.705.03-.294-.117-.206-.203.222-.22.388-.017.605.07.483.19zm39.237.378c.267.69-.06 1.952-.506 1.952-.463 0-.724-.932-.498-1.786.241-.915.685-.988 1.004-.166zm-44.287 1.224c.43.275.329.354-.46.359-.556.002-1.01-.159-1.01-.36 0-.46.75-.46 1.47 0zm-1.655 1.821c-1.012.431-1.372.431-1.103 0 .125-.2.59-.352 1.033-.339.777.025.78.037.07.34zm5.885 0c.125.2.052.364-.162.364s-.39-.163-.39-.364c0-.2.073-.364.162-.364.09 0 .265.164.39.364zm-46.342 2.198c.133 1.105.477 1.861 1.071 2.356.544.452.972 1.316 1.13 2.279.141.852.549 1.754.906 2.003.748.521 1.2 1.735 1.309 3.516.042.683.338 1.43.657 1.662.319.231.688.902.818 1.49.407 1.826.96 3.014 1.5 3.22.322.122.518.73.518 1.615 0 .868.285 1.78.735 2.346.405.51.736 1.245.736 1.634 0 1.145.744 2.927 1.313 3.144.289.11.526.543.526.963 0 .935.668 2.254 1.34 2.647.275.16.499.857.499 1.548v1.257H17.286c-12.698 0-13.611-.042-13.652-.637-.076-1.114.083-1.63.801-2.603.385-.522.745-1.343.8-1.825.053-.482.47-1.253.925-1.714.53-.536.828-1.283.828-2.073 0-.697.308-1.589.707-2.044.39-.444.82-1.471.959-2.282.138-.812.648-2.053 1.132-2.76.484-.706.88-1.65.88-2.095 0-.446.358-1.262.796-1.814.438-.551.834-1.598.881-2.326.114-1.784.068-1.65.907-2.61.41-.467.824-1.23.92-1.694l.353-1.711c.1-.477.506-.951.903-1.054.715-.185.862-.558 1.312-3.317.288-1.765.832-1.33 1.098.879zm86.435-.468c.317 2.349.428 2.62 1.182 2.897.913.334 1.191.84 1.198 2.184.003.733.347 1.53.925 2.149.506.54.936 1.081.956 1.202.02.121.07.916.112 1.767.048.987.309 1.716.72 2.014.354.256.81 1.2 1.013 2.096.204.896.67 1.957 1.038 2.357.367.401.785 1.385.928 2.186.143.801.527 1.751.853 2.111.326.36.627 1.146.669 1.748.131 1.878.493 2.824 1.159 3.035.413.13.658.6.683 1.311.022.61.38 1.472.796 1.916.759.81.944 1.355.863 2.538-.041.595-.954.637-13.652.637H90.106v-1.286c0-.804.206-1.365.549-1.495.301-.115.753-.884 1.002-1.71.25-.826.748-1.793 1.107-2.148.359-.356.664-.933.678-1.284.07-1.75.355-2.752.897-3.145.329-.237.689-1.164.8-2.059.111-.894.425-1.803.697-2.02.608-.485 1.406-2.344 1.293-3.012-.046-.27.354-1.117.888-1.882.535-.764.928-1.69.874-2.058-.14-.947.365-2.263 1.177-3.067.381-.378.799-1.34.928-2.137.154-.957.531-1.642 1.108-2.017.511-.331.875-.924.875-1.424 0-1.354.431-3.134.759-3.134.164 0 .404.779.533 1.73zm-44.69 5.899c0 7.256.631 9.575.828 3.04.065-2.161.129-.16.142 4.449.012 4.608-.047 7.925-.131 7.37-.085-.554-.308-.913-.497-.798-.194.119-.345 3.489-.348 7.747-.003 4.237-.162 7.777-.362 8.084-.233.357-.359-5.87-.363-17.94-.003-12.087.122-18.488.363-18.488.231 0 .367 2.421.367 6.536zm-44.25-4.282c-.118.29-.205.204-.223-.22-.016-.384.071-.599.193-.478.122.12.136.435.03.698zm90.473 0c-.117.29-.204.204-.222-.22-.016-.384.071-.599.193-.478.122.12.136.435.029.698zm-45.233 21.69c-.093.355-.176.153-.183-.448-.008-.601.069-.89.17-.644.1.246.106.738.013 1.093zm-31.587 1.019c-.114.112-.32-.09-.457-.45-.2-.519-.158-.56.206-.204.251.248.364.542.25.654zm63.456-.358c-.12.309-.297.484-.393.388-.097-.095-.066-.348.067-.562.363-.581.575-.468.326.174zM60.58 77.5c-.085.551-.154.1-.154-1.001 0-1.102.07-1.553.153-1.002.085.55.085 1.453 0 2.004zM2.573 81.78c0 .101-.33.51-.735.912-.714.707-.736.708-.736.03 0-.384.207-.78.46-.882.634-.253 1.011-.276 1.011-.06zm30.453.256c.242.24.436.69.43 1.002-.01.464-.078.452-.386-.073-.206-.35-.625-.638-.93-.638-.305 0-.453-.164-.328-.364.3-.482.676-.46 1.214.073zm55.976-.24c0 .109-.331.55-.736.98-.542.577-.735.64-.735.24 0-.299.199-.74.441-.98.457-.452 1.03-.586 1.03-.24zm30.452.24c.243.24.442.65.442.91 0 .304-.264.213-.736-.254-.404-.401-.735-.811-.735-.911 0-.333.582-.189 1.029.255zM17.102 83.77c1.523.187 1.808.289.92.327-1.851.08-4.102.76-3.85 1.164.118.19 1.949.345 4.068.345 3.976 0 5.666.504 5.666 1.69 0 .925-1.935 1.288-7.958 1.492-5.477.186-5.992.148-6.68-.489-.711-.657-.717-.727-.114-1.462.348-.425 1.03-.898 1.515-1.05.485-.153 1.108-.501 1.385-.776.425-.421.202-.502-1.454-.527l-1.957-.03 1.655-.47c1.907-.54 3.69-.596 6.804-.213zm14.762-.067c-.097.156-1.141.308-2.32.338-1.48.039-1.916-.041-1.409-.257.928-.395 3.966-.46 3.729-.08zm72.218.066c1.574.216 1.737.29.736.332-2.015.087-4.046.48-4.046.784 0 .151 1.779.34 3.954.418 4.16.15 6.138.84 5.901 2.06-.164.844-1.763 1.12-8.053 1.385-5.415.23-5.779.203-6.437-.478-.878-.908-1.034-1.571-.37-1.571.282 0 .608-.246.725-.547.116-.3.547-.546.959-.546.41 0 .747-.164.747-.364 0-.2.258-.365.573-.365 1.119 0 .1-.729-1.055-.754-.99-.022-1.058-.075-.438-.339.897-.382 4.074-.389 6.804-.015zm14.235-.12c-.347.343-3.201.4-3.201.063 0-.16.772-.292 1.716-.292s1.612.103 1.485.229zM6.15 85.966c.651.587 1.29 1.484 1.419 1.993.196.775.106.925-.554.925-.584 0-.997-.45-1.587-1.73-.44-.952-.861-1.853-.937-2.004-.309-.608.544-.189 1.659.816zm87.09.227c1.23 1.219 1.602 2.693.676 2.686-1.05-.009-1.434-.395-2.275-2.293-.767-1.73-.768-1.748-.04-1.52.405.128 1.142.635 1.64 1.127zm-64.445 1.325c-.478.814-1.02 1.222-1.735 1.304l-1.039.12.895-.849c.792-.751 2.098-1.677 2.448-1.737.07-.012-.187.51-.57 1.162zm86.573 0c-.388.946-.726 1.207-1.684 1.3l-1.198.117 1.039-1.064c.864-.886 1.407-1.252 2.235-1.508.051-.016-.125.504-.392 1.155zM64.362 91.07c0 .2-.176.364-.39.364-.214 0-.287-.164-.162-.364.125-.2.3-.364.39-.364.089 0 .162.164.162.364zm-5.237.25c-.351.091-1.013.095-1.47.008-.458-.088-.17-.162.638-.166.81-.004 1.184.067.832.158zm-2.487 2.664c-.303.194-.717.353-.92.353-.201 0-.119-.159.185-.353.303-.194.717-.353.92-.353.202 0 .119.159-.185.353zm4.314-.144c-.122.12-.44.134-.705.029-.293-.117-.206-.203.222-.22.388-.016.605.07.483.19zm4.327.14c.128.206-.02.268-.346.143-.638-.242-.754-.503-.225-.503.19 0 .447.162.57.36zm-4.463 2.558c-.028.496.262 1.688.644 2.648.382.961.695 2.248.695 2.862 0 1.226-.997 3.593-1.513 3.593-.18 0-.326.246-.326.547 0 .3-.094.546-.21.546-.346 0-1.1-.865-1.371-1.571-.139-.364-.402-.57-.584-.458-.516.316-.816-.855-.562-2.196.206-1.089.15-1.197-.545-1.064-1.118.213-.973-.169.882-2.321 1-1.16 1.654-2.28 1.654-2.828 0-.67.17-.875.644-.783.424.082.626.432.592 1.025zm2.326 1.157c-.117.29-.205.205-.222-.22-.016-.384.07-.599.193-.478.122.121.135.436.029.698zm-2.926 9.623c-.122.121-.44.134-.704.029-.294-.116-.207-.202.222-.22.388-.016.605.07.482.191zm-.82 1.966c-1.01.43-1.591.43-.919 0 .304-.194.8-.344 1.104-.333.363.013.3.126-.184.333zm-1.287 2.691c0 .077-.487.212-1.083.298-.597.087-1 .024-.898-.141.182-.292 1.981-.435 1.981-.157zm-.398 2.275c.084.074-1.322.122-3.126.108-2-.015-2.993-.137-2.544-.312.68-.266 5.324-.099 5.67.204zm12.137.003c.084.072-.371.131-1.011.131-.641 0-1.165-.167-1.165-.371 0-.327 1.736-.135 2.176.24zm-13.033 2.408c-.246.664.403 1.504.917 1.189.243-.148.36-.579.26-.957-.142-.537.018-.688.728-.688.73 0 .866.139.687.698-.124.384-.052.803.159.932.74.454.368.83-1.04 1.052-.783.124-1.9.478-2.483.785-.707.374-1.915.539-3.634.496-2.967-.074-3.594-.232-3.226-.814.145-.229.285-.581.31-.781.025-.2.07-.546.102-.769.032-.236.463-.328 1.032-.22.853.161.95.086.77-.597-.198-.751-.091-.782 2.69-.782 2.161 0 2.853.116 2.727.456zm-4.774.273c-.308.493.107 1.093.757 1.093.597 0 .621-.07.307-.881-.254-.655-.729-.75-1.064-.212zm2.456.243c.178.914 1.038 1.039 1.038.151 0-.447-.238-.758-.579-.758-.342 0-.53.247-.46.607zm7.445 1.182c-.208.206-1.233-1.125-1.238-1.607-.002-.201.312.043.699.541.386.498.628.977.54 1.066zm10.513 1.124c-.648.396-2.135-.01-2.383-.652a.727.727 0 01.343-.891c.312-.172.567-.574.567-.893 0-.322.42.034.945.8.648.947.814 1.46.528 1.636zm.49 2.123c-1.267.162-1.489-.174-.647-.979.689-.659.718-.657 1.14.092.387.685.333.781-.493.887zm-22.191-.212c0 .152-.746.275-1.658.275-1.51 0-1.621-.059-1.242-.66.355-.563.598-.604 1.658-.275.683.212 1.242.509 1.242.66zm6.16.162a3.036 3.036 0 01-1.287 0c-.354-.091-.065-.166.643-.166s.998.075.644.166zm-2.842 1.935c.536.84.44 1.829-.155 1.603-.283-.108-.624-.021-.757.193-.15.242-1.934.39-4.696.39-2.45 0-4.329-.123-4.177-.274.152-.15.386-.283.52-.295.517-.046 3.005-1.226 3.005-1.423 0-.115-.414-.105-.92.02-.669.167-.92.083-.92-.307 0-.792 7.59-.705 8.1.093zm4.497-.488a1.42 1.42 0 01-.92 0c-.252-.1-.045-.183.46-.183.506 0 .713.083.46.183zm18.13.231c.025.041.848 1.222 1.83 2.625 1.183 1.688 1.463 2.261.828 1.695-.756-.674-1.2-.803-2.093-.609-.657.143-1.133.098-1.133-.106 0-.194.272-.33.604-.302.332.028.677-.154.766-.405.11-.309-.256-.455-1.134-.455-.713 0-1.394-.157-1.514-.349-.12-.191-.501-.258-.849-.148-.382.122-.476.08-.237-.107.763-.594.877-1.553.234-1.96-.484-.305-.25-.346 1.012-.175.903.122 1.662.255 1.686.296zm-9.297 1.301c.31.308-.023.413-1.312.413-.95 0-1.728.164-1.728.364 0 .474-6.983.474-7.724 0-.425-.272-.437-.354-.052-.359.31-.003.411-.231.267-.603-.21-.541.253-.58 4.95-.413 3.127.112 5.347.349 5.599.598zm-23.268.049c0 .2-.176.364-.39.364-.214 0-.287-.164-.162-.364.125-.201.3-.365.39-.365.089 0 .162.164.162.365zm-1.68 2.787c-.492.451-.895.992-.895 1.202 0 .21-.161.382-.358.382-.198 0 .087-.731.631-1.624.617-1.012 1.09-1.465 1.253-1.202.147.236-.13.782-.631 1.242zm3.79-.347c.106.319-.151.353-.955.125-.605-.172-1.195-.219-1.312-.103-.116.115-.211.008-.211-.239 0-.582 2.28-.383 2.478.217zm6.431.201c-.206.779-.818.847-.818.091 0-.83-.622-.653-.859.246-.134.509.013.952.41 1.24.534.387.481.422-.38.259-.551-.104-.925-.311-.832-.459.092-.149.328-.687.524-1.197.428-1.118 2.247-1.286 1.955-.18zm1.849-.579a1.42 1.42 0 01-.92 0c-.253-.101-.046-.183.46-.183.505 0 .713.082.46.183zm1.746.345c0 .078-.248.143-.551.143-.304 0-.552-.159-.552-.353 0-.194.248-.259.552-.143.303.115.551.274.551.353zm3.878-.298c-.298.296-2.712.34-3.172.058-.242-.148.413-.26 1.454-.25 1.04.011 1.814.097 1.718.192zm2.467-.047a1.42 1.42 0 01-.92 0c-.252-.101-.046-.183.46-.183s.713.082.46.183zm-14.803.488c0 .2.48.364 1.068.364.888 0 1.037.123.877.729-.132.497-.499.726-1.161.723-.76-.005-.85-.082-.417-.359.46-.295.43-.362-.184-.402-.404-.027-.86-.03-1.011-.005-.334.052-.343-.089-.053-.838.247-.636.88-.789.88-.212zm-3.31 1.093l.848.728h-.998c-.571 0-.9-.155-.77-.364.125-.201-.072-.367-.438-.37-.564-.005-.581-.059-.114-.359a9.73 9.73 0 01.588-.359c.02-.003.417.323.883.724zm13.875-.509c-.122.121-.439.134-.704.029-.294-.116-.206-.203.222-.22.388-.016.605.07.482.191zm21.332 1.093c-.258.255-1.372-.262-1.372-.636 0-.186.345-.155.768.068.421.224.693.479.604.568z" fill="#232316"/></svg>