<svg width="48" height="32" fill="none" xmlns="http://www.w3.org/2000/svg"><path fill-rule="evenodd" clip-rule="evenodd" d="M47.346 31.361a.5.5 0 01-.707-.015L24 7.723 1.361 31.346a.5.5 0 11-.722-.692L24 6.277l23.361 24.377a.5.5 0 01-.015.707z" fill="#A0862F"/><path d="M1.324.838l21.953 22.909a1 1 0 001.444 0L46.675.838A.2.2 0 0046.531.5H1.468a.2.2 0 00-.144.338z"/><path fill-rule="evenodd" clip-rule="evenodd" d="M2.172 1l21.467 22.4a.5.5 0 00.722 0L45.83 1H2.172zM46.315.492v.001zM.964 1.184A.7.7 0 011.469 0h45.063a.7.7 0 01.505 1.184L25.083 24.093a1.5 1.5 0 01-2.166 0L.964 1.184z" fill="#A0862F"/><path fill-rule="evenodd" clip-rule="evenodd" d="M6.44 14.083a.5.5 0 01.5-.5h6.582V7a.5.5 0 011 0v7.583H6.94a.5.5 0 01-.5-.5z" fill="#A0862F"/><path fill-rule="evenodd" clip-rule="evenodd" d="M6.52 10.375a.5.5 0 01.5-.5h2.937V6.938a.5.5 0 011 0v3.937H7.02a.5.5 0 01-.5-.5zm35.04 3.708a.5.5 0 00-.5-.5h-6.582V7a.5.5 0 00-1 0v7.583h7.582a.5.5 0 00.5-.5z" fill="#A0862F"/><path fill-rule="evenodd" clip-rule="evenodd" d="M41.48 10.375a.5.5 0 00-.5-.5h-2.937V6.938a.5.5 0 00-1 0v3.937h3.937a.5.5 0 00.5-.5z" fill="#A0862F"/><rect x=".5" y=".5" width="47" height="31" rx=".5" stroke="#A0862F"/></svg>