<svg width="1920" height="800" viewBox="0 0 1920 800" fill="none" xmlns="http://www.w3.org/2000/svg">
<path fill-rule="evenodd" clip-rule="evenodd" d="M0 0H1920V21.0241C1838.95 11.7145 1687.8 4.27705 1605.31 36.0961C1493.48 79.2385 1466.2 116.459 1545.31 190.055C1606.27 246.774 1813.32 346.253 1920 393.804V491C1916.26 490.817 1907.93 490.088 1895.89 489.034C1824.81 482.812 1624.51 465.28 1477.77 482.099C1302.14 502.228 1025.76 562.618 1209.7 698.307C1354.96 805.455 1739.12 784.854 1920 760.403V800H0V492.734L0.637611 507C47.7377 502.502 136.468 474.122 114.59 396.588C94.7536 326.293 35.1189 286.99 0 272.645V0ZM369.563 557.058C395.825 523.058 387.938 500.558 380.712 493.558C331.162 430.058 175.077 477.058 81.5496 557.058C-11.9774 637.058 63.5874 760.058 164.547 773.558C242.507 783.983 302.739 674.556 341.251 604.589C352.613 583.947 362.085 566.74 369.563 557.058ZM355.841 313.268C338.432 263.329 342.087 260.04 366.107 238.425L366.107 238.424C368.887 235.923 371.94 233.175 375.264 230.082C281.058 27.6114 569.501 135.125 705.466 215.172C841.431 295.218 1110.45 612.266 1149.29 671.123C1188.14 729.981 1176.49 781.776 1017.21 780.991C882.133 780.326 793.856 713.616 677.732 625.864L677.731 625.863L677.728 625.861C656.932 610.146 635.244 593.757 612.233 576.951C460.73 466.298 375.264 368.987 355.841 313.268ZM143.821 66.1556C126.909 78.1735 84.2429 108.492 80.0327 156.499C75.0777 212.999 77.5552 256.499 106.047 269.999C134.539 283.499 190.283 274.499 208.245 215.499C226.207 156.499 215.677 84.4987 192.76 67.4987C174.426 53.8987 156.63 57.832 150.023 61.4987C148.999 62.4758 146.813 64.0293 143.821 66.1556ZM1224.01 400.059C1275.04 398.459 1291.11 430.059 1292.76 446.059C1292.76 454.725 1289.91 475.359 1278.51 488.559C1264.27 505.059 1207.28 517.559 1165.79 486.059C1124.29 454.559 1160.21 402.059 1224.01 400.059ZM1437.95 172.146C1440.42 208.088 1354.6 238.705 1311.39 249.521C1297.67 256.732 1254.18 275.313 1189.97 291.953C1143.54 303.985 1132.93 346.09 1123.46 383.634C1116.56 410.988 1110.28 435.921 1091.19 445.038C1045.92 466.67 976.982 366 978.011 266.993C979.04 167.986 1053.12 143.859 1209.52 100.595C1365.92 57.3318 1434.86 127.219 1437.95 172.146Z" fill="#F4F1EC"/>
</svg>
