<svg width="375" height="800" viewBox="0 0 375 800" fill="none" xmlns="http://www.w3.org/2000/svg">
<path fill-rule="evenodd" clip-rule="evenodd" d="M375 0H0V108.017C14.8735 87.4364 34.5739 73.437 44.8205 66.1556L44.8206 66.1556C47.8128 64.0293 49.9989 62.4758 51.0231 61.4987C57.6297 57.832 75.4265 53.8987 93.7602 67.4987C116.677 84.4987 127.207 156.499 109.245 215.499C91.2827 274.499 35.5385 283.499 7.04685 269.999C4.49342 268.789 2.14893 267.338 0 265.658V328.242C130.786 453.421 277.396 628.854 305.295 671.123C344.142 729.981 332.488 781.776 173.215 780.991C107.203 780.666 52.3689 764.569 0 737.952V800H375V704.78C371.802 702.676 368.702 700.518 365.703 698.307C269.315 627.205 299.324 576.779 375 541.987V505.281C357.255 504.158 338.295 498.59 321.785 486.059C281.385 455.392 314.363 404.824 375 400.322V283.919C365.873 286.611 356.185 289.306 345.974 291.953C299.544 303.985 288.928 346.09 279.461 383.634C272.564 410.988 266.277 435.921 247.195 445.038C201.921 466.67 132.982 366 134.011 266.993C135.04 167.986 209.124 143.859 365.523 100.595C368.718 99.7113 371.877 98.8746 375 98.084V0Z" fill="#F4F1EC"/>
</svg>
