<svg width="907" height="906" viewBox="0 0 907 906" fill="none" xmlns="http://www.w3.org/2000/svg">
<path d="M365.086 47.9954C364.585 44.8348 364.704 41.7705 365.443 38.8023C366.218 35.7853 367.474 33.0809 369.212 30.689C370.985 28.2482 373.165 26.1966 375.753 24.534C378.382 22.8648 381.278 21.7799 384.438 21.2793C387.599 20.7787 390.667 20.9193 393.642 21.7008C396.659 22.4758 399.367 23.7532 401.766 25.5332C404.2 27.2644 406.252 29.4449 407.922 32.0748C409.585 34.6625 410.667 37.5367 411.168 40.6972C411.668 43.8578 411.532 46.9465 410.757 49.9635C409.976 52.9383 408.699 55.6461 406.925 58.0869C405.188 60.4788 403.004 62.5094 400.374 64.1786C397.787 65.8412 394.913 66.9227 391.752 67.4233C388.591 67.9239 385.502 67.7867 382.485 67.0118C379.51 66.2302 376.806 64.9738 374.371 63.2426C371.972 61.4626 369.941 59.2787 368.278 56.691C366.651 54.0545 365.587 51.1559 365.086 47.9954ZM369.764 47.2545C370.164 49.783 371.005 52.0905 372.286 54.1771C373.61 56.2571 375.227 58.0097 377.137 59.4351C379.083 60.8116 381.25 61.8076 383.637 62.4231C386.024 63.0386 388.482 63.1461 391.011 62.7457C393.539 62.3452 395.843 61.4835 397.923 60.1606C400.003 58.8376 401.734 57.2242 403.117 55.3205C404.536 53.3679 405.553 51.1981 406.168 48.8111C406.783 46.4242 406.891 43.9665 406.49 41.438C406.089 38.9096 405.227 36.6054 403.904 34.5255C402.581 32.4455 400.946 30.7173 399 29.3408C397.089 27.9154 394.94 26.895 392.553 26.2795C390.166 25.664 387.708 25.5565 385.18 25.9569C382.651 26.3574 380.347 27.2191 378.267 28.542C376.187 29.865 374.438 31.5028 373.02 33.4554C371.636 35.3591 370.637 37.5045 370.022 39.8914C369.449 42.2717 369.363 44.7261 369.764 47.2545Z" fill="#255244"/>
<path d="M459.808 42.8672C459.889 45.5113 459.453 48.0217 458.501 50.3984C457.591 52.7739 456.289 54.8624 454.594 56.6641C452.898 58.4658 450.894 59.9141 448.579 61.009C446.306 62.0599 443.826 62.6263 441.139 62.708C438.453 62.7897 435.922 62.3758 433.546 61.4663C431.212 60.5128 429.144 59.1884 427.342 57.4931C425.541 55.7978 424.092 53.7929 422.997 51.4784C421.945 49.1627 421.379 46.6828 421.298 44.0386L420.564 19.9218C420.543 19.2395 420.761 18.6779 421.217 18.2372C421.672 17.7538 422.219 17.5024 422.859 17.4829C423.541 17.4622 424.103 17.6799 424.543 18.136C425.026 18.5482 425.277 19.0955 425.298 19.7778L426.032 43.8946C426.093 45.8991 426.513 47.7858 427.293 49.5549C428.114 51.2801 429.205 52.7836 430.568 54.0654C431.929 55.3046 433.495 56.2815 435.267 56.9959C437.081 57.7091 438.991 58.0352 440.995 57.9742C443 57.9132 444.865 57.4723 446.59 56.6515C448.357 55.8294 449.862 54.7591 451.102 53.4408C452.384 52.0785 453.382 50.5115 454.096 48.7396C454.81 46.9251 455.136 45.0156 455.075 43.0112L454.34 18.8944C454.32 18.212 454.516 17.6511 454.929 17.2117C455.384 16.7283 455.953 16.4762 456.635 16.4555C457.318 16.4347 457.879 16.6524 458.32 17.1086C458.802 17.5208 459.053 18.068 459.074 18.7504L459.808 42.8672Z" fill="#255244"/>
<path d="M509.858 60.3365C510.496 60.3947 511.027 60.6788 511.451 61.1889C511.876 61.6989 512.059 62.2726 512.001 62.91C511.943 63.5473 511.659 64.0783 511.149 64.503C510.638 64.9278 510.065 65.111 509.427 65.0528L507.324 64.8607C506.049 64.7443 504.893 64.5102 503.854 64.1582C502.861 63.7677 501.973 63.1724 501.189 62.3725C500.452 61.534 499.824 60.427 499.308 59.0517C498.794 57.6338 498.422 55.8432 498.192 53.6799C497.915 51.5553 497.608 49.7493 497.273 48.2619C496.938 46.7746 496.428 45.5499 495.745 44.5878C495.104 43.6295 494.228 42.9068 493.115 42.4196C492.046 41.9363 490.661 41.6171 488.961 41.4619L476.724 40.3444L474.971 59.5285C474.909 60.2083 474.623 60.7606 474.113 61.1853C473.649 61.5714 473.077 61.7334 472.397 61.6713C471.76 61.6131 471.227 61.3502 470.799 60.8827C470.374 60.3726 470.193 59.7776 470.255 59.0978L473.901 19.2001C473.959 18.5627 474.222 18.0298 474.69 17.6012C475.2 17.1765 475.774 16.9932 476.411 17.0514L492.026 18.4773C493.598 18.6209 495.058 19.0541 496.406 19.777C497.754 20.4999 498.889 21.4391 499.812 22.5944C500.777 23.7537 501.493 25.0615 501.959 26.518C502.426 27.9745 502.586 29.51 502.438 31.1246C502.248 33.2066 501.573 34.9659 500.413 36.4024C499.3 37.8003 497.897 38.8504 496.205 39.5527C498.391 40.4807 499.992 41.955 501.007 43.9757C502.068 45.9578 502.75 48.8049 503.054 52.5173C503.257 54.978 503.687 56.8381 504.343 58.0976C505.046 59.3186 506.225 60.0047 507.883 60.156L509.858 60.3365ZM490.54 36.8503C492.452 37.0249 494.082 36.5311 495.431 35.369C496.783 34.1643 497.547 32.606 497.722 30.6939C497.807 29.7592 497.696 28.8707 497.387 28.0284C497.125 27.1476 496.704 26.3594 496.125 25.6639C495.588 24.9722 494.911 24.4176 494.092 24.0001C493.32 23.544 492.466 23.2732 491.531 23.1879L478.402 21.9889L477.155 35.6281L490.54 36.8503Z" fill="#255244"/>
<path d="M554.825 30.7835C555.015 30.1277 555.374 29.6541 555.902 29.3627C556.483 29.0421 557.081 28.9706 557.696 29.1483L589.853 38.4394C590.509 38.6289 590.976 39.0083 591.256 39.5776C591.588 40.1178 591.66 40.7158 591.47 41.3716C591.28 42.0274 590.895 42.5156 590.314 42.8361C589.785 43.1276 589.193 43.1786 588.537 42.9891L574.765 39.0097L564.294 75.2221C564.104 75.8779 563.718 76.3661 563.137 76.6867C562.609 76.9781 562.017 77.0291 561.361 76.8396C560.746 76.662 560.272 76.3031 559.94 75.7629C559.619 75.1818 559.554 74.5633 559.744 73.9075L570.215 37.695L556.381 33.6979C555.766 33.5202 555.292 33.1613 554.96 32.6212C554.68 32.0519 554.635 31.4393 554.825 30.7835Z" fill="#255244"/>
<path d="M600.038 44.5823C600.29 43.9476 600.712 43.5182 601.305 43.2942C601.915 43.0305 602.517 43.0164 603.112 43.2519L619.299 49.657C619.934 49.9082 620.363 50.3305 620.587 50.9238C620.866 51.4932 620.88 52.0953 620.629 52.73C620.377 53.3647 619.947 53.8139 619.338 54.0775C618.784 54.3173 618.19 54.3115 617.555 54.0603L603.57 48.5265L598.527 61.2604L616.202 68.2542C616.837 68.5054 617.266 68.9276 617.49 69.521C617.769 70.0904 617.783 70.6924 617.532 71.3271C617.281 71.9618 616.85 72.411 616.241 72.6747C615.687 72.9144 615.093 72.9087 614.458 72.6575L596.784 65.6637L590.563 81.3727L612.224 89.9443C612.82 90.1798 613.249 90.602 613.513 91.2111C613.792 91.7805 613.806 92.3825 613.554 93.0172C613.303 93.6519 612.873 94.1011 612.264 94.3648C611.67 94.5888 611.076 94.5831 610.481 94.3476L586.677 84.9283L586.617 84.9047C586.022 84.6693 585.585 84.2668 585.305 83.6974C585.042 83.0884 585.036 82.4665 585.287 81.8318L600.038 44.5823Z" fill="#255244"/>
<path d="M617.528 96.7723C617.162 96.1901 617.044 95.5953 617.175 94.988C617.325 94.3431 617.673 93.8274 618.218 93.4409L656.001 68.0379C656.312 67.817 656.669 67.6928 657.07 67.6652C657.492 67.5999 657.91 67.6777 658.324 67.8985C658.738 68.1193 659.036 68.4229 659.216 68.8094C659.417 69.1582 659.512 69.5233 659.502 69.9047L659.444 115.421C659.426 116.089 659.192 116.665 658.74 117.149C658.308 117.596 657.748 117.829 657.06 117.849C656.43 117.852 655.873 117.627 655.389 117.176C654.962 116.707 654.749 116.109 654.749 115.384L654.755 97.8354L635.384 87.5075L620.864 97.3179C620.262 97.7219 619.628 97.8675 618.963 97.7546C618.355 97.6242 617.877 97.2967 617.528 96.7723ZM654.799 74.5049L639.872 84.5336L654.782 92.4827L654.799 74.5049Z" fill="#255244"/>
<path d="M687.46 87.2582C687.857 86.703 688.353 86.3759 688.949 86.2771C689.603 86.1683 690.191 86.3 690.712 86.6722C691.024 86.8955 691.24 87.1808 691.359 87.528C691.537 87.8653 691.668 88.1951 691.752 88.5175L697.713 111.974L722.151 109.934C722.816 109.885 723.408 110.046 723.929 110.418C724.484 110.815 724.799 111.329 724.873 111.959C724.972 112.554 724.823 113.129 724.425 113.684L701.114 146.268C700.717 146.823 700.191 147.155 699.536 147.264C698.94 147.363 698.365 147.214 697.81 146.817C697.289 146.444 696.962 145.948 696.828 145.328C696.72 144.674 696.864 144.069 697.261 143.514L717.445 115.302L698.03 116.921C695.346 117.153 693.662 115.949 692.979 113.311L688.184 94.3847L668.001 122.596C667.604 123.151 667.078 123.483 666.423 123.592C665.827 123.691 665.252 123.542 664.697 123.145C664.176 122.773 663.849 122.277 663.715 121.657C663.607 121.002 663.751 120.397 664.148 119.842L687.46 87.2582Z" fill="#255244"/>
<path d="M764.496 203.581L804.456 194.641C805.164 194.484 805.777 194.576 806.296 194.919C806.874 195.266 807.23 195.747 807.364 196.363C807.494 197.038 807.371 197.649 806.996 198.195C806.653 198.713 806.158 199.053 805.51 199.215L761.023 209.167C760.653 209.259 760.275 209.245 759.891 209.125C759.507 209.005 759.162 208.766 758.857 208.41C758.551 208.053 758.369 207.676 758.309 207.278C758.249 206.88 758.293 206.506 758.441 206.154L766.688 185.189L744.698 190.117C744.327 190.21 743.95 190.196 743.566 190.075C743.182 189.955 742.837 189.716 742.532 189.36C742.226 189.004 742.043 188.626 741.983 188.228C741.923 187.831 741.967 187.456 742.116 187.104L758.783 144.689C759.043 144.074 759.455 143.637 760.019 143.378C760.617 143.091 761.239 143.064 761.887 143.295C762.475 143.522 762.882 143.932 763.109 144.524C763.396 145.121 763.407 145.757 763.143 146.433L748.171 184.531L768.73 179.902L775.108 163.739C775.368 163.124 775.78 162.687 776.345 162.428C776.942 162.141 777.564 162.114 778.212 162.345C778.8 162.572 779.207 162.982 779.434 163.574C779.721 164.171 779.732 164.807 779.468 165.483L774.271 178.696L788.131 175.591C788.839 175.434 789.452 175.526 789.97 175.869C790.549 176.216 790.905 176.698 791.039 177.313C791.169 177.989 791.046 178.599 790.671 179.145C790.328 179.663 789.833 180.003 789.185 180.165L772.187 183.935L764.496 203.581Z" fill="#255244"/>
<path d="M811.628 208.441C812.193 208.058 812.783 207.94 813.4 208.089C814.052 208.214 814.558 208.54 814.918 209.07C815.302 209.634 815.419 210.225 815.271 210.842C815.182 211.469 814.855 211.975 814.29 212.359L781.145 234.865C780.58 235.248 779.971 235.378 779.319 235.253C778.726 235.14 778.238 234.801 777.855 234.236C777.495 233.707 777.36 233.128 777.449 232.5C777.573 231.849 777.918 231.331 778.483 230.947L811.628 208.441Z" fill="#255244"/>
<path d="M822.434 224.734C823.024 224.392 823.622 224.317 824.227 224.509C824.868 224.68 825.349 225.042 825.67 225.595C826.013 226.186 826.088 226.784 825.896 227.388C825.762 228.008 825.4 228.489 824.809 228.831L792.19 247.726L803.874 267.88C804.195 268.434 804.27 269.031 804.1 269.673C803.966 270.293 803.604 270.774 803.013 271.116C802.422 271.458 801.806 271.544 801.165 271.373C800.56 271.181 800.097 270.808 799.776 270.254L786.937 248.107L786.905 248.051C786.584 247.498 786.49 246.911 786.624 246.291C786.795 245.65 787.175 245.158 787.766 244.816L822.434 224.734Z" fill="#255244"/>
<path d="M842.316 260.592C842.937 260.308 843.539 260.29 844.122 260.538C844.745 260.769 845.189 261.175 845.456 261.757C845.741 262.377 845.759 262.979 845.511 263.563C845.319 264.167 844.913 264.612 844.292 264.896L810.03 280.615L819.751 301.786C820.018 302.368 820.036 302.97 819.805 303.592C819.613 304.197 819.207 304.641 818.586 304.926C817.966 305.211 817.344 305.237 816.722 305.007C816.138 304.758 815.713 304.343 815.446 303.761L804.764 280.496L804.737 280.438C804.47 279.857 804.433 279.264 804.625 278.659C804.855 278.037 805.281 277.583 805.901 277.299L842.316 260.592Z" fill="#255244"/>
<path d="M850.677 336.974C848.197 337.606 845.977 338.657 844.018 340.125C842.069 341.634 840.474 343.406 839.231 345.44C838.041 347.505 837.25 349.754 836.858 352.188C836.466 354.621 836.587 357.078 837.219 359.559C837.779 361.75 838.657 363.727 839.856 365.491C841.096 367.245 842.526 368.707 844.146 369.879C844.676 370.229 844.978 370.724 845.054 371.365C845.14 372.048 844.987 372.659 844.597 373.199C844.196 373.698 843.674 373.985 843.033 374.06C842.444 374.166 841.858 374.029 841.277 373.649C839.231 372.189 837.442 370.356 835.91 368.148C834.42 365.931 833.326 363.457 832.63 360.729C831.839 357.628 831.69 354.54 832.182 351.464C832.685 348.43 833.685 345.621 835.184 343.038C836.734 340.485 838.72 338.261 841.143 336.366C843.618 334.503 846.406 333.175 849.506 332.385C852.607 331.594 855.67 331.43 858.694 331.892C861.77 332.384 864.579 333.385 867.122 334.895C869.717 336.435 871.961 338.416 873.857 340.839C875.762 343.303 877.111 346.086 877.902 349.186C878.598 351.915 878.803 354.615 878.516 357.286C878.27 359.946 877.599 362.407 876.502 364.668C876.174 365.28 875.705 365.686 875.095 365.885C874.538 366.116 873.963 366.108 873.372 365.862C872.771 365.575 872.344 365.112 872.093 364.471C871.852 363.872 871.88 363.293 872.177 362.733C873.038 360.928 873.572 358.965 873.779 356.842C874.027 354.71 873.872 352.548 873.313 350.356C872.68 347.876 871.608 345.661 870.098 343.713C868.588 341.764 866.796 340.174 864.72 338.942C862.696 337.74 860.467 336.944 858.033 336.551C855.61 336.201 853.158 336.341 850.677 336.974Z" fill="#255244"/>
<path d="M839.205 382.767C839.469 382.132 839.886 381.692 840.457 381.447C841.07 381.197 841.692 381.183 842.322 381.404L884.888 397.548C885.249 397.674 885.556 397.893 885.811 398.205C886.108 398.511 886.286 398.897 886.345 399.363C886.404 399.829 886.328 400.247 886.117 400.618C885.949 400.983 885.706 401.272 885.389 401.484L848.211 427.751C847.656 428.123 847.05 428.264 846.394 428.176C845.779 428.081 845.265 427.76 844.852 427.21C844.485 426.697 844.347 426.113 844.435 425.457C844.572 424.837 844.936 424.318 845.528 423.899L859.852 413.758L857.085 391.981L840.688 385.805C840.01 385.547 839.525 385.114 839.233 384.506C838.988 383.935 838.979 383.355 839.205 382.767ZM878.916 400.306L862.106 393.924L864.235 410.685L878.916 400.306Z" fill="#255244"/>
<path d="M886.841 428.358C887.524 428.348 888.082 428.553 888.515 428.973C888.991 429.435 889.234 429.986 889.244 430.626L889.751 464.094C889.761 464.777 889.535 465.335 889.072 465.769C888.653 466.244 888.102 466.487 887.419 466.498C886.737 466.508 886.157 466.282 885.681 465.82C885.248 465.4 885.026 464.849 885.016 464.166L884.798 449.832L847.107 450.402C846.424 450.413 845.845 450.187 845.368 449.725C844.935 449.304 844.713 448.753 844.703 448.07C844.693 447.431 844.898 446.873 845.318 446.397C845.78 445.921 846.352 445.677 847.035 445.667L884.727 445.096L884.508 430.698C884.499 430.058 884.704 429.5 885.123 429.024C885.586 428.591 886.159 428.369 886.841 428.358Z" fill="#255244"/>
<path d="M886.78 476.098C887.46 476.155 887.993 476.435 888.379 476.938C888.808 477.445 888.995 478.017 888.942 478.655L887.489 496.002C887.432 496.683 887.151 497.216 886.648 497.602C886.184 498.034 885.611 498.221 884.931 498.165C884.251 498.108 883.696 497.826 883.268 497.319C882.878 496.858 882.712 496.288 882.769 495.607L884.025 480.62L870.376 479.477L868.79 498.419C868.733 499.099 868.452 499.632 867.949 500.018C867.485 500.45 866.912 500.638 866.232 500.581C865.552 500.524 864.997 500.242 864.569 499.735C864.179 499.275 864.013 498.704 864.07 498.024L865.657 479.082L848.82 477.673L846.875 500.887C846.821 501.525 846.541 502.058 846.034 502.487C845.57 502.919 844.998 503.106 844.317 503.049C843.637 502.993 843.083 502.711 842.654 502.204C842.268 501.7 842.102 501.13 842.155 500.492L844.293 474.982L844.298 474.918C844.351 474.28 844.61 473.745 845.075 473.313C845.582 472.884 846.175 472.699 846.855 472.756L886.78 476.098Z" fill="#255244"/>
<path d="M837.836 550.683C837.712 551.311 837.373 551.809 836.821 552.178C836.27 552.547 835.68 552.669 835.052 552.544C834.424 552.42 833.926 552.082 833.557 551.53C833.188 550.978 833.066 550.388 833.191 549.761L833.603 547.689C833.852 546.434 834.206 545.308 834.665 544.311C835.158 543.365 835.843 542.544 836.721 541.849C837.632 541.203 838.799 540.695 840.221 540.325C841.685 539.963 843.504 539.781 845.68 539.778C847.822 539.725 849.65 539.609 851.165 539.431C852.679 539.254 853.951 538.875 854.979 538.296C855.999 537.76 856.81 536.964 857.411 535.908C858.004 534.895 858.467 533.552 858.799 531.878L861.194 519.825L842.299 516.074C841.63 515.941 841.11 515.598 840.742 515.046C840.406 514.545 840.305 513.959 840.438 513.29C840.563 512.662 840.88 512.16 841.39 511.782C841.942 511.413 842.553 511.295 843.222 511.428L882.519 519.231C883.147 519.356 883.649 519.673 884.027 520.183C884.395 520.734 884.517 521.324 884.393 521.952L881.337 537.331C881.029 538.88 880.445 540.286 879.585 541.551C878.724 542.816 877.671 543.846 876.426 544.643C875.171 545.481 873.796 546.056 872.298 546.368C870.801 546.68 869.257 546.678 867.666 546.362C865.616 545.955 863.937 545.099 862.63 543.796C861.357 542.542 860.459 541.038 859.938 539.281C858.786 541.358 857.152 542.795 855.036 543.593C852.953 544.441 850.05 544.822 846.326 544.735C843.858 544.679 841.963 544.912 840.641 545.433C839.353 546.004 838.547 547.105 838.223 548.737L837.836 550.683ZM863.22 533.93C862.846 535.813 863.166 537.486 864.18 538.949C865.237 540.42 866.706 541.343 868.59 541.717C869.51 541.899 870.406 541.882 871.276 541.663C872.179 541.494 873.007 541.158 873.76 540.655C874.504 540.194 875.126 539.578 875.627 538.808C876.162 538.087 876.521 537.267 876.704 536.346L879.273 523.415L865.84 520.748L863.22 533.93Z" fill="#255244"/>
<path d="M862.664 597.934C863.297 598.19 863.732 598.596 863.967 599.151C864.226 599.762 864.236 600.364 863.996 600.957L851.444 631.987C851.188 632.62 850.763 633.046 850.168 633.266C849.596 633.541 848.994 633.551 848.361 633.295C847.728 633.039 847.282 632.606 847.023 631.995C846.787 631.439 846.798 630.845 847.053 630.212L852.429 616.922L817.48 602.796C816.847 602.54 816.401 602.107 816.142 601.496C815.906 600.941 815.917 600.347 816.173 599.714C816.413 599.12 816.818 598.686 817.39 598.411C818.001 598.152 818.623 598.15 819.256 598.406L854.205 612.532L859.605 599.183C859.845 598.589 860.251 598.155 860.822 597.88C861.417 597.66 862.032 597.678 862.664 597.934Z" fill="#255244"/>
<path d="M827.98 630.107C830.793 631.633 833.152 633.592 835.057 635.985C836.979 638.436 838.36 641.078 839.2 643.913C840.058 646.805 840.358 649.783 840.102 652.848C839.826 655.95 838.924 658.908 837.397 661.72C835.87 664.532 833.891 666.88 831.46 668.765C829.008 670.687 826.346 672.058 823.473 672.878C820.617 673.756 817.638 674.057 814.535 673.781C811.469 673.526 808.53 672.635 805.718 671.109C802.905 669.583 800.537 667.595 798.615 665.144C796.73 662.714 795.359 660.053 794.502 657.16C793.662 654.326 793.38 651.358 793.657 648.256C793.913 645.191 794.805 642.252 796.331 639.44C797.858 636.628 799.848 634.261 802.299 632.338C804.731 630.454 807.374 629.073 810.23 628.195C813.102 627.375 816.071 627.093 819.137 627.348C822.22 627.661 825.168 628.581 827.98 630.107ZM825.72 634.269C823.47 633.048 821.127 632.311 818.692 632.058C816.236 631.842 813.861 632.058 811.567 632.706C809.29 633.413 807.181 634.526 805.239 636.045C803.297 637.564 801.716 639.449 800.494 641.699C799.273 643.948 798.554 646.301 798.337 648.756C798.121 651.211 798.347 653.567 799.015 655.823C799.701 658.136 800.804 660.264 802.323 662.205C803.842 664.145 805.727 665.726 807.977 666.947C810.228 668.168 812.581 668.886 815.037 669.102C817.492 669.318 819.859 669.073 822.136 668.367C824.43 667.718 826.548 666.634 828.489 665.115C830.431 663.596 832.013 661.711 833.234 659.461C834.456 657.212 835.175 654.859 835.391 652.404C835.608 649.948 835.373 647.564 834.687 645.25C834.019 642.994 832.925 640.896 831.405 638.955C829.865 637.052 827.971 635.49 825.72 634.269Z" fill="#255244"/>
<path d="M753.689 703.945C754.125 703.42 754.658 703.113 755.286 703.025C755.92 702.997 756.499 703.201 757.024 703.638L767.508 712.351L798.048 714.766C798.688 714.798 799.212 715.068 799.623 715.576C800.066 716.11 800.271 716.697 800.239 717.336C800.174 717.948 799.902 718.443 799.421 718.82C798.946 719.258 798.389 719.46 797.75 719.428L769.98 717.485L776.959 744.424C777.107 745.046 777.023 745.614 776.707 746.128C776.396 746.702 775.945 747.076 775.356 747.252C774.733 747.4 774.118 747.305 773.511 746.967C772.937 746.657 772.576 746.19 772.428 745.567L764.479 715.992L753.996 707.279C753.471 706.842 753.178 706.294 753.117 705.633C753.062 705.032 753.252 704.469 753.689 703.945Z" fill="#255244"/>
<path d="M754.067 738.231C756.263 740.559 757.893 743.156 758.957 746.024C760.019 748.951 760.507 751.893 760.421 754.848C760.333 757.863 759.69 760.786 758.49 763.618C757.26 766.479 755.481 769.008 753.153 771.203C750.825 773.399 748.212 775.012 745.314 776.045C742.385 777.106 739.428 777.578 736.442 777.461C733.455 777.405 730.531 776.761 727.668 775.531C724.835 774.332 722.321 772.569 720.124 770.242C717.928 767.915 716.299 765.287 715.237 762.359C714.204 759.462 713.732 756.506 713.819 753.491C713.905 750.536 714.564 747.628 715.794 744.767C716.993 741.935 718.757 739.422 721.085 737.226C723.413 735.031 726.042 733.402 728.971 732.341C731.869 731.309 734.811 730.821 737.798 730.878C740.783 730.995 743.693 731.653 746.526 732.852C749.357 734.111 751.871 735.904 754.067 738.231ZM750.622 741.481C748.864 739.619 746.868 738.188 744.633 737.187C742.367 736.216 740.043 735.681 737.661 735.581C735.277 735.542 732.926 735.941 730.608 736.779C728.289 737.617 726.198 738.914 724.336 740.67C722.473 742.427 721.056 744.438 720.085 746.703C719.113 748.968 718.593 751.276 718.525 753.628C718.455 756.04 718.838 758.405 719.677 760.723C720.515 763.041 721.813 765.131 723.57 766.992C725.327 768.854 727.338 770.271 729.604 771.242C731.871 772.213 734.195 772.718 736.579 772.758C738.961 772.857 741.312 772.488 743.63 771.65C745.949 770.812 748.04 769.515 749.902 767.759C751.764 766.002 753.181 763.992 754.153 761.727C755.125 759.461 755.645 757.123 755.716 754.711C755.784 752.359 755.399 750.024 754.561 747.706C753.692 745.418 752.379 743.343 750.622 741.481Z" fill="#255244"/>
<path d="M678.994 795.633C677.434 793.496 676.376 791.178 675.82 788.679C675.23 786.206 675.125 783.747 675.507 781.303C675.889 778.859 676.726 776.533 678.019 774.323C679.302 772.172 681.029 770.305 683.201 768.721C685.373 767.137 687.696 766.05 690.17 765.46C692.635 764.93 695.09 764.855 697.535 765.238C699.98 765.62 702.308 766.457 704.518 767.749C706.695 769.066 708.563 770.793 710.122 772.93L724.347 792.419C724.75 792.97 724.887 793.556 724.759 794.178C724.657 794.833 724.347 795.35 723.83 795.727C723.279 796.129 722.692 796.266 722.071 796.139C721.44 796.071 720.923 795.761 720.521 795.209L706.296 775.721C705.114 774.101 703.701 772.781 702.059 771.761C700.407 770.8 698.657 770.176 696.808 769.887C694.985 769.632 693.14 769.71 691.274 770.121C689.374 770.556 687.613 771.365 685.993 772.547C684.373 773.728 683.082 775.145 682.122 776.796C681.127 778.472 680.489 780.204 680.21 781.993C679.921 783.84 679.982 785.697 680.393 787.562C680.829 789.462 681.638 791.222 682.82 792.842L697.045 812.331C697.448 812.882 697.602 813.456 697.509 814.052C697.407 814.708 697.08 815.237 696.528 815.639C695.976 816.041 695.39 816.179 694.769 816.051C694.138 815.983 693.621 815.673 693.219 815.122L678.994 795.633Z" fill="#255244"/>
<path d="M627.31 809.621C626.751 809.931 626.152 809.995 625.514 809.812C624.875 809.629 624.401 809.258 624.091 808.698C623.78 808.138 623.716 807.54 623.899 806.902C624.082 806.264 624.453 805.79 625.013 805.479L626.86 804.455C627.98 803.835 629.068 803.378 630.125 803.085C631.166 802.849 632.235 802.842 633.333 803.063C634.415 803.341 635.556 803.904 636.758 804.75C637.98 805.634 639.295 806.905 640.703 808.564C642.127 810.164 643.397 811.485 644.511 812.526C645.625 813.567 646.736 814.293 647.842 814.704C648.911 815.136 650.042 815.241 651.236 815.018C652.393 814.816 653.717 814.301 655.21 813.474L665.957 807.517L656.613 790.671C656.282 790.074 656.207 789.457 656.39 788.819C656.556 788.239 656.938 787.783 657.535 787.452C658.095 787.142 658.683 787.06 659.301 787.205C659.939 787.388 660.424 787.778 660.755 788.375L680.19 823.41C680.5 823.969 680.582 824.558 680.437 825.175C680.254 825.813 679.883 826.287 679.323 826.597L665.609 834.199C664.228 834.964 662.777 835.427 661.256 835.587C659.735 835.748 658.268 835.61 656.855 835.173C655.404 834.758 654.076 834.079 652.871 833.137C651.665 832.196 650.669 831.016 649.883 829.598C648.869 827.77 648.437 825.936 648.588 824.096C648.721 822.315 649.29 820.658 650.295 819.126C647.965 819.588 645.812 819.269 643.836 818.169C641.843 817.127 639.676 815.157 637.337 812.259C635.784 810.339 634.382 809.043 633.131 808.37C631.863 807.756 630.501 807.852 629.046 808.659L627.31 809.621ZM656.5 818.174C654.821 819.105 653.75 820.43 653.289 822.149C652.848 823.905 653.094 825.623 654.025 827.302C654.481 828.123 655.073 828.795 655.802 829.318C656.514 829.898 657.306 830.313 658.176 830.563C659.009 830.833 659.881 830.91 660.793 830.795C661.688 830.738 662.547 830.482 663.368 830.027L674.899 823.635L668.255 811.658L656.5 818.174Z" fill="#255244"/>
<path d="M569.497 871.302C569.702 871.953 569.644 872.552 569.323 873.1C569.016 873.688 568.557 874.078 567.946 874.269C567.295 874.473 566.695 874.415 566.148 874.095C565.572 873.828 565.182 873.369 564.978 872.718L552.992 834.489C552.788 833.837 552.839 833.217 553.147 832.629C553.426 832.095 553.892 831.725 554.543 831.521C555.154 831.33 555.747 831.367 556.323 831.634C556.911 831.942 557.307 832.421 557.511 833.073L561.839 846.874L596.511 858.412L585.788 824.214C585.584 823.562 585.636 822.943 585.943 822.355C586.223 821.82 586.688 821.45 587.339 821.246C587.95 821.055 588.543 821.093 589.119 821.36C589.707 821.667 590.103 822.147 590.308 822.798L602.294 861.027C602.498 861.678 602.44 862.278 602.12 862.825C601.812 863.413 601.353 863.803 600.742 863.994C600.417 864.097 600.113 864.125 599.83 864.079C599.507 864.046 599.218 863.98 598.963 863.881L563.466 852.065L569.497 871.302Z" fill="#255244"/>
<path d="M547.713 876.738C547.841 877.409 547.714 877.997 547.333 878.504C546.959 879.053 546.458 879.387 545.83 879.507L528.728 882.759C528.058 882.886 527.469 882.759 526.962 882.378C526.421 882.046 526.087 881.545 525.959 880.875C525.832 880.204 525.954 879.594 526.328 879.046C526.667 878.547 527.172 878.234 527.843 878.106L542.618 875.297L540.058 861.842L521.384 865.393C520.714 865.52 520.125 865.393 519.618 865.012C519.077 864.681 518.743 864.18 518.615 863.509C518.488 862.838 518.61 862.229 518.984 861.68C519.323 861.181 519.828 860.868 520.499 860.74L539.172 857.19L536.014 840.591L513.128 844.943C512.499 845.063 511.91 844.936 511.361 844.562C510.821 844.231 510.486 843.73 510.359 843.059C510.231 842.389 510.354 841.779 510.727 841.23C511.109 840.723 511.614 840.41 512.242 840.291L537.392 835.508L537.455 835.497C538.083 835.377 538.668 835.483 539.209 835.814C539.758 836.188 540.096 836.71 540.224 837.38L547.713 876.738Z" fill="#255244"/>
<path d="M504.699 884.136C504.759 884.817 504.574 885.39 504.144 885.856C503.717 886.365 503.186 886.647 502.548 886.703L485.207 888.23C484.527 888.29 483.954 888.105 483.488 887.675C482.983 887.291 482.7 886.759 482.64 886.079C482.58 885.399 482.764 884.805 483.19 884.296C483.577 883.834 484.111 883.572 484.791 883.513L499.773 882.193L498.571 868.55L479.636 870.218C478.956 870.277 478.383 870.092 477.917 869.662C477.412 869.278 477.129 868.747 477.069 868.066C477.009 867.386 477.193 866.792 477.619 866.283C478.006 865.821 478.54 865.56 479.22 865.5L498.155 863.832L496.672 847.002L473.465 849.045C472.828 849.101 472.255 848.916 471.746 848.49C471.241 848.106 470.959 847.574 470.899 846.894C470.839 846.214 471.022 845.62 471.448 845.111C471.878 844.645 472.412 844.384 473.05 844.328L498.551 842.082L498.615 842.076C499.252 842.02 499.823 842.184 500.328 842.568C500.837 842.994 501.121 843.547 501.181 844.227L504.699 884.136Z" fill="#255244"/>
<path d="M462.264 887.31C462.251 887.993 462.006 888.543 461.528 888.961C461.05 889.421 460.491 889.645 459.851 889.633L447.373 889.394C444.259 889.334 441.37 888.681 438.705 887.436C435.997 886.231 433.66 884.586 431.694 882.5C429.685 880.456 428.131 878.058 427.031 875.306C425.889 872.553 425.347 869.641 425.406 866.569C425.465 863.498 426.117 860.608 427.364 857.901C428.568 855.193 430.213 852.835 432.3 850.826C434.343 848.86 436.742 847.305 439.495 846.163C442.204 845.063 445.116 844.542 448.23 844.602L460.708 844.841C461.348 844.853 461.898 845.077 462.359 845.513C462.82 845.991 463.043 846.571 463.03 847.254L462.264 887.31ZM447.82 849.331C445.388 849.284 443.119 849.689 441.011 850.545C438.86 851.443 437.002 852.666 435.436 854.215C433.827 855.806 432.553 857.659 431.617 859.775C430.679 861.933 430.187 864.228 430.141 866.66C430.094 869.091 430.499 871.382 431.354 873.532C432.209 875.682 433.41 877.562 434.959 879.17C436.463 880.821 438.273 882.136 440.388 883.115C442.46 884.093 444.712 884.606 447.144 884.653L457.574 884.852L458.25 849.531L447.82 849.331Z" fill="#255244"/>
<path d="M400.973 853.112C401.175 851.503 401.684 850.019 402.5 848.659C403.274 847.295 404.256 846.149 405.448 845.224C406.639 844.299 407.994 843.609 409.514 843.154C411.027 842.743 412.589 842.638 414.197 842.84L420.039 843.573C420.674 843.653 421.198 843.934 421.611 844.416C421.975 844.935 422.115 845.533 422.03 846.21C421.945 846.887 421.664 847.411 421.188 847.781C420.663 848.188 420.084 848.352 419.449 848.272L413.607 847.539C412.633 847.416 411.699 847.493 410.804 847.767C409.91 848.042 409.105 848.457 408.39 849.012C407.675 849.567 407.074 850.244 406.587 851.043C406.099 851.842 405.795 852.728 405.672 853.702L403.038 874.657C402.836 876.266 402.348 877.753 401.575 879.117C400.759 880.477 399.755 881.62 398.564 882.545C397.372 883.47 396.041 884.142 394.569 884.559C393.05 885.013 391.486 885.139 389.878 884.937L384.035 884.204C383.358 884.118 382.837 883.817 382.472 883.298C382.06 882.816 381.896 882.236 381.981 881.559C382.066 880.882 382.371 880.339 382.895 879.932C383.372 879.562 383.949 879.419 384.626 879.505L390.468 880.238C391.442 880.361 392.376 880.284 393.271 880.01C394.165 879.735 394.97 879.32 395.685 878.765C396.4 878.21 397.001 877.532 397.488 876.734C397.933 875.93 398.217 875.041 398.339 874.067L400.973 853.112Z" fill="#255244"/>
<path d="M380.691 841.634C380.5 842.597 379.978 843.363 379.125 843.933C378.272 844.504 377.364 844.693 376.402 844.502C375.439 844.311 374.673 843.789 374.103 842.936C373.533 842.084 373.343 841.176 373.535 840.214C374.009 837.828 374.948 835.948 376.352 834.574C377.764 833.158 379.319 832.227 381.018 831.781C381.335 831.714 381.729 831.705 382.197 831.755C382.624 831.796 382.917 832.072 383.077 832.582C383.379 833.468 382.97 834.105 381.849 834.491C381.055 834.768 380.365 835.175 379.78 835.712C379.161 836.198 378.735 836.809 378.502 837.546C379.306 837.879 379.917 838.414 380.336 839.15C380.747 839.927 380.866 840.756 380.691 841.634Z" fill="#255244"/>
<path d="M328.19 848.499C327.045 851.487 325.41 854.082 323.287 856.284C321.108 858.51 318.668 860.226 315.968 861.43C313.212 862.659 310.298 863.348 307.225 863.496C304.113 863.628 301.062 863.122 298.074 861.978C295.086 860.833 292.498 859.179 290.312 857.017C288.085 854.839 286.377 852.38 285.189 849.64C283.945 846.925 283.257 844.011 283.125 840.899C282.977 837.827 283.476 834.797 284.621 831.809C285.767 828.822 287.429 826.214 289.608 823.988C291.771 821.801 294.231 820.093 296.987 818.864C299.687 817.66 302.594 816.991 305.706 816.858C308.779 816.71 311.809 817.209 314.798 818.353C317.786 819.498 320.393 821.159 322.62 823.337C324.807 825.5 326.522 827.939 327.766 830.654C328.954 833.394 329.623 836.3 329.77 839.372C329.862 842.468 329.336 845.511 328.19 848.499ZM323.768 846.805C324.684 844.414 325.109 841.995 325.042 839.548C324.935 837.086 324.41 834.76 323.467 832.571C322.469 830.407 321.089 828.462 319.329 826.737C317.568 825.012 315.493 823.691 313.102 822.776C310.712 821.86 308.285 821.456 305.822 821.563C303.359 821.67 301.053 822.203 298.903 823.162C296.699 824.145 294.733 825.517 293.007 827.277C291.282 829.038 289.96 831.113 289.044 833.504C288.128 835.894 287.723 838.32 287.83 840.783C287.937 843.245 288.489 845.559 289.488 847.723C290.431 849.912 291.782 851.869 293.543 853.594C295.303 855.319 297.379 856.64 299.769 857.556C302.16 858.471 304.587 858.875 307.05 858.768C309.513 858.661 311.847 858.115 314.051 857.132C316.201 856.174 318.138 854.814 319.864 853.054C321.55 851.278 322.851 849.195 323.768 846.805Z" fill="#255244"/>
<path d="M248.116 792.768C247.552 792.465 247.175 791.996 246.984 791.36C246.793 790.725 246.849 790.125 247.153 789.562C247.456 788.998 247.926 788.621 248.562 788.43C249.197 788.239 249.797 788.295 250.361 788.598L252.221 789.599C253.348 790.205 254.321 790.873 255.139 791.604C255.899 792.352 256.483 793.248 256.891 794.29C257.241 795.351 257.384 796.615 257.321 798.083C257.237 799.588 256.878 801.381 256.243 803.462C255.665 805.525 255.239 807.306 254.965 808.806C254.691 810.306 254.679 811.632 254.931 812.785C255.145 813.917 255.669 814.925 256.501 815.809C257.296 816.673 258.445 817.509 259.948 818.317L270.77 824.138L279.901 807.175C280.224 806.574 280.704 806.178 281.34 805.987C281.918 805.813 282.507 805.888 283.109 806.211C283.672 806.515 284.06 806.965 284.271 807.563C284.462 808.199 284.395 808.817 284.072 809.418L265.083 844.696C264.779 845.26 264.329 845.647 263.73 845.858C263.095 846.049 262.495 845.993 261.931 845.69L248.122 838.263C246.732 837.515 245.558 836.545 244.601 835.352C243.644 834.159 242.968 832.85 242.571 831.426C242.137 829.981 241.991 828.498 242.132 826.975C242.274 825.452 242.729 823.977 243.497 822.549C244.488 820.709 245.798 819.354 247.428 818.487C249 817.637 250.702 817.22 252.535 817.237C250.887 815.527 249.992 813.544 249.85 811.287C249.65 809.048 250.138 806.161 251.313 802.627C252.09 800.283 252.424 798.404 252.313 796.988C252.145 795.59 251.329 794.496 249.863 793.708L248.116 792.768ZM256.689 821.942C254.998 821.032 253.304 820.848 251.608 821.389C249.891 821.968 248.578 823.102 247.668 824.793C247.223 825.619 246.978 826.48 246.932 827.376C246.828 828.289 246.906 829.179 247.166 830.046C247.389 830.892 247.795 831.668 248.385 832.373C248.917 833.095 249.596 833.678 250.423 834.123L262.034 840.368L268.525 828.308L256.689 821.942Z" fill="#255244"/>
<path d="M191.154 799.39C190.725 799.921 190.194 800.205 189.561 800.242C188.901 800.313 188.322 800.147 187.824 799.745C187.292 799.317 187.008 798.786 186.971 798.153C186.874 797.526 187.039 796.947 187.468 796.416L211.149 767.087L193.018 752.459C192.52 752.057 192.236 751.526 192.166 750.866C192.068 750.24 192.234 749.661 192.663 749.13C193.092 748.599 193.636 748.298 194.297 748.227C194.93 748.19 195.496 748.372 195.994 748.774L215.918 764.849L215.968 764.889C216.466 765.291 216.763 765.805 216.861 766.432C216.931 767.092 216.752 767.687 216.323 768.218L191.154 799.39Z" fill="#255244"/>
<path d="M158.428 772.093C157.949 772.579 157.392 772.81 156.759 772.784C156.095 772.789 155.535 772.567 155.079 772.118L142.673 759.906C142.187 759.427 141.956 758.871 141.981 758.237C141.946 757.604 142.169 757.044 142.648 756.558C143.127 756.072 143.698 755.826 144.362 755.821C144.966 755.816 145.511 756.053 145.997 756.532L156.715 767.083L166.327 757.327L152.781 743.992C152.295 743.513 152.064 742.957 152.09 742.323C152.055 741.69 152.277 741.13 152.756 740.644C153.235 740.158 153.806 739.912 154.47 739.907C155.074 739.902 155.619 740.139 156.105 740.618L169.651 753.953L181.509 741.917L164.907 725.574C164.451 725.125 164.221 724.569 164.216 723.905C164.181 723.272 164.403 722.712 164.882 722.226C165.361 721.74 165.932 721.494 166.596 721.489C167.23 721.514 167.775 721.751 168.231 722.2L186.474 740.16L186.52 740.205C186.976 740.654 187.222 741.195 187.257 741.828C187.262 742.492 187.025 743.067 186.546 743.553L158.428 772.093Z" fill="#255244"/>
<path d="M163.345 718.109C163.457 718.788 163.335 719.382 162.979 719.891C162.59 720.427 162.069 720.767 161.417 720.912L116.737 729.667C116.364 729.75 115.987 729.726 115.606 729.596C115.192 729.492 114.837 729.259 114.541 728.894C114.245 728.53 114.089 728.135 114.072 727.709C114.023 727.309 114.076 726.936 114.234 726.588L131.945 684.66C132.221 684.052 132.66 683.612 133.265 683.341C133.836 683.097 134.443 683.099 135.084 683.347C135.666 683.589 136.093 684.012 136.364 684.617C136.575 685.215 136.54 685.848 136.259 686.516L129.445 702.688L143.293 719.721L160.482 716.312C161.194 716.173 161.834 716.285 162.404 716.647C162.913 717.003 163.227 717.49 163.345 718.109ZM120.353 724.173L138.002 720.721L127.344 707.611L120.353 724.173Z" fill="#255244"/>
<path d="M115.571 665.813L74.7265 668.715C74.0028 668.765 73.4102 668.582 72.9485 668.166C72.4281 667.737 72.1473 667.208 72.1062 666.58C72.0786 665.892 72.2909 665.307 72.7429 664.823C73.1588 664.361 73.6992 664.099 74.3641 664.035L119.836 660.806C120.215 660.769 120.586 660.839 120.948 661.015C121.31 661.192 121.616 661.479 121.865 661.876C122.114 662.274 122.239 662.674 122.239 663.077C122.239 663.479 122.14 663.843 121.941 664.169L99.1539 703.636C98.8059 704.206 98.3335 704.577 97.7365 704.749C97.1033 704.944 96.4836 704.878 95.8773 704.553C95.3297 704.241 94.9879 703.776 94.8519 703.156C94.657 702.523 94.7403 701.892 95.1017 701.264L115.571 665.813Z" fill="#255244"/>
<path d="M67.7648 653.685C67.1487 653.98 66.547 654.007 65.9597 653.767C65.3338 653.546 64.8829 653.146 64.607 652.569L57.1028 636.861C56.8085 636.245 56.7812 635.644 57.0208 635.057C57.2035 634.449 57.6029 633.999 58.219 633.705C58.8351 633.411 59.456 633.374 60.0819 633.595C60.6509 633.797 61.0825 634.205 61.3768 634.821L67.8602 648.392L80.2201 642.492L72.0262 625.34C71.7319 624.724 71.7046 624.123 71.9442 623.536C72.1269 622.928 72.5263 622.478 73.1424 622.184C73.7584 621.89 74.3794 621.853 75.0053 622.074C75.5742 622.276 76.0059 622.684 76.3002 623.3L84.4941 640.451L99.7418 633.173L89.6994 612.152C89.4235 611.575 89.3962 610.973 89.6174 610.347C89.8001 609.74 90.1995 609.289 90.8156 608.995C91.4317 608.701 92.0527 608.665 92.6785 608.886C93.2659 609.126 93.6975 609.534 93.9734 610.112L105.009 633.211L105.037 633.269C105.312 633.846 105.359 634.439 105.176 635.046C104.955 635.672 104.536 636.132 103.92 636.426L67.7648 653.685Z" fill="#255244"/>
<path d="M75.3754 556.707C75.5544 557.366 75.4995 557.978 75.2108 558.542C74.8697 559.077 74.3698 559.434 73.7109 559.613L60.555 563.184L41.0359 586.786C40.6424 587.29 40.1201 587.565 39.4689 587.609C38.7765 587.664 38.1779 587.495 37.6731 587.102C37.2095 586.697 36.9611 586.19 36.928 585.58C36.8426 584.94 36.9966 584.367 37.3901 583.863L54.9313 562.257L28.8665 552.488C28.2718 552.252 27.8549 551.856 27.6159 551.302C27.3246 550.718 27.2765 550.134 27.4717 549.551C27.7081 548.956 28.1389 548.508 28.7642 548.205C29.3483 547.914 29.9377 547.887 30.5325 548.123L59.3134 558.614L72.4693 555.042C73.1281 554.864 73.7455 554.939 74.3215 555.269C74.8451 555.569 75.1964 556.048 75.3754 556.707Z" fill="#255244"/>
<path d="M46.9991 537.843C43.8329 538.307 40.77 538.152 37.8104 537.378C34.8024 536.569 32.1124 535.281 29.7405 533.516C27.3201 531.714 25.2935 529.51 23.6606 526.903C22.0215 524.254 20.9698 521.347 20.5055 518.181C20.0411 515.014 20.2167 511.949 21.0324 508.983C21.8418 505.975 23.1502 503.282 24.9576 500.904C26.7166 498.491 28.9206 496.464 31.5695 494.825C34.1762 493.193 37.0626 492.145 40.2288 491.681C43.395 491.217 46.482 491.39 49.4901 492.199C52.4558 493.015 55.1489 494.324 57.5693 496.125C59.9412 497.891 61.9467 500.098 63.5858 502.747C65.2187 505.354 66.2673 508.24 66.7317 511.406C67.1961 514.572 67.0235 517.659 66.2141 520.667C65.3985 523.633 64.1112 526.322 62.3522 528.736C60.5448 531.114 58.3377 533.119 55.731 534.752C53.0759 536.349 50.1653 537.379 46.9991 537.843ZM46.3119 533.157C48.8448 532.786 51.1619 531.972 53.2631 530.715C55.3581 529.416 57.1292 527.82 58.5764 525.926C59.9752 523.996 60.9959 521.841 61.6388 519.462C62.2816 517.082 62.4172 514.626 62.0458 512.093C61.6743 509.56 60.839 507.246 59.5399 505.151C58.2408 503.056 56.6473 501.306 54.7594 499.901C52.8231 498.459 50.665 497.417 48.2852 496.774C45.9054 496.131 43.449 495.995 40.916 496.367C38.3831 496.738 36.0691 497.573 33.9741 498.872C31.879 500.17 30.1321 501.785 28.7334 503.715C27.2862 505.609 26.2412 507.745 25.5984 510.125C24.9556 512.505 24.8199 514.961 25.1914 517.494C25.5629 520.027 26.3982 522.341 27.6973 524.436C28.9964 526.531 30.6141 528.299 32.5504 529.74C34.4383 531.145 36.5721 532.169 38.952 532.812C41.3256 533.413 43.7789 533.528 46.3119 533.157Z" fill="#255244"/>
<path d="M42.7863 440.333C45.4313 440.293 47.9348 440.767 50.2967 441.756C52.658 442.701 54.7264 444.035 56.5021 445.758C58.2777 447.481 59.6953 449.508 60.7547 451.838C61.7709 454.127 62.2993 456.616 62.3401 459.303C62.3808 461.991 61.9284 464.515 60.9828 466.877C59.9938 469.196 58.638 471.243 56.9154 473.019C55.1928 474.795 53.166 476.212 50.8352 477.271C48.5037 478.288 46.0154 478.817 43.3703 478.857L19.2451 479.222C18.5625 479.232 18.0044 479.006 17.5706 478.543C17.0942 478.081 16.8512 477.53 16.8415 476.89C16.8311 476.207 17.0574 475.649 17.5202 475.215C17.9397 474.74 18.4907 474.497 19.1733 474.486L43.2985 474.121C45.3037 474.091 47.1966 473.699 48.9774 472.947C50.7149 472.153 52.2349 471.084 53.5373 469.742C54.7971 468.4 55.7977 466.848 56.5391 465.088C57.2799 463.284 57.635 461.38 57.6046 459.375C57.5742 457.37 57.1618 455.499 56.3674 453.761C55.5723 451.981 54.5251 450.461 53.2259 449.2C51.8833 447.898 50.3316 446.876 48.5709 446.134C46.7674 445.393 44.8632 445.038 42.8581 445.068L18.7328 445.434C18.0502 445.444 17.4924 445.239 17.0593 444.819C16.5829 444.357 16.3395 443.784 16.3292 443.102C16.3188 442.419 16.5451 441.861 17.0079 441.427C17.4274 440.952 17.9784 440.709 18.661 440.698L42.7863 440.333Z" fill="#255244"/>
<path d="M65.6286 357.195L34.3902 330.736C33.8377 330.266 33.5417 329.721 33.5022 329.101C33.4302 328.43 33.5992 327.856 34.0092 327.377C34.47 326.866 35.0313 326.596 35.6929 326.565C36.313 326.526 36.8829 326.716 37.4029 327.135L72.1796 356.593C72.4767 356.832 72.6931 357.141 72.8288 357.52C72.9645 357.899 72.9824 358.318 72.8823 358.776C72.7823 359.235 72.5917 359.608 72.3105 359.896C72.0293 360.184 71.7038 360.376 71.3339 360.47L49.6359 366.548L66.8327 381.104C67.1298 381.344 67.3462 381.653 67.4819 382.032C67.6176 382.411 67.6354 382.83 67.5354 383.288C67.4354 383.747 67.2448 384.12 66.9636 384.408C66.6824 384.696 66.3569 384.887 65.987 384.981L22.0987 397.293C21.4514 397.457 20.8541 397.393 20.3069 397.099C19.7179 396.796 19.3204 396.316 19.1142 395.66C18.9406 395.054 19.0216 394.482 19.3574 393.944C19.6605 393.355 20.1611 392.962 20.8592 392.765L60.2817 381.707L44.1855 368.111L27.4456 372.781C26.7983 372.946 26.2011 372.881 25.6538 372.587C25.0649 372.284 24.6673 371.804 24.4611 371.148C24.2875 370.543 24.3686 369.971 24.7043 369.433C25.0075 368.844 25.5081 368.451 26.2061 368.253L39.8809 364.422L29.0433 355.247C28.4907 354.777 28.1947 354.233 28.1553 353.613C28.0832 352.942 28.2522 352.367 28.6623 351.889C29.1231 351.378 29.6843 351.107 30.346 351.077C30.966 351.037 31.536 351.227 32.056 351.646L45.3177 362.921L65.6286 357.195Z" fill="#255244"/>
<path d="M41.453 314.388C40.8137 314.148 40.3767 313.734 40.142 313.145C39.8673 312.541 39.8422 311.939 40.0669 311.34L46.1789 295.04C46.4185 294.401 46.833 293.964 47.4223 293.729C47.9867 293.439 48.5885 293.414 49.2277 293.654C49.867 293.893 50.324 294.315 50.5987 294.919C50.8484 295.468 50.8535 296.062 50.6138 296.702L45.3333 310.784L58.1586 315.59L64.8323 297.792C65.072 297.152 65.4864 296.715 66.0757 296.481C66.6401 296.191 67.2419 296.166 67.8811 296.405C68.5204 296.645 68.9774 297.067 69.2521 297.671C69.5019 298.22 69.5069 298.814 69.2672 299.453L62.5935 317.251L78.4154 323.179L86.5946 301.366C86.8193 300.767 87.2338 300.33 87.8381 300.055C88.4024 299.766 89.0042 299.74 89.6435 299.98C90.2827 300.219 90.7397 300.641 91.0145 301.245C91.2492 301.835 91.2542 302.429 91.0295 303.028L82.0414 326.998L82.019 327.058C81.7943 327.657 81.3997 328.102 80.8354 328.392C80.2311 328.667 79.6094 328.684 78.9701 328.445L41.453 314.388Z" fill="#255244"/>
<path d="M56.7718 275.445C56.1582 275.146 55.7624 274.692 55.5846 274.084C55.3684 273.456 55.4006 272.855 55.6811 272.28C55.9803 271.666 56.4344 271.27 57.0434 271.092C57.6326 270.857 58.2341 270.89 58.8478 271.189L92.7345 287.702L102.946 266.763C103.226 266.188 103.681 265.792 104.308 265.576C104.897 265.341 105.499 265.373 106.113 265.672C106.726 265.971 107.141 266.434 107.357 267.062C107.535 267.67 107.484 268.262 107.203 268.838L95.982 291.847L95.9539 291.905C95.6734 292.48 95.2385 292.885 94.6492 293.12C94.0216 293.336 93.4009 293.295 92.7872 292.996L56.7718 275.445Z" fill="#255244"/>
<path d="M75.5763 238.446C74.9936 238.091 74.6424 237.601 74.5229 236.979C74.3669 236.333 74.4557 235.738 74.7893 235.192C75.1452 234.609 75.6346 234.258 76.2576 234.138C76.8665 233.96 77.4622 234.049 78.0449 234.404L110.222 254.043L122.365 234.162C122.698 233.616 123.188 233.265 123.833 233.108C124.442 232.93 125.038 233.019 125.62 233.375C126.203 233.73 126.572 234.231 126.728 234.876C126.848 235.498 126.741 236.083 126.407 236.629L113.063 258.476L113.03 258.531C112.696 259.077 112.225 259.439 111.616 259.617C110.971 259.773 110.357 259.674 109.774 259.318L75.5763 238.446Z" fill="#255244"/>
<path d="M146.867 207.409C146.213 207.624 145.608 207.595 145.05 207.322C144.46 207.02 144.043 206.558 143.8 205.937L128.265 163.154C128.126 162.799 128.091 162.423 128.162 162.027C128.2 161.602 128.376 161.215 128.691 160.867C129.005 160.518 129.372 160.303 129.791 160.221C130.178 160.11 130.555 160.106 130.923 160.208L175.095 171.247C175.738 171.425 176.241 171.792 176.602 172.347C176.931 172.874 177.023 173.473 176.876 174.145C176.726 174.757 176.374 175.243 175.818 175.604C175.26 175.905 174.628 175.968 173.924 175.793L156.89 171.553L142.186 187.852L148.202 204.305C148.449 204.987 148.437 205.637 148.167 206.255C147.894 206.813 147.46 207.197 146.867 207.409ZM134.253 165.88L140.383 182.78L151.701 170.235L134.253 165.88Z" fill="#255244"/>
<path d="M153.427 138.763C152.971 138.255 152.776 137.685 152.841 137.054C152.877 136.392 153.134 135.847 153.611 135.42C154.119 134.965 154.689 134.769 155.32 134.834C155.955 134.839 156.5 135.095 156.955 135.604L182.113 163.676L199.468 148.136C199.945 147.709 200.515 147.513 201.177 147.55C201.812 147.555 202.357 147.811 202.812 148.319C203.268 148.828 203.478 149.413 203.441 150.076C203.376 150.707 203.105 151.236 202.629 151.663L183.557 168.74L183.51 168.783C183.033 169.21 182.477 169.421 181.843 169.417C181.18 169.38 180.621 169.108 180.165 168.599L153.427 138.763Z" fill="#255244"/>
<path d="M194.281 128.988C192.433 126.375 191.184 123.574 190.534 120.586C189.894 117.538 189.824 114.557 190.324 111.644C190.834 108.671 191.882 105.866 193.467 103.231C195.087 100.571 197.204 98.3176 199.817 96.4708C202.43 94.624 205.244 93.3931 208.258 92.7781C211.307 92.1385 214.301 92.0863 217.241 92.6215C220.19 93.0972 222.995 94.145 225.656 95.7648C228.293 97.3498 230.535 99.4486 232.383 102.061C234.231 104.674 235.475 107.504 236.115 110.552C236.73 113.565 236.783 116.558 236.273 119.531C235.772 122.445 234.712 125.232 233.092 127.892C231.507 130.527 229.408 132.768 226.795 134.615C224.181 136.462 221.35 137.705 218.301 138.345C215.287 138.96 212.305 139.029 209.356 138.554C206.416 138.018 203.629 136.958 200.992 135.373C198.366 133.729 196.129 131.6 194.281 128.988ZM198.149 126.254C199.627 128.344 201.402 130.042 203.475 131.346C205.582 132.626 207.807 133.483 210.152 133.916C212.506 134.289 214.89 134.224 217.304 133.72C219.717 133.216 221.969 132.226 224.06 130.748C226.15 129.271 227.836 127.479 229.116 125.373C230.396 123.266 231.235 121.054 231.633 118.735C232.041 116.357 231.993 113.961 231.489 111.549C230.985 109.136 229.993 106.885 228.515 104.795C227.037 102.704 225.244 101.019 223.137 99.7395C221.03 98.4596 218.799 97.6329 216.445 97.2593C214.1 96.8262 211.721 96.8616 209.308 97.3655C206.894 97.8694 204.642 98.86 202.552 100.337C200.461 101.815 198.776 103.607 197.496 105.713C196.216 107.819 195.371 110.062 194.963 112.44C194.565 114.759 194.618 117.125 195.123 119.537C195.662 121.925 196.67 124.164 198.149 126.254Z" fill="#255244"/>
<path d="M263.395 62.4547C263.077 61.8504 263.027 61.2503 263.244 60.6544C263.441 60.0208 263.823 59.5553 264.39 59.2578C264.994 58.9405 265.595 58.8904 266.191 59.1076C266.805 59.2672 267.27 59.6491 267.588 60.2535L286.221 95.721C286.538 96.3253 286.598 96.9443 286.401 97.5779C286.222 98.154 285.83 98.6006 285.225 98.9179C284.659 99.2154 284.068 99.2843 283.454 99.1248C282.82 98.9274 282.345 98.5266 282.027 97.9222L275.3 85.1177L239.122 79.9668L255.791 111.695C256.108 112.299 256.168 112.918 255.971 113.552C255.792 114.128 255.4 114.575 254.795 114.892C254.228 115.189 253.638 115.258 253.024 115.099C252.39 114.901 251.915 114.501 251.597 113.896L232.964 78.4287C232.647 77.8243 232.597 77.2242 232.814 76.6284C233.011 75.9948 233.393 75.5292 233.96 75.2317C234.262 75.0731 234.556 74.9909 234.842 74.9853C235.166 74.9598 235.462 74.973 235.731 75.0249L272.77 80.3018L263.395 62.4547Z" fill="#255244"/>
<path d="M282.733 53.6729C282.486 53.0362 282.505 52.4343 282.789 51.8671C283.057 51.2602 283.49 50.8413 284.087 50.6105L300.323 44.3328C300.96 44.0866 301.562 44.1054 302.13 44.3893C302.721 44.6179 303.14 45.0506 303.387 45.6873C303.633 46.3239 303.622 46.9457 303.354 47.5527C303.11 48.1045 302.669 48.5035 302.033 48.7496L288.005 54.1734L292.947 66.9465L310.676 60.0918C311.313 59.8456 311.915 59.8645 312.482 60.1483C313.074 60.377 313.493 60.8096 313.739 61.4463C313.986 62.083 313.975 62.7048 313.706 63.3117C313.462 63.8635 313.022 64.2625 312.385 64.5087L294.656 71.3634L300.753 87.1209L322.482 78.7198C323.079 78.489 323.681 78.5079 324.288 78.7763C324.88 79.005 325.299 79.4377 325.545 80.0743C325.791 80.711 325.78 81.3328 325.512 81.9398C325.228 82.5069 324.788 82.9059 324.191 83.1367L300.313 92.3687L300.254 92.3917C299.657 92.6225 299.062 92.6236 298.471 92.3949C297.864 92.1265 297.437 91.6739 297.191 91.0373L282.733 53.6729ZM334.445 75.2608C334.091 74.3456 334.121 73.419 334.536 72.481C334.951 71.5429 335.616 70.897 336.531 70.5431C337.447 70.1892 338.373 70.2197 339.312 70.6346C340.25 71.0495 340.896 71.7145 341.25 72.6297C341.604 73.5449 341.574 74.4715 341.159 75.4096C340.744 76.3476 340.079 76.9936 339.164 77.3475C338.249 77.7013 337.322 77.6708 336.384 77.256C335.445 76.8411 334.799 76.176 334.445 75.2608Z" fill="#255244"/>
</svg>
