<svg width="375" height="800" fill="none" xmlns="http://www.w3.org/2000/svg"><path fill-rule="evenodd" clip-rule="evenodd" d="M375 0H0v108.017c14.873-20.58 34.574-34.58 44.82-41.861 2.993-2.127 5.179-3.68 6.203-4.657 6.607-3.667 24.404-7.6 42.737 6 22.917 17 33.447 89 15.485 148-17.962 59-73.707 68-102.198 54.5A37.403 37.403 0 010 265.658v62.584c130.786 125.179 277.396 300.612 305.295 342.881 38.847 58.858 27.193 110.653-132.08 109.868C107.203 780.666 52.369 764.569 0 737.952V800h375v-95.22a212.305 212.305 0 01-9.297-6.473c-96.388-71.102-66.379-121.528 9.297-156.32v-36.706c-17.745-1.123-36.705-6.691-53.215-19.222-40.4-30.667-7.422-81.235 53.215-85.737V283.919a908.696 908.696 0 01-29.026 8.034c-46.43 12.032-57.046 54.137-66.513 91.681-6.897 27.354-13.184 52.287-32.266 61.404C201.921 466.67 132.982 366 134.011 266.993c1.029-99.007 75.113-123.134 231.512-166.398 3.195-.884 6.354-1.72 9.477-2.511V0z" fill="#F4F1EC"/></svg>