<svg width="1920" height="800" fill="none" xmlns="http://www.w3.org/2000/svg"><path fill-rule="evenodd" clip-rule="evenodd" d="M0 0h1920v21.024c-81.05-9.31-232.2-16.747-314.69 15.072-111.83 43.143-139.11 80.363-60 153.959 60.96 56.719 268.01 156.198 374.69 203.749V491c-3.74-.183-12.07-.912-24.11-1.966-71.08-6.222-271.38-23.754-418.12-6.935-175.63 20.129-452.01 80.519-268.07 216.208 145.26 107.148 529.42 86.547 710.3 62.096V800H0V492.734L.638 507c47.1-4.498 135.83-32.878 113.952-110.412C94.754 326.293 35.119 286.99 0 272.645V0zm369.563 557.058c26.262-34 18.375-56.5 11.149-63.5-49.55-63.5-205.635-16.5-299.162 63.5-93.527 80-17.963 203 82.997 216.5 77.96 10.425 138.192-99.002 176.704-168.969 11.362-20.642 20.834-37.849 28.312-47.531zm-13.722-243.79c-17.409-49.939-13.754-53.228 10.266-74.843v-.001c2.78-2.501 5.833-5.249 9.157-8.342-94.206-202.47 194.237-94.957 330.202-14.91 135.965 80.046 404.984 397.094 443.824 455.951 38.85 58.858 27.2 110.653-132.08 109.868-135.077-.665-223.354-67.375-339.478-155.127l-.001-.001-.003-.002c-20.796-15.715-42.484-32.104-65.495-48.91C460.73 466.298 375.264 368.987 355.841 313.268zM143.821 66.156c-16.912 12.017-59.578 42.336-63.788 90.343-4.955 56.5-2.478 100 26.014 113.5s84.236 4.5 102.198-54.5c17.962-59 7.432-131-15.485-148-18.334-13.6-36.13-9.667-42.737-6-1.024.977-3.21 2.53-6.202 4.657zM1224.01 400.059c51.03-1.6 67.1 30 68.75 46 0 8.666-2.85 29.3-14.25 42.5-14.24 16.5-71.23 29-112.72-2.5-41.5-31.5-5.58-84 58.22-86zm213.94-227.913c2.47 35.942-83.35 66.559-126.56 77.375-13.72 7.211-57.21 25.792-121.42 42.432-46.43 12.032-57.04 54.137-66.51 91.681-6.9 27.354-13.18 52.287-32.27 61.404C1045.92 466.67 976.982 366 978.011 266.993c1.029-99.007 75.109-123.134 231.509-166.398 156.4-43.263 225.34 26.624 228.43 71.551z" fill="#F4F1EC"/></svg>