<svg width="907" height="906" fill="none" xmlns="http://www.w3.org/2000/svg"><path d="M365.086 47.995c-.501-3.16-.382-6.224.357-9.193.775-3.017 2.031-5.721 3.769-8.113a24.107 24.107 0 016.541-6.155c2.629-1.67 5.525-2.754 8.685-3.255 3.161-.5 6.229-.36 9.204.422 3.017.775 5.725 2.052 8.124 3.832 2.434 1.731 4.486 3.912 6.156 6.542 1.663 2.587 2.745 5.462 3.246 8.622.5 3.16.364 6.25-.411 9.267a24.094 24.094 0 01-3.832 8.123c-1.737 2.392-3.921 4.422-6.551 6.092-2.587 1.662-5.461 2.744-8.622 3.244-3.161.5-6.25.364-9.267-.411-2.975-.782-5.679-2.038-8.114-3.77-2.399-1.78-4.43-3.963-6.093-6.551-1.627-2.637-2.691-5.535-3.192-8.696zm4.678-.74c.4 2.528 1.241 4.835 2.522 6.922 1.324 2.08 2.941 3.833 4.851 5.258 1.946 1.377 4.113 2.373 6.5 2.988 2.387.616 4.845.723 7.374.323 2.528-.4 4.832-1.263 6.912-2.585 2.08-1.323 3.811-2.937 5.194-4.84a19.052 19.052 0 003.051-6.51c.615-2.387.723-4.844.322-7.373-.401-2.528-1.263-4.833-2.586-6.913s-2.958-3.808-4.904-5.184c-1.911-1.426-4.06-2.446-6.447-3.062-2.387-.615-4.845-.723-7.373-.322-2.529.4-4.833 1.262-6.913 2.585a19.055 19.055 0 00-5.247 4.913c-1.384 1.904-2.383 4.05-2.998 6.436-.573 2.38-.659 4.835-.258 7.364zm90.044-4.388c.081 2.644-.355 5.155-1.307 7.531-.91 2.376-2.212 4.464-3.907 6.266-1.696 1.802-3.7 3.25-6.015 4.345-2.273 1.05-4.753 1.617-7.44 1.699-2.686.082-5.217-.332-7.593-1.242a20.017 20.017 0 01-6.204-3.973c-1.801-1.695-3.25-3.7-4.345-6.015-1.052-2.315-1.618-4.795-1.699-7.44l-.734-24.116c-.021-.683.197-1.244.653-1.685.455-.483 1.002-.735 1.642-.754.682-.02 1.244.197 1.684.653.483.412.734.96.755 1.642l.734 24.117c.061 2.004.481 3.89 1.261 5.66a14.945 14.945 0 003.275 4.51 15.547 15.547 0 004.699 2.93 14.304 14.304 0 005.728.98c2.005-.062 3.87-.503 5.595-1.324 1.767-.822 3.272-1.892 4.512-3.21a14.942 14.942 0 002.994-4.701 14.293 14.293 0 00.979-5.729l-.735-24.117c-.02-.682.176-1.243.589-1.682.455-.484 1.024-.736 1.706-.756.683-.021 1.244.196 1.685.653.482.412.733.959.754 1.641l.734 24.117zm50.05 17.47c.638.058 1.169.342 1.593.852.425.51.608 1.084.55 1.721-.058.637-.342 1.168-.852 1.593-.511.425-1.084.608-1.722.55l-2.103-.192c-1.275-.117-2.431-.35-3.47-.703a7.6 7.6 0 01-2.665-1.785c-.737-.839-1.365-1.946-1.881-3.321-.514-1.418-.886-3.209-1.116-5.372-.277-2.125-.584-3.93-.919-5.418-.335-1.487-.845-2.712-1.528-3.674-.641-.959-1.517-1.681-2.63-2.168-1.069-.484-2.454-.803-4.154-.958l-12.237-1.118-1.753 19.184c-.062.68-.348 1.233-.858 1.657-.464.386-1.036.548-1.716.486a2.39 2.39 0 01-1.598-.788c-.425-.51-.606-1.105-.544-1.785l3.646-39.898a2.39 2.39 0 01.789-1.599c.51-.424 1.084-.608 1.721-.55l15.615 1.426a11.36 11.36 0 014.38 1.3 10.894 10.894 0 013.406 2.817 11.597 11.597 0 012.147 3.924c.467 1.456.627 2.992.479 4.607-.19 2.082-.865 3.84-2.025 5.277-1.113 1.398-2.516 2.448-4.208 3.15 2.186.929 3.787 2.403 4.802 4.424 1.061 1.982 1.743 4.829 2.047 8.541.203 2.461.633 4.321 1.289 5.58.703 1.222 1.882 1.908 3.54 2.059l1.975.18zM490.54 36.85c1.912.175 3.542-.319 4.891-1.481 1.352-1.205 2.116-2.763 2.291-4.675a6.052 6.052 0 00-.335-2.666 6.595 6.595 0 00-1.262-2.364A5.959 5.959 0 00494.092 24a6.05 6.05 0 00-2.561-.812l-13.129-1.2-1.247 13.64 13.385 1.222zm64.285-6.066c.19-.656.549-1.13 1.077-1.421.581-.32 1.179-.392 1.794-.215l32.157 9.291c.656.19 1.123.57 1.403 1.139.332.54.404 1.138.214 1.794-.19.655-.575 1.144-1.156 1.464-.529.292-1.121.343-1.777.153l-13.772-3.98-10.471 36.213c-.19.656-.576 1.144-1.157 1.465-.528.291-1.12.342-1.776.153a2.39 2.39 0 01-1.421-1.077c-.321-.581-.386-1.2-.196-1.856l10.471-36.212-13.834-3.997a2.39 2.39 0 01-1.421-1.077c-.28-.57-.325-1.182-.135-1.838zm45.213 13.798c.252-.634.674-1.064 1.267-1.288.61-.263 1.212-.278 1.807-.042l16.187 6.405c.635.251 1.064.674 1.288 1.267.279.57.293 1.171.042 1.806-.252.635-.682 1.084-1.291 1.348-.554.24-1.148.233-1.783-.018l-13.985-5.534-5.043 12.734 17.675 6.994c.635.251 1.064.674 1.288 1.267.279.57.293 1.171.042 1.806s-.682 1.084-1.291 1.348c-.554.24-1.148.234-1.783-.017l-17.674-6.994-6.221 15.709 21.661 8.571c.596.236 1.025.658 1.289 1.267.279.57.293 1.171.041 1.806-.251.635-.681 1.084-1.29 1.348a2.393 2.393 0 01-1.783-.017l-23.804-9.42-.06-.023a2.394 2.394 0 01-1.312-1.208c-.263-.609-.269-1.23-.018-1.865l14.751-37.25zm17.49 52.19c-.366-.582-.484-1.177-.353-1.784.15-.645.498-1.16 1.043-1.547l37.783-25.403a2.056 2.056 0 011.069-.373c.422-.065.84.013 1.254.233.414.221.712.525.892.911.201.35.296.714.286 1.096l-.058 45.516a2.55 2.55 0 01-.704 1.728c-.432.447-.992.68-1.68.7-.63.003-1.187-.222-1.671-.673-.427-.469-.64-1.067-.64-1.792l.006-17.549-19.371-10.328-14.52 9.81c-.602.405-1.236.55-1.901.438a2.227 2.227 0 01-1.435-.983zm37.271-22.267l-14.927 10.029 14.91 7.949.017-17.978zm32.661 12.753c.397-.555.893-.882 1.489-.98.654-.11 1.242.022 1.763.394.312.224.528.509.647.856.178.337.309.667.393.99l5.961 23.456 24.438-2.04a2.632 2.632 0 011.778.484c.555.397.87.911.944 1.541.099.595-.05 1.17-.448 1.725l-23.311 32.584c-.397.555-.923.887-1.578.996-.596.099-1.171-.05-1.726-.447a2.396 2.396 0 01-.982-1.489c-.108-.654.036-1.259.433-1.814l20.184-28.212-19.415 1.619c-2.684.232-4.368-.972-5.051-3.61l-4.795-18.926-20.183 28.211c-.397.555-.923.887-1.578.996-.596.099-1.171-.05-1.726-.447a2.391 2.391 0 01-.982-1.488c-.108-.655.036-1.26.433-1.815l23.312-32.584zm77.036 116.323l39.96-8.94c.708-.157 1.321-.065 1.84.278.578.347.934.828 1.068 1.444.13.675.007 1.286-.368 1.832-.343.518-.838.858-1.486 1.02l-44.487 9.952c-.37.092-.748.078-1.132-.042-.384-.12-.729-.359-1.034-.715-.306-.357-.488-.734-.548-1.132a2.054 2.054 0 01.132-1.124l8.247-20.965-21.99 4.928a2.044 2.044 0 01-1.132-.042c-.384-.12-.729-.359-1.034-.715-.306-.356-.489-.734-.549-1.132a2.046 2.046 0 01.133-1.124l16.667-42.415c.26-.615.672-1.052 1.236-1.311.598-.287 1.22-.314 1.868-.083.588.227.995.637 1.222 1.229.287.597.298 1.233.034 1.909l-14.972 38.098 20.559-4.629 6.378-16.163c.26-.615.672-1.052 1.237-1.311.597-.287 1.219-.314 1.867-.083.588.227.995.637 1.222 1.229.287.597.298 1.233.034 1.909l-5.197 13.213 13.86-3.105c.708-.157 1.321-.065 1.839.278.579.347.935.829 1.069 1.444.13.676.007 1.286-.368 1.832-.343.518-.838.858-1.486 1.02l-16.998 3.77-7.691 19.646zm47.132 4.86c.565-.383 1.155-.501 1.772-.352.652.125 1.158.451 1.518.981.384.564.501 1.155.353 1.772-.089.627-.416 1.133-.981 1.517l-33.145 22.506c-.565.383-1.174.513-1.826.388-.593-.113-1.081-.452-1.464-1.017a2.39 2.39 0 01-.406-1.736c.124-.651.469-1.169 1.034-1.553l33.145-22.506zm10.806 16.293c.59-.342 1.188-.417 1.793-.225.641.171 1.122.533 1.443 1.086.343.591.418 1.189.226 1.793-.134.62-.496 1.101-1.087 1.443l-32.619 18.895 11.684 20.154c.321.554.396 1.151.226 1.793-.134.62-.496 1.101-1.087 1.443-.591.342-1.207.428-1.848.257a2.391 2.391 0 01-1.389-1.119l-12.839-22.147-.032-.056a2.389 2.389 0 01-.281-1.76c.171-.641.551-1.133 1.142-1.475l34.668-20.082zm19.882 35.858c.621-.284 1.223-.302 1.806-.054.623.231 1.067.637 1.334 1.219.285.62.303 1.222.055 1.806-.192.604-.598 1.049-1.219 1.333l-34.262 15.719 9.721 21.171c.267.582.285 1.184.054 1.806-.192.605-.598 1.049-1.219 1.334a2.351 2.351 0 01-1.864.081 2.392 2.392 0 01-1.276-1.246l-10.682-23.265-.027-.058a2.39 2.39 0 01-.112-1.779c.23-.622.656-1.076 1.276-1.36l36.415-16.707zm8.361 76.382c-2.48.632-4.7 1.683-6.659 3.151-1.949 1.509-3.544 3.281-4.787 5.315-1.19 2.065-1.981 4.314-2.373 6.748-.392 2.433-.271 4.89.361 7.371.56 2.191 1.438 4.168 2.637 5.932 1.24 1.754 2.67 3.216 4.29 4.388.53.35.832.845.908 1.486a2.492 2.492 0 01-.457 1.834 2.272 2.272 0 01-1.564.861c-.589.106-1.175-.031-1.756-.411-2.046-1.46-3.835-3.293-5.367-5.501-1.49-2.217-2.584-4.691-3.28-7.419-.791-3.101-.94-6.189-.448-9.265.503-3.034 1.503-5.843 3.002-8.426 1.55-2.553 3.536-4.777 5.959-6.672 2.475-1.863 5.263-3.191 8.363-3.981 3.101-.791 6.164-.955 9.188-.493 3.076.492 5.885 1.493 8.428 3.003a24.128 24.128 0 016.735 5.944c1.905 2.464 3.254 5.247 4.045 8.347.696 2.729.901 5.429.614 8.1-.246 2.66-.917 5.121-2.014 7.382-.328.612-.797 1.018-1.407 1.217-.557.231-1.132.223-1.723-.023a2.487 2.487 0 01-1.279-1.391c-.241-.599-.213-1.178.084-1.738.861-1.805 1.395-3.768 1.602-5.891.248-2.132.093-4.294-.466-6.486-.633-2.48-1.705-4.695-3.215-6.643a19.062 19.062 0 00-5.378-4.771c-2.024-1.202-4.253-1.998-6.687-2.391-2.423-.35-4.875-.21-7.356.423zm-11.472 45.793c.264-.635.681-1.075 1.252-1.32a2.55 2.55 0 011.865-.043l42.566 16.144c.361.126.668.345.923.657.297.306.475.692.534 1.158.059.466-.017.884-.228 1.255a2.047 2.047 0 01-.728.866l-37.178 26.267a2.553 2.553 0 01-1.817.425c-.615-.095-1.129-.416-1.542-.966-.367-.513-.505-1.097-.417-1.753.137-.62.501-1.139 1.093-1.558l14.324-10.141-2.767-21.777-16.397-6.176c-.678-.258-1.163-.691-1.455-1.299a2.228 2.228 0 01-.028-1.739zm39.711 17.539l-16.81-6.382 2.129 16.761 14.681-10.379zm7.925 28.052c.683-.01 1.241.195 1.674.615.476.462.719 1.013.729 1.653l.507 33.468c.01.683-.216 1.241-.679 1.675-.419.475-.97.718-1.653.729-.682.01-1.262-.216-1.738-.678-.433-.42-.655-.971-.665-1.654l-.218-14.334-37.691.57c-.683.011-1.262-.215-1.739-.677-.433-.421-.655-.972-.665-1.655a2.39 2.39 0 01.615-1.673c.462-.476 1.034-.72 1.717-.73l37.692-.571-.219-14.398a2.4 2.4 0 01.615-1.674c.463-.433 1.036-.655 1.718-.666zm-.061 47.74c.68.057 1.213.337 1.599.84.429.507.616 1.079.563 1.717l-1.453 17.347c-.057.681-.338 1.214-.841 1.6-.464.432-1.037.619-1.717.563-.68-.057-1.235-.339-1.663-.846-.39-.461-.556-1.031-.499-1.712l1.256-14.987-13.649-1.143-1.586 18.942c-.057.68-.338 1.213-.841 1.599-.464.432-1.037.62-1.717.563-.68-.057-1.235-.339-1.663-.846-.39-.46-.556-1.031-.499-1.711l1.587-18.942-16.837-1.409-1.945 23.214c-.054.638-.334 1.171-.841 1.6-.464.432-1.036.619-1.717.562-.68-.056-1.234-.338-1.663-.845a2.396 2.396 0 01-.499-1.712l2.138-25.51.005-.064a2.388 2.388 0 01.777-1.605c.507-.429 1.1-.614 1.78-.557l39.925 3.342zm-48.944 74.585c-.124.628-.463 1.126-1.015 1.495-.551.369-1.141.491-1.769.366-.628-.124-1.126-.462-1.495-1.014-.369-.552-.491-1.142-.366-1.769l.412-2.072c.249-1.255.603-2.381 1.062-3.378a7.599 7.599 0 012.056-2.462c.911-.646 2.078-1.154 3.5-1.524 1.464-.362 3.283-.544 5.459-.547 2.142-.053 3.97-.169 5.485-.347 1.514-.177 2.786-.556 3.814-1.135 1.02-.536 1.831-1.332 2.432-2.388.593-1.013 1.056-2.356 1.388-4.03l2.395-12.053-18.895-3.751c-.669-.133-1.189-.476-1.557-1.028-.336-.501-.437-1.087-.304-1.756.125-.628.442-1.13.952-1.508.552-.369 1.163-.487 1.832-.354l39.297 7.803c.628.125 1.13.442 1.508.952.368.551.49 1.141.366 1.769l-3.056 15.379a11.363 11.363 0 01-1.752 4.22 10.913 10.913 0 01-3.159 3.092 11.631 11.631 0 01-4.128 1.725c-1.497.312-3.041.31-4.632-.006-2.05-.407-3.729-1.263-5.036-2.566-1.273-1.254-2.171-2.758-2.692-4.515-1.152 2.077-2.786 3.514-4.902 4.312-2.083.848-4.986 1.229-8.71 1.142-2.468-.056-4.363.177-5.685.698-1.288.571-2.094 1.672-2.418 3.304l-.387 1.946zm25.384-16.753c-.374 1.883-.054 3.556.96 5.019 1.057 1.471 2.526 2.394 4.41 2.768a6.06 6.06 0 002.686-.054 6.615 6.615 0 002.484-1.008 5.959 5.959 0 001.867-1.847 6.053 6.053 0 001.077-2.462l2.569-12.931-13.433-2.667-2.62 13.182zm-.556 64.004c.633.256 1.068.662 1.303 1.217.259.611.269 1.213.029 1.806l-12.552 31.03c-.256.633-.681 1.059-1.276 1.279-.572.275-1.174.285-1.807.029-.633-.256-1.079-.689-1.338-1.3-.236-.556-.225-1.15.03-1.783l5.376-13.29-34.949-14.126c-.633-.256-1.079-.689-1.338-1.3-.236-.555-.225-1.149.031-1.782a2.388 2.388 0 011.217-1.303c.611-.259 1.233-.261 1.866-.005l34.949 14.126 5.4-13.349a2.392 2.392 0 011.217-1.303c.595-.22 1.21-.202 1.842.054zm-34.684 32.173c2.813 1.526 5.172 3.485 7.077 5.878 1.922 2.451 3.303 5.093 4.143 7.928a24.09 24.09 0 01.902 8.935c-.276 3.102-1.178 6.06-2.705 8.872-1.527 2.812-3.506 5.16-5.937 7.045-2.452 1.922-5.114 3.293-7.987 4.113-2.856.878-5.835 1.179-8.938.903-3.066-.255-6.005-1.146-8.817-2.672-2.813-1.526-5.181-3.514-7.103-5.965a24.091 24.091 0 01-4.113-7.984c-.84-2.834-1.122-5.802-.845-8.904.256-3.065 1.148-6.004 2.674-8.816 1.527-2.812 3.517-5.179 5.968-7.102 2.432-1.884 5.075-3.265 7.931-4.143 2.872-.82 5.841-1.102 8.907-.847 3.083.313 6.031 1.233 8.843 2.759zm-2.26 4.162c-2.25-1.221-4.593-1.958-7.028-2.211-2.456-.216-4.831 0-7.125.648-2.277.707-4.386 1.82-6.328 3.339-1.942 1.519-3.523 3.404-4.745 5.654-1.221 2.249-1.94 4.602-2.157 7.057-.216 2.455.01 4.811.678 7.067a19.082 19.082 0 003.308 6.382c1.519 1.94 3.404 3.521 5.654 4.742 2.251 1.221 4.604 1.939 7.06 2.155 2.455.216 4.822-.029 7.099-.735 2.294-.649 4.412-1.733 6.353-3.252 1.942-1.519 3.524-3.404 4.745-5.654 1.222-2.249 1.941-4.602 2.157-7.057a19.046 19.046 0 00-.704-7.154c-.668-2.256-1.762-4.354-3.282-6.295-1.54-1.903-3.434-3.465-5.685-4.686zm-72.031 69.676c.436-.525.969-.832 1.597-.92.634-.028 1.213.176 1.738.613l10.484 8.713 30.54 2.415c.64.032 1.164.302 1.575.81.443.534.648 1.121.616 1.76a2.093 2.093 0 01-.818 1.484 2.21 2.21 0 01-1.671.608l-27.77-1.943 6.979 26.939c.148.622.064 1.19-.252 1.704-.311.574-.762.948-1.351 1.124-.623.148-1.238.053-1.845-.285-.574-.31-.935-.777-1.083-1.4l-7.949-29.575-10.483-8.713c-.525-.437-.818-.985-.879-1.646-.055-.601.135-1.164.572-1.688zm.378 34.286c2.196 2.328 3.826 4.925 4.89 7.793 1.062 2.927 1.55 5.869 1.464 8.824a24.097 24.097 0 01-1.931 8.77c-1.23 2.861-3.009 5.39-5.337 7.585-2.328 2.196-4.941 3.809-7.839 4.842-2.929 1.061-5.886 1.533-8.872 1.416-2.987-.056-5.911-.7-8.774-1.93-2.833-1.199-5.347-2.962-7.544-5.289-2.196-2.327-3.825-4.955-4.887-7.883a24.116 24.116 0 01-1.418-8.868c.086-2.955.745-5.863 1.975-8.724 1.199-2.832 2.963-5.345 5.291-7.541 2.328-2.195 4.957-3.824 7.886-4.885 2.898-1.032 5.84-1.52 8.827-1.463 2.985.117 5.895.775 8.728 1.974 2.831 1.259 5.345 3.052 7.541 5.379zm-3.445 3.25c-1.758-1.862-3.754-3.293-5.989-4.294-2.266-.971-4.59-1.506-6.972-1.606-2.384-.039-4.735.36-7.053 1.198-2.319.838-4.41 2.135-6.272 3.891-1.863 1.757-3.28 3.768-4.251 6.033-.972 2.265-1.492 4.573-1.56 6.925a19.048 19.048 0 001.152 7.095c.838 2.318 2.136 4.408 3.893 6.269 1.757 1.862 3.768 3.279 6.034 4.25 2.267.971 4.591 1.476 6.975 1.516 2.382.099 4.733-.27 7.051-1.108 2.319-.838 4.41-2.135 6.272-3.891 1.862-1.757 3.279-3.767 4.251-6.032a19.071 19.071 0 001.563-7.016c.068-2.352-.317-4.687-1.155-7.005-.869-2.288-2.182-4.363-3.939-6.225zm-71.628 54.152c-1.56-2.137-2.618-4.455-3.174-6.954-.59-2.473-.695-4.932-.313-7.376.382-2.444 1.219-4.77 2.512-6.98 1.283-2.151 3.01-4.018 5.182-5.602 2.172-1.584 4.495-2.671 6.969-3.261 2.465-.53 4.92-.605 7.365-.222 2.445.382 4.773 1.219 6.983 2.511 2.177 1.317 4.045 3.044 5.604 5.181l14.225 19.489c.403.551.54 1.137.412 1.759-.102.655-.412 1.172-.929 1.549-.551.402-1.138.539-1.759.412-.631-.068-1.148-.378-1.55-.93l-14.225-19.488a15.04 15.04 0 00-4.237-3.96 14.952 14.952 0 00-5.251-1.874 15.534 15.534 0 00-5.534.234 14.297 14.297 0 00-5.281 2.426c-1.62 1.181-2.911 2.598-3.871 4.249-.995 1.676-1.633 3.408-1.912 5.197a14.936 14.936 0 00.183 5.569c.436 1.9 1.245 3.66 2.427 5.28l14.225 19.489c.403.551.557 1.125.464 1.721-.102.656-.429 1.185-.981 1.587-.552.402-1.138.54-1.759.412-.631-.068-1.148-.378-1.55-.929l-14.225-19.489zm-51.684 13.988c-.559.31-1.158.374-1.796.191-.639-.183-1.113-.554-1.423-1.114-.311-.56-.375-1.158-.192-1.796.183-.638.554-1.112 1.114-1.423l1.847-1.024c1.12-.62 2.208-1.077 3.265-1.37a7.585 7.585 0 013.208-.022c1.082.278 2.223.841 3.425 1.687 1.222.884 2.537 2.155 3.945 3.814 1.424 1.6 2.694 2.921 3.808 3.962 1.114 1.041 2.225 1.767 3.331 2.178 1.069.432 2.2.537 3.394.314 1.157-.202 2.481-.717 3.974-1.544l10.747-5.957-9.344-16.846c-.331-.597-.406-1.214-.223-1.852.166-.58.548-1.036 1.145-1.367a2.397 2.397 0 011.766-.247c.638.183 1.123.573 1.454 1.17l19.435 35.035c.31.559.392 1.148.247 1.765-.183.638-.554 1.112-1.114 1.422l-13.714 7.602a11.358 11.358 0 01-4.353 1.388 10.87 10.87 0 01-4.401-.414 11.59 11.59 0 01-3.984-2.036c-1.206-.941-2.202-2.121-2.988-3.539-1.014-1.828-1.446-3.662-1.295-5.502.133-1.781.702-3.438 1.707-4.97-2.33.462-4.483.143-6.459-.957-1.993-1.042-4.16-3.012-6.499-5.91-1.553-1.92-2.955-3.216-4.206-3.889-1.268-.614-2.63-.518-4.085.289l-1.736.962zm29.19 8.553c-1.679.931-2.75 2.256-3.211 3.975-.441 1.756-.195 3.474.736 5.153a6.065 6.065 0 001.777 2.016 6.62 6.62 0 002.374 1.245c.833.27 1.705.347 2.617.232a6.054 6.054 0 002.575-.768l11.531-6.392-6.644-11.977-11.755 6.516zm-87.003 53.128c.205.651.147 1.25-.174 1.798-.307.588-.766.978-1.377 1.169-.651.204-1.251.146-1.798-.174-.576-.267-.966-.726-1.17-1.377l-11.986-38.229c-.204-.652-.153-1.272.155-1.86.279-.534.745-.904 1.396-1.108a2.395 2.395 0 011.78.113c.588.308.984.787 1.188 1.439l4.328 13.801 34.672 11.538-10.723-34.198c-.204-.652-.152-1.271.155-1.859.28-.535.745-.905 1.396-1.109a2.395 2.395 0 011.78.114c.588.307.984.787 1.189 1.438l11.986 38.229c.204.651.146 1.251-.174 1.798-.308.588-.767.978-1.378 1.169a1.96 1.96 0 01-.912.085 3.325 3.325 0 01-.867-.198l-35.497-11.816 6.031 19.237zm-21.784 5.436c.128.671.001 1.259-.38 1.766-.374.549-.875.883-1.503 1.003l-17.102 3.252c-.67.127-1.259 0-1.766-.381-.541-.332-.875-.833-1.003-1.503-.127-.671-.005-1.281.369-1.829.339-.499.844-.812 1.515-.94l14.775-2.809-2.56-13.455-18.674 3.551c-.67.127-1.259 0-1.766-.381-.541-.331-.875-.832-1.003-1.503-.127-.671-.005-1.28.369-1.829.339-.499.844-.812 1.515-.94l18.673-3.55-3.158-16.599-22.886 4.352c-.629.12-1.218-.007-1.767-.381-.54-.331-.875-.832-1.002-1.503-.128-.67-.005-1.28.368-1.829.382-.507.887-.82 1.515-.939l25.15-4.783.063-.011a2.392 2.392 0 011.754.317c.549.374.887.896 1.015 1.566l7.489 39.358zm-43.014 7.398c.06.681-.125 1.254-.555 1.72-.427.509-.958.791-1.596.847l-17.341 1.527c-.68.06-1.253-.125-1.719-.555-.505-.384-.788-.916-.848-1.596-.06-.68.124-1.274.55-1.783.387-.462.921-.724 1.601-.783l14.982-1.32-1.202-13.643-18.935 1.668c-.68.059-1.253-.126-1.719-.556-.505-.384-.788-.915-.848-1.596-.06-.68.124-1.274.55-1.783.387-.462.921-.723 1.601-.783l18.935-1.668-1.483-16.83-23.207 2.043c-.637.056-1.21-.129-1.719-.555-.505-.384-.787-.916-.847-1.596-.06-.68.123-1.274.549-1.783.43-.466.964-.727 1.602-.783l25.501-2.246.064-.006a2.391 2.391 0 011.713.492c.509.426.793.979.853 1.659l3.518 39.909zm-42.435 3.174c-.013.683-.258 1.233-.736 1.651-.478.46-1.037.684-1.677.672l-12.478-.239c-3.114-.06-6.003-.713-8.668-1.958-2.708-1.205-5.045-2.85-7.011-4.936-2.009-2.044-3.563-4.442-4.663-7.194-1.142-2.753-1.684-5.665-1.625-8.737.059-3.071.711-5.961 1.958-8.668 1.204-2.708 2.849-5.066 4.936-7.075 2.043-1.966 4.442-3.521 7.195-4.663 2.709-1.1 5.621-1.621 8.735-1.561l12.478.239c.64.012 1.19.236 1.651.672.461.478.684 1.058.671 1.741l-.766 40.056zm-14.444-37.979c-2.432-.047-4.701.358-6.809 1.214-2.151.898-4.009 2.121-5.575 3.67a17.96 17.96 0 00-3.819 5.56c-.938 2.158-1.43 4.453-1.476 6.885-.047 2.431.358 4.722 1.213 6.872.855 2.15 2.056 4.03 3.605 5.638 1.504 1.651 3.314 2.966 5.429 3.945 2.072.978 4.324 1.491 6.756 1.538l10.43.199.676-35.321-10.43-.2zm-46.847 3.781a11.29 11.29 0 011.527-4.453 11.437 11.437 0 012.948-3.435 12.319 12.319 0 014.066-2.07 11.997 11.997 0 014.683-.314l5.842.733c.635.08 1.159.361 1.572.843.364.519.504 1.117.419 1.794-.085.677-.366 1.201-.842 1.571-.525.407-1.104.571-1.739.491l-5.842-.733a6.63 6.63 0 00-2.803.228 7.493 7.493 0 00-2.414 1.245 7.456 7.456 0 00-1.803 2.031 6.63 6.63 0 00-.915 2.659l-2.634 20.955a11.981 11.981 0 01-1.463 4.46 12.304 12.304 0 01-3.011 3.428 11.619 11.619 0 01-3.995 2.014c-1.519.454-3.083.58-4.691.378l-5.843-.733c-.677-.086-1.198-.387-1.563-.906-.412-.482-.576-1.062-.491-1.739.085-.677.39-1.22.914-1.627.477-.37 1.054-.513 1.731-.427l5.842.733a6.63 6.63 0 002.803-.228 7.493 7.493 0 002.414-1.245 7.47 7.47 0 001.803-2.031 7.334 7.334 0 00.851-2.667l2.634-20.955zm-20.282-11.478c-.191.963-.713 1.729-1.566 2.299-.853.571-1.761.76-2.723.569-.963-.191-1.729-.713-2.299-1.566-.57-.852-.76-1.76-.568-2.722.474-2.386 1.413-4.266 2.817-5.64 1.412-1.416 2.967-2.347 4.666-2.793.317-.067.711-.076 1.179-.026.427.041.72.317.88.827.302.886-.107 1.523-1.228 1.909a5.888 5.888 0 00-2.069 1.221 3.706 3.706 0 00-1.278 1.834 3.658 3.658 0 011.834 1.604c.411.777.53 1.606.355 2.484zm-52.501 6.865c-1.145 2.988-2.78 5.583-4.903 7.785-2.179 2.226-4.619 3.942-7.319 5.146a24.125 24.125 0 01-8.743 2.066c-3.112.132-6.163-.374-9.151-1.518-2.988-1.145-5.576-2.799-7.762-4.961-2.227-2.178-3.935-4.637-5.123-7.377-1.244-2.715-1.932-5.629-2.064-8.741-.148-3.072.351-6.102 1.496-9.09 1.146-2.987 2.808-5.595 4.987-7.821a24.12 24.12 0 017.379-5.124c2.7-1.204 5.607-1.873 8.719-2.006 3.073-.148 6.103.351 9.092 1.495 2.988 1.145 5.595 2.806 7.822 4.984 2.187 2.163 3.902 4.602 5.146 7.317 1.188 2.74 1.857 5.646 2.004 8.718.092 3.096-.434 6.139-1.58 9.127zm-4.422-1.694c.916-2.391 1.341-4.81 1.274-7.257-.107-2.462-.632-4.788-1.575-6.977-.998-2.164-2.378-4.109-4.138-5.834-1.761-1.725-3.836-3.046-6.227-3.961-2.39-.916-4.817-1.32-7.28-1.213-2.463.107-4.769.64-6.919 1.599a19.091 19.091 0 00-5.896 4.115c-1.725 1.761-3.047 3.836-3.963 6.227-.916 2.39-1.321 4.816-1.214 7.279.107 2.462.659 4.776 1.658 6.94.943 2.189 2.294 4.146 4.055 5.871 1.76 1.725 3.836 3.046 6.226 3.962 2.391.915 4.818 1.319 7.281 1.212a19.064 19.064 0 007.001-1.636c2.15-.958 4.087-2.318 5.813-4.078 1.686-1.776 2.987-3.859 3.904-6.249zm-75.652-54.037c-.564-.303-.941-.772-1.132-1.408-.191-.635-.135-1.235.169-1.798.303-.564.773-.941 1.409-1.132.635-.191 1.235-.135 1.799.168l1.86 1.001c1.127.606 2.1 1.274 2.918 2.005a7.611 7.611 0 011.752 2.686c.35 1.061.493 2.325.43 3.793-.084 1.505-.443 3.298-1.078 5.379-.578 2.063-1.004 3.844-1.278 5.344-.274 1.5-.286 2.826-.034 3.979.214 1.132.738 2.14 1.57 3.024.795.864 1.944 1.7 3.447 2.508l10.822 5.821 9.131-16.963c.323-.601.803-.997 1.439-1.188.578-.174 1.167-.099 1.769.224.563.304.951.754 1.162 1.352.191.636.124 1.254-.199 1.855l-18.989 35.278a2.391 2.391 0 01-1.353 1.162c-.635.191-1.235.135-1.799-.168l-13.809-7.427a11.357 11.357 0 01-3.521-2.911 10.901 10.901 0 01-2.03-3.926 11.608 11.608 0 01-.439-4.451c.142-1.523.597-2.998 1.365-4.426.991-1.84 2.301-3.195 3.931-4.062 1.572-.85 3.274-1.267 5.107-1.25-1.648-1.71-2.543-3.693-2.685-5.95-.2-2.239.288-5.126 1.463-8.66.777-2.344 1.111-4.223 1-5.639-.168-1.398-.984-2.492-2.45-3.28l-1.747-.94zm8.573 29.174c-1.691-.91-3.385-1.094-5.081-.553-1.717.579-3.03 1.713-3.94 3.404a6.043 6.043 0 00-.736 2.583 6.6 6.6 0 00.234 2.67 5.963 5.963 0 001.219 2.327 6.053 6.053 0 002.038 1.75l11.611 6.245 6.491-12.06-11.836-6.366zm-65.535-22.552c-.429.531-.96.815-1.593.852-.66.071-1.239-.095-1.737-.497-.532-.428-.816-.959-.853-1.592-.097-.627.068-1.206.497-1.737l23.681-29.329-18.131-14.628c-.498-.402-.782-.933-.852-1.593-.098-.626.068-1.205.497-1.736.429-.531.973-.832 1.634-.903a2.394 2.394 0 011.697.547l19.924 16.075.05.04c.498.402.795.916.893 1.543.07.66-.109 1.255-.538 1.786l-25.169 31.172zm-32.726-27.297c-.479.486-1.036.717-1.669.691-.664.005-1.224-.217-1.68-.666l-12.406-12.212c-.486-.479-.717-1.035-.692-1.669-.035-.633.188-1.193.667-1.679.479-.486 1.05-.732 1.714-.737.604-.005 1.149.232 1.635.711l10.718 10.551 9.612-9.756-13.546-13.335c-.486-.479-.717-1.035-.691-1.669-.035-.633.187-1.193.666-1.679.479-.486 1.05-.732 1.714-.737.604-.005 1.149.232 1.635.711l13.546 13.335 11.858-12.036-16.602-16.343c-.456-.449-.686-1.005-.691-1.669-.035-.633.187-1.193.666-1.679.479-.486 1.05-.732 1.714-.737a2.39 2.39 0 011.635.711l18.243 17.96.046.045c.456.449.702.99.737 1.623.005.664-.232 1.239-.711 1.725l-28.118 28.54zm4.917-53.984c.112.679-.01 1.273-.366 1.782-.389.536-.91.876-1.562 1.021l-44.68 8.755c-.373.083-.75.059-1.131-.071-.414-.104-.769-.337-1.065-.702-.296-.364-.452-.759-.469-1.185-.049-.4.004-.773.162-1.121l17.711-41.928a2.553 2.553 0 011.32-1.319c.571-.244 1.178-.242 1.819.006.582.242 1.009.665 1.28 1.27.211.598.176 1.231-.105 1.899l-6.814 16.172 13.848 17.033 17.189-3.409c.712-.139 1.352-.027 1.922.335.509.356.823.843.941 1.462zm-42.992 6.064l17.649-3.452-10.658-13.11-6.991 16.562zm-4.782-58.36l-40.844 2.902c-.724.05-1.317-.133-1.779-.549-.52-.429-.8-.958-.842-1.586-.027-.688.185-1.273.637-1.757.416-.462.956-.724 1.621-.788l45.472-3.229c.379-.037.75.033 1.112.209.362.177.668.464.917.861.249.398.374.798.374 1.201 0 .402-.099.766-.298 1.092l-22.787 39.467c-.348.57-.82.941-1.417 1.113-.634.195-1.253.129-1.86-.196a2.044 2.044 0 01-1.025-1.397c-.195-.633-.112-1.264.25-1.892l20.469-35.451zm-47.806-12.128c-.616.295-1.218.322-1.805.082-.626-.221-1.077-.621-1.353-1.198l-7.504-15.708c-.294-.616-.322-1.217-.082-1.804.182-.608.582-1.058 1.198-1.352.616-.294 1.237-.331 1.863-.11.569.202 1 .61 1.295 1.226l6.483 13.571 12.36-5.9-8.194-17.152c-.294-.616-.321-1.217-.082-1.804.183-.608.582-1.058 1.198-1.352.616-.294 1.237-.331 1.863-.11.57.202 1 .61 1.295 1.226l8.194 17.151 15.248-7.278-10.043-21.021c-.275-.577-.303-1.179-.082-1.805.183-.607.582-1.058 1.199-1.352.616-.294 1.237-.33 1.862-.109.588.24 1.02.648 1.295 1.226l11.036 23.099.028.058c.275.577.322 1.17.139 1.777-.221.626-.64 1.086-1.256 1.38l-36.155 17.259zm7.61-96.978c.18.659.124 1.271-.164 1.835-.341.535-.841.892-1.5 1.071l-13.156 3.571-19.52 23.602c-.393.504-.915.779-1.566.823-.693.055-1.291-.114-1.796-.507a2.097 2.097 0 01-.745-1.522 2.21 2.21 0 01.462-1.717l17.541-21.606-26.064-9.769c-.595-.236-1.012-.632-1.251-1.186-.291-.584-.34-1.168-.144-1.751.236-.595.667-1.043 1.292-1.346.584-.291 1.174-.318 1.768-.082l28.781 10.491 13.156-3.572c.66-.178 1.277-.103 1.853.227.523.3.874.779 1.053 1.438zM47 537.843c-3.167.464-6.23.309-9.19-.465-3.008-.809-5.698-2.097-8.07-3.862a24.13 24.13 0 01-6.08-6.613c-1.639-2.649-2.69-5.556-3.154-8.722-.465-3.167-.29-6.232.526-9.198.81-3.008 2.118-5.701 3.926-8.079 1.759-2.413 3.963-4.44 6.612-6.079 2.606-1.632 5.493-2.68 8.659-3.144 3.166-.464 6.253-.291 9.261.518a24.133 24.133 0 018.08 3.926c2.371 1.766 4.377 3.973 6.016 6.622 1.633 2.607 2.681 5.493 3.146 8.659.464 3.166.291 6.253-.518 9.261-.816 2.966-2.103 5.655-3.862 8.069-1.807 2.378-4.014 4.383-6.621 6.016-2.655 1.597-5.566 2.627-8.732 3.091zm-.688-4.686c2.533-.371 4.85-1.185 6.951-2.442 2.095-1.299 3.866-2.895 5.313-4.789 1.4-1.93 2.42-4.085 3.063-6.464.643-2.38.778-4.836.407-7.369-.372-2.533-1.207-4.847-2.506-6.942-1.3-2.095-2.893-3.845-4.78-5.25a19.057 19.057 0 00-6.475-3.127c-2.38-.643-4.836-.779-7.369-.407-2.533.371-4.847 1.206-6.942 2.505-2.095 1.298-3.842 2.913-5.24 4.843-1.448 1.894-2.493 4.03-3.136 6.41-.642 2.38-.778 4.836-.407 7.369.372 2.533 1.207 4.847 2.506 6.942a19.07 19.07 0 004.853 5.304c1.888 1.405 4.022 2.429 6.402 3.072 2.374.601 4.827.716 7.36.345zm-3.526-92.824c2.645-.04 5.149.434 7.51 1.423 2.362.945 4.43 2.279 6.206 4.002 1.776 1.723 3.193 3.75 4.253 6.08 1.016 2.289 1.544 4.778 1.585 7.465.04 2.688-.412 5.212-1.357 7.574a20.017 20.017 0 01-4.068 6.142c-1.722 1.776-3.749 3.193-6.08 4.252-2.331 1.017-4.82 1.546-7.465 1.586l-24.125.365c-.683.01-1.24-.216-1.674-.679-.477-.462-.72-1.013-.73-1.653-.01-.683.216-1.241.68-1.675.419-.475.97-.718 1.652-.729l24.125-.365a15.036 15.036 0 005.68-1.174 14.954 14.954 0 004.56-3.205 15.561 15.561 0 003.001-4.654 14.31 14.31 0 001.066-5.713c-.03-2.005-.443-3.876-1.238-5.614-.795-1.78-1.842-3.3-3.141-4.561a14.975 14.975 0 00-4.655-3.066 14.31 14.31 0 00-5.713-1.066l-24.125.366c-.683.01-1.24-.195-1.674-.615-.476-.462-.72-1.035-.73-1.717-.01-.683.216-1.241.679-1.675.42-.475.97-.718 1.653-.729l24.125-.365zm22.843-83.138L34.39 330.736c-.552-.47-.848-1.015-.888-1.635-.072-.671.097-1.245.507-1.724.461-.511 1.022-.781 1.684-.812.62-.039 1.19.151 1.71.57l34.777 29.458c.297.239.513.548.649.927s.153.798.053 1.256c-.1.459-.29.832-.572 1.12-.28.288-.606.48-.976.574l-21.698 6.078 17.197 14.556c.297.24.513.549.649.928s.153.798.053 1.256c-.1.459-.29.832-.571 1.12a2.053 2.053 0 01-.977.573l-43.888 12.312c-.648.164-1.245.1-1.792-.194-.59-.303-.987-.783-1.193-1.439a2.045 2.045 0 01.243-1.716c.303-.589.804-.982 1.502-1.179l39.423-11.058-16.096-13.596-16.74 4.67c-.648.165-1.245.1-1.792-.194-.59-.303-.987-.783-1.193-1.439a2.043 2.043 0 01.243-1.715c.303-.589.804-.982 1.502-1.18l13.675-3.831-10.838-9.175c-.552-.47-.848-1.014-.888-1.634-.072-.671.097-1.246.507-1.724.461-.511 1.022-.782 1.684-.812.62-.04 1.19.15 1.71.569l13.262 11.275 20.31-5.726zm-24.176-42.807c-.64-.24-1.076-.654-1.311-1.243-.275-.604-.3-1.206-.075-1.805l6.112-16.3c.24-.639.654-1.076 1.243-1.311.565-.29 1.167-.315 1.806-.075.639.239 1.096.661 1.37 1.265.25.549.255 1.143.016 1.783l-5.28 14.082 12.825 4.806 6.673-17.798c.24-.64.654-1.077 1.244-1.311.564-.29 1.166-.315 1.805-.076.64.24 1.096.662 1.371 1.266.25.549.255 1.143.015 1.782l-6.673 17.798 15.821 5.928 8.18-21.813c.224-.599.639-1.036 1.243-1.311.564-.289 1.166-.315 1.806-.075.639.239 1.096.661 1.37 1.265.235.59.24 1.184.016 1.783l-8.989 23.97-.022.06a2.395 2.395 0 01-1.184 1.334c-.604.275-1.226.292-1.865.053l-37.517-14.057zm15.319-38.943c-.614-.299-1.01-.753-1.187-1.361-.217-.628-.184-1.229.096-1.804.3-.614.753-1.01 1.362-1.188.59-.235 1.191-.202 1.805.097l33.886 16.513 10.212-20.939c.28-.575.735-.971 1.362-1.187.589-.235 1.191-.203 1.805.096.613.299 1.028.762 1.244 1.39.178.608.127 1.2-.154 1.776l-11.221 23.009-.028.058a2.39 2.39 0 01-1.305 1.215c-.627.216-1.248.175-1.862-.124l-36.015-17.551zm18.804-36.999c-.582-.355-.934-.845-1.053-1.467-.156-.646-.067-1.241.266-1.787.356-.583.846-.934 1.469-1.054.609-.178 1.204-.089 1.787.266l32.177 19.639 12.143-19.881c.333-.546.823-.897 1.468-1.054.609-.178 1.205-.089 1.787.267.583.355.952.856 1.108 1.501.12.622.013 1.207-.321 1.753l-13.344 21.847-.033.055a2.393 2.393 0 01-1.414 1.086c-.645.156-1.259.057-1.842-.299l-34.198-20.872zm71.291-31.037c-.654.215-1.259.186-1.817-.087a2.55 2.55 0 01-1.25-1.385l-15.535-42.783a2.045 2.045 0 01-.103-1.127c.038-.425.214-.812.529-1.16.314-.349.681-.564 1.1-.646a2.047 2.047 0 011.132-.013l44.172 11.039a2.553 2.553 0 011.507 1.1c.329.527.421 1.126.274 1.798-.15.612-.502 1.098-1.058 1.459-.558.301-1.19.364-1.894.189l-17.034-4.24-14.704 16.299 6.016 16.453c.247.682.235 1.332-.035 1.95a2.226 2.226 0 01-1.3 1.154zm-12.614-41.529l6.13 16.9 11.318-12.545-17.448-4.355zm19.174-27.117c-.456-.508-.651-1.078-.586-1.709.036-.662.293-1.207.77-1.634.508-.455 1.078-.651 1.709-.586.635.005 1.18.261 1.635.77l25.158 28.072 17.355-15.54c.477-.427 1.047-.623 1.709-.586.635.005 1.18.261 1.635.769.456.509.666 1.094.629 1.757a2.395 2.395 0 01-.812 1.587l-19.072 17.077-.047.043a2.398 2.398 0 01-1.667.634c-.663-.037-1.222-.309-1.678-.818l-26.738-29.836zm40.854-9.775c-1.848-2.613-3.097-5.414-3.747-8.402-.64-3.048-.71-6.029-.21-8.942a24.102 24.102 0 013.143-8.413c1.62-2.66 3.737-4.913 6.35-6.76 2.613-1.847 5.427-3.078 8.441-3.693 3.049-.64 6.043-.692 8.983-.157 2.949.476 5.754 1.524 8.415 3.144 2.637 1.585 4.879 3.684 6.727 6.296 1.848 2.613 3.092 5.443 3.732 8.491.615 3.013.668 6.006.158 8.979-.501 2.914-1.561 5.701-3.181 8.361-1.585 2.635-3.684 4.876-6.297 6.723-2.614 1.847-5.445 3.09-8.494 3.73-3.014.615-5.996.684-8.945.209-2.94-.536-5.727-1.596-8.364-3.181-2.626-1.644-4.863-3.773-6.711-6.385zm3.868-2.734c1.478 2.09 3.253 3.788 5.326 5.092 2.107 1.28 4.332 2.137 6.677 2.57 2.354.373 4.738.308 7.152-.196 2.413-.504 4.665-1.494 6.756-2.972 2.09-1.477 3.776-3.269 5.056-5.375 1.28-2.107 2.119-4.319 2.517-6.638a19.07 19.07 0 00-.144-7.186c-.504-2.413-1.496-4.664-2.974-6.754-1.478-2.091-3.271-3.776-5.378-5.055-2.107-1.28-4.338-2.107-6.692-2.48-2.345-.434-4.724-.398-7.137.105-2.414.504-4.666 1.495-6.756 2.972-2.091 1.478-3.776 3.27-5.056 5.376a19.057 19.057 0 00-2.533 6.727c-.398 2.319-.345 4.685.16 7.097.539 2.388 1.547 4.627 3.026 6.717zm65.246-63.799c-.318-.605-.368-1.205-.151-1.8.197-.634.579-1.1 1.146-1.397.604-.318 1.205-.368 1.801-.15.614.16 1.079.541 1.397 1.146l18.633 35.467c.317.604.377 1.223.18 1.857-.179.576-.571 1.023-1.176 1.34a2.393 2.393 0 01-1.771.207c-.634-.198-1.109-.598-1.427-1.203L275.3 85.118l-36.178-5.151 16.669 31.728c.317.604.377 1.223.18 1.857-.179.576-.571 1.023-1.176 1.34a2.398 2.398 0 01-1.771.207c-.634-.198-1.109-.598-1.427-1.203l-18.633-35.467c-.317-.605-.367-1.205-.15-1.8.197-.634.579-1.1 1.146-1.397.302-.159.596-.241.882-.247.324-.025.62-.012.889.04l37.039 5.277-9.375-17.847zm19.338-8.782c-.247-.637-.228-1.239.056-1.806.268-.607.701-1.026 1.298-1.256l16.236-6.278c.637-.246 1.239-.228 1.807.056.591.229 1.01.662 1.257 1.298.246.637.235 1.259-.033 1.866-.244.552-.685.95-1.321 1.197l-14.028 5.423 4.942 12.773 17.729-6.854c.637-.246 1.239-.227 1.806.056.592.229 1.011.662 1.257 1.298.247.637.236 1.259-.033 1.866-.244.552-.684.95-1.321 1.197l-17.729 6.854 6.097 15.758 21.729-8.401c.597-.231 1.199-.212 1.806.056.592.229 1.011.662 1.257 1.298.246.637.235 1.259-.033 1.866a2.392 2.392 0 01-1.321 1.197l-23.878 9.232-.059.023a2.392 2.392 0 01-1.783.003c-.607-.269-1.034-.721-1.28-1.358l-14.458-37.364zm51.712 21.588c-.354-.915-.324-1.842.091-2.78.415-.938 1.08-1.584 1.995-1.938.916-.354 1.842-.323 2.781.092.938.414 1.584 1.08 1.938 1.995.354.915.324 1.842-.091 2.78-.415.938-1.08 1.584-1.995 1.938-.915.353-1.842.323-2.78-.092-.939-.415-1.585-1.08-1.939-1.995z" fill="#255244"/></svg>