<svg width="80" height="130" fill="none" xmlns="http://www.w3.org/2000/svg"><path fill-rule="evenodd" clip-rule="evenodd" d="M30.754.434c-.67.717-1.197 2.233-1.783 5.127l-.427 2.113-2.442.135c-3.578.198-9.982 3.254-16.782 8.01-3.4 2.378-5.834 3.817-7.17 4.24-1.474.465-2.053.83-2.134 1.344-.083.523.15.766.9.943 1.495.35 4.97 2.338 7.86 4.494 2.756 2.057 7.499 4.625 8.556 4.633.363.003 1.604.46 2.758 1.018 1.155.557 2.854 1.187 3.776 1.4l1.677.387.437 2.831c.525 3.393.568 16.608.066 19.991-.234 1.578-.852 3.356-1.792 5.16-.79 1.513-1.537 3.038-1.662 3.39-.312.88.4 4.684 1.456 7.787l1.989 5.847c.61 1.797 1.363 4.66 1.673 6.362.31 1.703 1.14 5.033 1.844 7.401.704 2.368 1.53 5.618 1.837 7.222 1.64 8.605 1.496 10.112-1.5 15.724-2.06 3.861-2.091 3.96-1.642 5.365.824 2.578 2.45 4.289 5.155 5.428.91.383 1.96.955 2.334 1.271 2.306 1.952 10.723 2.63 13.837 1.115 3.504-1.705 4.24-2.351 5.417-4.75 3.442-7.018 5.496-12.27 7.082-18.103 1.16-4.264 1.478-5 2.816-6.505 1.654-1.86 3.473-5.353 4.003-7.686.294-1.295.642-4.83.774-7.857.237-5.459.508-6.568 1.514-6.207.288.103.877-.044 1.31-.328.433-.284 1.123-.517 1.533-.517 1.234-.002 3.096-1.278 3.371-2.31.14-.526.715-1.358 1.276-1.85 1.85-1.62 1.817-2.482-.409-10.612-.76-2.773-1.606-4.679-2.902-6.536-.44-.63-.563-1.507-.483-3.44.098-2.369.01-2.75-1.027-4.413-1.466-2.35-2.888-3.164-5.535-3.166-1.83 0-2.192.127-3.473 1.225-1.187 1.017-1.56 1.166-2.186.879-3.93-1.807-4.435-1.933-7.639-1.905-2.967.026-3.406.126-5.883 1.333-1.472.717-3.444 1.826-4.38 2.465-.938.639-1.873 1.161-2.079 1.161-.206 0-.485-.967-.62-2.15-.287-2.509-1.115-7.494-1.713-10.313-.496-2.34-.124-3.016 1.656-3.011 1.785.005 6.018-1.028 9.036-2.203 2.892-1.127 7.5-3.803 13.211-7.673 1.896-1.285 3.84-2.535 4.32-2.777 1.34-.677 1.054-1.248-1.057-2.107-2.826-1.148-12.314-6.393-16.196-8.954-2.116-1.394-3.91-2.309-4.843-2.467a50.055 50.055 0 01-2.953-.614c-.81-.199-2.163-.365-3.008-.37-1.69-.009-2.692-.677-2.692-1.796 0-.975-2.102-4.328-3.068-4.894-1.416-.829-3.357-.968-3.994-.287zm3.853 2.523c.754.581 1.37 1.258 1.37 1.504s.316 1.124.7 1.953c.839 1.802.92 4.411.347 11.03-.292 3.365-.296 5.132-.015 6.19.216.815.43 3.433.476 5.819.045 2.386.297 5.868.561 7.738.263 1.87.485 4.204.492 5.186.008.982.18 1.881.381 1.998.516.298.46 2.7-.073 3.199-.343.32-.343.412 0 .412.247 0 .441.463.441 1.053 0 .592-.156.961-.357.845-.196-.113-.458.17-.58.63-.124.46-.622 1.159-1.107 1.553-.522.425-.794.93-.666 1.242.14.343 0 .524-.409.524-.343 0-1.262.426-2.042.946-1.123.75-1.375 1.107-1.212 1.723.162.62.08.734-.402.56-.788-.282-2.146.863-1.931 1.63.11.393-.364.94-1.448 1.667-.887.596-1.612 1.287-1.612 1.536 0 .248-.24.638-.534.866-.665.517-1.162 3.38-.667 3.844.238.222.433-.156.57-1.102.282-1.968 2.244-3.797 5.958-5.555 1.616-.765 3.436-1.733 4.045-2.153.609-.419 2.596-1.504 4.416-2.41 1.82-.906 3.558-1.84 3.861-2.077 1.709-1.327 8.523-4.634 9.55-4.634 1.37 0 3.825.996 5.987 2.43.858.569 2.14 1.397 2.848 1.84.708.444 1.93 1.29 2.717 1.88.786.59 1.543 1.073 1.682 1.073.412 0 3.463 2.819 4.543 4.197 2.278 2.909 3.187 7.079 1.893 8.68-.63.78-.711 2.116-.147 2.442.216.125.483-.098.594-.496.352-1.258.758-.786 1.022 1.188.174 1.3.115 2.068-.186 2.407-.753.848-1.412.553-1.772-.792-.568-2.118-.745-4.213-.357-4.213.198 0 .099-.243-.218-.54-.318-.297-.65-.877-.739-1.29-.485-2.254-.67-2.82-1.463-4.5-.634-1.34-1.498-2.326-3.207-3.66-1.287-1.004-2.299-1.952-2.249-2.107.157-.48-1.477-2.004-2.148-2.004-.352 0-1.15-.604-1.776-1.343-.832-.983-1.333-1.295-1.869-1.164-.498.122-.732.01-.732-.351 0-.734-1.089-.895-2.299-.34-.582.268-1.01.32-1.01.122 0-.188-.249-.253-.552-.144-.303.11-.552.043-.552-.146 0-.534.967-.752 1.426-.322.305.285.413.284.413-.004 0-.593-1.437-.89-2.04-.422-.294.229-.534.628-.534.889 0 .26-.29.471-.644.468-.363-.003-.483-.115-.275-.258.202-.139.575-.6.83-1.026.382-.639.373-.774-.047-.774-.68 0-1.363.808-1.434 1.696-.032.396-.23.662-.44.592-.209-.07-.357-.38-.329-.692.074-.811-1.002-.698-1.234.13-.16.574-.29.62-.743.27-.45-.349-.668-.288-1.209.336-.363.42-.837.763-1.052.763-.216 0-.647.363-.957.807-.311.444-.985.985-1.497 1.204-1.2.51-1.284.5-1.03-.12.125-.303.007-.51-.287-.504-.726.017-2.154 1.218-2.154 1.813 0 .613-.885.984-1.673.701-.37-.133-1.113.324-2.116 1.3-1.093 1.065-2.056 1.631-3.287 1.933-2.35.578-4.69 2.553-4.69 3.96 0 .572-.27 1.225-.6 1.45-.553.379-.55.483.042 1.328.817 1.166 1.446 1.19 1.139.044-.39-1.454.384-3.346 1.712-4.183.66-.416 2.772-1.368 4.693-2.116a141.267 141.267 0 006.435-2.713c1.618-.745 3.934-1.7 5.148-2.122 1.213-.422 2.868-1.057 3.677-1.413 3.047-1.336 5.147-1.136 7.417.71.641.522 2.368 1.7 3.837 2.616 7.199 4.496 6.71 4.045 7.295 6.717.388 1.77.356 2.086-.348 3.376-.862 1.58-.897 4.14-.06 4.398.347.107.462-.138.393-.833-.116-1.153.31-2.532.78-2.532.723 0 1.517 4.582.944 5.449-.498.755-2.684.464-3.462-.462-.398-.473-.973-.86-1.278-.86-.503 0-1.443-1.137-2.774-3.357-.278-.463-.519-2.009-.552-3.546-.04-1.846-.2-2.724-.496-2.725-.241-.001-.54.153-.666.343-.274.414-2.797.102-4.549-.562-.682-.259-1.55-.47-1.93-.47-.38 0-.671-.117-.647-.259.024-.142.024-.606 0-1.031-.072-1.268-.779-.878-.779.43 0 .906-.16 1.21-.643 1.232-1.865.083-2.434.288-3.241 1.166-.697.76-.992.879-1.395.566-.614-.477-1.801-.133-1.468.425.143.238.04.223-.259-.036-.588-.511-2.922-.58-2.922-.086 0 .189.354.344.785.344 1.077 0 2.525 1.55 2.525 2.703 0 .522-.257 1.249-.571 1.616-.555.649-.564.646-.343-.106.133-.453.064-.774-.165-.774-.216 0-.392.155-.392.344 0 .189-.222.344-.493.344-.27 0-.681.387-.911.86-.241.495-.271.86-.07.86.19 0 .26.214.152.477-.109.264-.497.405-.867.314-.368-.09-.781.004-.917.21s-.015.374.27.374c.854 0 2.748 1.01 2.988 1.594.16.389.063.489-.332.347-.328-.118-.556-.008-.556.268 0 .584.808.894 1.735.667.515-.125 1.35.47 3.127 2.232 2.306 2.287 3.196 3.635 2.704 4.095-.316.296-.98-.396-1.097-1.143-.141-.904-.843-1.002-.773-.108.033.412.419 1.022.858 1.355.935.707 1.013 1.01.26 1.01-1.022 0-.151.964 1.064 1.177.984.173 1.315.467 1.785 1.586.318.755.424 1.285.237 1.177-.187-.108-.34.01-.34.263 0 .66 1.097 2.033 1.458 1.824.38-.22.826.8.54 1.234-.307.464.574 2.756.97 2.527.19-.11.106-.707-.195-1.38-.536-1.2-.342-1.525.463-.772.243.227.441.912.441 1.522 0 1.494.788 4.6 1.167 4.6.439 0 .37-3.37-.102-4.987-.22-.757-.776-1.84-1.235-2.41-1.026-1.272-3.167-5.252-4.07-7.564-.37-.946-.952-2.106-1.295-2.58-.343-.472-.749-1.4-.9-2.063-.152-.662-.67-1.573-1.15-2.024-.479-.452-.872-1.126-.872-1.499 0-.5-.166-.618-.632-.45-.348.124-.51.113-.362-.026.326-.305 3.926-.39 3.726-.088-.313.474 1.293 1.416 1.943 1.14.56-.238.516-.297-.3-.403-.793-.104-.927-.269-.784-.967.095-.463.421-.842.726-.842.45 0 .468.096.096.516-.391.44-.285.516.73.516.904 0 1.137-.123.975-.516-.116-.284-.065-.516.115-.516.179 0 .608-.101.953-.225.586-.21.585-.165-.012.688-.674.962-.235 1.28.548.397.252-.284.575-.516.718-.516.582 0 4.797 3.883 4.792 4.414-.005.496-.054.503-.362.057-.302-.437-.358-.42-.363.11-.004.453.182.569.678.422.83-.247 1.354.306 1.693 1.786.315 1.378 1.127 1.992.85.643-.12-.594-.04-.879.223-.796.226.07.395.309.375.53-.02.22-.061.719-.092 1.108-.05.65-.118.666-.832.198-.716-.469-.873-.426-2.023.553-1.46 1.243-1.383 1.676.12.676l1.04-.693 1.371 1.175c1.418 1.215 1.784 2.198.82 2.198-.303 0-.901.328-1.33.729-.615.576-.676.788-.288 1.012.277.16.696.124.962-.083.36-.278.473-.191.473.364 0 .401-.166.73-.368.73-.202 0-.368.455-.368 1.011 0 .557-.165 1.108-.368 1.224-.202.117-.367.762-.367 1.433 0 .944.125 1.175.551 1.022.304-.108.552-.078.552.067 0 .483-.819 1.038-1.284.87-.253-.09-.573.113-.712.451-.139.339-.078.67.136.737.214.066.39.335.39.597 0 .282-.226.396-.552.279-.304-.11-.573-.066-.599.097-.026.161-.085.62-.13 1.017-.107.914-1.338 2.888-1.802 2.888-.192 0-.247-.096-.122-.213.125-.117-.022-.445-.326-.73-.493-.461-.652-.431-1.453.273-.495.434-.9 1.016-.9 1.292 0 .275-.323.99-.718 1.588-.671 1.016-.76 2.071-.279 3.293.112.284.286.748.387 1.032.143.401.19.382.213-.086.033-.668.588-.804.964-.235.133.202-.048.565-.403.808-.354.242-.533.608-.398.813a.41.41 0 01-.128.588c-.205.119-.373.594-.373 1.056 0 .462-.174.839-.386.839-.212 0-.69.634-1.06 1.41-.42.877-.755 1.234-.887.945-.117-.254-.116-.03.002.5.155.697.023 1.106-.474 1.48-.652.489-.642.504.194.286.728-.189.841-.127.644.354-.132.322-.24.745-.24.942 0 .217-.217.189-.551-.07-.445-.345-.557-.336-.58.044-.023.367-.072.373-.22.028-.24-.559-1.222.108-1.222.83 0 .591.61.623.86.044.101-.236.198-.072.214.366.015.438-.143 1.096-.352 1.462-.262.459-.262.665 0 .665.21 0 .38-.232.38-.516 0-.283.166-.516.368-.516.203 0 .356.194.342.43-.038.638-.653 1.877-.684 1.376-.04-.667-.76-.506-.766.172-.004.331-.169.834-.368 1.118-.257.367-.295.193-.132-.602.286-1.392-.036-1.435-.772-.103-.798 1.444-.754 2.811.082 2.532.354-.118.186.132-.375.557-.56.425-1.27 1.228-1.578 1.785-.308.556-.707.927-.888.823-.18-.105-1.012.144-1.848.552-2.162 1.053-7.893 1.028-10.238-.045-.878-.403-2.079-.745-2.667-.761-1.454-.038-1.917-.627-1.432-1.821.47-1.152.218-1.536-.353-.539-.606 1.059-1.249.904-.95-.229.202-.762.16-.862-.217-.516-.624.574-1.08.547-.835-.051.236-.577-.437-1.057-.772-.55-.471.713-.857-.036-.545-1.057.177-.575.232-1.265.122-1.532-.2-.49 1.07-2.302 1.553-2.215.427.078.888-.834.703-1.392-.096-.286.16-.716.568-.954.617-.36.777-.344.958.096.12.291.13.836.026 1.212-.238.85.348.911.635.067.324-.956.13-3.511-.268-3.511-.205 0-.274-.676-.162-1.599.145-1.203.471-1.842 1.32-2.585.692-.604 1.046-1.189.914-1.511-.289-.703-.942-.457-1.498.563l-.455.832-.005-.917c-.003-.504.201-.986.454-1.07.253-.085.334-.28.18-.434-.154-.154-.531.018-.838.383-.55.652-.558.651-.466-.025.052-.378-.042-.892-.209-1.141-.167-.249-.181-.558-.032-.688.149-.129.345-.04.436.197.238.625.837.164.837-.644 0-.379-.136-.61-.301-.514-.166.096-.253-.321-.194-.926l.106-1.099-.428.946c-.235.52-.565.946-.732.946-.167 0 .04-.631.46-1.402.42-.771.714-1.65.651-1.953-.1-.49-.188-.482-.774.067-.364.34-.777.501-.92.358-.142-.143-.05-.329.202-.413a.723.723 0 00.46-.641c0-.44.447-.638 1.194-.528.152.022.276-.365.276-.861 0-.763-.085-.836-.551-.474-.456.354-.56.317-.595-.216-.038-.577-.06-.581-.21-.042-.093.331-.322.602-.51.602-.445 0-.444-1.972.002-2.121.48-.16.654-1.798.215-2.006-.2-.095-.413.137-.474.516-.328 2.021-.501 2.409-.834 1.854-.37-.62-.042-3.058.412-3.058.165 0 .128-.465-.084-1.032-.211-.567-.507-1.032-.657-1.032-.506 0-1.051-1.588-.862-2.51.278-1.364-.16-2.664-.82-2.428-.42.15-.544-.073-.532-.958l.015-1.154 1.11 1.203 1.112 1.204-.269-1.028c-.148-.566-.489-1.235-.759-1.487-.578-.54-.64-1.096-.121-1.096.202 0 .367-.232.367-.516 0-.793-.62-.611-.882.258-.228.758-.244.76-.778.106-.3-.367-.546-1.004-.546-1.415 0-.411-.33-1.141-.735-1.622-.404-.481-.735-1.073-.735-1.316 0-.263.232-.171.575.226.548.635.565.617.353-.364-.122-.568-.239-1.264-.258-1.548-.02-.284-.198-.709-.398-.946-.218-.258-.224-.43-.016-.43.191 0 .3-.962.241-2.149a172.279 172.279 0 01-.118-2.699c-.006-.302-.343-.906-.747-1.342l-.736-.793-.016 1.342-.016 1.343-.531-1.376c-.293-.757-.455-1.571-.362-1.81.24-.613-.205-2.49-.591-2.49-.177 0-.322.336-.322.746s-.105.646-.235.525c-.427-.399.712-3.416 1.927-5.105.832-1.156 1.276-2.264 1.46-3.635.382-2.863.393-14.62.02-20.216-.232-3.455-.199-5.372.116-6.785.24-1.084.55-1.955.689-1.937.666.088 1.17-.082 1.17-.392 0-.19-.289-.344-.643-.344-.576.001-.631-.342-.526-3.267.1-2.77.212-3.274.735-3.308.552-.036.55-.057-.025-.197-.737-.18-.78-1.14-.319-6.916.335-4.18.848-4.954 3.445-5.202.151-.015.275-.19.275-.39s-.165-.27-.367-.152c-.52.3-.459-.638.073-1.135.314-.294.321-.413.025-.413-.23 0-.526.321-.659.714-.133.392-.314.646-.402.563-.287-.267.606-2.068 1.253-2.528.58-.412.581-.448.015-.458-.527-.01-.562-.186-.245-1.259.203-.687.287-1.538.188-1.892-.25-.895.105-.808 1.69.414zm-2.68 1.196c.006.709-.622 1.53-1.17 1.53-.162 0-.295-.241-.295-.536 0-.295.167-.44.37-.322.204.118.477-.043.606-.358s.024-.694-.234-.843c-.257-.15-.343-.46-.191-.69.355-.538.906.196.915 1.219zm-.71 3.03c-.462 1.138-1.122 1.18-1.122.073 0-.514.247-.886.643-.968.878-.183.9-.14.48.895zm15.424 3.41c1.294.598 1.63.927 1.545 1.508-.06.41.064.844.276.966.22.128.385-.079.385-.485 0-.39.067-.708.15-.708.081 0 1.356.696 2.832 1.548 1.62.934 2.399 1.552 1.965 1.558-.705.011-.705.02.017.538.727.52.727.532.022 1.02-.7.485-.698.495.07.495.431 0 .886-.155 1.011-.344.125-.19.755-.331 1.4-.317.646.015.926.104.622.197a27.72 27.72 0 00-1.286.447c-.405.151-1.201.45-1.77.665-.63.237-.946.253-.806.043.126-.191-.05-.347-.39-.347-.442 0-.515-.122-.255-.43.593-.703.402-1.634-.334-1.634-.764 0-.91.544-.214.8.253.092-.079.279-.736.415-1.385.286-1.559.735-.367.95.709.128.683.156-.184.196-.556.026-1.011.177-1.011.336 0 .43-3.371.232-4.348-.257-.681-.34-.762-.52-.411-.916.679-.765-.06-.578-1.008.255-.467.41-.962.64-1.1.512-.137-.129.051-.44.418-.691.529-.361.586-.594.274-1.114-.367-.612-.412-.616-.642-.056-.137.331-.5.602-.806.602-.423 0-.506-.247-.341-1.018.217-1.014-.233-1.717-.674-1.05-.378.572-.866.395-.693-.253.088-.331-.068-1.412-.347-2.402-.279-.99-.408-1.897-.287-2.015.465-.452 5.418.242 7.023.985zm-23.3-.353c-.038.237-.199.624-.356.86-.173.258-.104.43.172.43.253 0 .139.22-.253.488-.393.268-.594.6-.447.737.383.358 1.454-.566 1.245-1.074-.096-.235-.063-.533.075-.662s.25-.413.25-.63c0-.219.31-.453.688-.52.478-.087.6.008.399.31-.208.316-.104.37.376.198.574-.206.598-.164.176.312-.359.405-.377.614-.066.794.448.258.198 1.767-.292 1.767-.39 0-1.139 2.065-.886 2.447.11.167.025.304-.189.304-.684 0-.926.06-1.612.404-.59.296-.624.253-.276-.355.512-.895.51-1.817-.001-.995-.207.331-.542.602-.746.602-.204 0-.27-.155-.144-.344.125-.189-.021-.344-.324-.344-.682 0-1.192.682-.525.703.265.009-.18.238-.99.511-1.896.64-2.452.622-1.287-.04l.92-.524-.92.164a21.55 21.55 0 00-1.803.417c-.629.18-.809.138-.622-.144.158-.24.021-.399-.345-.399-.334 0-.695.313-.802.696-.18.64-.23.65-.648.116-.29-.37-.69-.494-1.11-.344-.56.202-.587.157-.18-.3.261-.296.74-.507 1.063-.471.749.083 1.874-.369 1.874-.754 0-.42 2.106-2.382 2.559-2.382.208 0 .016.389-.426.864-.738.794-1.279 2.231-.84 2.231.377 0 2.743-1.555 2.747-1.805.006-.39-.53-.31-1.025.155-.343.32-.442.297-.442-.107 0-.715 1.366-2.026 2.11-2.026.476 0 .513.092.17.413-.572.535-.562.963.022.963.255 0 .67-.31.922-.688.253-.378.308-.688.123-.688-.572 0 .002-1.33.644-1.489 1.03-.256 1.094-.243 1.022.2zm7.706.552c-.263.399.758 1.66 1.092 1.348.147-.137.08-.46-.15-.72-.23-.258-.308-.57-.175-.695s.058-.227-.165-.227c-.225 0-.495.133-.602.294zm10.614.895c-.319.71-.496 1.37-.395 1.465.102.095.444-.41.762-1.121.318-.712.495-1.372.394-1.466-.101-.095-.444.41-.761 1.122zm-17.082.531c0 .19.166.344.368.344.202 0 .368-.155.368-.344 0-.19-.166-.344-.368-.344-.202 0-.368.155-.368.344zm5.516.88c0 .295.165.44.367.324.203-.117.368-.358.368-.536 0-.179-.165-.324-.368-.324-.202 0-.367.241-.367.536zm-6.343.045c-.764.187-.865.795-.131.795.281 0 .607-.232.724-.516.116-.284.175-.498.131-.476a9.05 9.05 0 01-.724.197zm-2.482.623c-.255.288-.295.516-.09.516.202 0 .574-.233.826-.516.255-.288.295-.516.09-.516-.203 0-.574.232-.826.516zm9.367.197c-.337.995.147 1.314.775.51.663-.848.66-1.223-.006-1.223-.29 0-.635.321-.768.713zm18.578-.177c0 .295.168.439.373.32.206-.119.28-.36.163-.536-.316-.477-.536-.388-.536.216zm-29.573.692c-.39.267-.625.562-.524.656.1.095.502-.046.891-.312.39-.266.626-.561.525-.656-.101-.095-.503.046-.892.312zm28.01-.28c-.354.074-.643.278-.643.453 0 .44 1.004.402 1.302-.049.31-.469.144-.57-.659-.404zm2.454.112c-.187.29-.878.731-1.535.98-.657.248-1.195.589-1.195.758 0 .321 2.527-.555 3.075-1.066.175-.163.245-.5.157-.747-.125-.35-.239-.332-.502.075zm1.683-.008c0 .2.165.268.367.152.203-.117.368-.281.368-.365 0-.083-.165-.151-.368-.151a.367.367 0 00-.367.364zm-9.377.324c-.124.189-.051.343.163.343s.39-.154.39-.343c0-.19-.074-.344-.163-.344-.09 0-.264.154-.39.344zm2.016.18c-.256.288-.373.61-.26.717.114.106.392-.13.618-.524.481-.842.303-.938-.358-.193zm1.355.393a.913.913 0 00-.245.585c0 .215.171.194.435-.052.24-.224.35-.487.245-.585-.104-.097-.3-.074-.435.052zm-13.942.375c-.354.073-.643.277-.643.452 0 .44 1.004.403 1.302-.048.31-.469.144-.571-.659-.404zm-1.49.906c-.15.358-.187.732-.081.832.335.313.63-.2.49-.854-.129-.598-.149-.597-.409.022zm18.129.21c-.304.182-1.09.335-1.747.338-.657.003-1.195.155-1.195.339 0 .584 2.537.273 3.179-.39.677-.7.599-.794-.237-.288zm-35.95.687c-.434.378-.92.683-1.08.676-.323-.012 1.319-1.364 1.657-1.364.117 0-.143.31-.577.688zm3.96-.214c0 .071-.248.322-.551.558-.452.35-.552.327-.552-.13 0-.307.248-.558.551-.558.304 0 .552.058.552.13zm13.797 1.025l-.365 1.08c-.094.284-.015.516.177.516.412 0 .92-1.658.6-1.956-.12-.113-.306.049-.412.36zm1.156-.238a.913.913 0 00-.245.585c0 .215.171.195.435-.052.24-.224.35-.487.245-.584-.104-.098-.3-.075-.435.051zm30.087.799c.129.195-.019.252-.346.135-.637-.229-.753-.475-.225-.475.19 0 .447.153.571.34zm-30.642 1.723c0 .473.084.667.185.43a1.243 1.243 0 000-.86c-.101-.236-.185-.043-.185.43zm33.67-.48c-.122.114-.439.127-.704.027-.294-.11-.206-.19.222-.207.388-.015.605.066.482.18zm-32.809.48c-.125.19-.061.344.14.344.203 0 .47-.155.596-.344.125-.189.062-.344-.14-.344-.203 0-.47.155-.596.344zm-10.111.728c0 .15.785.22 1.746.157s1.333-.043.828.045c-.506.088-1.206.4-1.556.694-.518.435-.741.454-1.195.101-.462-.358-.559-.333-.559.145 0 .318.166.483.368.366.202-.117.368-.018.368.22 0 .337.098.341.441.02.723-.676 1.479-.506 1.214.274-.177.52-.097.637.33.483.308-.11.65-.458.758-.77.24-.692 1.95-1.496 2.242-1.055.113.172.03.312-.184.312-.516 0-1.86 1.272-1.86 1.761 0 .267.17.254.552-.041.41-.32.551-.325.551-.022 0 .223.184.3.407.17.291-.167.28-.308-.039-.492-.295-.171-.317-.333-.065-.479.52-.3.806.214.576 1.038-.202.719-1.694 1.827-1.523 1.131.05-.21-.285-.518-.746-.685-.714-.258-.9-.163-1.24.635-.224.53-.473.752-.57.51-.203-.514-1.441-.575-1.764-.087-.125.19.031.344.346.344.316 0 .574.249.574.553 0 .35.202.48.551.354.304-.108.552-.138.552-.064 0 .073.094.362.21.642.136.335-.005.492-.41.458-.34-.028-.803.215-1.028.541-.327.473-.262.703.317 1.134.688.513.659.53-.56.314-1.608-.285-2.72-.81-1.747-.826 1.168-.02.67-.697-.551-.75-1.112-.048-1.125-.062-.184-.195 1.634-.232 1.051-1.275-.735-1.315-.565-.012-.828.182-.828.613 0 .595-.045.592-.788-.055-.605-.528-.949-.607-1.48-.341-.511.256-.838.208-1.26-.187-.513-.48-.51-.532.04-.532 1.115 0 .325-.858-.893-.97-1.098-.1-1.18-.042-.964.688l.237.798-.798-.86-.798-.86 1.054-.19c1.007-.183 1.018-.203.23-.453-.453-.143-.99-.164-1.195-.047-.204.118-.37.05-.37-.15s-.343-.363-.76-.363c-.576 0-.708-.157-.543-.643.165-.485-.057-.749-.907-1.078-.618-.24-1.032-.521-.92-.627.56-.523 14.528-.874 14.528-.364zm32.774-.063c1.139.175 3.556.358 5.371.407 2.797.076 5.53.486 4.323.65-2.318.313-4.089 1.044-3.96 1.635.1.456-1.627 1.802-2.312 1.802-.26 0-.99.406-1.62.903-.631.496-1.25.806-1.377.688-.126-.119-.16-.26-.076-.314a439.33 439.33 0 012.267-1.379c1.163-.704 2.115-1.356 2.115-1.449 0-.369-.697-.128-1.971.681-1.011.642-1.339.726-1.339.344 0-.643-1.244-.659-1.808-.023-.33.37-.318.525.046.666.358.138.316.305-.168.673-.354.27-.643.683-.643.92 0 .273-.3.358-.83.233-.89-.208-2.075.27-1.65.667.14.132.512.04.825-.202.479-.372.532-.353.337.123-.163.397-.03.568.45.575 1.187.018-.229.564-2.01.774-1.41.168-1.514.135-.919-.287.642-.455.642-.476.01-.486-.682-.012-2.832.905-2.832 1.208 0 .093.414.072.92-.046 1.004-.236 1.29.34.338.681-.873.313-2.297-.125-2.21-.68.042-.267.397-.714.79-.991.392-.278.532-.51.31-.516-.22-.007-.684.28-1.029.637-.345.357-1.117.74-1.715.852-.597.112-1.044.396-.992.633.141.64-1.367.734-1.913.119-.26-.293-.695-.533-.967-.533-.29 0-.407-.214-.284-.516.14-.34-.02-.524-.47-.542-.407-.015-.162-.214.604-.49 1.303-.469 1.218-.642-.263-.53-.915.068-1.044-.275-1.358-3.635l-.196-2.101 3.022-.221c2.36-.173 9.922-1.01 10.928-1.21.102-.02 1.116.106 2.256.28zm11.717.878c0 .092-1.2.718-2.666 1.39l-2.666 1.222 1.103-.99c.607-.545 1.352-.93 1.655-.857.303.073.882-.102 1.287-.389.741-.525 1.287-.685 1.287-.376zm-54.2.467c-.127.193-.052.454.167.58.566.327.93-.12.458-.562-.264-.247-.47-.253-.624-.018zm-2.425.665c0 .485 1.572.807 1.998.41.229-.215.143-.333-.24-.333a4.15 4.15 0 01-1.177-.21c-.32-.114-.581-.055-.581.133zm6.057.436c-.12.18.123.329.54.329.888 0 .977-.192.217-.464-.297-.107-.638-.046-.757.135zm14.166.48c0 .484.165.88.368.88.202 0 .367-.3.367-.667 0-.368-.165-.763-.367-.88-.209-.121-.368.168-.368.667zm-8.016-.083c-.531.498-.573.963-.086.963.195 0 .532-.31.748-.688.434-.757.032-.924-.662-.275zm29.526.276c-.125.189-.062.343.14.343.203 0 .47-.154.596-.343.125-.19.061-.345-.14-.345-.203 0-.47.155-.596.345zm-37.137.343c.125.19.383.344.573.344.19 0 .346-.155.346-.344 0-.189-.258-.343-.573-.343-.315 0-.471.154-.346.343zm5.133.367c-.134.202-.154.45-.047.55.264.247.981-.187.981-.593 0-.44-.635-.41-.934.043zm-2.743.645c0 .178.164.418.364.534.208.12.27-.018.144-.324-.244-.596-.508-.705-.508-.21zm7.945.546c.046.296-.214.506-.627.506-.608 0-.644-.093-.257-.672.476-.714.754-.662.884.166zm1.866-.117c-.117.274-.204.192-.222-.208-.016-.363.071-.566.193-.452.122.115.136.411.03.66zm3.426-.065c0 .19.175.344.39.344.213 0 .287-.155.162-.344-.125-.19-.3-.344-.39-.344-.09 0-.162.155-.162.344zm21.483.165c-.39.275-.543.504-.34.507.546.008 1.48-.606 1.249-.821-.11-.104-.519.038-.909.314zm-31.227.523c.125.19.3.344.39.344.089 0 .162-.155.162-.344 0-.19-.176-.344-.39-.344-.214 0-.287.155-.162.344zm38.108.355c-.818.637-1.522.876-1.522.516 0-.168 1.886-1.186 2.206-1.19.101 0-.207.302-.684.674zm-32.409.608c0 .34-.206.827-.46 1.082-.374.379-.34.425.185.252.674-.222.835.273.42 1.286-.252.613-1.615.751-1.615.163 0-.21.232-.297.515-.195.851.305.957-.14.21-.888-.385-.387-.613-.836-.506-.998.107-.162-.077-.392-.41-.511-.485-.174-.508-.276-.116-.509.849-.503 1.777-.337 1.777.318zm-10.479.069c.125.189.052.344-.162.344s-.39-.155-.39-.344c0-.19.073-.344.163-.344.09 0 .264.155.39.344zm5.133.023c-.134.201-.154.449-.047.55.264.246.981-.188.981-.594 0-.44-.635-.41-.934.044zm10.494-.023c0 .189.166.344.368.344.202 0 .367-.155.367-.344 0-.19-.165-.344-.367-.344-.202 0-.368.155-.368.344zm14.497.165c-.622.44-.633.502-.087.512.342.006.731-.154.864-.356.4-.606-.021-.691-.777-.156zm-3.431 1.19c-.264.153-.331.365-.149.47.183.106.55.068.814-.085.265-.153.332-.365.149-.47-.183-.106-.55-.068-.814.085zm-18.42.364c0 .19-.155.344-.346.344-.19 0-.448-.154-.573-.344-.125-.189.03-.344.346-.344.315 0 .573.155.573.344zm7.06 1.445c-.452.422-.608 1.307-.231 1.307.534 0 1.334-1.1 1.016-1.398-.213-.2-.511-.165-.785.09zm10.222 1.175c0 .072-.414.132-.92.132-.505 0-.919-.134-.919-.296 0-.163.414-.223.92-.132.505.09.919.224.919.296zm3.21-.348c-.123.114-.44.126-.705.027-.293-.11-.206-.191.222-.208.388-.015.605.067.483.18zm-14.976.48c0 .189.165.344.367.344.203 0 .368-.155.368-.344 0-.19-.165-.344-.368-.344-.202 0-.367.155-.367.344zm.582 2.017c-.159.24-.189.529-.068.642.33.308.688-.144.51-.643-.124-.35-.21-.35-.442.001zm-.95 1.746c0 .178.165.419.368.536.202.117.367-.029.367-.324 0-.294-.165-.536-.367-.536-.203 0-.368.146-.368.324zm30.15 11.138c2.662 1.307 4.714 2.467 5.7 3.22a40.48 40.48 0 002.274 1.593c1.838 1.177 4.956 3.505 6.38 4.761 2.698 2.384 2.919 2.773 3.492 6.165.3 1.78.699 3.546.885 3.924 1.179 2.394 1.207 4.474.07 5.132-.572.33-.684-.058-1.345-4.625-.665-4.595-1.155-6.08-2.468-7.478-2.176-2.317-5.277-5.23-5.573-5.233-.181-.003-1.009-.52-1.838-1.148-.83-.629-1.787-1.239-2.128-1.356-.34-.117-1.843-1.06-3.34-2.096-4.007-2.772-4.838-3.033-7.121-2.236-1.016.355-2.91 1.264-4.209 2.02a122.025 122.025 0 01-5.245 2.835c-3.275 1.658-4.12 2.1-6.613 3.47-3.45 1.894-2.006.668 2.43-2.063 6.978-4.296 10.722-6.294 13.135-7.01 1.469-.435 4.515-.367 5.515.125zm13.508 1.52c1.23 1.334 1.471 2.29.803 3.183-.302.403-.335.347-.153-.258.137-.455.07-.774-.16-.774-.216 0-.392.155-.392.344 0 .189-.432.344-.96.344h-.96l.868-.659c.477-.362.748-.77.6-.908-.146-.138-.518-.055-.826.184-.384.298-.56.313-.56.049 0-.212-.244-.386-.541-.386-.36 0-.46-.2-.299-.602.214-.533.169-.546-.396-.116-.351.267-.487.576-.303.688.185.11.455.56.602.997.243.73.204.76-.479.362-.409-.24-.655-.57-.547-.733.109-.164-.15-.383-.575-.487-.425-.104-.772-.313-.772-.465 0-.152-.096-.509-.213-.794-.302-.736 1.587-1.645 2.97-1.431.673.104 1.568.675 2.293 1.462zm-34.198-.049c-.147.138-.268.488-.268.778 0 .387.11.426.41.145.224-.21.345-.56.268-.778-.078-.218-.262-.283-.41-.145zM72.38 50.07c0 .2.165.269.367.152.203-.117.368-.28.368-.364 0-.084-.165-.152-.368-.152a.367.367 0 00-.367.364zm-35.972 1.045c-.264.397-.39.806-.28.91.3.28 1.32-.613 1.32-1.157 0-.695-.488-.578-1.04.247zm12.715 2.46c-.084.237-.465.486-.846.556-.6.108-.627.05-.2-.43.583-.657 1.264-.74 1.046-.126zm16.27 2.322c0 .189.238.344.527.344.29 0 .632.31.76.688.244.719.92.955.92.32 0-.785-.796-1.696-1.484-1.696-.397 0-.723.155-.723.344zM35.06 57.27c-.125.188-.59.508-1.033.71-.695.318-.68.272.112-.334 1.03-.788 1.253-.879.92-.376zm14.361 4.095c-.26.394.134 1.41.547 1.41.623 0 .748-.71.213-1.21-.303-.283-.645-.373-.76-.2zm8.618.054c0 .2.166.268.368.151.203-.116.368-.28.368-.364 0-.083-.166-.151-.368-.151a.367.367 0 00-.367.364zm-18.936.667c-.125.19-.052.344.162.344s.39-.154.39-.344c0-.189-.073-.344-.162-.344-.09 0-.265.155-.39.344zm14.9.164c-.29.327-.319.524-.075.524.445 0 .963-.652.708-.89-.093-.087-.378.078-.634.366zm6.488-.278c-.477.446-.235.707.582.627 1.212-.119 1.248-.147.644-.513-.658-.397-.9-.42-1.226-.114zm-8.695.622c-.29.327-.318.524-.074.524.444 0 .962-.652.708-.89-.093-.087-.378.078-.634.366zm6.243-.143c0 .2.166.268.368.151.203-.117.368-.28.368-.364 0-.083-.166-.152-.368-.152a.367.367 0 00-.367.365zm-11.03 1.011c0 .19.165.344.367.344.203 0 .368-.155.368-.344 0-.189-.165-.344-.368-.344-.202 0-.367.155-.367.344zm1.287.344c-.125.19-.052.344.162.344s.39-.155.39-.344c0-.19-.074-.344-.163-.344-.09 0-.264.155-.39.344zm16.914 1.032c-.125.189-.062.344.14.344s.47-.155.595-.344c.125-.19.062-.344-.14-.344-.203 0-.47.155-.595.344zm-6.403.736c.215.326-.837 3.57-1.3 4.004-.056.053-.911.183-1.9.29-1.497.16-2.01.056-3.083-.627-.708-.45-1.287-1.035-1.287-1.299 0-.263.862-.878 1.916-1.366 1.054-.487 2.13-1.09 2.39-1.338.558-.533 2.845-.297 3.264.335zm7.046 1.162c0 .727.088.798.546.442.355-.276.403-.468.135-.551-.225-.07-.316-.27-.202-.443.115-.173.053-.314-.135-.314-.19 0-.344.39-.344.866zm-1.195-.178c0 .189.165.343.368.343.202 0 .367-.154.367-.344 0-.189-.165-.344-.367-.344-.203 0-.368.155-.368.344zm-18.723.544c.017.4.104.482.222.208.106-.248.093-.545-.03-.66-.121-.114-.208.09-.192.452zm18.723.487c0 .19.165.344.368.344.202 0 .367-.155.367-.344 0-.189-.165-.344-.367-.344-.203 0-.368.155-.368.344zm-17.282.668c0 .39.166.708.368.708.202 0 .368-.223.368-.496 0-.272-.166-.59-.368-.708-.202-.117-.368.106-.368.496zm18.998-.438a.913.913 0 00-.245.584c0 .216.171.195.435-.051.24-.224.35-.487.245-.585-.104-.098-.3-.075-.435.052zm6.741.114c0 .19.166.344.368.344.202 0 .367-.155.367-.344 0-.189-.165-.344-.367-.344-.203 0-.368.155-.368.344zm-11.03.708a.316.316 0 01-.307.324c-.169 0-.307-.225-.307-.5 0-.276.138-.422.307-.325.168.098.306.323.306.501zm3.126.665c-.127.194.012.58.31.86.298.278.627.703.731.942.144.334.278.315.57-.077.29-.394.206-.574-.364-.771-.41-.141-.648-.403-.53-.58a.369.369 0 00-.136-.525.445.445 0 00-.58.15zm-3.148 1.23c-.35.394-.312.492.185.492.454 0 .558.186.388.688-.154.452-.067.688.253.688.53 0 2.872 2.236 2.872 2.743 0 .172-.18.416-.4.544-.586.338-3.277-2.254-3.277-3.156 0-.419-.145-.813-.323-.876-.177-.063-.442-.631-.588-1.263-.253-1.096-.23-1.13.531-.75.638.32.709.496.359.89zm-17.75.034c-.352.329-.303.802.082.802.181 0 .424-.232.54-.516.216-.524-.176-.704-.623-.286zm8.06 1.318c.802.81.81.86.134.86-.395 0-.718-.171-.718-.38 0-.21-.24-.295-.533-.19-.37.132-.465.026-.312-.347.176-.43.043-.49-.663-.304-.678.18-.755.15-.33-.127.866-.567 1.502-.44 2.422.488zm14.943-.45c.08.224.342.469.582.544.27.083.351-.074.214-.409-.256-.625-1.016-.755-.796-.136zm-39.61 1.68c.002.897-.123 1.558-.275 1.47-.153-.089-.278-.389-.278-.667 0-.279-.248-.596-.551-.704-.64-.23-.719-.863-.172-1.374.836-.782 1.275-.344 1.277 1.276zm22.428-.714c.125.19.052.344-.162.344s-.39-.155-.39-.344c0-.189.073-.344.163-.344.09 0 .264.155.39.344zm-5.987 1.773c.09.255.46.516.82.582.42.075.596-.048.49-.344-.09-.255-.459-.516-.82-.582-.418-.076-.595.048-.49.344zm15.18-.053c-.126.189-.062.344.14.344s.47-.155.595-.344c.125-.19.062-.344-.14-.344-.203 0-.47.155-.595.344zm-2.574.344c.125.189.465.344.757.344.291 0 .53-.155.53-.344 0-.19-.341-.344-.758-.344-.416 0-.654.155-.53.344zm7.17 0c0 .189.155.344.346.344.19 0 .448-.155.573-.344.125-.19-.031-.344-.346-.344-.315 0-.573.155-.573.344zm-5.7.688c-.125.189-.051.344.163.344.213 0 .389-.155.389-.344 0-.19-.073-.344-.162-.344-.09 0-.265.154-.39.344zM45.17 75.5c0 .189.176.343.39.343.214 0 .287-.154.162-.343-.125-.19-.3-.344-.39-.344-.089 0-.162.154-.162.344zm14.271.234c.266.1.583.088.705-.027.122-.114-.095-.195-.482-.18-.429.016-.516.098-.223.207zm6.761.522c-.236.221-.55.287-.7.148-.149-.14-.032-.392.26-.56.686-.397.996-.108.44.412zm-4.853.103c-.255.288-.295.516-.09.516.202 0 .573-.232.825-.516.255-.287.295-.516.09-.516-.202 0-.573.233-.825.516zm-15.443.03c0 .605 1.027 1.704 1.328 1.422.157-.147-.078-.607-.522-1.022-.443-.415-.806-.595-.806-.4zm2.206.564c0 .627.652 1.147 1.014.808.126-.118-.05-.476-.393-.796-.573-.536-.621-.537-.621-.012zm13.605.782c-.497.56-.378.63.52.307.32-.115.583-.347.583-.516 0-.475-.596-.362-1.103.21zm-31.933 1.862c-.014 1.632.215 2.069.798 1.523.133-.124.047-.446-.19-.714-.336-.378-.324-.551.051-.768.395-.228.38-.42-.08-1.035-.54-.721-.565-.678-.58.994zM50.3 78.91c.498.87 1.223.953 1.052.12-.068-.328-.425-.651-.793-.718-.573-.103-.61-.017-.259.598zm12.152.547c-.255.288-.295.516-.09.516.202 0 .573-.233.825-.516.255-.288.296-.516.09-.516-.202 0-.573.232-.825.516zm-12.134 1.011c0 .516.66 1.065.952.792.257-.24-.25-1.287-.624-1.287-.18 0-.328.223-.328.495zm12.862.373c-.71.8-.204.951.557.165.367-.379.496-.69.288-.69-.209 0-.59.237-.845.525zm2.836 2.447c-.34.318.07.812.675.812.31 0 .433-.208.306-.516-.224-.547-.593-.658-.98-.296zm-2.093.812c0 .189.155.344.346.344.19 0 .448-.155.573-.344.125-.19-.031-.344-.346-.344-.315 0-.573.155-.573.344zm-9.753 1.45c-.15.364.052.946.525 1.508.65.772.769.815.758.268-.008-.356-.244-1.035-.525-1.508-.444-.746-.545-.781-.758-.268zm10.488-.055c0 .2.165.268.368.151.202-.117.367-.28.367-.364 0-.083-.165-.151-.367-.151a.367.367 0 00-.368.364zm-.368 1.72c0 .2.166.268.368.151.202-.117.368-.28.368-.364 0-.084-.166-.152-.368-.152a.367.367 0 00-.368.364zm-32.345.839c0 .378.16.92.356 1.204.295.427.356.397.356-.172 0-.379-.16-.92-.356-1.204-.295-.427-.356-.398-.356.172zm32.897.86c-.125.189-.052.344.162.344s.39-.155.39-.344c0-.19-.073-.344-.163-.344-.09 0-.264.155-.39.344zm-8.997.708c-.006.295.231.836.528 1.204.432.533.543.56.552.131.006-.295-.232-.836-.528-1.204-.432-.534-.543-.56-.552-.131zm-2.218.323c0 .19.166.344.368.344.202 0 .368-.154.368-.344 0-.189-.166-.343-.368-.343-.202 0-.368.154-.368.343zm14.077.694c-.106.381-.339.777-.517.88-.367.212-.449-1.341-.088-1.679.428-.4.802.094.605.8zm-34.656.596c.015.701 1.375 2.343 1.694 2.044.207-.193-1.232-2.646-1.552-2.646-.085 0-.148.271-.142.602zm21.711.287c.018.4.105.482.222.208.107-.249.093-.545-.029-.66-.122-.114-.209.09-.193.452zm7.938.029c-.351.328-.302.802.083.802.18 0 .424-.232.54-.516.215-.524-.176-.704-.623-.286zm2.078.192c-.442.546-.544 1.986-.14 1.986.305 0 .872-2.072.63-2.3-.074-.068-.294.073-.49.314zm-1.772 1.298c-.125.189-.061.344.14.344.203 0 .47-.155.596-.344.125-.19.062-.344-.14-.344-.203 0-.47.155-.596.344zm-26.806.634c-.127.193-.052.454.167.58.565.327.93-.12.458-.562-.264-.247-.47-.253-.625-.018zm21.133.656c-.014.614.14 1.117.342 1.117.436 0 .436-.597 0-1.547-.265-.577-.32-.507-.342.43zm1.35.2c-.427.985-.35 1.815.126 1.37.22-.205.342-.74.273-1.187-.112-.716-.16-.738-.4-.183zm3.433.43c.018.4.105.482.222.208.107-.248.093-.545-.029-.66-.122-.114-.209.09-.193.452zm.92.441c-.157.24-.188.529-.066.642.329.308.688-.144.51-.643-.125-.35-.211-.35-.443.001zm-28.158.734c0 .379.15.688.333.688.183 0 .247-.31.141-.688-.106-.378-.256-.688-.333-.688-.078 0-.141.31-.141.688zm28.144.664c-.25.38.329.791.669.473.349-.327.284-.793-.111-.793-.19 0-.442.144-.558.32zm-5.2 1.588c-.342 1.272.067 1.407.526.173.229-.613.25-1.05.05-1.05-.188 0-.447.395-.577.877zm-21.254-.242c-.127.193-.052.454.167.58.565.327.93-.12.458-.562-.264-.247-.47-.253-.625-.018zm22.846-.082c-.148.137-.263.573-.257.967.01.661.04.67.393.101.412-.66.307-1.483-.136-1.069zm-20.765 1.593c-.048.605.012.66.284.258.425-.629.451-1.027.068-1.027-.16 0-.318.346-.352.769zm23.16.09c-.11.539-.007.86.275.86.673 0 .11 1.714-.85 2.584-.44.4-.989 1.027-1.218 1.393-.23.367-.536.559-.684.428-.146-.131.094-.711.534-1.289.798-1.049.596-1.439-.32-.622-.395.351-.433.273-.209-.43.152-.473.377-.937.502-1.032.124-.095.541-.752.927-1.462.806-1.48 1.3-1.685 1.044-.43zm-25.38.225c.19.536 1.013.63 1.042.119.01-.189-.257-.397-.594-.463-.383-.073-.551.055-.448.344zm21.433.367c-.292.672-4.521 2.762-5.013 2.477-.177-.102-.322.06-.322.361s.232.63.516.732c.755.271 3.286-1.041 4.402-2.281.618-.688.965-.883.965-.543 0 .292-.518 1.082-1.152 1.757-.633.675-1.025 1.339-.869 1.474.156.136.358.052.448-.186.091-.237.288-.361.438-.274.15.087.569-.468.93-1.233.489-1.037.562-1.579.285-2.133-.33-.662-.398-.679-.628-.151zm-22.05.932c-.116.176-.043.418.163.537.206.118.374-.026.374-.321 0-.604-.221-.693-.536-.216zm25 .125c-.158.339-.183.713-.057.831.373.349.674-.141.502-.819-.152-.601-.172-.601-.445-.012zm-21.89.223c0 .178.166.419.368.536.202.117.368-.029.368-.324s-.166-.536-.368-.536c-.202 0-.368.146-.368.324zm-1.838.384c0 .2.165.269.368.152.202-.117.367-.281.367-.364 0-.084-.165-.152-.367-.152a.367.367 0 00-.368.364zm-.852 1.614c-.087.142-.026.567.137.945.258.601.299.568.322-.258.025-.933-.147-1.191-.459-.687zm3.977.086c.125.189.3.343.39.343.09 0 .162-.154.162-.343 0-.19-.175-.344-.39-.344-.214 0-.287.154-.162.344zm14.524.859c-.26.293-.39.61-.288.705.1.094.396-.068.656-.361s.39-.609.289-.704c-.102-.095-.397.067-.657.36zm-16.517.373c.018.401.105.482.222.208.106-.248.093-.545-.029-.659-.122-.115-.209.088-.193.451zm16.58 1.552c-.265.397-.386.812-.268.921.219.205 1.276-.923 1.297-1.384.023-.506-.555-.246-1.029.463zm1.448.169c-.862 1.026-1.021 1.688-.316 1.315.368-.194.368-.15 0 .221-.55.554-.61 1.701-.092 1.701.365 0 .467-.402.523-2.062.02-.618.234-.858.764-.859.405-.001.736-.221.736-.489 0-.863-.817-.775-1.615.173zm-18.425.142c0 .189.166.344.368.344.202 0 .368-.155.368-.344 0-.189-.166-.344-.368-.344-.202 0-.368.155-.368.344zm1.103-.02c0 .178.166.419.368.536.202.117.368-.029.368-.324s-.166-.536-.368-.536c-.202 0-.368.145-.368.324zm19.304.708c-.128.378-.387.688-.576.688-.188 0-.343.232-.343.515 0 .284.238.516.53.516.618 0 .755-.184 1.081-1.461.276-1.081-.335-1.309-.692-.258zm-18.936 1.355c0 .389.166.708.368.708.202 0 .367-.223.367-.495 0-.273-.165-.591-.367-.708-.202-.117-.368.106-.368.495zm-1.47.02c0 .19.165.344.367.344.202 0 .368-.154.368-.344 0-.189-.166-.343-.368-.343-.202 0-.368.154-.368.343zm-2.417 1.867c-.247.92.087 2.261.563 2.261.52 0 .787-1.701.379-2.415-.507-.885-.67-.859-.942.154zm2.049-.491c0 .189.165.344.367.344.203 0 .368-.155.368-.344 0-.189-.165-.344-.368-.344-.202 0-.367.155-.367.344zm18.902.473c-.311.76.103 1.147.665.622.332-.31.333-.503.006-.808-.327-.306-.487-.262-.67.186zm-19.493 1.791c.123.299.223.695.223.88 0 .185.15.249.333.143.423-.244.072-1.567-.415-1.567-.2 0-.264.245-.141.544zm18.087-.246c-.159.239-.189.528-.068.642.33.308.688-.145.51-.644-.124-.349-.21-.349-.442.002zm-18.364 2.692c-.44.411-.238 1.137.316 1.137.303 0 .552-.223.552-.496 0-.574-.525-.962-.868-.641zm-2.826 1.51c-.473.827-.115 1.409.399.649.36-.534.471-1.366.182-1.366-.094 0-.355.323-.581.717zm2.35 1.189c-.12.292-.121.622-.003.732.118.11-.027.638-.323 1.172-.632 1.143-.659 1.349-.178 1.349.567 0 1.655-2.181 1.164-2.334-.292-.091-.303-.323-.036-.789.263-.459.258-.66-.014-.66-.216 0-.49.238-.61.53zm17.522.33c0 .283.166.515.368.515.202 0 .368-.232.368-.515 0-.284-.166-.516-.368-.516-.202 0-.368.232-.368.516zm-19.264.372a3.324 3.324 0 00-.21 1.117c.009.41.163.329.538-.286.289-.473.531-.975.539-1.117.024-.482-.643-.262-.867.286zm-2.629.166c-.395.599.055.726.56.158.29-.327.318-.525.074-.525-.215 0-.5.166-.634.367zm.64 1.027c-.511.766-.55 1.014-.162 1.014.433 0 1.213-1.323.89-1.51-.157-.091-.485.132-.728.496zm.831 1.037c-.133.202-.154.449-.046.55.263.247.98-.187.98-.593 0-.44-.634-.411-.934.043zm19.22-.159c-.148.138-.263.573-.258.967.01.662.041.67.394.102.412-.661.306-1.483-.136-1.069zm-18.526 1.354c-.298.726.199 1.118.622.492.45-.666.442-1.022-.025-1.022-.21 0-.478.239-.598.53zm1.711.522c0 .2.166.268.368.152.202-.117.368-.281.368-.365 0-.083-.166-.151-.368-.151a.367.367 0 00-.368.364zm16.025.277c-.158.24-.188.529-.067.643.33.307.688-.145.51-.644-.124-.349-.211-.349-.443.001zm-1.838.956c-.127.31-.156.635-.064.722.293.273.953-.276.953-.792 0-.675-.603-.627-.89.07zm.974.81c-.249.373-.294.739-.105.849.184.106.444-.13.578-.526.326-.961.07-1.136-.473-.323zm-15.16.02c0 .201.165.269.367.152.202-.117.368-.281.368-.364 0-.084-.166-.152-.368-.152a.367.367 0 00-.368.364zm12.746.897c-.135.126-.245.441-.245.7 0 .364.166.388.735.103.405-.203.736-.518.736-.7 0-.377-.856-.449-1.226-.103zm-4.458 1.123a.36.36 0 00.124.514c.184.106.43-.038.546-.32.228-.558-.324-.717-.67-.194z" fill="#232316"/></svg>