<svg width="110" height="80" viewBox="0 0 110 80" fill="none" xmlns="http://www.w3.org/2000/svg">
<g clip-path="url(#clip0_258_654)">
<path d="M71.666 52.4892C71.666 52.5276 71.666 52.5276 71.7045 52.566C71.7429 52.4892 71.7045 52.4508 71.7045 52.4125C71.666 52.4125 71.666 52.4508 71.666 52.4892C71.666 52.4508 71.666 52.4892 71.666 52.4892Z" fill="#A0862F"/>
<path d="M74.7031 42.1679C73.3959 42.5132 72.1271 42.8969 70.8199 43.2422C69.3204 43.6643 67.821 44.0096 66.36 44.47C65.1681 44.8153 64.0531 45.3909 63.0919 46.235C62.0538 47.1559 61.2849 48.4604 61.0926 49.9185C60.9773 50.801 60.9004 51.6834 60.7851 52.5659C60.5928 54.1391 60.4006 55.6739 60.2084 57.247C60.1699 57.554 60.4775 57.8225 60.7466 57.8225C61.0926 57.8225 61.2464 57.554 61.2849 57.247C61.4387 55.8273 61.6694 54.446 61.8232 53.0264C62.5152 53.0264 63.2073 53.0264 63.9378 53.0264C64.0531 53.0647 64.13 53.0647 64.2454 53.0264C64.8605 53.0264 65.5141 53.0264 66.1293 53.0264C66.1677 53.0264 66.2446 53.0264 66.2831 53.0264C67.052 53.0264 67.821 53.0264 68.5899 53.0264C68.6668 53.0264 68.7053 53.0264 68.7822 53.0264C69.1282 53.0264 69.4742 53.0264 69.8203 53.0264C70.0894 53.0264 70.3585 53.0264 70.6277 53.0264C70.7046 53.3333 70.8199 53.6019 70.9353 53.8705C71.3197 55.0216 71.7042 56.1727 72.0887 57.3237C72.3194 58.0144 73.3959 57.7074 73.1652 57.0168C72.8576 56.0576 72.5116 55.0599 72.204 54.1007C72.0118 53.5635 71.858 53.0264 71.6658 52.5276V52.4892C71.6658 52.5276 71.6273 52.5659 71.5889 52.6043C71.6273 52.5659 71.6273 52.4892 71.6273 52.4508C71.6273 52.4125 71.6273 52.4125 71.5889 52.3741C71.5504 52.2974 71.5889 52.2974 71.6273 52.3741C72.2425 50.1103 72.8961 47.8465 73.5112 45.6211C73.7035 44.9305 73.8957 44.2398 74.088 43.5108C74.3955 43.434 74.6647 43.3573 74.9723 43.2806C75.7028 43.1271 75.3952 41.976 74.7031 42.1679ZM68.2824 51.9137C67.821 51.9137 67.3596 51.9137 66.8982 51.9137C67.052 49.9185 67.1674 47.9233 67.3212 45.9281C67.3212 45.7746 67.3596 45.5827 67.3596 45.4293C68.0132 45.2374 68.6284 45.0839 69.282 44.8921C68.9744 47.0408 68.6668 49.1894 68.3593 51.3381C68.3208 51.4916 68.2824 51.6834 68.2824 51.9137ZM66.2062 45.7746C66.0524 47.693 65.9371 49.6499 65.7833 51.5683C65.7833 51.6834 65.7833 51.7986 65.7448 51.9137C65.3603 51.9137 65.0143 51.9137 64.6298 51.9137C64.6298 50.2638 64.6298 48.6139 64.6298 46.964C64.6298 46.8105 64.6298 46.6571 64.6298 46.5036C65.0528 46.235 65.5526 46.0048 66.0139 45.8129C66.0908 45.7746 66.1677 45.7746 66.2062 45.7746ZM62.0154 51.8753C62.0923 51.2998 62.1307 50.7242 62.2076 50.187C62.2076 50.1487 62.2076 50.1103 62.2076 50.0719C62.2076 50.0336 62.2076 50.0336 62.2076 50.0336V49.9952C62.2461 49.765 62.2845 49.5348 62.3614 49.3046C62.5537 48.729 62.8997 48.1151 63.3611 47.6163C63.438 47.5396 63.4764 47.4628 63.5533 47.4245C63.5533 48.8825 63.5533 50.3405 63.5533 51.7986C63.5533 51.8369 63.5533 51.9137 63.5533 51.952C63.2073 51.952 62.8997 51.952 62.5537 51.952C62.3999 51.8753 62.2076 51.8753 62.0154 51.8753ZM71.4735 48.9976C71.2044 49.9568 70.9353 50.9544 70.6661 51.9137C70.2432 51.9137 69.8203 51.9137 69.3589 51.9137C69.6665 49.7266 69.9741 47.5012 70.2816 45.3141C70.3201 45.0839 70.3585 44.8153 70.397 44.5851C70.4354 44.5851 70.4739 44.5851 70.5123 44.5468C71.3197 44.3165 72.0887 44.1247 72.8961 43.8945C72.4347 45.5827 71.9349 47.271 71.4735 48.9976Z" fill="#A0862F"/>
<path d="M49.1745 52.2974C49.0976 51.5684 49.0207 50.8394 48.9438 50.1103C48.8285 48.8442 48.2902 47.6547 47.4444 46.7338C45.5604 44.6235 42.6769 44.2015 40.1778 43.5108C38.563 43.0504 36.9482 42.6283 35.3334 42.1679C34.6413 41.976 34.3722 43.0888 35.0258 43.2806C35.3334 43.3573 35.6025 43.4341 35.9101 43.5108C36.4483 45.3909 36.9482 47.271 37.4864 49.1895C37.7556 50.2254 38.0631 51.2614 38.3323 52.2974C38.3323 52.3358 38.3707 52.4125 38.3707 52.4892C38.1785 52.8346 38.1016 53.3717 37.9862 53.7171C37.6018 54.8298 37.2173 55.9808 36.8713 57.0936C36.6406 57.7842 37.6787 58.0912 37.9478 57.4005C38.2938 56.4029 38.6014 55.4437 38.9474 54.4461C39.1012 53.9856 39.255 53.5252 39.4088 53.0648C40.024 53.0648 40.6391 53.0648 41.2927 53.0648C41.3696 53.0648 41.4081 53.0648 41.485 53.0648C42.2539 53.0648 43.0229 53.0648 43.7918 53.0648C43.8303 53.0648 43.9072 53.0648 43.9456 53.0648C44.5608 53.0648 45.2144 53.0648 45.8296 53.0648C45.9449 53.1031 46.0218 53.1031 46.1371 53.0648C46.5985 53.0648 47.0599 53.0648 47.5213 53.0648C47.7519 53.0648 48.0211 53.0648 48.2518 53.0648C48.4056 54.4844 48.5978 55.8657 48.7516 57.2854C48.79 57.5924 48.9823 57.8609 49.2899 57.8609C49.559 57.8609 49.8666 57.5924 49.8281 57.2854C49.6359 55.6739 49.4052 54.0624 49.213 52.4509C49.213 52.3741 49.213 52.3358 49.1745 52.2974ZM41.7926 51.9137C41.485 49.6115 41.1389 47.3094 40.8314 45.0072C40.8314 44.9689 40.8314 44.9305 40.8314 44.8921C41.485 45.084 42.1001 45.2374 42.7538 45.4293C42.9075 47.4629 43.0613 49.5348 43.1767 51.5684C43.1767 51.6835 43.1767 51.7986 43.2151 51.9137C42.7153 51.8753 42.2539 51.9137 41.7926 51.9137ZM43.8303 45.8897C43.8303 45.8513 43.8303 45.813 43.8303 45.7362C44.3686 45.9281 44.8684 46.1583 45.3682 46.4653C45.3682 48.1919 45.3682 49.9569 45.3682 51.6835C45.3682 51.7218 45.3682 51.7986 45.3682 51.837C44.9837 51.837 44.6377 51.837 44.2532 51.837C44.1379 49.8801 43.9841 47.8849 43.8303 45.8897ZM39.4088 51.9137C38.8705 49.7266 38.1785 47.578 37.6018 45.3909C37.448 44.8921 37.3326 44.3933 37.1788 43.8561C37.6787 44.0096 38.1785 44.1247 38.6783 44.2782C39.0243 44.3549 39.3319 44.47 39.6779 44.5468C40.024 46.8873 40.3316 49.2278 40.6776 51.5684C40.6776 51.6835 40.716 51.7602 40.716 51.8753C40.5622 51.8753 40.4084 51.8753 40.2547 51.8753C39.9471 51.9137 39.6779 51.9137 39.4088 51.9137ZM46.4832 51.8753C46.4832 50.3789 46.4832 48.8825 46.4832 47.3477C46.9445 47.8082 47.2906 48.307 47.5597 48.9209C47.6366 49.0744 47.7135 49.3813 47.7904 49.6115C47.8288 49.7266 47.8288 49.8034 47.8673 49.9185C47.8673 49.9569 47.8673 49.9569 47.8673 49.9952C47.8673 49.9952 47.8673 49.9952 47.8673 50.0336C47.9057 50.6475 47.9826 51.2614 48.0595 51.8753C47.5213 51.8753 46.983 51.8753 46.4832 51.8753Z" fill="#A0862F"/>
<path d="M58.7098 48.9209C58.6329 48.4605 58.5945 47.9617 58.5176 47.5012C58.6714 47.5012 58.8252 47.5012 59.0174 47.5012C59.7094 47.5012 59.7094 46.3502 59.0174 46.3502C56.6721 46.3502 54.3268 46.3502 52.0199 46.3502C51.6739 46.3502 51.3663 46.3502 51.0203 46.3502C50.3282 46.3502 50.3282 47.5012 51.0203 47.5012C51.1741 47.5012 51.2894 47.5012 51.4432 47.5012C51.1356 50.0336 50.828 52.5276 50.5205 55.06C50.4436 55.789 50.3282 56.518 50.2513 57.2854C50.2129 57.5924 50.5205 57.8609 50.7896 57.8609C51.1356 57.8609 51.2894 57.5924 51.3279 57.2854C51.6739 54.5228 52.0199 51.7219 52.3659 48.9593C52.4428 48.4988 52.4813 48 52.5582 47.5396C54.2114 47.5396 55.8262 47.5396 57.4795 47.5396C57.7871 50.072 58.0946 52.566 58.4022 55.0984C58.4791 55.8274 58.5945 56.5564 58.6714 57.3238C58.7098 57.6307 58.902 57.8993 59.2096 57.8993C59.4788 57.8993 59.7863 57.6307 59.7479 57.3238C59.4019 54.4844 59.0558 51.6835 58.7098 48.9209Z" fill="#A0862F"/>
<path d="M80.4717 28.9689C80.4717 28.6619 80.5102 28.1247 80.3948 27.7411C80.3948 27.7027 80.3948 27.6643 80.3948 27.5876C79.7028 24.7482 78.9723 21.9089 78.2802 19.0696C77.6266 16.4988 76.973 13.8897 76.3578 11.319C77.2037 8.32619 78.0495 5.33338 78.9338 2.37894C79.0492 1.95688 79.2029 1.49645 79.3183 1.07439C79.5105 0.34537 78.3955 0.0384156 78.2033 0.767432C77.9726 1.61156 77.7419 2.45568 77.4728 3.26144C77.1652 2.76264 76.8576 2.26384 76.5501 1.76503C76.4732 1.64993 76.3963 1.49645 76.3194 1.38134C76.1656 1.11276 75.7811 0.997648 75.512 1.18949C75.2428 1.34297 75.1275 1.72666 75.3197 1.99525C75.858 2.87774 76.3963 3.76024 76.9345 4.64273C76.973 4.71947 77.0114 4.75784 77.0499 4.83458C76.6269 6.25424 76.2425 7.67391 75.8195 9.09357C75.512 7.90412 75.2044 6.71467 74.9352 5.48686C74.6661 4.45089 74.4354 3.41491 74.1663 2.37894C73.9741 1.64993 72.8591 1.95688 73.0513 2.6859C73.6665 5.1799 74.2816 7.67391 74.9352 10.2063C74.2047 9.63074 73.4742 9.09357 72.7437 8.51803C72.2055 7.13674 71.6672 5.75544 71.1674 4.41252C71.052 4.10556 70.7829 3.91372 70.4369 3.99045C70.1677 4.06719 69.8986 4.41252 70.0139 4.71947C70.3215 5.52523 70.6291 6.36935 70.9751 7.17511C70.6676 6.94489 70.3215 6.6763 70.0139 6.44609C69.7064 6.21587 69.4372 5.98566 69.1297 5.75544C68.8605 5.5636 68.476 5.71707 68.3222 5.94729C68.13 6.25424 68.2838 6.5612 68.5145 6.75304C69.1296 7.25185 69.7833 7.71228 70.3984 8.21108C69.3603 8.17271 68.3223 8.13434 67.3226 8.0576C67.0919 8.0576 66.8612 8.01923 66.6306 8.01923C65.8616 7.98086 65.8616 9.17031 66.6306 9.17031C68.2838 9.24705 69.8986 9.32379 71.5519 9.40053C71.7056 9.40053 71.8979 9.40053 72.0517 9.4389C72.8975 10.0912 73.7434 10.7435 74.5892 11.3957C74.8584 11.5876 75.1275 11.8178 75.3966 12.0096C76.4732 16.307 77.5497 20.566 78.5878 24.8634C78.7416 25.4389 78.8569 26.0144 79.0107 26.59C78.5878 26.3214 78.1649 26.0528 77.7035 25.7842C76.204 24.8634 74.743 23.9425 73.2436 23.0216C73.0898 22.9449 72.9744 22.8298 72.8206 22.753C72.8591 22.4845 72.7822 22.1775 72.7822 21.9473C72.7437 20.6427 72.7437 19.3382 72.7053 18.0336C73.4358 17.2279 74.2047 16.4221 74.9352 15.6164C75.4351 15.0792 74.6277 14.2351 74.0894 14.7722C73.628 15.3094 73.1282 15.8082 72.6668 16.3454C72.6284 15.271 72.6284 14.1583 72.5899 13.084C72.5899 12.3166 71.3981 12.3166 71.4365 13.084C71.4365 14.0816 71.475 15.0792 71.475 16.1152C70.8213 15.4245 70.1677 14.7339 69.4757 14.0048C68.9759 13.4677 68.13 14.2734 68.6298 14.849C69.591 15.8466 70.5138 16.8442 71.475 17.8418C71.5134 19.108 71.5134 20.3358 71.5519 21.602C71.5519 21.7554 71.5519 21.8706 71.5519 22.024C71.475 21.9857 71.3596 21.9089 71.2443 21.8706C70.5138 21.5252 69.8217 21.1799 69.0912 20.8346C69.0528 20.7962 69.0528 20.7195 68.9759 20.6811C67.4764 18.9929 66.0154 17.3046 64.5159 15.6164C64.3237 15.3861 64.093 15.1559 63.9008 14.8873C63.4009 14.3118 62.5935 15.1559 63.0549 15.7315C64.2083 17.036 65.3618 18.3789 66.5152 19.6835C65.5156 19.2231 64.5159 18.7626 63.5163 18.3022C63.4394 18.2638 63.3625 18.2255 63.2856 18.1871C62.5935 17.8801 62.0168 18.8777 62.7089 19.1847C64.0546 19.7986 65.4387 20.4509 66.7843 21.0648C65.554 21.4485 64.3237 21.8706 63.0549 22.2542C62.3244 22.4845 62.632 23.5972 63.3625 23.367C65.0158 22.8298 66.669 22.2926 68.3222 21.7938C68.9374 22.1008 69.591 22.3694 70.2062 22.6763C70.3984 22.753 70.5907 22.8682 70.7829 22.9449C70.0524 23.4053 69.3603 23.8274 68.6298 24.2878C68.3222 24.4797 68.0531 24.6715 67.7455 24.825C67.5917 24.9017 67.438 25.0552 67.2842 25.1319C67.2073 25.1703 67.0919 25.1319 66.9766 25.1319C66.6306 25.0936 66.2845 25.0552 65.9385 25.0552C65.2464 24.9785 64.5544 24.9401 63.8623 24.8634C63.1318 24.7866 63.1318 25.9761 63.8623 26.0144C64.5159 26.0528 65.1695 26.1295 65.8231 26.1679C65.9769 26.1679 66.1692 26.2063 66.3999 26.2446C66.1692 26.59 65.9385 26.8969 65.7078 27.2423C65.6309 27.319 65.5925 27.4341 65.5156 27.5108C65.3233 27.7794 65.4771 28.1631 65.7078 28.3166C66.0154 28.4701 66.323 28.3933 66.5152 28.1247C66.9381 27.5108 67.3611 26.9353 67.784 26.3214C67.8224 26.283 67.8609 26.2446 67.8609 26.2063C69.0912 25.554 70.2446 24.7099 71.4365 23.9809C71.5903 23.9041 71.7825 23.789 71.9748 23.6739C73.4358 24.5564 74.8968 25.4773 76.3578 26.3598C77.319 26.9737 78.3186 27.5492 79.2798 28.1631C79.2798 28.4701 79.3183 28.777 79.3183 29.084C77.2037 29.6595 75.089 30.2351 72.9744 30.8106C70.9367 30.3118 68.899 29.7746 66.8228 29.2758C66.5152 29.1991 66.2461 29.1223 65.9385 29.0456C65.208 28.8538 64.9004 30.0048 65.6309 30.1583C67.3226 30.5804 68.9759 31.0024 70.6676 31.4245C70.2446 31.5396 69.8217 31.6547 69.4372 31.7698C68.9759 31.8849 68.476 32.0384 68.0147 32.1535C67.2842 32.3454 67.5917 33.4581 68.3222 33.2662C69.3988 32.9593 70.4753 32.6907 71.5519 32.3837C71.052 33.0744 70.5138 33.8034 70.0139 34.494C69.8217 34.7626 69.9755 35.1463 70.2062 35.2998C70.5138 35.4916 70.8213 35.3382 71.0136 35.108C71.7825 34.0336 72.5515 32.9976 73.3589 31.9233C74.5123 31.6164 75.6658 31.3094 76.8576 30.9641C76.6654 31.6547 76.5116 32.3837 76.3194 33.0744C75.3966 33.8801 74.5123 34.6859 73.5896 35.4916C73.4358 35.6068 73.3204 35.7219 73.1667 35.8753C72.936 36.0672 72.936 36.4893 73.1667 36.7195C73.3973 36.9497 73.7434 36.9113 74.0125 36.7195C74.6277 36.1823 75.2044 35.6451 75.8195 35.108C75.7042 35.53 75.6273 35.9137 75.512 36.3358C75.4351 36.6427 75.3582 36.9497 75.2813 37.2183C75.089 37.9473 76.204 38.2542 76.3963 37.5252C76.55 36.8729 76.7423 36.2207 76.8961 35.5684C77.0499 36.3358 77.2421 37.0648 77.3959 37.8322C77.4343 38.024 77.4728 38.2542 77.5497 38.4461C77.6266 38.753 77.9726 38.9449 78.2802 38.8682C78.5878 38.7914 78.7416 38.4461 78.7031 38.1391C78.3571 36.6811 78.0495 35.2231 77.7035 33.765C77.665 33.5732 77.6266 33.343 77.5497 33.1511C77.5497 33.1511 77.5497 33.1511 77.5497 33.1128C77.7035 32.4605 77.8957 31.8082 78.0495 31.1943C78.088 31.0024 78.1649 30.8106 78.2033 30.6188C78.2802 30.5804 78.3955 30.5804 78.4724 30.542C78.8185 30.4653 79.126 30.3502 79.4721 30.2734C79.5105 31.1559 79.549 32.0384 79.5874 32.9209C79.7028 35.1847 79.8181 37.4485 79.9334 39.6739C80.0872 42.7818 80.4333 45.9281 80.3179 49.036C80.241 51.6451 79.7797 54.3694 78.4724 56.6715C78.088 57.3238 79.126 57.8993 79.4721 57.247C80.6639 55.1367 81.2022 52.7195 81.3945 50.3022C81.6636 47.0408 81.2791 43.7027 81.1253 40.4413C80.8562 36.6044 80.664 32.7674 80.4717 28.9689Z" fill="#A0862F"/>
<path d="M100.926 22.6763C99.5799 22.1391 98.2727 21.6019 96.927 21.0264C98.3111 20.4509 99.6952 19.8369 101.041 19.2614C101.348 19.1463 101.387 18.7242 101.233 18.4557C101.079 18.1487 100.733 18.1103 100.426 18.2638C98.734 18.9928 97.0808 19.7218 95.3891 20.4125C93.3129 19.5684 91.2367 18.6859 89.1221 17.8417C88.7376 17.6883 88.3147 17.5348 87.9302 17.3429C88.1225 16.9209 88.2763 16.4988 88.4685 16.0768C89.8526 15.2326 91.2752 14.3885 92.6593 13.5444C94.7355 13.5444 96.8117 13.506 98.9263 13.4676C99.2339 13.4676 99.5415 13.4676 99.849 13.4676C100.618 13.4676 100.618 12.2782 99.849 12.3166C98.1189 12.3166 96.3887 12.3549 94.6201 12.3549C95.3122 11.9329 96.0043 11.5108 96.6963 11.1271C97.3499 10.7434 98.0035 10.3214 98.6572 9.93767C99.3108 9.55397 98.6956 8.55637 98.0804 8.94006C96.6194 9.82256 95.12 10.7051 93.659 11.5875C94.2357 10.0911 94.8124 8.63311 95.3891 7.13671C95.5044 6.86812 95.6198 6.56117 95.7351 6.29258C95.8505 5.98563 95.6198 5.6403 95.3122 5.56357C94.9662 5.48683 94.697 5.67867 94.5817 5.98563C93.8127 7.98083 93.0438 9.97604 92.2364 11.9712C92.1595 12.1631 92.0826 12.3549 92.0057 12.5851C91.3521 12.9688 90.6985 13.3909 90.0064 13.7746C89.4682 14.0816 88.9299 14.4269 88.3916 14.7338C87.8533 11.9329 87.3535 9.09354 86.8153 6.29258C87.6996 4.91129 88.5839 3.56836 89.4297 2.18707C89.8526 1.53479 88.8145 0.959249 88.4301 1.61153C87.7765 2.60913 87.1613 3.60673 86.5077 4.6427C86.3923 3.95206 86.2386 3.26141 86.1232 2.57076C86.0079 1.95685 85.8925 1.34294 85.7772 0.729033C85.6234 1.66968e-05 84.5084 0.306971 84.6622 1.03599C84.8544 2.03359 85.0467 3.03119 85.2389 4.06716C84.3931 2.99282 83.5088 1.95685 82.6629 0.882511C82.4707 0.652295 82.2784 0.422079 82.0862 0.191863C81.894 -0.0383526 81.471 1.66968e-05 81.2404 0.191863C81.0097 0.422079 81.0481 0.767403 81.2404 1.03599C82.586 2.68587 83.8932 4.29738 85.2389 5.94726C85.3927 6.13911 85.5465 6.29258 85.6618 6.48443C86.1232 9.0168 86.5846 11.5492 87.0844 14.0432C87.0844 14.1199 87.1228 14.1583 87.1228 14.235C85.2774 13.0072 83.4703 11.8178 81.6248 10.5899C81.3557 9.55397 81.0481 8.47963 80.779 7.44366C80.5867 6.71464 79.4333 7.0216 79.664 7.75062C79.8178 8.36453 80.01 8.97843 80.1638 9.59234C80.0869 9.55397 80.01 9.5156 79.9716 9.47723C79.5871 9.20865 79.2026 8.97843 78.8181 8.70985C78.203 8.28779 77.5878 9.28539 78.2414 9.70745C78.8181 10.0911 79.3949 10.4748 79.9716 10.8585C79.3564 11.1655 78.7413 11.4724 78.1261 11.7794C77.857 11.9329 77.7801 12.3166 77.9339 12.5851C78.0876 12.8537 78.4337 12.9305 78.7413 12.777C79.5487 12.3933 80.3176 11.9712 81.125 11.5875C82.8167 12.7386 84.5469 13.8513 86.2386 15.0024C86.623 15.271 87.0075 15.5012 87.392 15.7698C86.623 17.4964 85.8925 19.223 85.1236 20.988C84.8929 21.4868 84.7006 21.9856 84.47 22.4461C84.2777 22.024 84.047 21.6019 83.8548 21.1799C83.701 20.8729 83.5088 20.566 83.355 20.259C83.5472 19.3381 83.701 18.3789 83.8932 17.458C83.9317 17.3046 83.9317 17.1511 83.9701 17.036C84.0086 16.729 83.8932 16.3837 83.5472 16.307C83.2396 16.2302 82.8936 16.3837 82.8167 16.729C82.7014 17.3813 82.586 17.9952 82.4322 18.6475C82.24 18.2638 82.0093 17.8417 81.8171 17.458C81.6633 17.1511 81.5095 16.8825 81.3557 16.5756C81.0097 15.9233 79.9716 16.4988 80.3561 17.1511C80.7021 17.765 81.0481 18.4173 81.3941 19.0312C81.0481 18.8777 80.7021 18.6859 80.3561 18.5324C80.2407 18.4557 80.0869 18.4173 79.9716 18.3405C79.7024 18.2254 79.318 18.2638 79.1642 18.5324C79.0104 18.801 79.0873 19.1847 79.3564 19.3381C80.2407 19.7602 81.125 20.2206 82.0478 20.6427C82.1246 20.6811 82.2015 20.7194 82.3169 20.7578C82.7014 21.5252 83.0858 22.2542 83.4703 23.0216C83.5857 23.2518 83.701 23.482 83.8163 23.7122C83.8163 23.7506 83.8548 23.789 83.8548 23.789C83.1627 25.3621 82.4707 26.9353 81.7786 28.5084C81.6248 28.8537 81.3941 29.2374 81.3941 29.6211C81.4326 30.235 81.5095 30.8489 81.5479 31.4628C81.8555 35.1079 82.1631 38.753 82.4322 42.4365C82.6629 45.3142 82.7014 48.307 83.3165 51.1463C83.7779 53.3717 84.6237 55.5204 85.8541 57.4005C86.0848 57.7842 86.3539 58.1679 86.6615 58.5132C87.1228 59.0887 88.1225 58.5132 87.6611 57.9377C86.4308 56.3262 85.4696 54.4844 84.8929 52.5276C84.047 49.765 83.9701 46.8873 83.7395 44.048C83.4319 40.0959 83.1243 36.1439 82.7783 32.1919C82.7398 31.5012 82.6629 30.8106 82.6245 30.1583C83.3934 30.2734 84.1239 30.3501 84.8929 30.4652C85.3158 31.7314 85.7772 32.9592 86.2001 34.2254C85.7772 35.3765 85.3543 36.4892 84.8929 37.6403C84.816 37.8321 84.7391 37.9856 84.7006 38.1775C84.5853 38.4844 84.816 38.8298 85.1236 38.9065C85.4696 38.9832 85.7387 38.7914 85.8541 38.4844C86.1617 37.6403 86.5077 36.7962 86.8153 35.9521C86.9306 36.259 87.0075 36.5276 87.1228 36.8345C87.2382 37.1799 87.3535 37.4868 87.4689 37.8321C87.6996 38.5228 88.853 38.2158 88.5839 37.5252C88.3532 36.8345 88.1225 36.1823 87.8918 35.4916C88.6608 36.0288 89.4297 36.6043 90.1987 37.1415C90.4678 37.3334 90.8523 37.1799 91.0061 36.9497C91.1599 36.6427 91.0445 36.3357 90.8138 36.1439C89.6219 35.2998 88.4301 34.4557 87.2382 33.5732C86.8922 32.6139 86.5461 31.6163 86.2386 30.6571C87.5073 30.8106 88.7377 30.964 90.0064 31.1559C91.3521 32.2686 92.6593 33.3813 94.005 34.494C94.5817 34.9928 95.4275 34.1487 94.8508 33.6499C93.9665 32.8825 93.0438 32.1535 92.1595 31.3861C93.1591 31.5012 94.1588 31.6547 95.1584 31.7698C95.7736 31.8465 96.3887 31.9233 96.9655 32C97.696 32.0768 97.696 30.9257 96.9655 30.8489C95.7736 30.6955 94.6201 30.542 93.4283 30.3885C94.8893 30.0815 96.3887 29.7746 97.8497 29.4676C98.1958 29.3909 98.5802 29.3142 98.9263 29.2374C99.6568 29.0839 99.3492 27.9712 98.6187 28.1247C96.0812 28.6235 93.5821 29.1607 91.0445 29.6595C90.6985 29.7362 90.314 29.813 89.968 29.8897C89.9295 29.8897 89.9295 29.9281 89.8911 29.9281C88.6992 29.7746 87.5458 29.6211 86.3539 29.4676C87.1228 28.6235 87.9302 27.7794 88.6992 26.9353C89.6604 26.9353 90.66 26.9353 91.6212 26.9353C91.775 26.9353 91.9288 26.9353 92.0826 26.9353C92.3902 26.9353 92.6978 26.6667 92.6593 26.3597C92.6593 26.0528 92.3902 25.7842 92.0826 25.7842C91.3136 25.7842 90.5447 25.7842 89.7757 25.7842C90.1987 25.3238 90.5831 24.9017 91.0061 24.4413C91.2752 24.1727 91.5059 23.9041 91.775 23.6355C92.2748 23.0983 91.4674 22.2542 90.9292 22.7914C90.2756 23.482 89.6604 24.1727 89.0068 24.8633C89.0068 24.2878 89.0068 23.7122 89.0068 23.1751C89.0068 23.0216 89.0068 22.8681 89.0068 22.7146C89.0068 22.4077 88.7376 22.1007 88.4301 22.1391C88.1225 22.1391 87.8534 22.4077 87.8534 22.7146C87.8534 23.789 87.8534 24.8633 87.8534 25.8993C87.8534 25.976 87.8534 26.0528 87.8534 26.1295C87.1228 26.9353 86.3923 27.741 85.6618 28.5084C85.4311 28.777 85.2005 29.0456 84.9313 29.2758C84.6622 29.2374 84.3931 29.1991 84.1624 29.1607C83.7394 29.1223 83.3165 29.0456 82.8936 29.0072C83.8548 26.8202 84.816 24.5947 85.7772 22.4077C86.3539 21.0648 86.9691 19.6835 87.5458 18.3405C90.0449 19.3765 92.5824 20.4125 95.0815 21.4485C96.2734 22.9832 97.4653 24.5564 98.6572 26.0911C98.8494 26.3214 99.0032 26.5516 99.1954 26.7818C99.3877 27.0504 99.6952 27.1655 100.003 26.9736C100.234 26.8202 100.387 26.4365 100.195 26.1679C99.1954 24.8633 98.2342 23.5971 97.2346 22.2926C97.8113 22.5228 98.388 22.753 99.0032 23.0216C99.5414 23.2518 100.118 23.482 100.656 23.7122C101.31 24.0576 101.618 22.9449 100.926 22.6763Z" fill="#A0862F"/>
<path d="M29.605 28.9688C29.605 28.6619 29.5665 28.1247 29.6819 27.741C29.6819 27.7026 29.6819 27.6643 29.6819 27.5875C30.3739 24.7482 31.1044 21.9089 31.7965 19.0695C32.4501 16.4988 33.1037 13.8897 33.7189 11.3189C32.873 8.32614 32.0272 5.33333 31.1429 2.3789C31.0276 1.95684 30.8738 1.4964 30.7584 1.07434C30.6046 0.306956 31.7196 1.66893e-06 31.9118 0.729018C32.1425 1.57314 32.3732 2.41727 32.6424 3.22302C32.9499 2.72422 33.2575 2.22542 33.5651 1.72662C33.642 1.61151 33.7189 1.45804 33.7958 1.34293C33.9496 1.07434 34.3341 0.959234 34.6032 1.15108C34.8723 1.30456 34.9877 1.68825 34.7954 1.95684C34.2572 2.83933 33.7189 3.72182 33.1806 4.60432C33.1422 4.68106 33.1037 4.71943 33.0653 4.79616C33.4882 6.21583 33.8727 7.63549 34.2956 9.05516C34.6032 7.86571 34.9108 6.67626 35.1799 5.44844C35.449 4.41247 35.6797 3.3765 35.9489 2.34053C36.1411 1.57314 37.2945 1.8801 37.1023 2.60911C36.4871 5.10312 35.872 7.59712 35.2183 10.1295C35.9489 9.55396 36.6794 9.01679 37.4099 8.44125C37.9481 7.05995 38.4864 5.67866 38.9862 4.33573C39.1016 4.02878 39.3707 3.83693 39.7167 3.91367C39.9859 3.99041 40.255 4.33573 40.1397 4.64269C39.8321 5.44844 39.5245 6.29257 39.1785 7.09832C39.486 6.86811 39.8321 6.59952 40.1397 6.36931C40.4472 6.13909 40.7164 5.90887 41.0239 5.67866C41.2931 5.48681 41.6776 5.64029 41.8314 5.87051C42.0236 6.17746 41.8698 6.48441 41.6391 6.67626C41.0239 7.17506 40.3703 7.63549 39.7552 8.13429C40.7933 8.09593 41.8313 8.05756 42.831 7.98082C43.0617 7.98082 43.2924 7.94245 43.523 7.94245C44.292 7.90408 44.292 9.09353 43.523 9.09353C41.8698 9.17027 40.255 9.247 38.6017 9.32374C38.448 9.32374 38.2557 9.32374 38.1019 9.36211C37.2561 10.0144 36.4102 10.6667 35.5644 11.3189C35.2952 11.5108 35.0261 11.741 34.757 11.9329C33.6804 16.2302 32.6039 20.4892 31.5658 24.7866C31.412 25.3621 31.2967 25.9377 31.1429 26.5132C31.5658 26.2446 31.9887 25.976 32.4501 25.7074C33.9496 24.7866 35.4106 23.8657 36.91 22.9448C37.0638 22.8681 37.1792 22.753 37.333 22.6763C37.2945 22.4077 37.3714 22.1007 37.3714 21.8705C37.4099 20.5659 37.4099 19.2614 37.4483 17.9568C36.7178 17.1511 35.9489 16.3453 35.2183 15.5396C34.7185 15.0024 35.5259 14.1583 36.0642 14.6954C36.5256 15.2326 37.0254 15.7314 37.4868 16.2686C37.5252 15.1942 37.5252 14.0815 37.5637 13.0072C37.5637 12.2398 38.7555 12.2398 38.7171 13.0072C38.7171 14.0048 38.6786 15.0024 38.6786 16.0384C39.3322 15.3477 39.9859 14.6571 40.6779 13.9281C41.1777 13.3909 42.0236 14.1966 41.5238 14.7722C40.5626 15.7698 39.6398 16.7674 38.6786 17.765C38.6402 19.0312 38.6402 20.259 38.6017 21.5252C38.6017 21.6787 38.6017 21.7938 38.6017 21.9472C38.6786 21.9089 38.794 21.8321 38.9093 21.7938C39.6398 21.4484 40.3319 21.1031 41.0624 20.7578C41.1008 20.7194 41.1008 20.6427 41.1777 20.6043C42.6772 18.9161 44.1382 17.2278 45.6377 15.5396C45.8299 15.3094 46.0606 15.0791 46.2528 14.8106C46.7527 14.235 47.5601 15.0791 47.0987 15.6547C45.9452 16.9592 44.7918 18.3022 43.6384 19.6067C44.638 19.1463 45.6377 18.6859 46.6373 18.2254C46.7142 18.1871 46.7911 18.1487 46.868 18.1103C47.5601 17.8034 48.1368 18.801 47.4447 19.1079C46.099 19.7218 44.7149 20.3741 43.3693 20.988C44.5996 21.3717 45.8299 21.7938 47.0987 22.1775C47.8292 22.4077 47.5216 23.5204 46.7911 23.2902C45.1378 22.753 43.4846 22.2158 41.8314 21.717C41.2162 22.024 40.5626 22.2926 39.9474 22.5995C39.7552 22.6763 39.5629 22.7914 39.3707 22.8681C40.1012 23.3285 40.7933 23.7506 41.5238 24.211C41.8313 24.4029 42.1005 24.5947 42.4081 24.7482C42.5619 24.8249 42.7156 24.9784 42.8694 25.0552C42.9463 25.0935 43.0617 25.0552 43.177 25.0552C43.523 25.0168 43.8691 24.9784 44.2151 24.9784C44.9072 24.9017 45.5992 24.8633 46.2913 24.7866C47.0218 24.7098 47.0218 25.8993 46.2913 25.9377C45.6377 25.976 44.9841 26.0528 44.3304 26.0911C44.1767 26.0911 43.9844 26.1295 43.7537 26.1679C43.9844 26.5132 44.2151 26.8201 44.4458 27.1655C44.5227 27.2422 44.5611 27.3573 44.638 27.4341C44.8303 27.7026 44.6765 28.0863 44.4458 28.2398C44.1382 28.3933 43.8306 28.3165 43.6384 28.048C43.2155 27.4341 42.7925 26.8585 42.3696 26.2446C42.3312 26.2062 42.2927 26.1679 42.2927 26.1295C41.0624 25.4772 39.909 24.6331 38.7171 23.9041C38.5633 23.8273 38.3711 23.7122 38.1788 23.5971C36.7178 24.4796 35.2568 25.4005 33.7958 26.283C32.8346 26.8969 31.835 27.4724 30.8738 28.0863C30.8738 28.3933 30.8353 28.7002 30.8353 29.0072C32.9499 29.5827 35.0646 30.1583 37.1792 30.7338C39.2169 30.235 41.2546 29.6978 43.3308 29.199C43.6384 29.1223 43.9075 29.0456 44.2151 28.9688C44.9456 28.777 45.2532 29.9281 44.5227 30.0815C42.831 30.5036 41.1777 30.9257 39.486 31.3477C39.909 31.4628 40.3319 31.5779 40.7164 31.693C41.1777 31.8082 41.6776 31.9616 42.1389 32.0767C42.8694 32.2686 42.5619 33.3813 41.8314 33.1894C40.7548 32.8825 39.6783 32.6139 38.6017 32.307C39.1016 32.9976 39.6398 33.7266 40.1397 34.4173C40.3319 34.6859 40.1781 35.0695 39.9474 35.223C39.6398 35.4149 39.3323 35.2614 39.14 35.0312C38.3711 33.9568 37.6021 32.9209 36.7947 31.8465C35.6413 31.5396 34.4878 31.2326 33.296 30.8873C33.4882 31.5779 33.642 32.307 33.8342 32.9976C34.757 33.8034 35.6413 34.6091 36.564 35.4149C36.7178 35.53 36.8331 35.6451 36.9869 35.7986C37.2176 35.9904 37.2176 36.4125 36.9869 36.6427C36.7563 36.8729 36.4102 36.8345 36.1411 36.6427C35.5259 36.1055 34.9492 35.5683 34.3341 35.0312C34.4494 35.4532 34.5263 35.8369 34.6416 36.259C34.7185 36.5659 34.7954 36.8729 34.8723 37.1415C35.0646 37.8705 33.9496 38.1775 33.7573 37.4484C33.6035 36.7962 33.4113 36.1439 33.2575 35.4916C33.1037 36.259 32.9115 36.988 32.7577 37.7554C32.7192 37.9472 32.6808 38.1775 32.6039 38.3693C32.527 38.6763 32.181 38.8681 31.8734 38.7914C31.5658 38.7146 31.412 38.3693 31.4505 38.0624C31.7965 36.6043 32.1041 35.1463 32.4501 33.6883C32.4886 33.4964 32.527 33.2662 32.6039 33.0743C32.6039 33.0743 32.6039 33.0743 32.6039 33.036C32.4501 32.3837 32.2579 31.7314 32.1041 31.1175C32.0656 30.9257 31.9887 30.7338 31.9503 30.542C31.8734 30.5036 31.7581 30.5036 31.6812 30.4652C31.3351 30.3885 31.0276 30.2734 30.6815 30.1966C30.6431 31.0791 30.6046 31.9616 30.5662 32.8441C30.4508 35.1079 30.3355 37.3717 30.2202 39.5971C30.0664 42.705 29.7203 45.8513 29.8357 48.9592C29.9126 51.5683 30.3739 54.2926 31.6812 56.5947C32.0656 57.247 31.0276 57.8225 30.6815 57.1703C29.4896 55.06 28.9514 52.6427 28.7591 50.2254C28.49 46.964 28.8745 43.6259 29.0283 40.3645C29.1821 36.6043 29.4128 32.7674 29.605 28.9688Z" fill="#A0862F"/>
<path d="M9.11224 22.6763C10.4579 22.1391 11.7651 21.6019 13.1108 21.0264C11.7267 20.4509 10.3426 19.8369 8.9969 19.2614C8.68932 19.1463 8.65087 18.7242 8.80466 18.4557C8.95845 18.1487 9.30448 18.1103 9.61206 18.2638C11.3038 18.9928 12.957 19.7218 14.6487 20.4125C16.7249 19.5684 18.8011 18.6859 20.9157 17.8417C21.3002 17.6883 21.7231 17.5348 22.1076 17.3429C21.9153 16.9209 21.7615 16.4988 21.5693 16.0768C20.1852 15.2326 18.7626 14.3885 17.3785 13.5444C15.3023 13.5444 13.2261 13.506 11.1115 13.4676C10.8039 13.4676 10.4964 13.4676 10.1888 13.4676C9.41982 13.4676 9.41982 12.2782 10.1888 12.3166C11.9189 12.3166 13.6491 12.3549 15.4177 12.3549C14.7256 11.9329 14.0335 11.5108 13.3415 11.1271C12.6879 10.7434 12.0343 10.3214 11.3807 9.93767C10.727 9.55397 11.3422 8.55637 11.9574 8.94006C13.4184 9.82256 14.9178 10.7051 16.3789 11.5875C15.8021 10.0911 15.2254 8.63311 14.6487 7.13671C14.5334 6.86812 14.418 6.56117 14.3027 6.29258C14.1873 5.98563 14.418 5.6403 14.7256 5.56357C15.0716 5.48683 15.3408 5.67867 15.4561 5.98563C16.2251 7.98083 16.994 9.97604 17.8014 11.9712C17.8783 12.1631 17.9552 12.3549 18.0321 12.5851C18.6857 12.9688 19.3393 13.3909 20.0314 13.7746C20.5696 14.0816 21.1079 14.4269 21.6462 14.7338C22.1845 11.9329 22.6843 9.09354 23.2225 6.29258C22.3382 4.91129 21.4539 3.56836 20.6081 2.18707C20.1852 1.53479 21.2233 0.959249 21.6077 1.61153C22.2613 2.60913 22.8765 3.60673 23.5301 4.6427C23.6455 3.95206 23.7993 3.26141 23.9146 2.57076C24.0299 1.95685 24.1453 1.34294 24.2606 0.729033C24.4144 1.66968e-05 25.5294 0.306971 25.3756 1.03599C25.1834 2.03359 24.9911 3.03119 24.7989 4.06716C25.6063 2.99282 26.4521 1.91848 27.298 0.882511C27.4902 0.652295 27.6825 0.422079 27.8747 0.191863C28.0669 -0.0383526 28.4899 1.66968e-05 28.7206 0.191863C28.9512 0.422079 28.9128 0.767403 28.7206 1.03599C27.3749 2.68587 26.0677 4.29738 24.722 5.94726C24.5682 6.13911 24.4144 6.29258 24.2991 6.48443C23.8377 9.0168 23.3763 11.5492 22.8765 14.0432C22.8765 14.1199 22.8381 14.1583 22.8381 14.235C24.6836 13.0072 26.4906 11.8178 28.3361 10.5899C28.6052 9.55397 28.9128 8.47963 29.1819 7.44366C29.3742 6.71464 30.5276 7.0216 30.2969 7.75062C30.1431 8.36453 29.9509 8.97843 29.7971 9.59234C29.874 9.55397 29.9509 9.5156 29.9893 9.47723C30.3738 9.20865 30.7583 8.97843 31.1428 8.70985C31.7579 8.28779 32.3731 9.28539 31.7195 9.70745C31.1428 10.0911 30.566 10.4748 29.9893 10.8585C30.6045 11.1655 31.2197 11.4724 31.8348 11.7794C32.104 11.9329 32.1808 12.3166 32.0271 12.5851C31.8733 12.8537 31.5272 12.9305 31.2197 12.777C30.4123 12.3933 29.6433 11.9712 28.8359 11.5875C27.1442 12.7386 25.4141 13.8513 23.7224 15.0024C23.3379 15.271 22.9534 15.5012 22.5689 15.7698C23.3379 17.4964 24.0684 19.223 24.8373 20.988C25.068 21.4868 25.2603 21.9856 25.491 22.4461C25.6832 22.024 25.9139 21.6019 26.1061 21.1799C26.2599 20.8729 26.4521 20.566 26.6059 20.259C26.4137 19.3381 26.2599 18.3789 26.0677 17.458C26.0292 17.3046 26.0292 17.1511 25.9908 17.036C25.9523 16.729 26.0677 16.3837 26.4137 16.307C26.7213 16.2302 27.0673 16.3837 27.1442 16.729C27.2595 17.3813 27.3749 17.9952 27.5287 18.6475C27.7209 18.2638 27.9516 17.8417 28.1438 17.458C28.2976 17.1511 28.4514 16.8825 28.6052 16.5756C28.9512 15.9233 29.9893 16.4988 29.6049 17.1511C29.2588 17.765 28.9128 18.4173 28.5668 19.0312C28.9128 18.8777 29.2588 18.6859 29.6049 18.5324C29.7202 18.4557 29.874 18.4173 29.9893 18.3405C30.2585 18.2254 30.6429 18.2638 30.7967 18.5324C30.9505 18.801 30.8736 19.1847 30.6045 19.3381C29.7202 19.7602 28.8359 20.2206 27.9132 20.6427C27.8363 20.6811 27.7594 20.7194 27.644 20.7578C27.2595 21.5252 26.8751 22.2542 26.4906 23.0216C26.3752 23.2518 26.2599 23.482 26.1446 23.7122C26.1446 23.7506 26.1061 23.789 26.1061 23.789C26.7982 25.3621 27.4902 26.9353 28.1823 28.5084C28.3361 28.8537 28.5668 29.2374 28.5668 29.6211C28.5283 30.235 28.4514 30.8489 28.413 31.4628C28.1054 35.1079 27.7978 38.753 27.5287 42.4365C27.298 45.3142 27.2595 48.307 26.6444 51.1463C26.183 53.3717 25.3372 55.5204 24.1068 57.4005C23.8762 57.7842 23.607 58.1679 23.2994 58.5132C22.8381 59.0887 21.8384 58.5132 22.2998 57.9377C23.5301 56.3262 24.4913 54.4844 25.068 52.5276C25.9139 49.765 25.9908 46.8873 26.2215 44.048C26.529 40.0959 26.8366 36.1439 27.1826 32.1919C27.2211 31.5012 27.298 30.8106 27.3364 30.1583C26.5675 30.2734 25.837 30.3501 25.068 30.4652C24.6451 31.7314 24.1837 32.9592 23.7608 34.2254C24.1837 35.3765 24.6067 36.4892 25.068 37.6403C25.1449 37.8321 25.2218 37.9856 25.2603 38.1775C25.3756 38.4844 25.1449 38.8298 24.8373 38.9065C24.4913 38.9832 24.2222 38.7914 24.1068 38.4844C23.7993 37.6403 23.4532 36.7962 23.1456 35.9521C23.0303 36.259 22.9534 36.5276 22.8381 36.8345C22.7227 37.1799 22.6074 37.4868 22.492 37.8321C22.2613 38.5228 21.1079 38.2158 21.3771 37.5252C21.6077 36.8345 21.8384 36.1823 22.0691 35.4916C21.3002 36.0288 20.5312 36.6043 19.7622 37.1415C19.4931 37.3334 19.1086 37.1799 18.9548 36.9497C18.8011 36.6427 18.9164 36.3357 19.1471 36.1439C20.339 35.2998 21.5308 34.4557 22.7227 33.5732C23.0687 32.6139 23.4148 31.6163 23.7224 30.6571C22.4536 30.8106 21.2233 30.964 19.9545 31.1559C18.6088 32.2686 17.3016 33.3813 15.9559 34.494C15.3792 34.9928 14.5334 34.1487 15.1101 33.6499C15.9944 32.8825 16.9171 32.1535 17.8014 31.3861C16.8018 31.5012 15.8021 31.6547 14.8025 31.7698C14.1873 31.8465 13.5722 31.9233 12.9955 32C12.265 32.0768 12.265 30.9257 12.9955 30.8489C14.1873 30.6955 15.3408 30.542 16.5326 30.3885C15.0716 30.0815 13.5722 29.7746 12.1112 29.4676C11.7651 29.3909 11.3807 29.3142 11.0346 29.2374C10.381 29.1607 10.6886 28.0096 11.4191 28.1631C13.9566 28.6619 16.4557 29.1991 18.9933 29.6979C19.3393 29.7746 19.7238 29.8513 20.0698 29.9281C20.1083 29.9281 20.1083 29.9664 20.1467 29.9664C21.3386 29.813 22.492 29.6595 23.6839 29.506C22.915 28.6619 22.1076 27.8178 21.3386 26.9736C20.3774 26.9736 19.3778 26.9736 18.4166 26.9736C18.2628 26.9736 18.109 26.9736 17.9552 26.9736C17.6476 26.9736 17.34 26.7051 17.3785 26.3981C17.3785 26.0911 17.6476 25.8226 17.9552 25.8226C18.7242 25.8226 19.4931 25.8226 20.2621 25.8226C19.8391 25.3621 19.4547 24.9401 19.0317 24.4796C18.7626 24.211 18.5319 23.9425 18.2628 23.6739C17.763 23.1367 18.5704 22.2926 19.1086 22.8298C19.7622 23.5204 20.3774 24.211 21.031 24.9017C21.031 24.3262 21.031 23.7506 21.031 23.2134C21.031 23.06 21.031 22.9065 21.031 22.753C21.031 22.4461 21.3002 22.1391 21.6077 22.1775C21.9153 22.1775 22.1845 22.4461 22.1845 22.753C22.1845 23.8274 22.1845 24.9017 22.1845 25.9377C22.1845 26.0144 22.1845 26.0911 22.1845 26.1679C22.915 26.9736 23.6455 27.7794 24.376 28.5468C24.6067 28.8154 24.8373 29.0839 25.1065 29.3142C25.3756 29.2758 25.6447 29.2374 25.8754 29.1991C26.2984 29.1607 26.7213 29.0839 27.1442 29.0456C26.183 26.8585 25.2218 24.6331 24.2606 22.4461C23.6839 21.1031 23.0687 19.7218 22.492 18.3789C19.9929 19.4533 17.4938 20.4892 14.9947 21.5252C13.8029 23.06 12.611 24.6331 11.4191 26.1679C11.2269 26.3981 11.0731 26.6283 10.8808 26.8585C10.6886 27.1271 10.381 27.2422 10.0734 27.0504C9.84275 26.8969 9.68896 26.5132 9.8812 26.2446C10.8808 24.9401 11.842 23.6739 12.8417 22.3693C12.265 22.5995 11.6882 22.8298 11.0731 23.0983C10.5348 23.3286 9.95809 23.5588 9.41982 23.789C8.72777 24.0576 8.42018 22.9449 9.11224 22.6763Z" fill="#A0862F"/>
<path d="M0 76.5084V72.3645C0 72.0575 0.269134 71.7889 0.576715 71.7889C0.884297 71.7889 1.15343 72.0575 1.15343 72.3645V76.5084C1.15343 77.8129 2.19152 78.8489 3.49874 78.8489C4.80596 78.8489 5.84405 77.8513 5.84405 76.5084V72.3645C5.84405 72.0575 6.11318 71.7889 6.42076 71.7889C6.72834 71.7889 6.99748 72.0575 6.99748 72.3645V76.5084C6.99748 78.4268 5.42112 80 3.49874 80C1.57635 80 0 78.4268 0 76.5084Z" fill="#A0862F"/>
<path d="M16.6473 79.2326C16.6473 79.5395 16.3781 79.8081 16.0705 79.8081C15.763 79.8081 15.4938 79.5395 15.4938 79.2326V76.8537L10.7648 73.5156V79.2326C10.7648 79.5395 10.4956 79.8081 10.188 79.8081C9.88046 79.8081 9.61133 79.5395 9.61133 79.2326V72.3645C9.61133 72.0575 9.88046 71.7889 10.188 71.7889C10.3034 71.7889 10.4572 71.8273 10.5341 71.904L15.4938 75.434V72.3645C15.4938 72.0575 15.763 71.7889 16.0705 71.7889C16.3781 71.7889 16.6473 72.0575 16.6473 72.3645V79.2326Z" fill="#A0862F"/>
<path d="M23.8758 72.0192C24.0681 71.7506 24.4141 71.6738 24.6832 71.8273C24.9524 72.0192 25.0293 72.3645 24.8755 72.6331L23.5298 74.7434C23.4529 74.8969 23.3376 75.0503 23.1838 75.1654C24.2988 75.3189 25.0293 75.8945 25.3753 77.506C25.5291 78.1966 25.6829 78.6187 26.1443 78.6187H26.4903C26.7979 78.6187 27.067 78.8873 27.067 79.1942C27.067 79.5012 26.7979 79.7698 26.4903 79.7698H25.952C25.2215 79.7698 24.491 79.3861 24.1834 77.8513C23.9143 76.5851 23.4529 76.0479 22.261 76.0479H20.6847V79.1942C20.6847 79.5012 20.4155 79.7698 20.108 79.7698C19.8004 79.7698 19.5312 79.5012 19.5312 79.1942V72.3261C19.5312 72.0192 19.8004 71.7506 20.108 71.7506C20.4155 71.7506 20.6847 72.0192 20.6847 72.3261V74.8969H21.5305C22.1072 74.8969 22.2226 74.7434 22.6071 74.1678L23.8758 72.0192Z" fill="#A0862F"/>
<path d="M36.0242 79.2326C36.0242 79.5395 35.7551 79.8081 35.4475 79.8081C35.1399 79.8081 34.8708 79.5395 34.8708 79.2326V76.8537L30.1417 73.4772V79.1942C30.1417 79.5011 29.8726 79.7697 29.565 79.7697C29.2574 79.7697 28.9883 79.5011 28.9883 79.1942V72.3261C28.9883 72.0191 29.2574 71.7505 29.565 71.7505C29.6803 71.7505 29.8341 71.7889 29.911 71.8657L34.8708 75.3956V72.3261C34.8708 72.0191 35.1399 71.7505 35.4475 71.7505C35.7551 71.7505 36.0242 72.0191 36.0242 72.3261V79.2326Z" fill="#A0862F"/>
<path d="M42.5228 71.5971C44.8681 71.5971 46.7521 73.4772 46.7521 75.8177C46.7521 78.1583 44.8681 80.0384 42.5228 80.0384C40.216 80.0384 38.332 78.1583 38.332 75.8177C38.332 73.4772 40.1775 71.5971 42.5228 71.5971ZM42.5228 78.8105C44.2145 78.8105 45.5602 77.4676 45.5602 75.7794C45.5602 74.0911 44.2145 72.7482 42.5228 72.7482C40.8311 72.7482 39.4855 74.0911 39.4855 75.7794C39.4855 77.4676 40.8311 78.8105 42.5228 78.8105Z" fill="#A0862F"/>
<path d="M54.1348 74.0144L55.1344 72.0959C55.2882 71.7889 55.6342 71.7122 55.9034 71.8657C56.211 72.0192 56.3263 72.3645 56.1341 72.6714L54.75 75.3189L55.9034 77.4676C56.0187 77.6978 56.211 78.1582 56.2879 78.3885C56.3648 78.1582 56.557 77.6978 56.6723 77.4676L59.479 72.1726C59.6328 71.8657 59.9788 71.7889 60.248 71.9424C60.5556 72.0959 60.6324 72.4412 60.4787 72.7482L56.8646 79.6163C56.7492 79.8081 56.557 80 56.2879 80C56.0187 80 55.788 79.8081 55.7111 79.6163L54.1348 76.6618L52.5584 79.6163C52.4431 79.8081 52.2509 80 51.9817 80C51.7126 80 51.4819 79.8081 51.405 79.6163L47.7525 72.7482C47.5987 72.4412 47.714 72.0959 47.9832 71.9424C48.2907 71.7889 48.6368 71.9041 48.7521 72.1726L51.5588 77.506C51.6741 77.7362 51.8664 78.1966 51.9433 78.4268C52.0202 78.1966 52.2124 77.7362 52.3278 77.506L53.4427 75.3573L52.0586 72.7098C51.9048 72.4028 52.0202 72.0575 52.2893 71.904C52.5969 71.7506 52.9429 71.8657 53.0583 72.1343L54.1348 74.0144Z" fill="#A0862F"/>
<path d="M69.5906 79.2326C69.5906 79.5395 69.3215 79.8081 69.0139 79.8081C68.7063 79.8081 68.4372 79.5395 68.4372 79.2326V76.8537L63.7081 73.4772V79.1942C63.7081 79.5011 63.439 79.7697 63.1314 79.7697C62.8238 79.7697 62.5547 79.5011 62.5547 79.1942V72.3261C62.5547 72.0191 62.8238 71.7505 63.1314 71.7505C63.2467 71.7505 63.4005 71.7889 63.4774 71.8657L68.4372 75.3956V72.3261C68.4372 72.0191 68.7063 71.7505 69.0139 71.7505C69.3215 71.7505 69.5906 72.0191 69.5906 72.3261V79.2326Z" fill="#A0862F"/>
<path d="M81.8555 72.0191C82.0477 71.7506 82.4322 71.7122 82.6629 71.8657C82.932 72.0575 83.0089 72.4028 82.8166 72.6714L79.8177 76.9688V79.2326C79.8177 79.5395 79.5486 79.8081 79.241 79.8081C78.9334 79.8081 78.6643 79.5395 78.6643 79.2326V76.9688L75.6654 72.6714C75.4731 72.4028 75.55 72.0191 75.8192 71.8657C76.0883 71.6738 76.4728 71.7506 76.6266 72.0191L79.241 75.7793L81.8555 72.0191Z" fill="#A0862F"/>
<path d="M88.584 76.9304H84.9315L83.5858 79.5012C83.432 79.8081 83.086 79.8849 82.8169 79.7314C82.5093 79.5779 82.3939 79.2326 82.5862 78.9256L86.2003 72.0575C86.3156 71.8657 86.5078 71.6738 86.777 71.6738C87.0461 71.6738 87.2768 71.8657 87.3537 72.0575L91.0062 78.9256C91.16 79.2326 91.0447 79.5779 90.7755 79.7314C90.4679 79.8849 90.1219 79.7697 90.0066 79.5012L88.584 76.9304ZM85.5466 75.8177H88.0073L87.123 74.1678C87.0077 73.9376 86.8154 73.4772 86.7385 73.247C86.6616 73.4772 86.4694 73.9376 86.354 74.1678L85.5466 75.8177Z" fill="#A0862F"/>
<path d="M100.002 78.657C100.31 78.657 100.579 78.9256 100.579 79.2326C100.579 79.5395 100.31 79.8081 100.002 79.8081H99.4637C98.7332 79.8081 98.0027 79.4244 97.6951 77.8897C97.426 76.6235 96.9646 76.0863 95.7728 76.0863H94.1964V79.2326C94.1964 79.5395 93.9273 79.8081 93.6197 79.8081C93.3121 79.8081 93.043 79.5395 93.043 79.2326V72.3645C93.043 72.0575 93.3121 71.7889 93.6197 71.7889H96.311C97.5029 71.7889 98.5025 72.6714 98.5025 73.8609C98.5025 74.6283 98.1181 75.2038 97.5029 75.5491C98.2719 75.8177 98.6948 76.3933 98.9639 77.6211C99.1177 78.3117 99.2715 78.7338 99.7329 78.7338H100.002V78.657ZM94.1579 72.94V74.9352H96.2726C96.8108 74.9352 97.2722 74.5132 97.2722 73.9376C97.2722 73.4004 96.8108 72.94 96.2726 72.94H94.1579Z" fill="#A0862F"/>
<path d="M105.232 71.7505C107.462 71.7505 109.269 73.5539 109.269 75.7793C109.269 78.0047 107.462 79.8081 105.232 79.8081H103.079C102.771 79.8081 102.502 79.5395 102.502 79.2326V72.3645C102.502 72.0575 102.771 71.7889 103.079 71.7889H105.232V71.7505ZM105.232 78.657C106.808 78.657 108.077 77.3908 108.077 75.8177C108.077 74.2446 106.808 72.9784 105.232 72.9784H103.655V78.657H105.232Z" fill="#A0862F"/>
</g>
<defs>
<clipPath id="clip0_258_654">
<rect width="109.268" height="80" fill="white"/>
</clipPath>
</defs>
</svg>
