<svg width="110" height="80" fill="none" xmlns="http://www.w3.org/2000/svg"><g clip-path="url(#clip0_258_654)" fill="#A0862F"><path d="M71.666 52.49c0 .038 0 .038.038.076.039-.077 0-.115 0-.154-.038 0-.038.039-.038.077 0-.038 0 0 0 0z"/><path d="M74.703 42.168c-1.307.345-2.576.729-3.883 1.074-1.5.422-2.999.768-4.46 1.228a8.486 8.486 0 00-3.268 1.765c-1.038.92-1.807 2.225-2 3.684-.115.882-.192 1.764-.307 2.647-.192 1.573-.384 3.108-.577 4.681-.038.307.27.575.539.575.346 0 .5-.268.538-.575.154-1.42.384-2.801.538-4.22h2.115a.426.426 0 00.307 0h6.383c.077.306.192.575.307.843l1.154 3.454c.23.69 1.307.383 1.076-.307-.307-.96-.653-1.957-.961-2.916-.192-.538-.346-1.075-.538-1.573v-.039c0 .039-.039.077-.077.115.038-.038.038-.115.038-.153 0-.038 0-.038-.038-.077-.039-.077 0-.077.038 0 .616-2.264 1.27-4.528 1.884-6.753.193-.69.385-1.381.577-2.11.308-.077.577-.154.884-.23.73-.154.423-1.305-.269-1.113zm-6.42 9.746h-1.385c.154-1.995.27-3.99.423-5.986 0-.153.039-.345.039-.499.653-.192 1.268-.345 1.922-.537l-.923 6.446a2.315 2.315 0 00-.077.576zm-2.077-6.14c-.154 1.919-.269 3.876-.423 5.794 0 .115 0 .23-.038.346H64.63v-5.41c.423-.269.923-.5 1.384-.691.077-.038.154-.038.192-.038zm-4.19 6.101c.076-.575.115-1.15.192-1.688v-.192c.038-.23.077-.46.153-.69a4.788 4.788 0 011-1.689c.077-.076.115-.153.192-.191v4.527h-1c-.153-.077-.345-.077-.538-.077zm9.458-2.877c-.27.959-.539 1.956-.808 2.916H69.36c.308-2.187.615-4.413.923-6.6.038-.23.077-.499.115-.729.038 0 .077 0 .115-.038.808-.23 1.577-.422 2.384-.652-.461 1.688-.961 3.376-1.422 5.103zm-22.299 3.299l-.231-2.187a5.784 5.784 0 00-1.5-3.376c-1.884-2.11-4.767-2.532-7.266-3.223-1.615-.46-3.23-.883-4.845-1.343-.692-.192-.96.92-.307 1.113.307.076.576.153.884.23.538 1.88 1.038 3.76 1.576 5.678.27 1.036.577 2.072.846 3.108 0 .039.039.116.039.192-.193.346-.27.883-.385 1.228a115.49 115.49 0 00-1.115 3.377c-.23.69.808.997 1.077.306.346-.997.653-1.956 1-2.954l.46-1.381h6.422a.426.426 0 00.307 0h2.114c.155 1.42.347 2.8.5 4.22.039.307.231.576.539.576.269 0 .577-.269.538-.576-.192-1.611-.423-3.223-.615-4.834 0-.077 0-.115-.038-.154zm-7.382-.383c-.308-2.303-.654-4.605-.962-6.907v-.115c.654.192 1.27.345 1.923.537.154 2.034.307 4.106.423 6.14 0 .114 0 .23.038.345-.5-.039-.961 0-1.422 0zm2.037-6.024v-.154a8.036 8.036 0 011.538.73v5.37h-1.115c-.115-1.957-.269-3.952-.423-5.947zm-4.421 6.024c-.538-2.187-1.23-4.336-1.807-6.523-.154-.499-.27-.998-.423-1.535.5.154 1 .269 1.5.422.345.077.653.192.999.269.346 2.34.654 4.68 1 7.021 0 .116.038.192.038.307h-.461c-.308.039-.577.039-.846.039zm7.074-.039v-4.527c.462.46.808.959 1.077 1.573.077.153.154.46.23.69.039.116.039.192.077.308v.115c.039.614.116 1.227.193 1.841h-1.577zM58.71 48.92c-.077-.46-.116-.958-.192-1.419h.5c.691 0 .691-1.15 0-1.15H51.02c-.692 0-.692 1.15 0 1.15h.423c-.307 2.533-.615 5.027-.922 7.559-.077.729-.193 1.458-.27 2.225-.038.307.27.576.539.576.346 0 .5-.269.538-.576.346-2.762.692-5.563 1.038-8.326.077-.46.115-.959.192-1.42h4.922c.307 2.533.615 5.027.922 7.56.077.728.192 1.457.27 2.225.038.307.23.575.538.575.269 0 .576-.268.538-.575-.346-2.84-.692-5.64-1.038-8.403z"/><path d="M80.472 28.969c0-.307.038-.844-.077-1.228v-.153c-.692-2.84-1.423-5.68-2.115-8.518a576.353 576.353 0 01-1.922-7.751c.846-2.993 1.691-5.986 2.576-8.94.115-.422.269-.883.384-1.305.192-.729-.922-1.036-1.115-.307a46.26 46.26 0 01-.73 2.494l-.923-1.496c-.077-.115-.154-.269-.23-.384-.154-.268-.539-.383-.808-.192-.27.154-.385.538-.192.806l1.615 2.648c.038.076.076.115.115.192-.423 1.42-.807 2.839-1.23 4.259-.308-1.19-.616-2.38-.885-3.607-.269-1.036-.5-2.072-.769-3.108-.192-.73-1.307-.422-1.115.307.615 2.494 1.23 4.988 1.884 7.52-.73-.575-1.46-1.112-2.191-1.688-.538-1.381-1.077-2.763-1.577-4.105-.115-.307-.384-.5-.73-.423-.27.077-.538.423-.423.73.308.805.615 1.65.961 2.455-.307-.23-.653-.499-.961-.729-.308-.23-.577-.46-.884-.69-.27-.192-.654-.039-.808.191-.192.307-.038.614.192.806.616.499 1.27.96 1.884 1.458a78.572 78.572 0 01-3.075-.153c-.231 0-.462-.039-.692-.039-.77-.038-.77 1.151 0 1.151 1.653.077 3.268.154 4.92.23.155 0 .347 0 .5.039l2.538 1.957c.27.192.538.422.808.614 1.076 4.297 2.153 8.556 3.19 12.853.155.576.27 1.151.424 1.727a38.901 38.901 0 00-1.307-.806c-1.5-.92-2.961-1.841-4.46-2.762-.154-.077-.27-.192-.423-.269.038-.268-.039-.576-.039-.806-.038-1.304-.038-2.609-.077-3.913.73-.806 1.5-1.612 2.23-2.418.5-.537-.307-1.38-.846-.844-.461.537-.96 1.036-1.422 1.573-.039-1.074-.039-2.187-.077-3.261 0-.767-1.192-.767-1.154 0 0 .998.039 1.995.039 3.031-.654-.69-1.307-1.381-2-2.11-.5-.537-1.345.268-.845.844.961.998 1.884 1.995 2.845 2.993.038 1.266.038 2.494.077 3.76v.422c-.077-.038-.192-.115-.308-.153-.73-.346-1.422-.691-2.153-1.036-.038-.039-.038-.116-.115-.154-1.5-1.688-2.96-3.376-4.46-5.065-.192-.23-.423-.46-.615-.729-.5-.575-1.308.269-.846.845 1.153 1.304 2.307 2.647 3.46 3.951l-2.999-1.38c-.077-.04-.154-.078-.23-.116-.693-.307-1.27.69-.577.998 1.346.614 2.73 1.266 4.075 1.88-1.23.383-2.46.806-3.73 1.19-.73.23-.422 1.342.308 1.112 1.654-.537 3.307-1.074 4.96-1.573.615.307 1.269.575 1.884.882.192.077.385.192.577.269-.73.46-1.423.882-2.153 1.343-.308.192-.577.384-.884.537-.154.077-.308.23-.462.307-.077.038-.192 0-.307 0-.346-.038-.693-.077-1.038-.077-.693-.076-1.385-.115-2.077-.192-.73-.076-.73 1.113 0 1.151.654.039 1.307.116 1.961.154.154 0 .346.038.577.077-.23.345-.462.652-.692.997-.077.077-.115.192-.192.269-.193.268-.039.652.192.806.307.153.615.076.807-.192.423-.614.846-1.19 1.269-1.804.038-.038.077-.076.077-.115 1.23-.652 2.384-1.496 3.575-2.225.154-.077.346-.192.539-.307 1.46.882 2.922 1.803 4.383 2.686.961.614 1.96 1.19 2.922 1.803 0 .307.038.614.038.921l-6.344 1.727c-2.037-.5-4.075-1.036-6.151-1.535-.308-.077-.577-.154-.884-.23-.731-.192-1.039.959-.308 1.112 1.692.422 3.345.844 5.037 1.266-.423.116-.846.23-1.23.346-.462.115-.962.268-1.423.384-.73.191-.423 1.304.307 1.112 1.077-.307 2.153-.575 3.23-.882-.5.69-1.038 1.42-1.538 2.11-.192.269-.038.652.192.806.308.192.615.038.808-.192.769-1.074 1.538-2.11 2.345-3.185 1.153-.307 2.307-.614 3.499-.959-.193.69-.346 1.42-.539 2.11-.922.806-1.807 1.612-2.73 2.418-.153.115-.269.23-.422.383-.231.192-.231.614 0 .844.23.23.576.192.846 0 .615-.537 1.191-1.074 1.806-1.611-.115.422-.192.806-.307 1.228-.077.307-.154.614-.23.882-.193.73.922 1.036 1.114.307.154-.652.346-1.304.5-1.957.154.768.346 1.497.5 2.264.038.192.077.422.154.614.077.307.423.499.73.422.308-.077.462-.422.423-.729-.346-1.458-.654-2.916-1-4.374-.038-.192-.076-.422-.153-.614v-.038c.154-.652.346-1.305.5-1.919.038-.192.115-.383.153-.575.077-.039.192-.039.27-.077.346-.077.653-.192 1-.269.037.883.076 1.765.114 2.648l.346 6.753c.154 3.108.5 6.254.385 9.362-.077 2.61-.538 5.333-1.846 7.636-.384.652.654 1.227 1 .575 1.192-2.11 1.73-4.528 1.922-6.945.27-3.261-.115-6.6-.269-9.86-.269-3.838-.461-7.675-.653-11.473z"/><path d="M100.926 22.676a175.441 175.441 0 01-3.999-1.65c1.384-.575 2.768-1.19 4.114-1.765.307-.115.346-.537.192-.805-.154-.307-.5-.346-.807-.192-1.692.729-3.345 1.458-5.037 2.149-2.076-.845-4.152-1.727-6.267-2.571-.384-.154-.807-.307-1.192-.5.192-.421.346-.843.538-1.265 1.385-.844 2.807-1.689 4.191-2.533 2.076 0 4.153-.038 6.267-.076h.923c.769 0 .769-1.19 0-1.151-1.73 0-3.46.038-5.229.038.692-.422 1.384-.844 2.076-1.228.654-.384 1.308-.806 1.961-1.19.654-.383.039-1.38-.577-.997-1.46.883-2.96 1.765-4.421 2.648.577-1.497 1.153-2.955 1.73-4.451.115-.269.23-.576.346-.844.115-.307-.115-.653-.423-.73-.346-.076-.615.116-.73.423-.77 1.995-1.538 3.99-2.346 5.985-.077.192-.153.384-.23.614-.654.384-1.308.806-2 1.19-.538.307-1.076.652-1.614.959-.539-2.801-1.038-5.64-1.577-8.441.885-1.382 1.769-2.725 2.615-4.106.423-.652-.616-1.228-1-.575-.654.997-1.269 1.995-1.922 3.03-.116-.69-.27-1.38-.385-2.071L85.777.729c-.154-.729-1.269-.422-1.115.307.192.998.385 1.995.577 3.031-.846-1.074-1.73-2.11-2.576-3.184l-.577-.691c-.192-.23-.615-.192-.846 0-.23.23-.192.575 0 .844 1.346 1.65 2.653 3.261 3.999 4.911.154.192.307.346.423.537.461 2.533.923 5.065 1.422 7.56 0 .076.039.114.039.191-1.846-1.228-3.653-2.417-5.498-3.645-.27-1.036-.577-2.11-.846-3.146-.192-.73-1.346-.422-1.115.307.154.614.346 1.227.5 1.841-.077-.038-.154-.076-.192-.115-.385-.268-.77-.499-1.154-.767-.615-.422-1.23.575-.577.997l1.73 1.151-1.845.921c-.269.154-.346.538-.192.806.154.269.5.345.807.192.808-.384 1.577-.806 2.384-1.19 1.692 1.152 3.422 2.264 5.114 3.415.384.269.768.5 1.153.768-.769 1.726-1.5 3.453-2.268 5.218-.231.499-.423.998-.654 1.458-.192-.422-.423-.844-.615-1.266-.154-.307-.346-.614-.5-.921.192-.92.346-1.88.538-2.801.039-.153.039-.307.077-.422.039-.307-.077-.652-.423-.729-.307-.077-.653.077-.73.422a34.461 34.461 0 01-.385 1.919c-.192-.384-.423-.806-.615-1.19-.154-.307-.307-.575-.461-.882-.346-.653-1.384-.077-1 .575.346.614.692 1.266 1.038 1.88-.346-.153-.692-.345-1.038-.499-.115-.076-.27-.115-.384-.192-.27-.115-.654-.076-.808.192-.154.269-.077.653.192.806.885.422 1.769.883 2.692 1.305.077.038.153.076.269.115.384.767.769 1.496 1.153 2.264l.346.69c0 .039.039.077.039.077l-2.076 4.72c-.154.345-.385.728-.385 1.112.039.614.115 1.228.154 1.842.308 3.645.615 7.29.884 10.974.23 2.877.27 5.87.885 8.71.46 2.225 1.307 4.373 2.537 6.254.23.383.5.767.808 1.112.46.576 1.46 0 1-.575a16.794 16.794 0 01-2.77-5.41c-.845-2.763-.922-5.64-1.152-8.48-.308-3.952-.616-7.904-.962-11.856-.038-.69-.115-1.381-.154-2.034.77.115 1.5.192 2.269.307.423 1.266.884 2.494 1.307 3.76a123.957 123.957 0 01-1.307 3.415c-.077.192-.154.346-.192.538-.116.306.115.652.423.729.346.076.615-.116.73-.423.308-.844.654-1.688.961-2.532.116.307.192.576.308.883.115.345.23.652.346.997.23.69 1.384.384 1.115-.307-.23-.69-.462-1.343-.692-2.033.769.537 1.538 1.112 2.307 1.65.269.191.653.038.807-.192.154-.307.038-.614-.192-.806a207.341 207.341 0 01-3.576-2.57 87.059 87.059 0 01-1-2.917c1.27.154 2.5.307 3.768.499 1.346 1.113 2.653 2.225 3.999 3.338.577.499 1.422-.345.846-.844-.885-.767-1.807-1.496-2.692-2.264 1 .115 2 .269 3 .384.615.076 1.23.153 1.806.23.731.077.731-1.074 0-1.151-1.191-.154-2.345-.307-3.537-.46 1.461-.308 2.96-.614 4.422-.921.346-.077.73-.154 1.076-.23.73-.154.423-1.267-.307-1.113-2.538.498-5.037 1.036-7.575 1.535-.346.076-.73.153-1.076.23-.038 0-.038.038-.077.038-1.192-.153-2.345-.307-3.537-.46.769-.845 1.576-1.689 2.345-2.533h3.384c.307 0 .615-.268.576-.575a.59.59 0 00-.576-.576h-2.307c.423-.46.807-.882 1.23-1.343.27-.268.5-.537.769-.805.5-.538-.308-1.382-.846-.845-.653.691-1.269 1.382-1.922 2.072v-2.148c0-.307-.27-.614-.577-.576a.59.59 0 00-.577.576v3.414c-.73.806-1.46 1.612-2.191 2.38-.23.268-.462.537-.73.767-.27-.039-.539-.077-.77-.115-.423-.039-.846-.115-1.268-.154.96-2.187 1.922-4.412 2.883-6.6.577-1.342 1.192-2.724 1.769-4.067 2.499 1.037 5.036 2.073 7.535 3.108 1.192 1.535 2.384 3.108 3.576 4.643.192.23.346.46.538.69.193.27.5.385.808.193.231-.154.384-.538.192-.806-1-1.305-1.96-2.57-2.96-3.875.576.23 1.153.46 1.768.729.538.23 1.115.46 1.653.69.654.346.962-.767.27-1.036zm-71.321 6.293c0-.307-.038-.844.077-1.228v-.154c.692-2.839 1.422-5.678 2.115-8.517.653-2.571 1.307-5.18 1.922-7.751-.846-2.993-1.692-5.986-2.576-8.94-.115-.422-.27-.883-.385-1.305C30.605.307 31.72 0 31.912.73a46.8 46.8 0 00.73 2.494l.923-1.496c.077-.115.154-.269.23-.384.155-.269.54-.384.808-.192.27.154.385.537.192.806l-1.614 2.647c-.039.077-.077.115-.116.192.423 1.42.808 2.84 1.23 4.26.308-1.19.616-2.38.885-3.608.269-1.036.5-2.072.769-3.107.192-.768 1.346-.46 1.153.268-.615 2.494-1.23 4.988-1.884 7.52.73-.575 1.461-1.112 2.192-1.688a294.87 294.87 0 001.576-4.105c.116-.307.385-.5.73-.422.27.076.539.422.424.729-.308.805-.615 1.65-.962 2.455.308-.23.654-.498.962-.729.307-.23.576-.46.884-.69.27-.192.654-.039.807.192.193.306.039.613-.192.805-.615.5-1.269.96-1.884 1.458a78.553 78.553 0 003.076-.153c.23 0 .461-.039.692-.039.769-.038.769 1.152 0 1.152-1.653.076-3.268.153-4.921.23-.154 0-.346 0-.5.038l-2.538 1.957c-.269.192-.538.422-.807.614-1.077 4.297-2.153 8.556-3.191 12.854-.154.575-.27 1.15-.423 1.726.423-.268.846-.537 1.307-.806 1.5-.92 2.96-1.841 4.46-2.762.154-.077.27-.192.423-.269-.038-.268.038-.575.038-.805.039-1.305.039-2.61.077-3.914-.73-.806-1.5-1.612-2.23-2.417-.5-.538.308-1.382.846-.845.462.538.961 1.036 1.423 1.574.038-1.075.038-2.187.077-3.262 0-.767 1.191-.767 1.153 0 0 .998-.038 1.995-.038 3.031l1.999-2.11c.5-.537 1.346.269.846.844-.961.998-1.884 1.995-2.845 2.993-.039 1.266-.039 2.494-.077 3.76v.422c.077-.038.192-.115.307-.153.73-.346 1.423-.69 2.153-1.036.039-.039.039-.115.116-.154 1.5-1.688 2.96-3.376 4.46-5.064.192-.23.423-.46.615-.73.5-.575 1.307.27.846.845-1.154 1.304-2.307 2.647-3.46 3.952l2.998-1.382.231-.115c.692-.307 1.269.691.577.998-1.346.614-2.73 1.266-4.076 1.88 1.23.384 2.46.806 3.73 1.19.73.23.423 1.342-.308 1.112-1.653-.537-3.306-1.074-4.96-1.573-.615.307-1.268.576-1.884.883-.192.076-.384.191-.576.268.73.46 1.422.883 2.153 1.343.307.192.576.384.884.537.154.077.308.23.461.307.077.038.193 0 .308 0a9.439 9.439 0 011.038-.077c.692-.076 1.384-.115 2.076-.191.73-.077.73 1.112 0 1.15-.653.039-1.307.116-1.96.154-.154 0-.347.038-.577.077.23.345.461.652.692.998.077.076.115.191.192.268.192.269.038.652-.192.806-.308.153-.615.077-.808-.192-.422-.614-.846-1.19-1.268-1.803-.039-.039-.077-.077-.077-.116-1.23-.652-2.384-1.496-3.576-2.225-.154-.077-.346-.192-.538-.307-1.461.883-2.922 1.803-4.383 2.686-.961.614-1.961 1.19-2.922 1.803 0 .307-.039.614-.039.921l6.344 1.727c2.038-.499 4.076-1.036 6.152-1.535.307-.077.576-.153.884-.23.73-.192 1.038.96.308 1.112-1.692.423-3.345.845-5.037 1.267.423.115.846.23 1.23.345.462.115.962.269 1.423.384.73.192.423 1.304-.308 1.112-1.076-.306-2.153-.575-3.23-.882.5.69 1.039 1.42 1.539 2.11.192.269.038.652-.193.806-.307.192-.615.038-.807-.192a168.2 168.2 0 00-2.345-3.184 163.194 163.194 0 01-3.499-.96c.192.69.346 1.42.538 2.11.923.806 1.807 1.612 2.73 2.418.154.115.27.23.423.384.23.191.23.614 0 .844-.23.23-.577.191-.846 0-.615-.538-1.192-1.075-1.807-1.612.115.422.192.806.308 1.228.076.307.153.614.23.883.193.728-.922 1.035-1.115.306-.154-.652-.346-1.304-.5-1.956-.153.767-.346 1.496-.5 2.263-.038.192-.076.422-.153.614-.077.307-.423.5-.73.422-.308-.076-.462-.422-.423-.729.346-1.458.653-2.916 1-4.374.038-.192.076-.422.153-.614v-.038c-.154-.652-.346-1.305-.5-1.919-.038-.191-.115-.383-.154-.575-.077-.038-.192-.038-.269-.077-.346-.076-.653-.192-1-.268l-.115 2.647c-.115 2.264-.23 4.528-.346 6.753-.154 3.108-.5 6.254-.384 9.362.077 2.61.538 5.334 1.845 7.636.385.652-.653 1.227-1 .575-1.191-2.11-1.73-4.527-1.922-6.945-.269-3.261.116-6.6.27-9.86.153-3.76.384-7.598.576-11.396z"/><path d="M9.112 22.676a176.242 176.242 0 003.999-1.65c-1.384-.575-2.768-1.19-4.114-1.765-.308-.115-.346-.537-.192-.805.153-.307.5-.346.807-.192 1.692.729 3.345 1.458 5.037 2.149 2.076-.845 4.152-1.727 6.267-2.571.384-.154.807-.307 1.192-.5-.193-.421-.346-.843-.539-1.265-1.384-.844-2.806-1.689-4.19-2.533-2.077 0-4.153-.038-6.268-.076h-.922c-.77 0-.77-1.19 0-1.151 1.73 0 3.46.038 5.229.038-.692-.422-1.384-.844-2.076-1.228-.654-.384-1.308-.806-1.961-1.19-.654-.383-.039-1.38.576-.997 1.461.883 2.96 1.765 4.422 2.648-.577-1.497-1.154-2.955-1.73-4.451-.116-.269-.231-.576-.346-.844-.116-.307.115-.653.423-.73.346-.076.615.116.73.423.77 1.995 1.538 3.99 2.345 5.985.077.192.154.384.231.614.654.384 1.307.806 2 1.19.538.307 1.076.652 1.614.959.538-2.801 1.038-5.64 1.576-8.441-.884-1.382-1.768-2.725-2.614-4.106-.423-.652.615-1.228 1-.575.653.997 1.268 1.995 1.922 3.03.115-.69.27-1.38.385-2.071L24.26.729c.153-.729 1.268-.422 1.115.307-.193.998-.385 1.995-.577 3.031a101.213 101.213 0 012.5-3.184l.577-.691c.192-.23.615-.192.846 0 .23.23.192.575 0 .844-1.346 1.65-2.653 3.261-3.999 4.911-.154.192-.308.346-.423.537a444.571 444.571 0 01-1.422 7.56c0 .076-.039.114-.039.191 1.846-1.228 3.653-2.417 5.498-3.645.27-1.036.577-2.11.846-3.146.192-.73 1.346-.422 1.115.307-.154.614-.346 1.227-.5 1.841.077-.038.154-.076.192-.115.385-.268.77-.499 1.154-.767.615-.422 1.23.575.576.997l-1.73 1.151 1.846.921c.269.154.346.538.192.806-.154.269-.5.345-.807.192-.808-.384-1.577-.806-2.384-1.19-1.692 1.152-3.422 2.264-5.114 3.415-.384.269-.769.5-1.153.768.769 1.726 1.5 3.453 2.268 5.218.231.499.423.998.654 1.458.192-.422.423-.844.615-1.266.154-.307.346-.614.5-.921-.192-.92-.346-1.88-.538-2.801-.039-.153-.039-.307-.077-.422-.039-.307.077-.652.423-.729.307-.077.653.077.73.422.116.652.23 1.266.385 1.919.192-.384.423-.806.615-1.19.154-.307.307-.575.461-.882.346-.653 1.384-.077 1 .575-.346.614-.692 1.266-1.038 1.88.346-.153.692-.345 1.038-.499.115-.076.269-.115.384-.192.27-.115.654-.076.808.192.154.269.077.653-.192.806-.885.422-1.77.883-2.692 1.305a1.875 1.875 0 01-.269.115c-.384.767-.769 1.496-1.153 2.264l-.346.69c0 .039-.039.077-.039.077l2.076 4.72c.154.345.385.728.385 1.112-.039.614-.116 1.228-.154 1.842a961.86 961.86 0 00-.884 10.974c-.231 2.877-.27 5.87-.885 8.71-.461 2.225-1.307 4.373-2.537 6.254-.23.383-.5.767-.808 1.112-.46.576-1.46 0-1-.575a16.794 16.794 0 002.769-5.41c.846-2.763.923-5.64 1.153-8.48.308-3.952.616-7.904.962-11.856.038-.69.115-1.381.153-2.034-.768.115-1.499.192-2.268.307-.423 1.266-.884 2.494-1.307 3.76a124.28 124.28 0 001.307 3.415c.077.192.154.346.192.538.116.306-.115.652-.423.729-.346.076-.615-.116-.73-.423-.308-.844-.654-1.688-.961-2.532-.116.307-.193.576-.308.883-.115.345-.23.652-.346.997-.23.69-1.384.384-1.115-.307.23-.69.461-1.343.692-2.033-.769.537-1.538 1.112-2.307 1.65-.269.191-.653.038-.807-.192-.154-.307-.039-.614.192-.806a207.341 207.341 0 003.576-2.57c.346-.96.692-1.958 1-2.917a126.5 126.5 0 00-3.768.499c-1.346 1.113-2.653 2.225-4 3.338-.576.499-1.422-.345-.845-.844.884-.767 1.807-1.496 2.691-2.264-1 .115-1.999.269-2.998.384-.616.076-1.23.153-1.808.23-.73.077-.73-1.074 0-1.151 1.192-.154 2.346-.307 3.538-.46-1.461-.308-2.96-.614-4.422-.921-.346-.077-.73-.154-1.076-.23-.654-.077-.346-1.228.384-1.075 2.538.499 5.037 1.036 7.574 1.535.346.077.73.153 1.077.23.038 0 .038.038.077.038 1.192-.153 2.345-.306 3.537-.46-.769-.844-1.576-1.688-2.345-2.532h-3.384c-.307 0-.615-.269-.576-.576a.59.59 0 01.576-.575h2.307c-.423-.46-.807-.883-1.23-1.343-.27-.269-.5-.538-.77-.806-.499-.537.308-1.381.847-.844.653.69 1.268 1.381 1.922 2.072v-2.149c0-.307.27-.614.577-.576a.59.59 0 01.576.576v3.415c.731.806 1.461 1.611 2.192 2.379.23.268.461.537.73.767.27-.038.539-.077.77-.115.422-.038.845-.115 1.268-.153-.961-2.188-1.922-4.413-2.883-6.6-.577-1.343-1.192-2.724-1.769-4.067-2.5 1.074-4.998 2.11-7.497 3.146-1.192 1.535-2.384 3.108-3.576 4.643-.192.23-.346.46-.538.69-.192.27-.5.384-.808.192-.23-.153-.384-.537-.192-.805 1-1.305 1.961-2.571 2.96-3.876-.576.23-1.153.46-1.768.73-.538.23-1.115.46-1.653.69-.692.269-1-.844-.308-1.113zM0 76.508v-4.143a.59.59 0 01.577-.576.59.59 0 01.576.576v4.143a2.328 2.328 0 002.346 2.34c1.307 0 2.345-.997 2.345-2.34v-4.143a.59.59 0 01.577-.576.59.59 0 01.576.576v4.143A3.507 3.507 0 013.5 80C1.576 80 0 78.427 0 76.508zm16.647 2.725a.59.59 0 01-.576.575.59.59 0 01-.577-.575v-2.38l-4.73-3.337v5.717a.59.59 0 01-.576.575.59.59 0 01-.577-.575v-6.868a.59.59 0 01.577-.576c.115 0 .27.038.346.115l4.96 3.53v-3.07a.59.59 0 01.576-.575.59.59 0 01.577.576v6.868zm7.229-7.213a.616.616 0 01.807-.193c.27.192.346.538.192.806l-1.345 2.11a1.2 1.2 0 01-.346.422c1.115.154 1.845.73 2.191 2.341.154.69.308 1.113.77 1.113h.345a.59.59 0 01.577.575.59.59 0 01-.577.576h-.538c-.73 0-1.461-.384-1.769-1.919-.269-1.266-.73-1.803-1.922-1.803h-1.576v3.146a.59.59 0 01-.577.576.59.59 0 01-.577-.576v-6.868a.59.59 0 01.577-.575.59.59 0 01.577.575v2.57h.846c.576 0 .692-.153 1.076-.728l1.269-2.149zm12.148 7.213a.59.59 0 01-.577.575.59.59 0 01-.576-.575v-2.38l-4.73-3.376v5.717a.59.59 0 01-.576.576.59.59 0 01-.577-.576v-6.868a.59.59 0 01.577-.575c.115 0 .27.038.346.115l4.96 3.53v-3.07a.59.59 0 01.576-.575.59.59 0 01.577.575v6.907zm6.499-7.636c2.345 0 4.23 1.88 4.23 4.22a4.214 4.214 0 01-4.23 4.221c-2.307 0-4.191-1.88-4.191-4.22s1.846-4.22 4.19-4.22zm0 7.214a3.016 3.016 0 003.037-3.032 3.016 3.016 0 00-3.037-3.03 3.016 3.016 0 00-3.038 3.03 3.016 3.016 0 003.038 3.032zm11.612-4.797l1-1.918a.542.542 0 01.768-.23c.308.153.423.499.231.805L54.75 75.32l1.153 2.149c.116.23.308.69.385.92.077-.23.269-.69.384-.92l2.807-5.295a.542.542 0 01.769-.23c.308.153.384.498.23.805l-3.613 6.868c-.116.192-.308.384-.577.384a.65.65 0 01-.577-.384l-1.576-2.954-1.577 2.954c-.115.192-.307.384-.576.384a.65.65 0 01-.577-.384l-3.653-6.868a.606.606 0 01.231-.806c.308-.153.654-.038.77.23l2.806 5.334c.115.23.307.69.384.92.077-.23.27-.69.385-.92l1.115-2.149-1.384-2.647a.606.606 0 01.23-.806c.308-.153.654-.038.77.23l1.076 1.88zm15.455 5.219a.59.59 0 01-.576.575.59.59 0 01-.577-.575v-2.38l-4.729-3.376v5.717a.59.59 0 01-.577.576.59.59 0 01-.576-.576v-6.868a.59.59 0 01.576-.575c.116 0 .27.038.346.115l4.96 3.53v-3.07a.59.59 0 01.577-.575.59.59 0 01.577.575v6.907zm12.266-7.213a.612.612 0 01.807-.154c.269.192.346.537.154.805l-3 4.298v2.264a.59.59 0 01-.576.575.59.59 0 01-.577-.575v-2.264l-2.999-4.298c-.192-.268-.115-.652.154-.805.27-.192.654-.115.808.153l2.614 3.76 2.615-3.76zm6.728 4.91h-3.653l-1.345 2.571a.542.542 0 01-.77.23c-.307-.153-.422-.498-.23-.805l3.614-6.868c.116-.192.308-.384.577-.384.27 0 .5.192.577.383l3.652 6.869a.606.606 0 01-.23.805c-.308.154-.654.039-.77-.23l-1.422-2.57zm-3.037-1.112h2.46l-.884-1.65a9.372 9.372 0 01-.385-.921 9.21 9.21 0 01-.384.92l-.807 1.65zm14.455 2.839a.59.59 0 01.577.576.59.59 0 01-.577.575h-.538c-.73 0-1.461-.384-1.769-1.918-.269-1.266-.73-1.804-1.922-1.804h-1.577v3.147a.59.59 0 01-.576.575.59.59 0 01-.577-.575v-6.868a.59.59 0 01.577-.576h2.691c1.192 0 2.191.882 2.191 2.072 0 .767-.384 1.343-1 1.688.77.269 1.193.844 1.462 2.072.154.69.308 1.113.769 1.113h.269v-.077zm-5.844-5.717v1.995h2.115c.538 0 1-.422 1-.997 0-.538-.462-.998-1-.998h-2.115zm11.074-1.19a4.032 4.032 0 014.037 4.03 4.032 4.032 0 01-4.037 4.028h-2.153a.59.59 0 01-.577-.575v-6.868a.59.59 0 01.577-.576h2.153v-.038zm0 6.907a2.836 2.836 0 002.845-2.84 2.836 2.836 0 00-2.845-2.839h-1.577v5.679h1.577z"/></g><defs><clipPath id="clip0_258_654"><path fill="#fff" d="M0 0h109.268v80H0z"/></clipPath></defs></svg>