<svg width="12" height="7" viewBox="0 0 12 7" fill="none" xmlns="http://www.w3.org/2000/svg">
<path d="M6.00078 0.225012C6.08412 0.225012 6.17161 0.241678 6.26328 0.275012C6.35495 0.308345 6.43411 0.366678 6.50078 0.450012L11.2508 5.17501C11.3674 5.29168 11.4258 5.43335 11.4258 5.60001C11.4258 5.76668 11.3674 5.90835 11.2508 6.02501C11.1174 6.14168 10.9799 6.20001 10.8383 6.20001C10.6966 6.20001 10.5674 6.14168 10.4508 6.02501L6.00078 1.57501L1.55078 6.02501C1.43411 6.14168 1.30078 6.20001 1.15078 6.20001C1.00078 6.20001 0.867448 6.14168 0.750781 6.02501C0.634114 5.90834 0.575782 5.77084 0.575782 5.61251C0.575782 5.45418 0.634114 5.31668 0.750781 5.20001L5.50078 0.450012C5.56745 0.366678 5.64245 0.308345 5.72578 0.275012C5.80912 0.241678 5.90078 0.225012 6.00078 0.225012Z" fill="#A0862F"/>
</svg>
