<svg width="24" height="24" viewBox="0 0 24 24" fill="none" xmlns="http://www.w3.org/2000/svg">
<g clip-path="url(#clip0_35_503)">
<path d="M11.9922 2.00098C6.46919 2.00098 1.99219 6.47798 1.99219 12.001C1.99219 16.992 5.64919 21.129 10.4302 21.88V14.891H7.89019V12.001H10.4302V9.79798C10.4302 7.29198 11.9222 5.90798 14.2072 5.90798C15.3012 5.90798 16.4452 6.10298 16.4452 6.10298V8.56298H15.1852C13.9422 8.56298 13.5552 9.33398 13.5552 10.125V12.001H16.3282L15.8852 14.891H13.5552V21.88C18.3352 21.13 21.9922 16.991 21.9922 12.001C21.9922 6.47798 17.5152 2.00098 11.9922 2.00098Z" fill="#A0862F"/>
</g>
<defs>
<clipPath id="clip0_35_503">
<rect width="24" height="24" fill="white"/>
</clipPath>
</defs>
</svg>
