<svg width="121" height="130" viewBox="0 0 121 130" fill="none" xmlns="http://www.w3.org/2000/svg">
<path fill-rule="evenodd" clip-rule="evenodd" d="M59.5526 0.939479C58.7909 1.74199 58.6611 2.23668 58.6611 4.33712V6.79491L57.0061 6.65576C53.9281 6.39712 51.8741 8.13401 51.8627 11.0049C51.8557 12.7472 53.3205 14.2069 55.0763 14.2069C55.7387 14.2069 56.5967 14.4025 56.9836 14.6419C57.607 15.0276 57.6317 15.1821 57.1984 16.0079C56.93 16.5201 55.5769 18.0213 54.1918 19.3444L51.6729 21.7497L49.6505 21.5971C47.3533 21.4237 45.3713 22.2192 44.094 23.8275C43.6821 24.3466 43.2327 24.7688 43.0955 24.7667C42.7479 24.7601 41.0499 22.1941 40.8086 21.3104C40.5968 20.5345 38.9848 20.0587 38.9848 20.7723C38.9848 21.0051 38.6538 21.6124 38.2492 22.1216C37.3666 23.233 37.264 25.7859 38.0414 27.2755C38.332 27.8313 39.2386 28.8852 40.0565 29.617L41.5435 30.9478L39.8042 30.7401C38.848 30.6261 36.4103 30.1485 34.3875 29.6793C27.0632 27.9796 23.8352 27.7884 19.6763 28.8062C15.3508 29.8651 12.7179 31.637 12.2854 33.7804C11.9882 35.2521 13.3931 36.7923 15.0334 36.7923H16.1243L16.2453 39.5051C16.3118 40.9971 16.2265 42.8415 16.0559 43.6032C15.7756 44.8523 15.7065 46.1721 15.8113 48.2602C15.8311 48.6569 15.6189 49.1486 15.3394 49.353C14.5947 49.8972 13.9757 51.1893 13.9757 52.2002C13.9757 52.6865 13.4792 53.7036 12.8723 54.4598C12.2655 55.2161 11.769 56.2543 11.769 56.7672C11.769 57.2797 11.3626 58.2819 10.8661 58.9937C10.3696 59.7058 9.8981 60.8832 9.81866 61.6106C9.73885 62.3378 9.32399 63.3042 8.89663 63.7584C8.46963 64.2127 8.01285 65.2924 7.88192 66.1583C7.75062 67.0242 7.41668 67.9192 7.13937 68.1469C6.86206 68.375 6.52591 69.3778 6.39204 70.3756C6.25412 71.4069 5.92753 72.2738 5.63551 72.3846C4.94261 72.648 3.94482 74.6198 4.18719 75.246C4.29458 75.5229 4.16696 75.9622 3.904 76.2226C3.22213 76.898 2.53401 78.2506 2.60279 78.7795C2.75431 79.9419 2.52335 80.5058 1.89591 80.5058C0.897018 80.5058 0 81.6766 0 82.9808C0 84.0073 0.594334 84.7151 1.56307 84.8411C1.7146 84.8612 1.92166 84.8976 2.0228 84.9227C2.12394 84.9479 2.40271 84.9887 2.64214 85.0138C2.88156 85.0389 3.50201 85.8997 4.02132 86.9266C5.69399 90.2365 4.5877 89.9786 17.0547 89.9655C29.3011 89.9527 28.99 90.0103 30.0069 87.5722C30.8226 85.6163 31.5211 84.9304 32.9705 84.6612C35.1308 84.2598 35.0529 81.4876 32.8521 80.4428C32.0852 80.0789 31.7682 79.6097 31.6012 78.5923C31.4784 77.843 31.1033 76.9293 30.7678 76.5625C30.4324 76.1953 30.1581 75.4697 30.1581 74.9498C30.1581 74.43 29.7322 73.5033 29.2118 72.8909C28.6913 72.2782 28.1908 71.1592 28.1 70.404C28.0087 69.6488 27.6343 68.6212 27.268 68.1203C26.9014 67.6194 26.4979 66.5714 26.3714 65.7915C26.2452 65.0112 25.8252 64.0276 25.4387 63.6058C25.0521 63.1836 24.6502 62.1596 24.545 61.3301C24.4387 60.4876 24.0121 59.4829 23.5785 59.0534C23.1515 58.6305 22.8024 57.867 22.8024 57.3559C22.8024 56.2772 21.8436 54.2777 21.3262 54.2777C21.1316 54.2777 20.8646 53.6114 20.7333 52.7973C20.6016 51.9831 20.0919 50.7296 19.5998 50.0112C18.9691 49.0907 18.6748 48.1039 18.6027 46.665C18.5461 45.5426 18.2107 43.6407 17.8569 42.4386C17.3001 40.5469 17.2758 39.9954 17.6763 38.3405C17.9304 37.2888 18.3276 36.428 18.5582 36.428C18.7888 36.428 19.1842 36.2233 19.4372 35.9726C19.8587 35.5552 20.8889 35.377 23.0834 35.3413C23.5417 35.334 25.0054 34.8958 26.3368 34.368C28.6895 33.4351 28.8826 33.4172 33.2276 33.7287C38.4883 34.1053 45.4971 34.1549 47.7523 33.831C48.838 33.6751 49.7005 33.776 50.4507 34.1469C51.1874 34.5108 52.2194 34.6368 53.5596 34.5268C54.6633 34.4361 55.6486 34.494 55.7494 34.6558C55.8501 34.8171 55.6777 35.4379 55.3661 36.0349C54.1926 38.2829 54.9344 41.5184 56.9009 42.73C57.5982 43.1595 57.4757 43.7136 56.6832 43.7136C56.3036 43.7136 55.7935 43.9515 55.5497 44.2425C54.9513 44.9565 55.4195 46.2635 56.2735 46.2635C57.1609 46.2635 57.5349 46.8529 56.82 47.1247C55.9789 47.4445 56.1205 49.2073 57.0061 49.4364C57.7302 49.624 57.7416 49.9333 57.7416 69.5946V89.5622L56.9141 89.6784C55.8568 89.8274 55.5607 91.3785 56.4647 92.0331C57.0396 92.4495 57.0109 92.5121 56.1469 92.7267C54.0142 93.2571 53.998 95.077 56.126 95.077C57.6835 95.077 57.6949 95.3929 56.2536 98.5749C54.2532 102.991 54.5052 105.306 57.2161 107.418C57.866 107.924 57.973 108.165 57.6096 108.303C57.3352 108.407 57.016 108.962 56.9002 109.536C56.6758 110.647 54.7045 112.021 52.2584 112.771C51.5578 112.986 50.8082 113.463 50.5931 113.832C50.3779 114.201 49.9127 114.803 49.5585 115.171C49.2043 115.54 48.9149 116.143 48.9149 116.513C48.9149 116.883 48.5986 117.469 48.2124 117.815C47.8259 118.161 47.3989 118.882 47.2636 119.417C46.9355 120.711 46.4423 121.253 45.08 121.817C43.7711 122.359 38.9101 128.975 39.3287 129.645C39.6935 130.23 82.0792 130.04 82.2767 129.453C82.3532 129.225 82.195 128.816 81.9247 128.542C81.6548 128.268 80.5345 126.75 79.4349 125.168C78.1233 123.281 77.0439 122.13 76.2944 121.82C74.9045 121.244 74.5147 120.785 73.9542 119.061C73.7159 118.327 73.2804 117.635 72.9869 117.524C72.693 117.412 72.4529 116.978 72.4529 116.56C72.4529 115.598 70.3165 112.929 69.5412 112.921C69.2208 112.918 68.5452 112.685 68.0395 112.401C67.5338 112.119 66.5735 111.607 65.9053 111.263C65.0796 110.839 64.6214 110.296 64.4739 109.566C64.3547 108.976 64.0381 108.41 63.7703 108.308C63.4356 108.181 63.6284 107.836 64.3878 107.203C66.9233 105.09 67.102 102.964 65.1142 98.5749C63.6728 95.3929 63.6843 95.077 65.2418 95.077C67.233 95.077 67.4581 93.5726 65.5732 92.8629C64.8255 92.5814 64.7328 92.416 65.0855 91.9945C65.7758 91.1709 65.4051 89.8125 64.4537 89.6784L63.6261 89.5622V69.5946C63.6261 49.9333 63.6375 49.624 64.3617 49.4364C65.2962 49.1945 65.3595 47.5385 64.4537 47.0347C63.9134 46.7346 63.8987 46.6493 64.3617 46.5051C64.6651 46.4107 65.2032 46.241 65.557 46.1277C66.8262 45.7222 66.0763 43.7136 64.6559 43.7136C63.8582 43.7136 63.7758 43.0451 64.5382 42.7552C64.8376 42.6415 65.4386 41.9778 65.8736 41.2802C66.525 40.2365 66.6283 39.6573 66.4569 38.0126C66.3422 36.9132 66.0579 35.7861 65.8251 35.5082C65.1149 34.6605 65.7082 34.3545 67.7482 34.5162C68.8461 34.6033 70.1756 34.4714 70.7979 34.2139C72.2013 33.6329 72.0336 33.6329 75.9898 34.2095C78.5334 34.5804 79.9089 34.6044 81.6905 34.3093C82.9814 34.0951 85.8846 33.8088 88.1417 33.6722C91.9927 33.4398 92.4002 33.4824 94.7618 34.3698C96.1457 34.89 97.6091 35.3246 98.0137 35.3359C100.22 35.3963 101.149 35.5632 101.563 35.9726C101.815 36.2233 102.238 36.428 102.501 36.428C102.764 36.428 102.979 36.7034 102.979 37.0396C102.979 37.3758 103.17 38.1747 103.404 38.8147C103.749 39.7615 103.705 40.411 103.168 42.3013C102.804 43.5788 102.459 45.571 102.4 46.7284C102.316 48.3578 102.079 49.0834 101.348 49.9439C100.829 50.5551 100.401 51.4931 100.398 52.029C100.394 52.5645 99.8923 53.7313 99.2833 54.6219C98.6742 55.5126 98.1998 56.4962 98.2288 56.8076C98.3307 57.8892 98.1935 58.26 97.4318 58.9631C96.9806 59.3794 96.5837 60.3196 96.4653 61.254C96.3546 62.1254 95.957 63.1741 95.5815 63.5843C95.206 63.9949 94.7919 64.8965 94.661 65.5879C94.5304 66.2796 94.0968 67.3838 93.6981 68.0416C93.2995 68.6999 92.9162 69.843 92.8471 70.5821C92.7776 71.3213 92.4907 72.0943 92.2094 72.3001C91.4778 72.8345 90.8419 74.1299 90.8419 75.0854C90.8419 75.5363 90.4922 76.2744 90.0645 76.725C89.6371 77.176 89.2414 78.0881 89.1855 78.7522C89.0332 80.5594 89.031 80.5659 88.6382 80.3255C88.0828 79.9857 86.4278 81.8183 86.4341 82.7662C86.4426 83.9876 86.8276 84.4073 88.2682 84.7628C89.337 85.0269 89.7272 85.4182 90.5731 87.0734C91.1332 88.1696 91.868 89.2715 92.2064 89.5218C93.0181 90.1228 114.05 90.1778 115.174 89.5819C115.584 89.3648 116.309 88.3142 116.785 87.2476C117.739 85.1111 117.855 84.9938 119.273 84.7391C120.718 84.4798 121 84.2128 121 83.1039C121 81.9054 120.394 81.0075 119.155 80.37C118.652 80.1113 118.293 79.6778 118.356 79.4068C118.54 78.6192 118.109 77.3293 117.441 76.6689C116.89 76.1232 116.718 75.5673 116.617 74.0224C116.601 73.7623 116.198 73.1886 115.723 72.7474C115.189 72.252 114.782 71.3584 114.657 70.4098C114.545 69.5651 114.106 68.4365 113.681 67.9018C113.256 67.367 112.909 66.472 112.909 65.9135C112.909 65.3547 112.52 64.4342 112.044 63.8681C111.557 63.2882 111.086 62.1276 110.965 61.2118C110.847 60.3171 110.499 59.4027 110.191 59.1794C109.882 58.9561 109.451 57.9831 109.232 57.0171C109.014 56.051 108.428 54.7811 107.93 54.1946C107.432 53.6085 107.024 52.6625 107.024 52.092C107.024 51.5216 106.626 50.5864 106.139 50.0134C105.114 48.8062 104.939 48.2008 105.306 47.1338C105.451 46.7105 105.347 45.4811 105.073 44.4017C104.775 43.2247 104.639 41.3239 104.735 39.6559L104.894 36.8731L106.321 36.6473C108.084 36.3682 109.038 35.1319 108.693 33.5742C108.092 30.8658 103.032 28.5788 96.9103 28.2488C94.0773 28.0962 92.1229 28.3661 86.6125 29.6717C84.5897 30.1511 82.2513 30.6195 81.4157 30.7128L79.8971 30.8825L81.3477 29.5846C82.1454 28.8706 83.0358 27.8313 83.3263 27.2755C84.1038 25.7859 84.0012 23.233 83.1185 22.1216C82.714 21.6124 82.383 21.0051 82.383 20.7723C82.383 20.0398 80.7445 20.5337 80.5985 21.3104C80.5235 21.7111 79.9931 22.6735 79.4198 23.4494L78.3778 24.8599L77.3462 23.8126C75.6099 22.0499 73.8427 21.3574 71.7173 21.6069L69.8582 21.8247L67.2672 19.4041C64.4463 16.7682 63.1752 14.9355 64.1683 14.9355C64.4768 14.9355 64.7295 14.7715 64.7295 14.5712C64.7295 14.3708 65.3672 14.2069 66.1469 14.2069C68.233 14.2069 69.5106 12.9177 69.5106 10.8129C69.5106 8.03929 67.2653 6.30933 64.062 6.61386L62.7067 6.74282L62.8273 4.52581C62.934 2.56235 62.8358 2.17694 61.9671 1.1544C61.4276 0.519463 60.8645 0 60.7151 0C60.5662 0 60.0432 0.42293 59.5526 0.939479ZM60.6155 4.37136C60.6019 5.1123 60.5644 5.14618 60.4147 4.5535C60.3135 4.15279 60.0789 3.72986 59.8932 3.61366C59.7074 3.49745 59.6729 3.09966 59.8163 2.72955C60.0668 2.08331 60.0881 2.08441 60.3547 2.75869C60.5074 3.14483 60.6247 3.87047 60.6155 4.37136ZM59.5177 9.01593C60.5875 10.0986 60.8678 10.6654 60.8678 11.7484C60.8678 12.4999 60.7438 13.1144 60.5919 13.1144C60.4401 13.1141 60.3135 12.4995 60.3106 11.748C60.3025 9.79694 59.9237 9.41044 57.9914 9.38166C55.7729 9.34851 55.0657 9.94848 55.236 11.7182C55.322 12.6117 55.2429 12.9705 55.0105 12.7403C54.4886 12.2234 54.5721 9.99912 55.1385 9.32301C55.4062 9.00391 56.1013 8.74272 56.6832 8.74272C57.7578 8.74272 58.1208 8.22653 57.2819 7.89103C57.0178 7.78539 57.1083 7.69505 57.4949 7.67866C57.8645 7.66299 58.7747 8.26478 59.5177 9.01593ZM63.8376 7.97008C63.6254 8.30995 62.155 8.7857 62.155 8.51468C62.155 8.42689 62.5272 8.20686 62.9825 8.02545C64.0616 7.59596 64.0715 7.59523 63.8376 7.97008ZM54.7994 8.18355C54.7994 8.27644 54.4272 8.54928 53.9719 8.78971C53.2216 9.18568 53.1915 9.16965 53.649 8.62032C54.119 8.05605 54.7994 7.79777 54.7994 8.18355ZM58.4772 11.6358C58.4772 12.3859 58.2606 12.721 57.6776 12.8718C56.6129 13.1476 56.2705 12.8882 56.2705 11.8059C56.2705 11.2063 56.5471 10.8013 57.098 10.5951C58.1929 10.1853 58.4772 10.3998 58.4772 11.6358ZM64.386 10.5769C65.1366 10.975 65.3632 12.544 64.7262 12.9341C63.9332 13.4193 62.8906 12.7145 62.8906 11.693C62.8906 10.2097 63.2238 9.96087 64.386 10.5769ZM59.5213 14.9344C60.2878 15.9609 60.3025 16.091 59.7652 17.1201C59.0726 18.446 58.6905 18.5837 59.2841 17.2935C59.9384 15.8713 59.0807 15.2535 58.3551 16.6239C58.0509 17.198 57.0852 18.3233 56.2087 19.1243L54.6155 20.5811L56.1613 18.9422C57.7519 17.2556 59.0351 14.8065 58.6512 14.1909C58.1598 13.4033 58.7641 13.9195 59.5213 14.9344ZM62.6431 15.0265C62.5559 16.6465 62.5493 16.6582 62.1282 15.942C61.8744 15.5103 61.8821 15.0764 62.1524 14.5759C62.6784 13.6029 62.7177 13.639 62.6431 15.0265ZM57.6265 21.4215C56.4588 22.6283 56.3985 23.1864 57.3253 24.2013C57.703 24.6148 58.318 25.4449 58.692 26.046L59.372 27.1388L58.2808 26.0362C57.681 25.4293 56.6512 24.523 55.9925 24.0217L54.7954 23.1099L56.5441 21.7781C58.6655 20.1625 58.9281 20.0758 57.6265 21.4215ZM60.8534 21.7766C61.0182 22.7026 60.9358 22.9496 60.4625 22.9496C60.0197 22.9496 59.9207 22.7347 60.0844 22.13C60.2061 21.679 60.3084 21.0783 60.311 20.7942C60.3194 19.9534 60.6291 20.5144 60.8534 21.7766ZM65.8071 22.4039C67.0303 23.017 67.0447 23.0487 66.2808 23.4534C65.8479 23.6829 64.71 24.606 63.7523 25.5047C61.9388 27.207 61.9193 26.9724 63.6879 24.7186C64.9796 23.0724 64.9829 22.7216 63.7181 21.3315C62.8156 20.3396 62.8056 20.3035 63.6261 20.996C64.1318 21.4226 65.1131 22.0561 65.8071 22.4039ZM59.2128 22.0389C59.2128 22.3395 58.9443 22.5854 58.6162 22.5854C58.1274 22.5854 58.1021 22.4866 58.4772 22.0389C58.7291 21.7384 58.9976 21.4925 59.0737 21.4925C59.1502 21.4925 59.2128 21.7384 59.2128 22.0389ZM41.2595 24.3098C43.4912 27.5494 46.2628 29.361 49.7626 29.8677L51.6733 30.1442L50.1341 30.1897C49.2875 30.2148 48.1705 30.0753 47.6516 29.8801C47.0385 29.6491 46.7082 29.6491 46.7082 29.8801C46.7082 30.0753 46.3974 30.2352 46.0175 30.2352C45.3353 30.2352 44.7078 29.679 43.9642 28.4153C43.7542 28.0579 42.713 26.7553 41.6512 25.5207C40.5251 24.2115 39.7325 22.9423 39.7494 22.4753C39.7689 21.9326 39.8458 21.8506 39.9877 22.2211C40.1029 22.5216 40.6751 23.4614 41.2595 24.3098ZM80.3311 24.6082C79.5775 25.7331 78.2476 27.1724 77.376 27.8066C76.5047 28.4411 75.785 29.1475 75.7773 29.3766C75.7574 29.9489 75.1848 30.1216 72.2815 30.4294C70.4522 30.6236 69.8446 30.5838 70.0325 30.2833C70.1738 30.0564 70.7361 29.8709 71.2819 29.8709C74.7898 29.8709 79.2017 26.6303 80.992 22.7387C81.2359 22.2083 81.4955 21.9519 81.5687 22.169C81.6415 22.3861 81.0847 23.4837 80.3311 24.6082ZM48.646 23.5529C48.3971 23.6527 47.9006 23.6589 47.5427 23.5664C47.1849 23.4738 47.3886 23.3922 47.9954 23.3849C48.6023 23.3777 48.895 23.4531 48.646 23.5529ZM56.6894 26.0741C57.3691 26.6904 58.3393 27.6558 58.845 28.2197L59.7644 29.244L58.2933 28.3628C57.4842 27.878 56.4912 27.3006 56.0866 27.0798C55.6821 26.8587 55.3996 26.4128 55.4592 26.0886C55.5184 25.7648 55.4357 25.493 55.2753 25.4847C55.1146 25.4766 54.404 24.9597 53.696 24.3364L52.4088 23.2024L53.9311 24.0778C54.7681 24.5594 56.0094 25.4577 56.6894 26.0741ZM59.0439 23.7026C59.4397 24.3368 58.9892 24.4712 58.4846 23.8691C58.1944 23.523 58.1664 23.3139 58.4106 23.3139C58.6254 23.3139 58.9108 23.4888 59.0439 23.7026ZM60.8075 25.1583L60.5541 26.4103L60.2529 25.3174C59.8998 24.0363 60.1591 23.0127 60.7004 23.5489C60.9013 23.7478 60.9487 24.4607 60.8075 25.1583ZM74.9354 23.5649C74.5816 23.6567 74.002 23.6567 73.6482 23.5649C73.2944 23.4735 73.5838 23.3984 74.2918 23.3984C74.9998 23.3984 75.2892 23.4735 74.9354 23.5649ZM67.0778 24.472C65.4478 25.6912 65.1322 25.7885 66.3702 24.6898C66.9847 24.1441 67.6342 23.6935 67.8133 23.688C67.9924 23.6826 67.6614 24.0355 67.0778 24.472ZM72.7901 23.809C72.7059 23.8811 72.1403 24.0501 71.5334 24.1845C70.7276 24.363 70.579 24.3292 70.9818 24.0592C71.4783 23.7263 73.159 23.4939 72.7901 23.809ZM52.7071 26.0256C55.2558 27.305 55.8597 27.9519 53.6225 27.007C51.4088 26.0715 48.5633 25.4453 46.2128 25.3761C45.1124 25.344 44.2967 25.1787 44.4007 25.0085C44.5045 24.8388 45.9351 24.7568 47.5795 24.8264C49.9995 24.9291 50.9778 25.1579 52.7071 26.0256ZM77.0502 25.1353C77.1888 25.3575 76.6349 25.4996 75.6309 25.4996C74.725 25.4996 73.6864 25.6129 73.3227 25.7509C72.7317 25.9757 72.7184 25.9382 73.2006 25.4005C73.8008 24.731 76.6743 24.5328 77.0502 25.1353ZM40.6534 27.0478C41.2205 27.8995 41.4493 28.4036 41.1621 28.1687C40.6097 27.7166 39.2014 25.4996 39.467 25.4996C39.5527 25.4996 40.0867 26.1961 40.6534 27.0478ZM51.61 27.6929C52.7623 28.1202 53.6155 28.6127 53.5063 28.7876C53.0282 29.554 46.9296 28.2692 45.421 27.0838C44.7354 26.5454 44.8491 26.5199 47.1003 26.7115C48.4283 26.8245 50.4577 27.266 51.61 27.6929ZM75.8067 27.1858C74.6007 28.0226 72.1053 28.7093 70.0093 28.7814C67.4687 28.8688 67.3577 28.8196 68.5912 28.1504C70.0535 27.357 72.9799 26.6616 75.0174 26.6234C76.6393 26.5928 76.6504 26.6008 75.8067 27.1858ZM79.9295 28.6C78.4231 30.3849 75.6022 31.7178 73.4503 31.6614C72.4323 31.6348 72.5231 31.5681 74.1079 31.1802C76.4341 30.6108 77.7728 29.907 79.6246 28.2798C80.4337 27.5687 81.1454 26.9804 81.2061 26.972C81.2668 26.9636 80.6923 27.6962 79.9295 28.6ZM57.5927 28.8692L58.2933 29.6888L57.3739 28.9643C56.8682 28.5657 56.3856 28.1967 56.301 28.1446C56.2168 28.0922 56.3154 28.0495 56.5199 28.0495C56.7247 28.0495 57.2073 28.4182 57.5927 28.8692ZM22.9863 29.879C20.2085 30.4312 17.4303 31.692 16.1831 32.9666C15.0194 34.1556 13.6079 34.6718 13.6079 33.9079C13.6079 32.9433 14.2732 32.2828 16.2302 31.304C18.7624 30.0382 20.517 29.5784 22.8024 29.5832L24.4574 29.5864L22.9863 29.879ZM33.1919 30.5744L35.7435 31.2162L33.4059 31.4326C32.1205 31.5514 30.7395 31.7561 30.3375 31.8872C29.745 32.0803 29.7108 32.0508 30.1581 31.7324C30.7689 31.2971 30.6038 31.2348 28.6869 31.1747C28.0981 31.1561 27.8076 30.9616 27.8789 30.633C27.94 30.3507 27.7745 29.97 27.5111 29.7872C26.8583 29.3344 29.9823 29.7671 33.1919 30.5744ZM91.7298 30.0411C90.2965 30.299 88.7765 30.6939 88.3521 30.919C87.9277 31.1441 87.0314 31.3146 86.3609 31.2982C84.7151 31.2578 91.2884 29.554 93.0486 29.5646C93.8629 29.5697 93.3782 29.7445 91.7298 30.0411ZM102.08 30.268C103.836 30.8053 104.417 31.123 104.052 31.3466C103.615 31.614 103.627 31.7372 104.129 32.1335C104.861 32.7112 105.322 34.3458 104.697 34.1465C104.46 34.0707 103.935 33.4941 103.53 32.865C102.653 31.5 100.181 30.2418 97.6459 29.8684L95.807 29.5977L97.6992 29.5522C98.7397 29.5271 100.711 29.8495 102.08 30.268ZM54.8965 30.1274C54.4441 30.2137 53.6166 30.2159 53.0576 30.1325C52.4986 30.0487 52.8685 29.978 53.8799 29.9751C54.8913 29.9726 55.3489 30.0411 54.8965 30.1274ZM49.735 31.7087L52.4088 32.0158L49.4313 31.8923C47.6236 31.8173 45.9977 31.5353 45.2937 31.1747C43.6656 30.3409 43.8487 30.1281 45.5975 30.8214C46.4029 31.1405 48.2647 31.5397 49.735 31.7087ZM99.821 31.3477C101.301 31.8963 102.05 32.4318 102.626 33.3556C103.059 34.0489 103.718 34.7778 104.091 34.9756C104.972 35.4426 106.657 35.4397 106.657 34.9709C106.657 34.7705 106.842 34.6066 107.069 34.6066C107.355 34.6066 107.341 34.7756 107.024 35.153C106.513 35.7628 104.922 35.8692 104.092 35.3486C103.74 35.1286 103.461 35.1519 103.296 35.4156C103.036 35.8331 101.512 33.7039 101.509 32.9189C101.508 32.6916 101.218 32.4125 100.864 32.2985C98.1442 31.4224 96.3046 30.6214 96.9883 30.6115C97.4359 30.605 98.7106 30.9361 99.821 31.3477ZM21.3361 31.8555C20.8326 32.1313 20.2644 32.261 20.0731 32.1441C19.6973 31.9138 20.7988 31.3874 21.6991 31.3667C22.0025 31.3598 21.8392 31.5794 21.3361 31.8555ZM84.038 31.6923C83.9129 31.8927 83.1171 32.0319 82.2693 32.002L80.728 31.9473L82.383 31.6923C83.2932 31.5521 84.0891 31.4129 84.1516 31.3827C84.2142 31.3528 84.163 31.492 84.038 31.6923ZM44.471 32.2894C44.7678 32.5444 40.6214 32.375 39.1687 32.073C38.1683 31.865 38.7564 31.8297 41.0076 31.9626C42.8281 32.0697 44.3868 32.2169 44.471 32.2894ZM70.7059 31.9335C70.4533 32.0348 70.0395 32.0348 69.7865 31.9335C69.5338 31.8326 69.7405 31.7499 70.2462 31.7499C70.7519 31.7499 70.959 31.8326 70.7059 31.9335ZM106.473 32.4209C106.839 32.8216 107.056 33.1495 106.954 33.1495C106.853 33.1495 106.471 32.8216 106.105 32.4209C105.739 32.0202 105.522 31.6923 105.623 31.6923C105.724 31.6923 106.107 32.0202 106.473 32.4209ZM19.4924 32.1943C19.4924 32.2697 19.203 32.5568 18.8488 32.8318C18.2655 33.2846 18.2526 33.2719 18.7098 32.6941C19.1905 32.0872 19.4924 31.8945 19.4924 32.1943ZM45.9726 32.7852C45.9726 32.9855 45.7244 33.1495 45.421 33.1495C45.1176 33.1495 44.8693 32.9855 44.8693 32.7852C44.8693 32.5848 45.1176 32.4209 45.421 32.4209C45.7244 32.4209 45.9726 32.5848 45.9726 32.7852ZM22.8024 33.5137C22.0945 33.8977 21.3497 34.2117 21.1474 34.2117C20.9451 34.2117 21.3589 33.8977 22.0669 33.5137C22.7748 33.1298 23.5196 32.8158 23.7219 32.8158C23.9242 32.8158 23.5104 33.1298 22.8024 33.5137ZM98.8412 33.5097C100.502 34.5126 100.347 34.7578 98.6573 33.8001C96.9581 32.8365 96.8897 32.7848 97.3086 32.7866C97.494 32.7874 98.1836 33.1127 98.8412 33.5097ZM18.9529 34.2194C18.6458 34.8077 18.2272 35.3912 18.0231 35.5162C17.8194 35.6411 17.9999 35.1596 18.4247 34.4463C19.3563 32.8824 19.7359 32.7192 18.9529 34.2194ZM61.2378 35.7912C62.4945 36.8618 62.8836 39.289 62.0101 40.6096C61.6758 41.1148 61.158 41.5279 60.8593 41.5279C60.5607 41.5279 60.3161 41.7738 60.3161 42.0743C60.3161 42.3749 60.1422 42.6207 59.9296 42.6207C59.3595 42.6207 58.4772 40.2912 58.4772 38.786C58.4772 37.0516 57.7553 37.503 57.699 39.2726C57.6754 40.0121 57.5806 40.3305 57.4882 39.9797C57.3956 39.6289 57.0837 39.3422 56.7953 39.3422C56.1679 39.3422 56.1495 39.5061 56.6585 40.5502C57.0333 41.3188 57.027 41.3217 56.4746 40.6387C55.8755 39.8981 55.7203 38.0505 56.1617 36.9132C56.3886 36.3282 56.4504 36.358 56.6618 37.1565L56.9027 38.0672L57.3437 36.9864C57.5861 36.3919 57.9605 35.6951 58.1756 35.4382C58.7766 34.721 60.1701 34.8816 61.2378 35.7912ZM64.635 35.6994C64.7688 36.185 64.7416 36.185 64.3896 35.6994C64.0381 35.2138 63.9538 35.2138 63.6317 35.6994C63.3246 36.1628 63.2687 36.1449 63.2639 35.5818C63.2573 34.7807 64.4095 34.8798 64.635 35.6994ZM59.3967 44.8064C59.5375 45.0319 58.9505 45.1543 57.8553 45.1277C56.2852 45.0895 56.2106 45.0534 57.19 44.8064C58.7994 44.401 59.1436 44.401 59.3967 44.8064ZM17.6535 46.285C17.6535 47.3527 17.1776 47.7028 16.7212 46.9713C16.378 46.4213 16.8694 44.7336 17.2964 44.9951C17.4928 45.1153 17.6535 45.6956 17.6535 46.285ZM64.9976 45.0264C64.8755 45.1474 64.5581 45.1605 64.2929 45.0552C63.9994 44.939 64.0866 44.8527 64.5151 44.8352C64.9027 44.8195 65.1197 44.9055 64.9976 45.0264ZM104.235 45.4042C104.502 46.0949 104.175 47.3564 103.729 47.3564C103.266 47.3564 103.005 46.4238 103.231 45.5699C103.472 44.6552 103.916 44.582 104.235 45.4042ZM59.9483 46.6278C60.3783 46.9029 60.2768 46.9823 59.4886 46.9866C58.9325 46.9895 58.4772 46.8282 58.4772 46.6278C58.4772 46.1674 59.2286 46.1674 59.9483 46.6278ZM58.2933 48.4492C57.2812 48.8802 56.9211 48.8802 57.19 48.4492C57.315 48.2489 57.7799 48.0966 58.2231 48.1104C58.9998 48.1352 59.0024 48.1472 58.2933 48.4492ZM64.1778 48.4492C64.3029 48.6496 64.2297 48.8135 64.0156 48.8135C63.8016 48.8135 63.6261 48.6496 63.6261 48.4492C63.6261 48.2489 63.699 48.0849 63.7883 48.0849C63.8777 48.0849 64.0528 48.2489 64.1778 48.4492ZM17.8363 50.6466C17.9694 51.7521 18.3133 52.508 18.9073 53.0027C19.4505 53.4552 19.8789 54.3189 20.0375 55.2817C20.1783 56.1341 20.5858 57.0357 20.9433 57.2852C21.6906 57.8061 22.1423 59.0199 22.2519 60.8012C22.2942 61.4839 22.5895 62.2317 22.9087 62.4631C23.228 62.694 23.5965 63.365 23.7274 63.9537C24.1338 65.7795 24.6869 66.9667 25.2268 67.1721C25.5494 67.2949 25.7447 67.9036 25.7447 68.7884C25.7447 69.6561 26.0304 70.5676 26.4802 71.134C26.8848 71.6433 27.2158 72.3788 27.2158 72.7682C27.2158 73.9131 27.9602 75.6955 28.5288 75.9115C28.8179 76.0216 29.0547 76.4554 29.0547 76.8754C29.0547 77.8098 29.723 79.1285 30.3956 79.5223C30.6696 79.6826 30.8936 80.3791 30.8936 81.0705V82.3272H17.2857C4.5877 82.3272 3.67487 82.2846 3.63441 81.6898C3.55792 80.5758 3.7168 80.0603 4.43508 79.087C4.82014 78.565 5.17983 77.7439 5.23426 77.2619C5.28832 76.78 5.70502 76.0088 6.16033 75.548C6.68957 75.0121 6.98784 74.2654 6.98784 73.4745C6.98784 72.7784 7.29641 71.8863 7.69509 71.4313C8.0842 70.9868 8.5156 69.9599 8.65389 69.1487C8.79218 68.3371 9.30155 67.0956 9.78555 66.3889C10.2696 65.6826 10.6657 64.7394 10.6657 64.2936C10.6657 63.8477 11.0239 63.0317 11.4619 62.4802C11.8999 61.9287 12.2964 60.8821 12.3431 60.1543C12.4575 58.3696 12.4108 58.5033 13.25 57.5449C13.6601 57.0765 14.0739 56.3137 14.1695 55.8499C14.2651 55.3858 14.4244 54.6161 14.5233 54.1389C14.6222 53.6621 15.0286 53.1878 15.4262 53.0847C16.1408 52.8996 16.2879 52.5273 16.7385 49.7679C17.0264 48.0033 17.57 48.4387 17.8363 50.6466ZM104.271 50.1795C104.588 52.5277 104.699 52.7998 105.453 53.0756C106.366 53.4096 106.644 53.9163 106.651 55.2605C106.654 55.9927 106.998 56.7909 107.576 57.4087C108.082 57.9489 108.512 58.4902 108.532 58.6112C108.552 58.7321 108.602 59.5273 108.644 60.3783C108.692 61.3651 108.953 62.094 109.364 62.3917C109.718 62.6485 110.174 63.5916 110.377 64.4877C110.581 65.3839 111.047 66.4446 111.415 66.8454C111.782 67.2461 112.2 68.2296 112.343 69.031C112.486 69.8324 112.87 70.7825 113.196 71.142C113.522 71.5016 113.823 72.2884 113.865 72.8898C113.996 74.7677 114.358 75.7141 115.024 75.9247C115.437 76.0547 115.682 76.525 115.707 77.2364C115.729 77.8462 116.087 78.7085 116.503 79.1525C117.262 79.9627 117.447 80.5069 117.366 81.6898C117.325 82.2846 116.412 82.3272 103.714 82.3272H90.1064V81.041C90.1064 80.237 90.312 79.6764 90.6547 79.546C90.9563 79.4312 91.4076 78.6619 91.6573 77.836C91.907 77.0098 92.405 76.0434 92.764 75.6879C93.1229 75.3323 93.4278 74.7546 93.4418 74.4042C93.5113 72.6549 93.7974 71.6517 94.3392 71.2593C94.6676 71.0215 95.0277 70.0951 95.1387 69.2004C95.2502 68.3057 95.5639 67.3965 95.8357 67.1801C96.4436 66.6953 97.2421 64.8356 97.1288 64.1679C97.0828 63.8976 97.4826 63.0506 98.0174 62.2864C98.5525 61.5221 98.9453 60.5958 98.8912 60.2282C98.7511 59.2814 99.256 57.9649 100.068 57.161C100.449 56.7829 100.867 55.8215 100.996 55.0241C101.15 54.0671 101.527 53.3819 102.104 53.0071C102.615 52.6756 102.979 52.0829 102.979 51.5828C102.979 50.2287 103.41 48.4492 103.738 48.4492C103.902 48.4492 104.142 49.2277 104.271 50.1795ZM59.5805 56.0776C59.5805 63.3341 60.2124 65.6527 60.4092 59.1182C60.4743 56.957 60.5379 58.9587 60.5508 63.5668C60.5633 68.175 60.5044 71.4917 60.4198 70.9373C60.3352 70.3829 60.112 70.0237 59.9233 70.1392C59.7295 70.2576 59.578 73.6279 59.575 77.8863C59.5717 82.1232 59.4132 85.663 59.2128 85.97C58.98 86.3267 58.8542 80.0997 58.8505 68.0293C58.8468 55.9435 58.9722 49.5421 59.2128 49.5421C59.4445 49.5421 59.5805 51.9634 59.5805 56.0776ZM15.3302 51.7962C15.2129 52.0866 15.1257 52.0002 15.1081 51.5758C15.0923 51.1919 15.1791 50.977 15.3012 51.0979C15.4233 51.2188 15.4365 51.5332 15.3302 51.7962ZM105.804 51.7962C105.687 52.0866 105.6 52.0002 105.582 51.5758C105.566 51.1919 105.653 50.977 105.775 51.0979C105.897 51.2188 105.911 51.5332 105.804 51.7962ZM60.571 73.4865C60.4776 73.841 60.3952 73.6392 60.3878 73.0381C60.3805 72.437 60.4566 72.1471 60.5574 72.3937C60.6581 72.6403 60.6644 73.1321 60.571 73.4865ZM28.9837 74.5047C28.8705 74.6169 28.6649 74.4147 28.5266 74.0555C28.3272 73.5364 28.3692 73.4946 28.7325 73.8515C28.9841 74.0989 29.097 74.3929 28.9837 74.5047ZM92.44 74.1466C92.3201 74.4559 92.1432 74.6307 92.0468 74.5353C91.9504 74.4398 91.9806 74.1867 92.1141 73.9732C92.4767 73.3918 92.6886 73.5048 92.44 74.1466ZM60.5794 77.5005C60.4952 78.0513 60.4264 77.6007 60.4264 76.4988C60.4264 75.3968 60.4952 74.9462 60.5794 75.497C60.6637 76.0478 60.6637 76.9497 60.5794 77.5005ZM2.57447 81.7808C2.57447 81.881 2.24347 82.2908 1.83891 82.6915C1.12467 83.399 1.10334 83.3997 1.10334 82.7218C1.10334 82.3378 1.3104 81.9411 1.56307 81.8398C2.19676 81.5867 2.57447 81.5644 2.57447 81.7808ZM33.0267 82.0358C33.2695 82.2762 33.4629 82.7269 33.4571 83.0376C33.4479 83.5024 33.3794 83.4897 33.0709 82.9647C32.8646 82.6143 32.446 82.3272 32.1408 82.3272C31.8355 82.3272 31.688 82.1633 31.8131 81.963C32.1139 81.4807 32.4891 81.5033 33.0267 82.0358ZM89.003 81.7961C89.003 81.9047 88.672 82.3455 88.2675 82.7753C87.7246 83.3527 87.5319 83.4154 87.5319 83.0154C87.5319 82.717 87.7305 82.2762 87.9733 82.0358C88.4297 81.5838 89.003 81.4501 89.003 81.7961ZM119.455 82.0358C119.698 82.2762 119.897 82.6861 119.897 82.9465C119.897 83.25 119.633 83.1585 119.161 82.6915C118.757 82.2908 118.426 81.881 118.426 81.7808C118.426 81.4482 119.008 81.5925 119.455 82.0358ZM17.1018 83.7705C18.6248 83.9574 18.9098 84.0587 18.0213 84.0973C16.171 84.1771 13.9202 84.8575 14.1717 85.2611C14.2901 85.4506 16.1206 85.6058 18.2397 85.6058C22.2162 85.6058 23.9058 86.1099 23.9058 87.296C23.9058 88.2213 21.9712 88.5841 15.9481 88.7881C10.4707 88.9739 9.95584 88.936 9.26735 88.2992C8.5568 87.6421 8.55128 87.5725 9.15407 86.8367C9.50236 86.4115 10.1842 85.9394 10.669 85.7868C11.1541 85.6345 11.7771 85.2856 12.054 85.0113C12.4795 84.5898 12.2559 84.5086 10.5998 84.4838L8.64286 84.4543L10.2979 83.9847C12.2048 83.4438 13.9875 83.3877 17.1018 83.7705ZM31.8638 83.7031C31.7667 83.8587 30.7226 84.0109 29.5435 84.0415C28.0639 84.0798 27.6277 84 28.1353 83.784C29.0632 83.3895 32.1007 83.3232 31.8638 83.7031ZM104.082 83.7691C105.656 83.9847 105.819 84.0583 104.818 84.1013C102.803 84.188 100.772 84.581 100.772 84.8845C100.772 85.0364 102.551 85.2251 104.726 85.3034C108.886 85.4531 110.864 86.1434 110.627 87.3627C110.463 88.2071 108.864 88.4821 102.574 88.7484C97.1593 88.9775 96.7952 88.9506 96.1369 88.2701C95.2586 87.362 95.1027 86.6986 95.7676 86.6986C96.0494 86.6986 96.3752 86.4527 96.4918 86.1522C96.608 85.8517 97.0394 85.6058 97.4506 85.6058C97.8614 85.6058 98.1976 85.4418 98.1976 85.2415C98.1976 85.0411 98.4557 84.8772 98.7709 84.8772C99.8897 84.8772 98.8702 84.1483 97.7161 84.1231C96.7268 84.1013 96.658 84.0481 97.2781 83.7844C98.1755 83.4022 101.352 83.3953 104.082 83.7691ZM118.317 83.6488C117.97 83.9924 115.116 84.0488 115.116 83.7122C115.116 83.5516 115.888 83.4201 116.832 83.4201C117.776 83.4201 118.444 83.5232 118.317 83.6488ZM6.14967 85.966C6.80101 86.5533 7.43984 87.4501 7.56857 87.959C7.76533 88.7342 7.67522 88.8843 7.01469 88.8843C6.43139 88.8843 6.01837 88.4344 5.42771 87.154C4.98858 86.2021 4.56674 85.3009 4.49061 85.1504C4.18241 84.5424 5.03492 84.9614 6.14967 85.966ZM93.2406 86.1933C94.4708 87.4119 94.8416 88.8861 93.9159 88.8788C92.8658 88.8701 92.4823 88.4836 91.6411 86.5864C90.8736 84.8553 90.8728 84.8379 91.6007 85.0666C92.0056 85.1938 92.7434 85.7008 93.2406 86.1933ZM28.7947 87.5182C28.3166 88.332 27.7745 88.7397 27.0602 88.8216L26.0213 88.9415L26.9161 88.0931C27.7083 87.3419 29.0143 86.4156 29.3644 86.3558C29.4335 86.3438 29.1772 86.8669 28.7947 87.5182ZM115.368 87.5182C114.98 88.4643 114.642 88.7255 113.684 88.8183L112.486 88.9345L113.525 87.8705C114.389 86.9853 114.932 86.6192 115.76 86.3631C115.811 86.3474 115.635 86.8669 115.368 87.5182ZM64.3617 91.07C64.3617 91.2703 64.1863 91.4342 63.9722 91.4342C63.7582 91.4342 63.685 91.2703 63.81 91.07C63.9351 90.8696 64.1101 90.7057 64.1995 90.7057C64.2889 90.7057 64.3617 90.8696 64.3617 91.07ZM59.1252 91.3202C58.7736 91.4113 58.1116 91.4146 57.6541 91.3275C57.1966 91.2404 57.4842 91.1658 58.2933 91.1618C59.1024 91.1578 59.4768 91.2292 59.1252 91.3202ZM56.6383 93.9842C56.3349 94.1784 55.9211 94.3372 55.7188 94.3372C55.5166 94.3372 55.5993 94.1784 55.9027 93.9842C56.2062 93.79 56.6199 93.6312 56.8222 93.6312C57.0245 93.6312 56.9417 93.79 56.6383 93.9842ZM60.952 93.8399C60.8299 93.9609 60.5125 93.974 60.2473 93.8687C59.9538 93.7525 60.041 93.6662 60.4695 93.6487C60.8571 93.633 61.0741 93.719 60.952 93.8399ZM65.2786 93.9802C65.4073 94.1864 65.2598 94.2476 64.9325 94.1234C64.2955 93.8811 64.1789 93.6199 64.7078 93.6199C64.8983 93.6199 65.155 93.782 65.2786 93.9802ZM60.8163 96.5385C60.788 97.0339 61.0778 98.2255 61.4599 99.1861C61.8424 100.147 62.155 101.434 62.155 102.048C62.155 103.274 61.1583 105.641 60.642 105.641C60.4628 105.641 60.3161 105.887 60.3161 106.188C60.3161 106.488 60.2216 106.734 60.1061 106.734C59.76 106.734 59.0053 105.869 58.735 105.163C58.596 104.799 58.333 104.593 58.1506 104.705C57.6346 105.021 57.3349 103.85 57.5886 102.509C57.795 101.42 57.7398 101.312 57.0443 101.445C55.9259 101.658 56.0708 101.276 57.9255 99.1238C58.9255 97.9632 59.5805 96.8438 59.5805 96.2956C59.5805 95.6264 59.7497 95.4206 60.2242 95.5127C60.6482 95.595 60.8501 95.9447 60.8163 96.5385ZM63.1418 97.6955C63.0245 97.9858 62.9373 97.8995 62.9196 97.4751C62.9038 97.0911 62.9906 96.8762 63.1127 96.9972C63.2348 97.1181 63.2481 97.4325 63.1418 97.6955ZM60.2164 107.318C60.0943 107.439 59.7769 107.452 59.5118 107.347C59.2183 107.231 59.3054 107.145 59.7339 107.127C60.1216 107.111 60.3385 107.197 60.2164 107.318ZM59.3967 109.284C58.3856 109.714 57.8049 109.714 58.4772 109.284C58.7806 109.09 59.2771 108.94 59.5805 108.951C59.9443 108.964 59.8818 109.077 59.3967 109.284ZM58.1094 111.975C58.1094 112.052 57.6217 112.187 57.0256 112.273C56.4294 112.36 56.0252 112.297 56.1278 112.132C56.3099 111.84 58.1094 111.697 58.1094 111.975ZM57.7111 114.25C57.7953 114.324 56.3886 114.372 54.585 114.358C52.5842 114.343 51.5923 114.221 52.041 114.046C52.7218 113.78 57.3647 113.947 57.7111 114.25ZM69.8479 114.253C69.9321 114.325 69.4768 114.384 68.8365 114.384C68.1958 114.384 67.6717 114.217 67.6717 114.013C67.6717 113.686 69.4084 113.878 69.8479 114.253ZM56.8145 116.661C56.5688 117.325 57.2176 118.165 57.7324 117.85C57.9752 117.702 58.0918 117.271 57.9921 116.893C57.8501 116.356 58.0098 116.205 58.7203 116.205C59.4493 116.205 59.5857 116.344 59.4066 116.903C59.2834 117.287 59.3551 117.706 59.5655 117.835C60.3058 118.289 59.934 118.665 58.5257 118.887C57.7435 119.011 56.6265 119.365 56.0432 119.672C55.3356 120.046 54.1278 120.211 52.4088 120.168C49.4419 120.094 48.8152 119.936 49.183 119.354C49.3283 119.125 49.4677 118.773 49.4927 118.573C49.5181 118.373 49.5637 118.027 49.5946 117.804C49.6269 117.568 50.0583 117.476 50.6269 117.584C51.4798 117.745 51.5773 117.67 51.3967 116.987C51.1988 116.236 51.3058 116.205 54.0866 116.205C56.2485 116.205 56.9403 116.321 56.8145 116.661ZM52.041 116.934C51.7332 117.427 52.1484 118.027 52.7983 118.027C53.3948 118.027 53.4191 117.957 53.105 117.146C52.8513 116.491 52.3764 116.396 52.041 116.934ZM54.4967 117.177C54.6755 118.091 55.535 118.216 55.535 117.328C55.535 116.881 55.2974 116.57 54.9564 116.57C54.6137 116.57 54.4261 116.817 54.4967 117.177ZM61.9421 118.359C61.7343 118.565 60.7085 117.234 60.7037 116.752C60.7019 116.551 61.0164 116.795 61.4025 117.293C61.7887 117.791 62.0314 118.27 61.9421 118.359ZM72.4547 119.483C71.8071 119.879 70.3205 119.473 70.0722 118.831C69.9439 118.501 70.0903 118.12 70.415 117.94C70.7269 117.768 70.9818 117.366 70.9818 117.047C70.9818 116.725 71.4018 117.081 71.927 117.847C72.5754 118.794 72.7412 119.307 72.4547 119.483ZM72.945 121.606C71.678 121.768 71.4562 121.432 72.2981 120.627C72.9869 119.968 73.0156 119.97 73.4382 120.719C73.8247 121.404 73.7714 121.5 72.945 121.606ZM50.7538 121.394C50.7538 121.546 50.0076 121.669 49.0958 121.669C47.5868 121.669 47.475 121.61 47.8538 121.009C48.2091 120.446 48.4519 120.405 49.5118 120.734C50.1948 120.946 50.7538 121.243 50.7538 121.394ZM56.9141 121.556C56.5603 121.648 55.9807 121.648 55.6269 121.556C55.2731 121.465 55.5625 121.39 56.2705 121.39C56.9785 121.39 57.2679 121.465 56.9141 121.556ZM54.0719 123.491C54.6078 124.331 54.5122 125.32 53.9171 125.094C53.6343 124.986 53.2933 125.073 53.1598 125.287C53.0094 125.529 51.2257 125.677 48.464 125.677C46.0149 125.677 44.1352 125.554 44.2871 125.403C44.4386 125.253 44.6733 125.12 44.8079 125.108C45.3235 125.062 47.8116 123.882 47.8116 123.685C47.8116 123.57 47.3978 123.58 46.8921 123.705C46.2235 123.872 45.9726 123.788 45.9726 123.398C45.9726 122.606 53.5629 122.693 54.0719 123.491ZM58.5691 123.003C58.3165 123.105 57.9027 123.105 57.6497 123.003C57.397 122.903 57.6037 122.82 58.1094 122.82C58.6151 122.82 58.8222 122.903 58.5691 123.003ZM76.6993 123.234C76.7239 123.275 77.5474 124.456 78.5297 125.859C79.7122 127.547 79.9917 128.12 79.3565 127.554C78.6007 126.88 78.1575 126.751 77.2642 126.945C76.607 127.088 76.1307 127.043 76.1307 126.839C76.1307 126.645 76.4025 126.509 76.7346 126.537C77.0671 126.565 77.4117 126.383 77.5011 126.132C77.6107 125.823 77.2451 125.677 76.3668 125.677C75.6541 125.677 74.9729 125.52 74.8534 125.328C74.7339 125.137 74.3517 125.07 74.0042 125.18C73.6217 125.302 73.5279 125.26 73.767 125.073C74.5297 124.479 74.6441 123.52 74.0005 123.113C73.5173 122.808 73.7512 122.767 75.0134 122.938C75.9163 123.06 76.6746 123.193 76.6993 123.234ZM67.4018 124.535C67.7126 124.843 67.379 124.948 66.0903 124.948C65.1396 124.948 64.3617 125.112 64.3617 125.312C64.3617 125.786 57.379 125.786 56.6383 125.312C56.2128 125.04 56.2006 124.958 56.5857 124.953C56.8965 124.95 56.9973 124.722 56.8531 124.35C56.6435 123.809 57.1057 123.77 61.8031 123.937C64.9299 124.049 67.1502 124.286 67.4018 124.535ZM44.1337 124.584C44.1337 124.784 43.9583 124.948 43.7443 124.948C43.5302 124.948 43.457 124.784 43.5821 124.584C43.7071 124.383 43.8822 124.219 43.9715 124.219C44.0609 124.219 44.1337 124.383 44.1337 124.584ZM42.4537 127.371C41.9616 127.822 41.5593 128.363 41.5593 128.573C41.5593 128.783 41.3978 128.955 41.2007 128.955C41.0032 128.955 41.2875 128.224 41.8322 127.331C42.4493 126.319 42.9212 125.866 43.0852 126.129C43.2323 126.365 42.955 126.911 42.4537 127.371ZM46.2444 127.024C46.3504 127.343 46.0925 127.377 45.2893 127.149C44.6843 126.977 44.094 126.93 43.9774 127.046C43.8612 127.161 43.766 127.054 43.766 126.807C43.766 126.225 46.0458 126.424 46.2444 127.024ZM52.6751 127.225C52.4695 128.004 51.8571 128.072 51.8571 127.316C51.8571 126.486 51.2352 126.663 50.9984 127.562C50.8638 128.071 51.0105 128.514 51.4081 128.802C51.9417 129.189 51.8891 129.224 51.0271 129.061C50.4769 128.957 50.1028 128.75 50.1955 128.602C50.2882 128.453 50.5239 127.915 50.7196 127.405C51.1484 126.287 52.9671 126.119 52.6751 127.225ZM54.5236 126.646C54.2709 126.748 53.8571 126.748 53.6041 126.646C53.3514 126.545 53.5581 126.463 54.0638 126.463C54.5695 126.463 54.7766 126.545 54.5236 126.646ZM56.2705 126.991C56.2705 127.069 56.0223 127.134 55.7188 127.134C55.4154 127.134 55.1672 126.975 55.1672 126.781C55.1672 126.587 55.4154 126.522 55.7188 126.638C56.0223 126.753 56.2705 126.912 56.2705 126.991ZM60.1484 126.693C59.8498 126.989 57.436 127.033 56.9756 126.751C56.7343 126.603 57.3889 126.491 58.4298 126.501C59.4706 126.512 60.244 126.598 60.1484 126.693ZM62.6147 126.646C62.3621 126.748 61.9483 126.748 61.6953 126.646C61.4426 126.545 61.6493 126.463 62.155 126.463C62.6607 126.463 62.8678 126.545 62.6147 126.646ZM47.8116 127.134C47.8116 127.334 48.2926 127.498 48.8803 127.498C49.7682 127.498 49.9167 127.621 49.7571 128.227C49.6254 128.724 49.258 128.953 48.596 128.95C47.8358 128.945 47.7461 128.868 48.1793 128.591C48.6394 128.296 48.6089 128.229 47.9954 128.189C47.5909 128.162 47.1356 128.159 46.984 128.184C46.6501 128.236 46.6413 128.095 46.9314 127.346C47.1775 126.71 47.8116 126.557 47.8116 127.134ZM44.5015 128.227L45.3496 128.955H44.3522C43.781 128.955 43.4519 128.8 43.5821 128.591C43.7071 128.39 43.51 128.224 43.144 128.221C42.5799 128.216 42.5626 128.162 43.0304 127.862C43.3338 127.668 43.5983 127.507 43.6177 127.503C43.6372 127.5 44.0352 127.826 44.5015 128.227ZM58.3775 127.718C58.2554 127.839 57.938 127.852 57.6729 127.747C57.3794 127.631 57.4665 127.544 57.895 127.527C58.2826 127.511 58.4996 127.597 58.3775 127.718ZM79.7088 128.811C79.4514 129.066 78.3374 128.549 78.3374 128.175C78.3374 127.989 78.6824 128.02 79.1046 128.243C79.5264 128.467 79.7982 128.722 79.7088 128.811Z" fill="#232316"/>
</svg>
