<svg width="48" height="32" viewBox="0 0 48 32" fill="none" xmlns="http://www.w3.org/2000/svg">
<path fill-rule="evenodd" clip-rule="evenodd" d="M47.346 31.361C47.1466 31.5521 46.8301 31.5453 46.639 31.346L24 7.72264L1.36099 31.3459C1.16993 31.5453 0.85342 31.5521 0.654049 31.361C0.454678 31.1699 0.447941 30.8534 0.639008 30.654L24 6.27736L47.361 30.654C47.5521 30.8534 47.5453 31.1699 47.346 31.361Z" fill="#A0862F"/>
<path d="M1.32358 0.838382L23.2773 23.7466C23.671 24.1574 24.3276 24.1574 24.7213 23.7466L46.675 0.838381C46.7969 0.711212 46.7068 0.5 46.5306 0.5H1.46798C1.29184 0.5 1.20171 0.711213 1.32358 0.838382Z"/>
<path fill-rule="evenodd" clip-rule="evenodd" d="M2.17199 1L23.6393 23.4007C23.8361 23.6061 24.1644 23.6061 24.3613 23.4007L45.8286 1H2.17199ZM46.315 0.492426L46.3142 0.493252L46.315 0.492426ZM0.963581 1.18433C0.537037 0.739245 0.852492 0 1.46897 0H46.5316C47.1481 0 47.4636 0.739244 47.037 1.18434L25.0833 24.0926C24.4928 24.7088 23.5078 24.7088 22.9173 24.0926L0.963581 1.18433Z" fill="#A0862F"/>
<path fill-rule="evenodd" clip-rule="evenodd" d="M6.43953 14.083C6.43953 13.8069 6.66339 13.583 6.93953 13.583L13.5224 13.583L13.5224 7.00009C13.5224 6.72395 13.7463 6.50009 14.0224 6.50009C14.2986 6.5001 14.5224 6.72395 14.5224 7.00009L14.5224 14.583L6.93953 14.583C6.66339 14.583 6.43953 14.3592 6.43953 14.083Z" fill="#A0862F"/>
<path fill-rule="evenodd" clip-rule="evenodd" d="M6.51961 10.375C6.51961 10.0989 6.74346 9.875 7.01961 9.875L9.95701 9.875L9.95701 6.9376C9.95701 6.66145 10.1809 6.4376 10.457 6.4376C10.7332 6.4376 10.957 6.66145 10.957 6.9376L10.957 10.875L7.01961 10.875C6.74346 10.875 6.51961 10.6511 6.51961 10.375Z" fill="#A0862F"/>
<path fill-rule="evenodd" clip-rule="evenodd" d="M41.5605 14.083C41.5605 13.8069 41.3366 13.583 41.0605 13.583L34.4776 13.583L34.4776 7.00009C34.4776 6.72395 34.2537 6.50009 33.9776 6.50009C33.7014 6.5001 33.4776 6.72395 33.4776 7.00009L33.4776 14.583L41.0605 14.583C41.3366 14.583 41.5605 14.3592 41.5605 14.083Z" fill="#A0862F"/>
<path fill-rule="evenodd" clip-rule="evenodd" d="M41.4804 10.375C41.4804 10.0989 41.2565 9.875 40.9804 9.875L38.043 9.875L38.043 6.9376C38.043 6.66145 37.8191 6.4376 37.543 6.4376C37.2668 6.4376 37.043 6.66145 37.043 6.9376L37.043 10.875L40.9804 10.875C41.2565 10.875 41.4804 10.6511 41.4804 10.375Z" fill="#A0862F"/>
<rect x="0.5" y="0.5" width="47" height="31" rx="0.5" stroke="#A0862F"/>
</svg>
