<svg width="80" height="130" viewBox="0 0 80 130" fill="none" xmlns="http://www.w3.org/2000/svg">
<path fill-rule="evenodd" clip-rule="evenodd" d="M30.7544 0.433712C30.0841 1.15149 29.5568 2.66717 28.9714 5.56063L28.5438 7.67372L26.1019 7.80854C22.5239 8.00664 16.1201 11.0631 9.32 15.8189C5.91993 18.1968 3.48579 19.6362 2.14996 20.0585C0.676237 20.5245 0.0974848 20.8894 0.0158566 21.4029C-0.0668747 21.9264 0.16551 22.1692 0.91671 22.3456C2.41139 22.6964 5.88647 24.684 8.77508 26.8401C11.5321 28.8974 16.2749 31.4652 17.3324 31.4731C17.6946 31.4759 18.9356 31.9336 20.0901 32.4908C21.2447 33.0476 22.9438 33.6777 23.866 33.8909L25.5427 34.2782L25.9802 37.109C26.5046 40.5022 26.548 53.7169 26.0461 57.1005C25.8118 58.6777 25.1937 60.4565 24.2539 62.2594C23.4648 63.7726 22.7169 65.2983 22.5923 65.6501C22.2801 66.5299 22.9916 70.3344 24.048 73.437C24.5312 74.8557 25.4261 77.4867 26.0365 79.2837C26.6469 81.0808 27.3999 83.944 27.7102 85.6464C28.0206 87.3488 28.8505 90.6791 29.5542 93.047C30.2584 95.4149 31.0846 98.6651 31.3905 100.269C33.0312 108.874 32.8874 110.381 29.891 115.993C27.8301 119.854 27.7996 119.953 28.2493 121.358C29.0733 123.936 30.6989 125.647 33.404 126.786C34.314 127.169 35.3642 127.741 35.7378 128.057C38.0436 130.009 46.4605 130.687 49.5745 129.172C53.0793 127.467 53.8158 126.821 54.9924 124.422C58.4337 117.404 60.4884 112.152 62.0742 106.319C63.2336 102.055 63.552 101.319 64.8901 99.8145C66.5443 97.9542 68.3633 94.4612 68.8931 92.1284C69.1873 90.8332 69.5355 87.2972 69.6671 84.2707C69.9039 78.8122 70.1749 77.7031 71.1813 78.0642C71.4688 78.1674 72.0582 78.0198 72.4914 77.7361C72.9242 77.4523 73.614 77.2195 74.0243 77.2188C75.2576 77.2168 77.1199 75.9408 77.3953 74.9093C77.5358 74.3831 78.1101 73.5508 78.6712 73.0594C80.5218 71.4388 80.4884 70.5772 78.262 62.4468C77.5023 59.6737 76.6563 57.768 75.3598 55.9108C74.92 55.2804 74.7968 54.4041 74.877 52.4716C74.9752 50.1022 74.8866 49.7208 73.8497 48.0583C72.384 45.7072 70.9622 44.8942 68.3148 44.8924C66.4855 44.8911 66.1233 45.019 64.8419 46.1168C63.6546 47.1338 63.2821 47.2834 62.6556 46.9956C58.726 45.1889 58.2208 45.063 55.0171 45.0912C52.0498 45.117 51.6108 45.2168 49.134 46.4236C47.6617 47.1407 45.6905 48.2502 44.7533 48.8889C43.816 49.5275 42.881 50.05 42.675 50.05C42.4691 50.05 42.1904 49.0828 42.0551 47.9004C41.7679 45.3911 40.9403 40.4056 40.3424 37.5874C39.8464 35.2477 40.2181 34.5715 41.9977 34.576C43.7829 34.5805 48.0158 33.5484 51.0342 32.3728C53.9265 31.2461 58.5333 28.5704 64.2451 24.7002C66.1413 23.4152 68.0857 22.1654 68.5655 21.9229C69.9054 21.2458 69.6186 20.6745 67.5077 19.8164C64.6823 18.668 55.1936 13.4225 51.3115 10.8623C49.1957 9.46764 47.4021 8.55348 46.4689 8.39493C45.6534 8.25633 44.3245 7.98015 43.5156 7.78102C42.7067 7.58223 41.3535 7.41577 40.5082 7.4113C38.8179 7.40236 37.8163 6.73376 37.8163 5.61463C37.8163 4.63959 35.7139 1.28699 34.7476 0.721234C33.3316 -0.107629 31.3905 -0.247263 30.7544 0.433712ZM34.6071 2.9571C35.3609 3.53834 35.9779 4.21519 35.9779 4.46109C35.9779 4.707 36.2926 5.58539 36.6776 6.41357C37.5156 8.21643 37.5975 10.8251 37.0239 17.4436C36.732 20.8086 36.728 22.5764 37.0089 23.6343C37.2254 24.4487 37.4394 27.0671 37.4847 29.4529C37.5299 31.8387 37.7825 35.321 38.0461 37.1912C38.3094 39.0615 38.5311 41.3954 38.5385 42.3773C38.5458 43.3592 38.7172 44.2582 38.9194 44.3752C39.4346 44.673 39.3794 47.0747 38.8459 47.5737C38.5028 47.8946 38.5028 47.9864 38.8459 47.9864C39.093 47.9864 39.2871 48.4493 39.2871 49.0385C39.2871 49.6311 39.1312 50.0004 38.9301 49.8842C38.7337 49.7707 38.4723 50.0541 38.3491 50.5139C38.2256 50.9738 37.7281 51.6726 37.2431 52.0668C36.721 52.4915 36.4492 52.9978 36.5768 53.3087C36.7177 53.6519 36.5761 53.8332 36.168 53.8332C35.8245 53.8332 34.906 54.2586 34.1261 54.779C33.0025 55.5287 32.751 55.8857 32.9135 56.5024C33.0764 57.1214 32.9944 57.236 32.512 57.0626C31.724 56.7799 30.3665 57.9245 30.5808 58.6911C30.6911 59.0849 30.2168 59.6314 29.1329 60.3595C28.2463 60.9552 27.5209 61.6458 27.5209 61.8948C27.5209 62.1435 27.2808 62.5335 26.9874 62.7612C26.3218 63.2781 25.8251 66.1416 26.3204 66.6049C26.5583 66.8274 26.7535 66.4491 26.8892 65.5033C27.1716 63.5353 29.1343 61.7057 32.8484 59.9478C34.4641 59.1833 36.2841 58.2148 36.893 57.7955C37.5019 57.376 39.4893 56.2912 41.3094 55.385C43.1295 54.4787 44.8669 53.5443 45.1702 53.3083C46.8785 51.9808 53.6926 48.6743 54.72 48.6743C56.0904 48.6743 58.5447 49.6703 60.7068 51.1034C61.5653 51.6726 62.8471 52.5011 63.5549 52.9448C64.2628 53.3881 65.485 54.2338 66.2715 54.824C67.0576 55.4138 67.8147 55.8967 67.954 55.8967C68.3662 55.8967 71.4166 58.7155 72.4965 60.094C74.7748 63.0026 75.6844 67.173 74.3902 68.7737C73.7596 69.5537 73.679 70.8899 74.2427 71.2159C74.4589 71.3408 74.7259 71.1179 74.8373 70.7203C75.1892 69.4619 75.5955 69.9341 75.8591 71.9075C76.033 73.2083 75.9735 73.9759 75.6727 74.315C74.9204 75.1628 74.2615 74.8684 73.9008 73.523C73.3334 71.4047 73.1558 69.3099 73.5441 69.3099C73.7416 69.3099 73.643 69.0671 73.3257 68.7699C73.008 68.4731 72.676 67.8925 72.587 67.4802C72.102 65.2264 71.9178 64.6593 71.1239 62.9802C70.4897 61.6393 69.6263 60.6539 67.9169 59.3198C66.63 58.3159 65.6184 57.368 65.6684 57.2133C65.8247 56.7325 64.1914 55.2089 63.5196 55.2089C63.1685 55.2089 62.3699 54.6046 61.7444 53.8662C60.912 52.8832 60.4112 52.5713 59.8751 52.7023C59.3772 52.8241 59.1426 52.7116 59.1426 52.3508C59.1426 51.6169 58.0542 51.4559 56.8445 52.011C56.2617 52.2786 55.8334 52.3302 55.8334 52.1331C55.8334 51.945 55.5852 51.8803 55.2818 51.989C54.9785 52.0981 54.7303 52.0324 54.7303 51.8432C54.7303 51.3094 55.6966 51.0914 56.1562 51.5213C56.461 51.8064 56.5687 51.8054 56.5687 51.5175C56.5687 50.9242 55.1325 50.6267 54.5288 51.0955C54.235 51.3235 53.9949 51.7232 53.9949 51.9835C53.9949 52.2442 53.7055 52.455 53.3514 52.4523C52.9881 52.4492 52.8679 52.3371 53.0756 52.1944C53.2779 52.0554 53.6515 51.5935 53.9059 51.1677C54.2879 50.5294 54.2795 50.3939 53.8592 50.3939C53.1797 50.3939 52.4965 51.2018 52.4248 52.0901C52.3928 52.486 52.1954 52.7525 51.9858 52.6824C51.7762 52.6126 51.628 52.3013 51.656 51.9904C51.7295 51.1787 50.654 51.2922 50.4224 52.1208C50.2624 52.6937 50.1315 52.7409 49.6793 52.39C49.2296 52.041 49.0112 52.1018 48.4703 52.7264C48.107 53.146 47.6334 53.4892 47.4179 53.4892C47.2021 53.4892 46.7712 53.8524 46.4605 54.2961C46.1498 54.7398 45.4761 55.2814 44.9639 55.4998C43.7649 56.0109 43.6796 56.0009 43.934 55.3808C44.059 55.0765 43.9414 54.8698 43.6469 54.8763C42.9207 54.8931 41.4933 56.0941 41.4933 56.6888C41.4933 57.302 40.6082 57.6731 39.8203 57.3901C39.4504 57.2573 38.7069 57.7144 37.7042 58.6908C36.6114 59.7546 35.648 60.321 34.417 60.6233C32.0667 61.2008 29.727 63.1759 29.727 64.5829C29.727 65.1549 29.4568 65.8077 29.127 66.0333C28.5736 66.4116 28.5769 66.5155 29.1693 67.3608C29.9859 68.5271 30.6154 68.5515 30.308 67.4055C29.9179 65.9514 30.6922 64.0591 32.02 63.2224C32.68 62.8062 34.792 61.8539 36.7132 61.1058C38.6344 60.3581 41.53 59.1372 43.1479 58.3926C44.7658 57.648 47.0822 56.6933 48.2956 56.2713C49.509 55.8493 51.1636 55.2137 51.9726 54.8584C55.0197 53.5216 57.1203 53.7224 59.3901 55.5683C60.0313 56.09 61.758 57.2673 63.2266 58.1842C70.4257 62.68 69.9363 62.2294 70.522 64.9007C70.9103 66.6709 70.8776 66.987 70.1742 68.2767C69.3123 69.8571 69.277 72.4176 70.1135 72.6752C70.4606 72.7818 70.5761 72.5369 70.5066 71.8419C70.3911 70.6894 70.8162 69.3099 71.2872 69.3099C72.0097 69.3099 72.8039 73.8923 72.2314 74.7587C71.7325 75.514 69.5469 75.2227 68.7685 74.2968C68.3706 73.8239 67.7959 73.437 67.4911 73.437C66.9881 73.437 66.0483 72.2996 64.7169 70.0803C64.4389 69.6167 64.1984 68.071 64.1653 66.5344C64.1252 64.6882 63.9653 63.8098 63.6686 63.8088C63.4277 63.8077 63.1281 63.9622 63.003 64.1517C62.7291 64.5661 60.206 64.2545 58.4543 63.5897C57.7722 63.331 56.9037 63.1192 56.5239 63.1192C56.1441 63.1192 55.8528 63.0029 55.8767 62.8612C55.901 62.7195 55.901 62.2552 55.8767 61.8295C55.8054 60.5621 55.098 60.9524 55.098 62.2594C55.098 63.1656 54.9388 63.4703 54.4545 63.4917C52.5903 63.5749 52.0211 63.7795 51.214 64.6583C50.5165 65.4173 50.2223 65.5367 49.819 65.2237C49.2049 64.7467 48.0176 65.0906 48.3515 65.6488C48.4942 65.8868 48.3912 65.8723 48.0923 65.6127C47.5036 65.1016 45.1702 65.0331 45.1702 65.5267C45.1702 65.7158 45.5236 65.8706 45.9552 65.8706C47.0319 65.8706 48.4795 67.421 48.4795 68.5739C48.4795 69.0956 48.2228 69.8227 47.9088 70.19C47.3543 70.8386 47.3448 70.8359 47.5661 70.0837C47.6989 69.6314 47.6305 69.3099 47.401 69.3099C47.1852 69.3099 47.0087 69.4646 47.0087 69.6538C47.0087 69.843 46.787 69.9977 46.5163 69.9977C46.2454 69.9977 45.835 70.3846 45.6048 70.8575C45.3636 71.3525 45.3338 71.7174 45.5342 71.7174C45.7258 71.7174 45.7942 71.9323 45.6865 72.1951C45.5784 72.4589 45.1897 72.5995 44.8202 72.5091C44.4517 72.419 44.0388 72.5135 43.9031 72.7192C43.7671 72.9249 43.8884 73.0931 44.1727 73.0931C45.0272 73.0931 46.9212 74.1039 47.1609 74.6875C47.3201 75.0755 47.2242 75.1755 46.8289 75.0338C46.5009 74.9159 46.2733 75.0259 46.2733 75.3025C46.2733 75.8857 47.0811 76.1963 48.0081 75.9693C48.5232 75.8435 49.3579 76.4391 51.135 78.2011C53.4411 80.4878 54.331 81.8357 53.8386 82.2962C53.5228 82.5916 52.8594 81.9 52.7422 81.153C52.6006 80.2492 51.8987 80.1511 51.9693 81.045C52.0016 81.457 52.3877 82.0665 52.8275 82.3997C53.7618 83.1072 53.8397 83.4109 53.0871 83.4109C52.0649 83.4109 52.9359 84.3739 54.1512 84.5871C55.1351 84.7598 55.4664 85.0542 55.9363 86.1726C56.2536 86.9282 56.3603 87.4579 56.1731 87.3499C55.9863 87.2419 55.8334 87.3602 55.8334 87.613C55.8334 88.2726 56.9302 89.6456 57.2909 89.4372C57.6707 89.2177 58.1171 90.2375 57.8307 90.6712C57.5244 91.1351 58.4047 93.4267 58.8014 93.1976C58.9911 93.0879 58.9069 92.4909 58.6065 91.8188C58.07 90.6179 58.2642 90.2932 59.0691 91.0461C59.3118 91.273 59.5103 91.9578 59.5103 92.5676C59.5103 94.0619 60.2975 97.1679 60.6766 97.1679C61.1157 97.1679 61.0473 93.7978 60.5751 92.181C60.3542 91.4244 59.7986 90.3403 59.3404 89.7718C58.3142 88.4989 56.1727 84.519 55.2701 82.2071C54.9009 81.2613 54.3181 80.1006 53.9747 79.6277C53.6316 79.1548 53.2264 78.2262 53.0745 77.5641C52.9227 76.9021 52.4057 75.991 51.9259 75.5398C51.446 75.0882 51.0533 74.4137 51.0533 74.0413C51.0533 73.5415 50.8871 73.4229 50.4209 73.5904C50.0734 73.7152 49.9102 73.7039 50.0587 73.5649C50.3849 73.2599 53.9846 73.1742 53.7849 73.4765C53.472 73.9505 55.0777 74.8932 55.7278 74.617C56.2882 74.379 56.2441 74.3195 55.4285 74.2136C54.635 74.1104 54.5012 73.9453 54.6439 73.2471C54.7387 72.7842 55.0652 72.4052 55.3697 72.4052C55.8201 72.4052 55.8381 72.5015 55.4657 72.9211C55.0748 73.3617 55.1814 73.437 56.1955 73.437C57.0997 73.437 57.3325 73.3142 57.171 72.9211C57.0548 72.6374 57.1063 72.4052 57.2858 72.4052C57.4648 72.4052 57.8939 72.3038 58.2392 72.1799C58.8249 71.9698 58.8238 72.0155 58.2267 72.8678C57.5531 73.8301 57.9917 74.1479 58.7749 73.265C59.0268 72.9813 59.3496 72.7491 59.4927 72.7491C60.0747 72.7491 64.29 76.6317 64.2848 77.1631C64.2797 77.6587 64.2308 77.6663 63.9226 77.2202C63.6208 76.7834 63.5652 76.7999 63.5605 77.3292C63.5564 77.7829 63.7425 77.8988 64.2385 77.7516C65.0687 77.505 65.5923 78.0576 65.9306 79.5379C66.2457 80.916 67.0576 81.5296 66.7818 80.1811C66.6605 79.5874 66.7403 79.3023 67.0043 79.3849C67.2304 79.4554 67.3992 79.6937 67.379 79.9142C67.3587 80.135 67.3176 80.634 67.287 81.023C67.2363 81.6727 67.1686 81.6888 66.4553 81.2214C65.7391 80.7523 65.582 80.7953 64.4319 81.7741C62.9722 83.0167 63.0494 83.4504 64.5525 82.4496L65.5923 81.7569L66.9635 82.9325C68.3806 84.1469 68.7472 85.1305 67.7834 85.1305C67.4801 85.1305 66.8815 85.4583 66.4531 85.8589C65.8376 86.4347 65.7773 86.6469 66.1648 86.8711C66.4421 87.0314 66.8609 86.9953 67.1275 86.7882C67.4867 86.5097 67.5996 86.5967 67.5996 87.1521C67.5996 87.5535 67.4341 87.8819 67.2319 87.8819C67.0297 87.8819 66.8642 88.3369 66.8642 88.8934C66.8642 89.4499 66.6987 90.0005 66.4965 90.1174C66.2943 90.2344 66.1288 90.8792 66.1288 91.5502C66.1288 92.4936 66.2538 92.7254 66.6804 92.5724C66.9837 92.4637 67.2319 92.4936 67.2319 92.6388C67.2319 93.1223 66.4134 93.6774 65.9475 93.5099C65.6949 93.4195 65.3747 93.6221 65.236 93.9601C65.0971 94.2986 65.1585 94.6298 65.3725 94.6965C65.5861 94.7632 65.7611 95.0322 65.7611 95.2942C65.7611 95.5762 65.5361 95.6901 65.2096 95.5728C64.9062 95.4638 64.6371 95.5075 64.611 95.6695C64.5852 95.8314 64.5264 96.2896 64.4801 96.6875C64.3738 97.6013 63.1428 99.5754 62.6791 99.5754C62.4868 99.5754 62.4316 99.4795 62.557 99.3625C62.682 99.2453 62.5353 98.9165 62.2309 98.6317C61.7382 98.1708 61.579 98.2008 60.7778 98.9048C60.2828 99.3395 59.878 99.9211 59.878 100.197C59.878 100.472 59.5548 101.187 59.1595 101.785C58.4885 102.801 58.3991 103.856 58.8812 105.078C58.993 105.362 59.1672 105.826 59.2684 106.11C59.4114 106.511 59.4588 106.492 59.4813 106.024C59.5136 105.356 60.0688 105.22 60.4446 105.789C60.5781 105.991 60.3968 106.354 60.0424 106.597C59.6879 106.839 59.5088 107.205 59.6441 107.41C59.7795 107.615 59.7217 107.879 59.5162 107.998C59.3106 108.117 59.1426 108.592 59.1426 109.054C59.1426 109.516 58.9691 109.893 58.7569 109.893C58.5447 109.893 58.0675 110.527 57.6965 111.303C57.2769 112.18 56.9416 112.537 56.81 112.248C56.6934 111.994 56.6941 112.218 56.8118 112.748C56.9666 113.445 56.8353 113.854 56.3375 114.228C55.6859 114.717 55.6958 114.732 56.5323 114.514C57.2604 114.325 57.3733 114.387 57.1758 114.868C57.0442 115.19 56.9364 115.613 56.9364 115.81C56.9364 116.027 56.7188 115.999 56.3849 115.74C55.9404 115.395 55.8278 115.404 55.8043 115.784C55.7819 116.151 55.733 116.157 55.5848 115.812C55.3451 115.253 54.3626 115.92 54.3626 116.642C54.3626 117.233 54.9726 117.265 55.2223 116.686C55.3241 116.45 55.4208 116.614 55.4366 117.052C55.4524 117.49 55.2943 118.148 55.0851 118.514C54.8226 118.973 54.8226 119.179 55.0851 119.179C55.2943 119.179 55.4657 118.947 55.4657 118.663C55.4657 118.38 55.6311 118.147 55.8334 118.147C56.0356 118.147 56.1893 118.341 56.1753 118.577C56.1367 119.215 55.5216 120.454 55.4914 119.953C55.4513 119.286 54.731 119.447 54.7248 120.125C54.7215 120.456 54.5564 120.959 54.3574 121.243C54.1004 121.61 54.0622 121.436 54.2251 120.641C54.5108 119.249 54.1887 119.206 53.4529 120.538C52.6546 121.982 52.6991 123.349 53.5353 123.07C53.8894 122.952 53.7206 123.202 53.1602 123.627C52.6002 124.052 51.8898 124.855 51.5817 125.412C51.2739 125.968 50.8746 126.339 50.6941 126.235C50.5139 126.13 49.6822 126.379 48.8457 126.787C46.684 127.84 40.9531 127.815 38.6083 126.742C37.7296 126.339 36.5294 125.997 35.9411 125.981C34.4869 125.943 34.0243 125.354 34.5093 124.16C34.9781 123.008 34.7266 122.624 34.1563 123.621C33.5503 124.68 32.9072 124.525 33.2062 123.392C33.4077 122.63 33.3654 122.53 32.9889 122.876C32.3649 123.45 31.9086 123.423 32.1538 122.825C32.3903 122.248 31.7166 121.768 31.3817 122.275C30.9107 122.988 30.5246 122.239 30.8375 121.218C31.014 120.643 31.0688 119.953 30.9592 119.686C30.7584 119.196 32.0292 117.384 32.5116 117.471C32.9389 117.549 33.3996 116.637 33.2146 116.079C33.1194 115.793 33.3753 115.363 33.7827 115.125C34.3997 114.765 34.56 114.781 34.7406 115.221C34.8601 115.512 34.8718 116.057 34.7667 116.433C34.5291 117.283 35.1152 117.344 35.402 116.5C35.726 115.544 35.5315 112.989 35.1344 112.989C34.9292 112.989 34.8604 112.313 34.9718 111.39C35.1167 110.187 35.4432 109.548 36.2926 108.805C36.9842 108.201 37.3376 107.616 37.2056 107.294C36.9173 106.591 36.2639 106.837 35.7076 107.857L35.2531 108.689L35.248 107.772C35.245 107.268 35.4491 106.786 35.7021 106.702C35.9551 106.617 36.036 106.422 35.8823 106.268C35.7282 106.114 35.3509 106.286 35.0435 106.651C34.4938 107.303 34.4861 107.302 34.5784 106.626C34.6303 106.248 34.5361 105.734 34.3692 105.485C34.2023 105.236 34.1875 104.927 34.3368 104.797C34.4858 104.668 34.6821 104.757 34.7726 104.994C35.0112 105.619 35.6102 105.158 35.6102 104.35C35.6102 103.971 35.4745 103.74 35.309 103.836C35.1432 103.932 35.0557 103.515 35.1145 102.91L35.2211 101.811L34.7931 102.757C34.5578 103.277 34.2284 103.703 34.0611 103.703C33.8938 103.703 34.1008 103.072 34.521 102.301C34.9417 101.53 35.2347 100.651 35.1722 100.348C35.0715 99.8588 34.984 99.8664 34.3975 100.415C34.0342 100.755 33.6206 100.916 33.4783 100.773C33.3363 100.63 33.4272 100.444 33.6798 100.36C33.9327 100.275 34.1394 99.9868 34.1394 99.7188C34.1394 99.2783 34.5872 99.0805 35.3344 99.1909C35.4859 99.2133 35.6102 98.8257 35.6102 98.3297C35.6102 97.5669 35.5249 97.4936 35.0586 97.8558C34.6027 98.2097 34.4997 98.1726 34.4644 97.6398C34.4262 97.0634 34.4041 97.0589 34.2537 97.5979C34.1611 97.9291 33.932 98.1997 33.7448 98.1997C33.2992 98.1997 33.3003 96.2283 33.7459 96.0787C34.2254 95.9181 34.4004 94.2814 33.9607 94.0726C33.761 93.978 33.5478 94.2102 33.4867 94.5885C33.1595 96.6104 32.9856 96.9977 32.6535 96.4429C32.2825 95.8225 32.6109 93.3848 33.0653 93.3848C33.2304 93.3848 33.1926 92.9204 32.9811 92.353C32.7697 91.7855 32.4741 91.3212 32.3241 91.3212C31.8181 91.3212 31.2728 89.7333 31.4615 88.8105C31.7402 87.4469 31.3015 86.1468 30.6426 86.3831C30.2227 86.5337 30.0981 86.3098 30.1098 85.4252L30.1245 84.2707L31.2357 85.4744L32.3469 86.6782L32.0781 85.6498C31.9303 85.0841 31.5891 84.4155 31.3195 84.1634C30.7411 83.6224 30.6794 83.0669 31.1978 83.0669C31.4001 83.0669 31.5655 82.8348 31.5655 82.5511C31.5655 81.758 30.9445 81.9396 30.6831 82.809C30.4551 83.5667 30.4389 83.5691 29.905 82.9153C29.605 82.548 29.3594 81.911 29.3594 81.5C29.3594 81.0887 29.0284 80.3589 28.624 79.8777C28.2195 79.3969 27.8886 78.8047 27.8886 78.5618C27.8886 78.2991 28.1213 78.3906 28.4644 78.7882C29.0119 79.423 29.0292 79.4052 28.817 78.4239C28.6946 77.8565 28.5784 77.16 28.5589 76.8763C28.5398 76.5925 28.3607 76.1671 28.161 75.9305C27.943 75.6718 27.9367 75.5006 28.1452 75.5006C28.3364 75.5006 28.4445 74.5379 28.3861 73.351C28.3276 72.1689 28.2747 70.9542 28.268 70.6522C28.2618 70.3503 27.9253 69.746 27.5209 69.3099L26.7855 68.5168L26.7693 69.8591L26.7531 71.2015L26.2218 69.8258C25.9295 69.0691 25.7666 68.255 25.8604 68.0164C26.1005 67.4031 25.6548 65.5267 25.2688 65.5267C25.0919 65.5267 24.947 65.862 24.947 66.272C24.947 66.6816 24.8415 66.9182 24.7124 66.7975C24.2852 66.3982 25.4239 63.3806 26.6388 61.6915C27.4705 60.536 27.915 59.4282 28.0985 58.0573C28.4806 55.1944 28.4923 43.4366 28.1184 37.8406C27.8875 34.3862 27.9202 32.4688 28.2346 31.0556C28.4754 29.9722 28.7857 29.1007 28.924 29.1189C29.5899 29.2066 30.0947 29.0374 30.0947 28.7265C30.0947 28.5373 29.8054 28.3829 29.4513 28.3833C28.8755 28.384 28.8199 28.0411 28.9251 25.116C29.0244 22.3467 29.1365 21.8418 29.6605 21.8081C30.2124 21.7723 30.2098 21.7513 29.6351 21.611C28.8983 21.4308 28.8541 20.4716 29.3163 14.6946C29.6509 10.5149 30.1635 9.74072 32.7605 9.49309C32.912 9.4783 33.0363 9.30255 33.0363 9.10239C33.0363 8.90222 32.8708 8.83378 32.6686 8.95072C32.1491 9.25096 32.2101 8.31342 32.7421 7.81576C33.0562 7.52204 33.0631 7.40305 32.7668 7.40305C32.5377 7.40305 32.2413 7.72427 32.1082 8.11669C31.9751 8.50946 31.7939 8.76293 31.7056 8.68039C31.4192 8.41281 32.3119 6.61201 32.9587 6.15218C33.5386 5.74016 33.54 5.70439 32.9742 5.69442C32.4465 5.68479 32.4119 5.50801 32.7285 4.43496C32.9315 3.74848 33.0161 2.89726 32.9172 2.54336C32.6671 1.64812 33.0223 1.73513 34.6071 2.9571ZM31.9277 4.15294C31.9332 4.86177 31.3045 5.68341 30.7566 5.68341C30.5948 5.68341 30.4624 5.44197 30.4624 5.14723C30.4624 4.85248 30.629 4.70735 30.8327 4.82497C31.0364 4.94294 31.3089 4.78163 31.4379 4.4666C31.567 4.1519 31.4618 3.77255 31.2044 3.62363C30.9467 3.47471 30.8606 3.16415 31.0129 2.93372C31.3681 2.39581 31.9192 3.13044 31.9277 4.15294ZM31.2173 7.18328C30.7548 8.32064 30.0947 8.36363 30.0947 7.25619C30.0947 6.74167 30.3415 6.37023 30.7382 6.28769C31.6159 6.10507 31.6383 6.14737 31.2173 7.18328ZM46.641 10.5923C47.9353 11.1914 48.2717 11.5202 48.186 12.1014C48.1257 12.5104 48.25 12.9451 48.4618 13.0675C48.6828 13.1955 48.8472 12.9884 48.8472 12.5822C48.8472 12.1929 48.9141 11.8741 48.9961 11.8741C49.0781 11.8741 50.3529 12.5705 51.8288 13.4218C53.4492 14.3562 54.228 14.9739 53.7941 14.9804C53.0885 14.9911 53.0885 15.0007 53.811 15.5177C54.5376 16.0377 54.538 16.0497 53.8327 16.5384C53.1337 17.0227 53.1352 17.033 53.903 17.033C54.3343 17.033 54.7891 16.8782 54.9141 16.6891C55.0391 16.4999 55.6694 16.3575 56.3147 16.3723C56.96 16.3871 57.2398 16.4758 56.9364 16.5694C56.6331 16.6629 56.054 16.8634 55.6495 17.0155C55.245 17.1671 54.4486 17.4663 53.8794 17.6806C53.2499 17.9176 52.9345 17.9344 53.0738 17.7236C53.1999 17.5327 53.0245 17.3769 52.6848 17.3769C52.2417 17.3769 52.1693 17.2548 52.4289 16.947C53.0216 16.2444 52.8311 15.3134 52.095 15.3134C51.3306 15.3134 51.1846 15.8571 51.8806 16.1123C52.1336 16.2052 51.8023 16.3919 51.1453 16.5281C49.7598 16.8143 49.5862 17.2634 50.7776 17.478C51.4868 17.606 51.4607 17.6338 50.5937 17.6741C50.0378 17.6999 49.5826 17.8509 49.5826 18.0097C49.5826 18.4407 46.2119 18.2422 45.2353 17.7535C44.5536 17.4123 44.4731 17.2325 44.8238 16.837C45.5026 16.0721 44.7646 16.2585 43.8164 17.0918C43.3494 17.5021 42.8541 17.7329 42.7166 17.6039C42.5787 17.4753 42.767 17.164 43.1343 16.913C43.6627 16.5515 43.72 16.3187 43.4079 15.7986C43.0405 15.1865 42.9964 15.1827 42.7655 15.7433C42.6291 16.0741 42.2665 16.3451 41.9595 16.3451C41.537 16.3451 41.4543 16.0975 41.619 15.3268C41.836 14.3129 41.3855 13.6102 40.9454 14.2761C40.5667 14.8494 40.0791 14.6719 40.2516 14.0236C40.3398 13.6928 40.1839 12.6118 39.9048 11.6217C39.6261 10.6315 39.4971 9.7249 39.6184 9.60693C40.0828 9.15466 45.0364 9.8494 46.641 10.5923ZM23.3413 10.2404C23.3031 10.4771 23.1424 10.864 22.9846 11.1003C22.8122 11.3582 22.8813 11.5302 23.1571 11.5302C23.4101 11.5302 23.2957 11.7496 22.9037 12.0179C22.5114 12.2861 22.3103 12.6177 22.4566 12.7549C22.8398 13.1129 23.9109 12.1891 23.702 11.6808C23.6057 11.4456 23.6395 11.1481 23.7774 11.0191C23.9153 10.8905 24.0278 10.6064 24.0278 10.3883C24.0278 10.1703 24.337 9.93607 24.7146 9.86831C25.193 9.78199 25.3143 9.87691 25.1139 10.1799C24.9062 10.4946 25.0103 10.5493 25.4901 10.377C26.0641 10.171 26.088 10.2133 25.6662 10.6886C25.307 11.0937 25.2893 11.3032 25.6004 11.4827C26.0479 11.7413 25.7982 13.2498 25.3077 13.2498C24.9172 13.2498 24.1693 15.3147 24.4216 15.6968C24.5323 15.8643 24.4473 16.0012 24.2333 16.0012C23.5487 16.0012 23.3067 16.0617 22.621 16.405C22.0308 16.7008 21.9974 16.6578 22.3452 16.0497C22.8574 15.1548 22.8559 14.2327 22.3437 15.0554C22.1375 15.3863 21.8018 15.6573 21.5977 15.6573C21.3936 15.6573 21.3289 15.5025 21.4539 15.3134C21.5789 15.1242 21.433 14.9694 21.1296 14.9694C20.4475 14.9694 19.9383 15.6514 20.6049 15.6724C20.8697 15.6807 20.4244 15.9104 19.6154 16.1832C17.7189 16.8222 17.1633 16.8046 18.3285 16.1422L19.2478 15.6195L18.3285 15.7825C17.8229 15.8722 17.0111 16.06 16.5246 16.1997C15.8962 16.3799 15.716 16.3379 15.9028 16.0556C16.0613 15.8152 15.9245 15.6573 15.5579 15.6573C15.2237 15.6573 14.863 15.9703 14.756 16.3531C14.5769 16.9934 14.5251 17.0027 14.1081 16.4693C13.8187 16.0992 13.4172 15.9747 12.998 16.125C12.4373 16.3266 12.4108 16.2825 12.8175 15.8244C13.0793 15.5293 13.5577 15.3175 13.8805 15.3536C14.6299 15.4372 15.7547 14.9853 15.7547 14.6004C15.7547 14.1798 17.8615 12.218 18.3138 12.218C18.5216 12.218 18.33 12.6067 17.8884 13.0816C17.1504 13.8757 16.6095 15.3134 17.0489 15.3134C17.4251 15.3134 19.7905 13.7578 19.7949 13.5077C19.8015 13.1177 19.2658 13.1986 18.7697 13.6625C18.4267 13.9834 18.3285 13.9597 18.3285 13.5556C18.3285 12.8405 19.6938 11.5302 20.4387 11.5302C20.9138 11.5302 20.9513 11.622 20.6082 11.9429C20.0357 12.4784 20.0457 12.9059 20.6299 12.9059C20.8847 12.9059 21.2999 12.5963 21.5525 12.218C21.8051 11.8397 21.8602 11.5302 21.6753 11.5302C21.1028 11.5302 21.6775 10.2002 22.3191 10.041C23.3483 9.78508 23.4134 9.79781 23.3413 10.2404ZM31.0474 10.7918C30.7838 11.1907 31.8053 12.4522 32.1395 12.1399C32.2858 12.0027 32.2182 11.6794 31.9887 11.4208C31.7597 11.1625 31.6806 10.8492 31.8137 10.7247C31.9468 10.6002 31.8725 10.4984 31.6486 10.4984C31.4243 10.4984 31.1541 10.6305 31.0474 10.7918ZM41.6606 11.6867C41.3425 12.3979 41.1653 13.0575 41.2664 13.1521C41.3675 13.2467 41.7102 12.7418 42.0283 12.0306C42.346 11.319 42.5232 10.6593 42.4221 10.5648C42.321 10.4702 41.9783 10.9751 41.6606 11.6867ZM24.5793 12.218C24.5793 12.4072 24.7448 12.5619 24.947 12.5619C25.1493 12.5619 25.3147 12.4072 25.3147 12.218C25.3147 12.0289 25.1493 11.8741 24.947 11.8741C24.7448 11.8741 24.5793 12.0289 24.5793 12.218ZM30.0947 13.0981C30.0947 13.3929 30.2602 13.5387 30.4624 13.4218C30.6647 13.3048 30.8301 13.0637 30.8301 12.8856C30.8301 12.7074 30.6647 12.5619 30.4624 12.5619C30.2602 12.5619 30.0947 12.8034 30.0947 13.0981ZM23.752 13.1428C22.9876 13.3299 22.8872 13.9377 23.6207 13.9377C23.9024 13.9377 24.2282 13.7055 24.3447 13.4218C24.4609 13.138 24.5201 12.9238 24.476 12.9458C24.4315 12.9678 24.1061 13.0565 23.752 13.1428ZM21.2701 13.7657C21.0149 14.0536 20.9748 14.2816 21.18 14.2816C21.3822 14.2816 21.7536 14.0494 22.0055 13.7657C22.2606 13.4778 22.3007 13.2498 22.0955 13.2498C21.8933 13.2498 21.5219 13.482 21.2701 13.7657ZM30.6375 13.9634C30.2999 14.9581 30.7838 15.2766 31.4118 14.4731C32.0748 13.6254 32.0729 13.2498 31.4063 13.2498C31.1166 13.2498 30.7706 13.571 30.6375 13.9634ZM49.2149 13.786C49.2149 14.0807 49.3829 14.2248 49.5884 14.1062C49.794 13.9872 49.8671 13.7461 49.7506 13.57C49.4355 13.093 49.2149 13.1817 49.2149 13.786ZM19.6416 14.478C19.2522 14.7445 19.0165 15.0396 19.1176 15.1342C19.2187 15.2288 19.6199 15.0884 20.0092 14.8219C20.3986 14.5557 20.6347 14.2606 20.5336 14.166C20.4325 14.0714 20.0309 14.2118 19.6416 14.478ZM47.6522 14.198C47.2981 14.2716 47.0087 14.4756 47.0087 14.6506C47.0087 15.0902 48.0132 15.053 48.3107 14.6025C48.6207 14.1333 48.4545 14.0312 47.6522 14.198ZM50.1065 14.3105C49.9194 14.6007 49.2285 15.041 48.5714 15.2893C47.9143 15.5376 47.3764 15.8788 47.3764 16.0476C47.3764 16.3692 49.9028 15.4932 50.4514 14.9815C50.6257 14.8188 50.6959 14.4828 50.6077 14.2345C50.4834 13.8857 50.3694 13.9029 50.1065 14.3105ZM51.7887 14.3019C51.7887 14.502 51.9542 14.5705 52.1564 14.4535C52.3586 14.3366 52.5241 14.1729 52.5241 14.0893C52.5241 14.0058 52.3586 13.9377 52.1564 13.9377C51.9542 13.9377 51.7887 14.1017 51.7887 14.3019ZM42.4125 14.6255C42.2875 14.8147 42.3607 14.9694 42.5747 14.9694C42.7887 14.9694 42.9641 14.8147 42.9641 14.6255C42.9641 14.4363 42.8913 14.2816 42.8019 14.2816C42.7126 14.2816 42.5375 14.4363 42.4125 14.6255ZM44.4275 14.8057C44.1716 15.0939 44.0554 15.4169 44.1686 15.5232C44.2822 15.6294 44.5598 15.3935 44.7856 14.999C45.2673 14.1571 45.0886 14.0608 44.4275 14.8057ZM45.7832 15.1988C45.6482 15.3247 45.5379 15.5878 45.5379 15.7835C45.5379 15.9988 45.7093 15.9785 45.9729 15.7319C46.2123 15.508 46.3226 15.2449 46.2182 15.1472C46.1137 15.0496 45.9177 15.0726 45.7832 15.1988ZM31.8413 15.5737C31.4872 15.6473 31.1978 15.8513 31.1978 16.0263C31.1978 16.4659 32.2024 16.4287 32.4998 15.9782C32.8098 15.5091 32.6436 15.4069 31.8413 15.5737ZM30.351 16.4803C30.2006 16.8383 30.1642 17.2125 30.2698 17.3116C30.6055 17.6252 30.9004 17.1111 30.7599 16.458C30.6312 15.8595 30.6114 15.8605 30.351 16.4803ZM48.4795 16.6891C48.1761 16.8724 47.39 17.0247 46.7329 17.0278C46.0759 17.0306 45.5379 17.1829 45.5379 17.3666C45.5379 17.9509 48.0754 17.6404 48.717 16.9773C49.3939 16.2777 49.316 16.1832 48.4795 16.6891ZM12.53 17.3769C12.0961 17.7552 11.6096 18.0596 11.4497 18.0534C11.1269 18.0407 12.7686 16.6891 13.1069 16.6891C13.2238 16.6891 12.9642 16.9986 12.53 17.3769ZM16.49 17.163C16.49 17.2342 16.2418 17.4853 15.9385 17.7208C15.4866 18.0717 15.387 18.0479 15.387 17.5908C15.387 17.2841 15.6352 17.033 15.9385 17.033C16.2418 17.033 16.49 17.0915 16.49 17.163ZM30.2874 18.1876C30.1815 18.4985 30.0172 18.9848 29.9223 19.2685C29.8278 19.5523 29.9072 19.7844 30.0992 19.7844C30.5106 19.7844 31.0188 18.1263 30.6992 17.8275C30.5786 17.7147 30.3929 17.8766 30.2874 18.1876ZM31.4431 17.9502C31.3081 18.0761 31.1978 18.3392 31.1978 18.5349C31.1978 18.7502 31.3692 18.7299 31.6328 18.4833C31.8722 18.2594 31.9825 17.9963 31.8781 17.8987C31.7736 17.801 31.5777 17.824 31.4431 17.9502ZM61.5301 18.7488C61.6587 18.9435 61.5113 19.0013 61.1841 18.884C60.5472 18.6553 60.4306 18.4087 60.9594 18.4087C61.1499 18.4087 61.4065 18.5618 61.5301 18.7488ZM30.8882 20.4723C30.8882 20.9452 30.9717 21.1388 31.0735 20.9022C31.1758 20.6659 31.1758 20.279 31.0735 20.0424C30.9717 19.8061 30.8882 19.9994 30.8882 20.4723ZM64.5584 19.9921C64.4363 20.1063 64.119 20.1187 63.8539 20.0193C63.5605 19.9096 63.6476 19.8281 64.076 19.8116C64.4635 19.7968 64.6805 19.878 64.5584 19.9921ZM31.7494 20.4723C31.6244 20.6614 31.6876 20.8162 31.8898 20.8162C32.0921 20.8162 32.3597 20.6614 32.4848 20.4723C32.6098 20.2831 32.5465 20.1283 32.3443 20.1283C32.1421 20.1283 31.8744 20.2831 31.7494 20.4723ZM21.6378 21.1997C21.6378 21.3493 22.4235 21.4201 23.3843 21.3572C24.3451 21.2942 24.7172 21.3145 24.2116 21.4022C23.706 21.4899 23.006 21.8022 22.6559 22.0963C22.1382 22.531 21.915 22.5499 21.4609 22.1974C20.9991 21.8387 20.9024 21.8638 20.9024 22.3422C20.9024 22.66 21.0678 22.8247 21.2701 22.7078C21.4723 22.5909 21.6378 22.6902 21.6378 22.9282C21.6378 23.2649 21.7359 23.2694 22.079 22.9485C22.8019 22.2724 23.5575 22.4423 23.2931 23.2216C23.1163 23.7423 23.1957 23.8586 23.6222 23.7055C23.9311 23.5948 24.2723 23.2474 24.3808 22.9341C24.6201 22.2431 26.3314 21.439 26.623 21.8803C26.7362 22.0516 26.6535 22.1919 26.4395 22.1919C25.9229 22.1919 24.5793 23.4644 24.5793 23.9535C24.5793 24.2204 24.7499 24.2073 25.1309 23.9115C25.5419 23.5924 25.6824 23.5869 25.6824 23.8899C25.6824 24.1131 25.8655 24.1901 26.0894 24.0608C26.3803 23.8926 26.3689 23.7519 26.0501 23.5676C25.7548 23.3967 25.7328 23.235 25.9854 23.0892C26.5053 22.7886 26.7906 23.3031 26.5605 24.1268C26.3593 24.8456 24.8672 25.9541 25.0375 25.258C25.0889 25.0486 24.7532 24.7404 24.2918 24.5732C23.5785 24.315 23.3924 24.4102 23.0527 25.2081C22.8276 25.7374 22.5787 25.9596 22.4824 25.7171C22.2787 25.204 21.0406 25.1435 20.7185 25.6312C20.5935 25.8203 20.7494 25.9751 21.0645 25.9751C21.3796 25.9751 21.6378 26.2238 21.6378 26.5278C21.6378 26.8779 21.84 27.0079 22.1893 26.8824C22.4927 26.7737 22.7409 26.7445 22.7409 26.8177C22.7409 26.8906 22.835 27.1799 22.9501 27.4605C23.0872 27.7948 22.9464 27.9523 22.5412 27.9183C22.2014 27.8901 21.7385 28.1332 21.5128 28.4593C21.1859 28.9315 21.2506 29.1619 21.8297 29.5932C22.5184 30.106 22.4886 30.1225 21.2701 29.9069C19.6621 29.6224 18.5502 29.0966 19.5235 29.0808C20.6913 29.0618 20.1924 28.3836 18.972 28.331C17.8597 28.2832 17.8468 28.2694 18.7881 28.1363C20.4225 27.9045 19.839 26.8607 18.0527 26.8212C17.4883 26.8088 17.2254 27.0034 17.2254 27.434C17.2254 28.0294 17.1802 28.0259 16.4371 27.3787C15.8319 26.8511 15.4884 26.772 14.9579 27.0378C14.4457 27.2941 14.1191 27.2459 13.6974 26.8514C13.1837 26.371 13.1874 26.319 13.7367 26.319C14.852 26.319 14.0622 25.4609 12.8436 25.3491C11.746 25.2484 11.6641 25.3068 11.8803 26.037L12.1167 26.8349L11.3188 25.9751L10.5213 25.1153L11.5754 24.9244C12.5822 24.7421 12.5925 24.7218 11.8052 24.4721C11.3519 24.3287 10.8143 24.3077 10.6102 24.4254C10.4062 24.5433 10.2392 24.4759 10.2392 24.2757C10.2392 24.0756 9.89728 23.9115 9.47921 23.9115C8.90414 23.9115 8.77214 23.755 8.93686 23.2691C9.10159 22.7835 8.88024 22.52 8.03049 22.1909C7.4124 21.9515 6.99838 21.6695 7.11089 21.5642C7.67052 21.0408 21.6378 20.6903 21.6378 21.1997ZM54.4119 21.1374C55.551 21.3121 57.9682 21.4951 59.7835 21.5439C62.5802 21.6196 65.3136 22.0299 64.1065 22.1933C61.7882 22.5069 60.0174 23.2381 60.1468 23.8286C60.2468 24.2847 58.5194 25.6312 57.8344 25.6312C57.5737 25.6312 56.8445 26.0373 56.2136 26.5336C55.583 27.0303 54.9638 27.3398 54.8373 27.2215C54.7112 27.1035 54.6766 26.9625 54.7608 26.9085C54.8454 26.8542 55.8657 26.2337 57.0284 25.529C58.191 24.8247 59.1426 24.1726 59.1426 24.0801C59.1426 23.7114 58.4458 23.9521 57.1718 24.761C56.161 25.4025 55.8334 25.4867 55.8334 25.105C55.8334 24.4618 54.5887 24.446 54.0247 25.0819C53.6959 25.4523 53.7066 25.6071 54.0714 25.7481C54.4288 25.8864 54.3872 26.0528 53.903 26.4212C53.5489 26.6905 53.2595 27.1039 53.2595 27.3401C53.2595 27.6139 52.9591 27.6989 52.4292 27.5744C51.5391 27.3656 50.3551 27.844 50.7794 28.2409C50.9202 28.3726 51.2916 28.2818 51.6045 28.039C52.0836 27.6672 52.1366 27.6865 51.9417 28.1621C51.7788 28.559 51.9126 28.7296 52.3928 28.7368C53.5794 28.7551 52.163 29.3005 50.3823 29.5113C48.9718 29.6785 48.8681 29.6458 49.4631 29.2242C50.105 28.7692 50.1054 28.7478 49.4722 28.7375C48.7909 28.7262 46.641 29.6434 46.641 29.9457C46.641 30.0389 47.0547 30.0183 47.5602 29.8996C48.5651 29.6637 48.8508 30.2391 47.8989 30.581C47.0263 30.8943 45.6015 30.4561 45.6883 29.9017C45.7306 29.6338 46.0861 29.1874 46.4788 28.9095C46.8712 28.6316 47.0113 28.3994 46.7899 28.3936C46.5686 28.3874 46.1049 28.6742 45.76 29.0309C45.4151 29.3875 44.6433 29.771 44.0454 29.8828C43.4476 29.9946 43.0008 30.2793 43.053 30.516C43.1942 31.1557 41.6859 31.2496 41.1403 30.6346C40.8803 30.3419 40.445 30.1022 40.1729 30.1022C39.8839 30.1022 39.7658 29.8876 39.8894 29.5863C40.0291 29.2458 39.8692 29.0615 39.4184 29.0443C39.0121 29.0288 39.257 28.8304 40.0225 28.5545C41.326 28.0851 41.2407 27.9124 39.76 28.0235C38.8448 28.0923 38.7164 27.7487 38.4024 24.3892L38.2061 22.2875L41.2285 22.0667C43.5877 21.8944 51.1504 21.0569 52.1564 20.8568C52.2575 20.8365 53.2724 20.963 54.4119 21.1374ZM66.1288 22.0151C66.1288 22.1073 64.9294 22.7325 63.463 23.4049L60.7972 24.6272L61.9003 23.6371C62.507 23.0923 63.2516 22.7064 63.5549 22.7797C63.8583 22.8529 64.4374 22.6782 64.8419 22.3914C65.5832 21.8659 66.1288 21.7063 66.1288 22.0151ZM11.9295 22.4822C11.8023 22.6748 11.8773 22.9358 12.0961 23.0624C12.6616 23.3891 13.0264 22.9417 12.5542 22.5001C12.2902 22.2531 12.0847 22.2473 11.9295 22.4822ZM9.50385 23.1466C9.50385 23.6316 11.0761 23.9542 11.5015 23.5563C11.7306 23.342 11.6453 23.2237 11.2622 23.2237C10.9349 23.2237 10.4054 23.1298 10.0855 23.0149C9.76565 22.9 9.50385 22.9595 9.50385 23.1466ZM15.5609 23.5827C15.4414 23.7636 15.6844 23.9115 16.1007 23.9115C16.9886 23.9115 17.078 23.7203 16.318 23.4476C16.0212 23.341 15.6804 23.4018 15.5609 23.5827ZM29.727 24.0632C29.727 24.5471 29.8925 24.9433 30.0947 24.9433C30.297 24.9433 30.4624 24.6431 30.4624 24.2757C30.4624 23.9084 30.297 23.5126 30.0947 23.3956C29.8863 23.2749 29.727 23.5642 29.727 24.0632ZM21.7113 23.9803C21.1796 24.4776 21.1377 24.9433 21.6249 24.9433C21.8198 24.9433 22.1566 24.6338 22.3732 24.2555C22.8067 23.4978 22.4055 23.331 21.7113 23.9803ZM51.2372 24.2555C51.1122 24.4446 51.1754 24.5994 51.3776 24.5994C51.5799 24.5994 51.8475 24.4446 51.9726 24.2555C52.0976 24.0663 52.0343 23.9115 51.8321 23.9115C51.6299 23.9115 51.3622 24.0663 51.2372 24.2555ZM14.1 24.5994C14.225 24.7885 14.4828 24.9433 14.6733 24.9433C14.8637 24.9433 15.0193 24.7885 15.0193 24.5994C15.0193 24.4102 14.7611 24.2555 14.446 24.2555C14.1309 24.2555 13.975 24.4102 14.1 24.5994ZM19.2327 24.9664C19.0992 25.1679 19.0786 25.4155 19.1863 25.5166C19.45 25.7629 20.167 25.3289 20.167 24.923C20.167 24.4835 19.5323 24.5127 19.2327 24.9664ZM16.49 25.6109C16.49 25.789 16.6537 26.0291 16.8537 26.1446C17.0618 26.265 17.1236 26.1271 16.9982 25.821C16.7537 25.2253 16.49 25.1163 16.49 25.6109ZM24.4348 26.157C24.4811 26.4525 24.2205 26.6629 23.8083 26.6629C23.1997 26.6629 23.1644 26.5701 23.5512 25.9906C24.0274 25.2773 24.305 25.3295 24.4348 26.157ZM26.3012 26.0398C26.1839 26.3139 26.0968 26.2323 26.0791 25.8317C26.0633 25.4692 26.1501 25.2663 26.2722 25.3804C26.3943 25.4946 26.4075 25.7914 26.3012 26.0398ZM29.727 25.9751C29.727 26.1643 29.9024 26.319 30.1164 26.319C30.3304 26.319 30.4036 26.1643 30.2786 25.9751C30.1536 25.7859 29.9785 25.6312 29.8892 25.6312C29.7998 25.6312 29.727 25.7859 29.727 25.9751ZM51.2103 26.1398C50.8206 26.4153 50.6673 26.6437 50.8695 26.6468C51.4159 26.655 52.3498 26.0411 52.1189 25.8255C52.009 25.7223 51.6001 25.864 51.2103 26.1398ZM19.9831 26.6629C20.1082 26.8521 20.2832 27.0069 20.3725 27.0069C20.4619 27.0069 20.5347 26.8521 20.5347 26.6629C20.5347 26.4738 20.3593 26.319 20.1453 26.319C19.9313 26.319 19.8581 26.4738 19.9831 26.6629ZM58.0906 27.0182C57.2733 27.6552 56.5687 27.8939 56.5687 27.5338C56.5687 27.3656 58.4554 26.3483 58.7749 26.3441C58.876 26.3431 58.5683 26.6464 58.0906 27.0182ZM25.6824 27.6259C25.6824 27.9664 25.4758 28.4534 25.2228 28.7083C24.8477 29.0866 24.8812 29.1327 25.4066 28.96C26.0806 28.7382 26.2424 29.2331 25.8269 30.246C25.5754 30.8592 24.2116 30.9971 24.2116 30.4093C24.2116 30.1999 24.4436 30.1118 24.7271 30.2136C25.5783 30.5194 25.6839 30.0747 24.9375 29.3256C24.5525 28.9387 24.3245 28.4899 24.4315 28.3279C24.5385 28.1663 24.3536 27.9358 24.0204 27.8165C23.5362 27.6428 23.513 27.5406 23.905 27.3082C24.754 26.805 25.6824 26.9708 25.6824 27.6259ZM15.2031 27.6947C15.3281 27.8839 15.255 28.0387 15.041 28.0387C14.827 28.0387 14.6516 27.8839 14.6516 27.6947C14.6516 27.5056 14.7244 27.3508 14.8137 27.3508C14.9031 27.3508 15.0781 27.5056 15.2031 27.6947ZM20.3358 27.7178C20.2023 27.9193 20.1817 28.1669 20.2894 28.2681C20.5531 28.5143 21.2701 28.0803 21.2701 27.6744C21.2701 27.2349 20.6354 27.2641 20.3358 27.7178ZM30.8301 27.6947C30.8301 27.8839 30.9956 28.0387 31.1978 28.0387C31.4001 28.0387 31.5655 27.8839 31.5655 27.6947C31.5655 27.5056 31.4001 27.3508 31.1978 27.3508C30.9956 27.3508 30.8301 27.5056 30.8301 27.6947ZM45.3272 27.8595C44.7051 28.2997 44.6944 28.3619 45.2404 28.3716C45.5824 28.3778 45.9714 28.2175 46.1045 28.0156C46.5049 27.4096 46.0828 27.3247 45.3272 27.8595ZM41.8959 29.0501C41.6315 29.2032 41.5646 29.415 41.7473 29.5206C41.9301 29.6262 42.2967 29.5877 42.5614 29.4347C42.8258 29.2816 42.8927 29.0697 42.71 28.9642C42.5272 28.8586 42.1606 28.8971 41.8959 29.0501ZM23.4762 29.4144C23.4762 29.6035 23.3207 29.7583 23.1302 29.7583C22.9398 29.7583 22.682 29.6035 22.557 29.4144C22.432 29.2252 22.5879 29.0704 22.903 29.0704C23.2181 29.0704 23.4762 29.2252 23.4762 29.4144ZM30.536 30.8589C30.0841 31.2815 29.9278 32.1658 30.3047 32.1658C30.839 32.1658 31.6391 31.0652 31.3214 30.7681C31.1077 30.5682 30.8099 30.6026 30.536 30.8589ZM40.7579 32.034C40.7579 32.1063 40.3442 32.1658 39.8386 32.1658C39.3331 32.1658 38.9194 32.0323 38.9194 31.8697C38.9194 31.7066 39.3331 31.6471 39.8386 31.7376C40.3442 31.828 40.7579 31.9615 40.7579 32.034ZM43.9675 31.6857C43.8454 31.7998 43.5281 31.8122 43.263 31.7128C42.9696 31.6031 43.0567 31.5216 43.4851 31.5051C43.8726 31.4903 44.0896 31.5715 43.9675 31.6857ZM28.9917 32.1658C28.9917 32.3549 29.1571 32.5097 29.3594 32.5097C29.5616 32.5097 29.727 32.3549 29.727 32.1658C29.727 31.9766 29.5616 31.8218 29.3594 31.8218C29.1571 31.8218 28.9917 31.9766 28.9917 32.1658ZM29.5737 34.1832C29.4152 34.423 29.3851 34.7119 29.5064 34.8254C29.8355 35.1332 30.1944 34.6806 30.0164 34.1819C29.8921 33.8324 29.8054 33.8324 29.5737 34.1832ZM28.624 35.9287C28.624 36.1068 28.7894 36.3479 28.9917 36.4649C29.1939 36.5818 29.3594 36.436 29.3594 36.1412C29.3594 35.8465 29.1939 35.605 28.9917 35.605C28.7894 35.605 28.624 35.7505 28.624 35.9287ZM58.7749 47.0667C61.4363 48.3744 63.488 49.5337 64.4742 50.2873C65.0809 50.7512 66.1038 51.4676 66.7476 51.88C68.5861 53.0573 71.7042 55.3846 73.1271 56.641C75.8264 59.0251 76.047 59.4141 76.6199 62.8055C76.9203 64.586 77.3189 66.3521 77.5053 66.7304C78.6837 69.1242 78.7121 71.2042 77.5755 71.8615C77.0034 72.1923 76.8905 71.8037 76.2298 67.2374C75.565 62.6422 75.0748 61.1567 73.7622 59.7587C71.5858 57.4416 68.4846 54.5296 68.189 54.5255C68.0077 54.5231 67.1804 54.0065 66.3505 53.3778C65.5206 52.7495 64.5635 52.139 64.2234 52.022C63.8833 51.9051 62.3798 50.9617 60.8825 49.9258C56.8758 47.1545 56.0448 46.8934 53.7618 47.6899C52.7458 48.0445 50.8522 48.9535 49.5535 49.7102C48.2552 50.4672 45.8946 51.7431 44.3083 52.5455C41.0329 54.2029 40.1887 54.6459 37.6954 56.0147C34.2449 57.9087 35.6892 56.6826 40.1247 53.9518C47.1032 49.6555 50.8467 47.658 53.2595 46.9422C54.7288 46.5068 57.7752 46.5753 58.7749 47.0667ZM72.2822 48.5866C73.5117 49.9213 73.753 50.8778 73.0852 51.7696C72.783 52.1734 72.7495 52.1173 72.9319 51.5117C73.0687 51.0566 73.0029 50.7378 72.7719 50.7378C72.5561 50.7378 72.3796 50.8926 72.3796 51.0817C72.3796 51.2709 71.9476 51.4257 71.4196 51.4257H70.4595L71.3276 50.7674C71.8053 50.4052 72.0755 49.9963 71.9288 49.8587C71.7821 49.7208 71.4096 49.8037 71.1015 50.0431C70.7184 50.3406 70.5411 50.3561 70.5411 50.0919C70.5411 49.8797 70.2981 49.706 70.001 49.706C69.6403 49.706 69.541 49.5066 69.7024 49.1042C69.9157 48.5711 69.8705 48.558 69.3057 48.9879C68.9549 49.2548 68.8189 49.5643 69.0034 49.6758C69.188 49.7869 69.4583 50.236 69.6046 50.6735C69.848 51.4033 69.8087 51.4332 69.1263 51.0346C68.7174 50.7956 68.4714 50.4658 68.5795 50.3021C68.688 50.138 68.4291 49.9186 68.0044 49.8147C67.5794 49.7109 67.2319 49.5017 67.2319 49.3501C67.2319 49.1984 67.1363 48.8411 67.019 48.5556C66.7175 47.8203 68.6056 46.9109 69.9896 47.1249C70.6621 47.2287 71.5571 47.7997 72.2822 48.5866ZM38.0844 48.5381C37.9369 48.676 37.8163 49.0261 37.8163 49.3164C37.8163 49.7033 37.9252 49.7418 38.2256 49.4612C38.4502 49.2507 38.5712 48.9002 38.4936 48.6829C38.416 48.4655 38.2318 48.4002 38.0844 48.5381ZM72.3796 50.0703C72.3796 50.2704 72.5451 50.3389 72.7473 50.2219C72.9495 50.105 73.115 49.9413 73.115 49.8577C73.115 49.7741 72.9495 49.706 72.7473 49.706C72.5451 49.706 72.3796 49.8701 72.3796 50.0703ZM36.4084 51.1151C36.1437 51.512 36.0172 51.9209 36.1275 52.0241C36.4279 52.3051 37.4486 51.4116 37.4486 50.8678C37.4486 50.1731 36.9596 50.2897 36.4084 51.1151ZM49.1229 53.5752C49.0391 53.8118 48.6582 54.0615 48.2769 54.1307C47.6772 54.2393 47.65 54.1816 48.0765 53.7008C48.6596 53.0435 49.3413 52.9617 49.1229 53.5752ZM65.3934 55.8967C65.3934 56.0859 65.6306 56.2407 65.9203 56.2407C66.2101 56.2407 66.552 56.5502 66.6804 56.9285C66.9245 57.648 67.5996 57.8839 67.5996 57.2497C67.5996 56.4635 66.8035 55.5528 66.1159 55.5528C65.7185 55.5528 65.3934 55.7076 65.3934 55.8967ZM35.0597 57.2707C34.9354 57.4588 34.4707 57.7787 34.0269 57.9816C33.3319 58.2994 33.3474 58.253 34.1394 57.647C35.1689 56.8594 35.3918 56.7682 35.0597 57.2707ZM49.4211 61.3658C49.1608 61.76 49.5546 62.7753 49.9679 62.7753C50.5908 62.7753 50.7158 62.0664 50.1812 61.5664C49.8778 61.2826 49.5355 61.1925 49.4211 61.3658ZM58.0395 61.4198C58.0395 61.62 58.205 61.6885 58.4072 61.5715C58.6095 61.4546 58.7749 61.2909 58.7749 61.2073C58.7749 61.1237 58.6095 61.0556 58.4072 61.0556C58.205 61.0556 58.0395 61.2197 58.0395 61.4198ZM39.1033 62.0874C38.9782 62.2766 39.0514 62.4313 39.2654 62.4313C39.4794 62.4313 39.6548 62.2766 39.6548 62.0874C39.6548 61.8982 39.582 61.7435 39.4926 61.7435C39.4033 61.7435 39.2283 61.8982 39.1033 62.0874ZM54.0022 62.2511C53.7121 62.5778 53.6842 62.7753 53.9283 62.7753C54.3725 62.7753 54.8906 62.1228 54.6358 61.8841C54.5431 61.7978 54.2582 61.9629 54.0022 62.2511ZM60.491 61.9729C60.0137 62.419 60.256 62.6803 61.073 62.6002C62.2849 62.4815 62.321 62.4527 61.7165 62.0874C61.0587 61.6898 60.8175 61.6671 60.491 61.9729ZM51.7961 62.595C51.506 62.9218 51.478 63.1192 51.7222 63.1192C52.1663 63.1192 52.6844 62.4668 52.4296 62.2281C52.337 62.1417 52.052 62.3068 51.7961 62.595ZM58.0395 62.4516C58.0395 62.6518 58.205 62.7202 58.4072 62.6033C58.6095 62.4864 58.7749 62.3227 58.7749 62.2391C58.7749 62.1555 58.6095 62.0874 58.4072 62.0874C58.205 62.0874 58.0395 62.2515 58.0395 62.4516ZM47.0087 63.4631C47.0087 63.6523 47.1742 63.807 47.3764 63.807C47.5786 63.807 47.7441 63.6523 47.7441 63.4631C47.7441 63.274 47.5786 63.1192 47.3764 63.1192C47.1742 63.1192 47.0087 63.274 47.0087 63.4631ZM48.2956 63.807C48.1706 63.9962 48.2438 64.151 48.4578 64.151C48.6718 64.151 48.8472 63.9962 48.8472 63.807C48.8472 63.6179 48.7744 63.4631 48.685 63.4631C48.5957 63.4631 48.4206 63.6179 48.2956 63.807ZM65.2096 64.8388C65.0846 65.028 65.1478 65.1827 65.35 65.1827C65.5523 65.1827 65.8199 65.028 65.945 64.8388C66.07 64.6497 66.0067 64.4949 65.8045 64.4949C65.6023 64.4949 65.3346 64.6497 65.2096 64.8388ZM58.8065 65.5745C59.0224 65.9012 57.9697 69.1451 57.5071 69.5785C57.4505 69.6318 56.5956 69.7621 55.6076 69.8684C54.1103 70.0294 53.5967 69.9252 52.5241 69.2421C51.8163 68.7916 51.2372 68.2069 51.2372 67.9431C51.2372 67.6797 52.0994 67.0651 53.1532 66.5774C54.2074 66.0897 55.2829 65.4871 55.5432 65.2385C56.101 64.7061 58.3881 64.9417 58.8065 65.5745ZM65.853 66.737C65.853 67.464 65.9409 67.5349 66.3991 67.1792C66.7542 66.9034 66.8017 66.7108 66.5344 66.6276C66.309 66.5574 66.2178 66.3583 66.3321 66.1853C66.4465 66.0123 66.3855 65.8706 66.1965 65.8706C66.0075 65.8706 65.853 66.2603 65.853 66.737ZM64.658 66.5585C64.658 66.7476 64.8235 66.9024 65.0257 66.9024C65.228 66.9024 65.3934 66.7476 65.3934 66.5585C65.3934 66.3693 65.228 66.2145 65.0257 66.2145C64.8235 66.2145 64.658 66.3693 64.658 66.5585ZM45.9347 67.1029C45.9523 67.5036 46.0394 67.5851 46.1567 67.311C46.263 67.0627 46.2498 66.7658 46.1277 66.6517C46.0056 66.5375 45.9188 66.7404 45.9347 67.1029ZM64.658 67.5902C64.658 67.7794 64.8235 67.9342 65.0257 67.9342C65.228 67.9342 65.3934 67.7794 65.3934 67.5902C65.3934 67.4011 65.228 67.2463 65.0257 67.2463C64.8235 67.2463 64.658 67.4011 64.658 67.5902ZM47.3764 68.2578C47.3764 68.6471 47.5418 68.9659 47.7441 68.9659C47.9463 68.9659 48.1118 68.7431 48.1118 68.4703C48.1118 68.1976 47.9463 67.8791 47.7441 67.7622C47.5418 67.6453 47.3764 67.8685 47.3764 68.2578ZM66.3741 67.8196C66.2391 67.9455 66.1288 68.2086 66.1288 68.4043C66.1288 68.6196 66.3002 68.5993 66.5638 68.3527C66.8032 68.1288 66.9135 67.8657 66.809 67.768C66.7046 67.67 66.5086 67.6934 66.3741 67.8196ZM73.115 67.9342C73.115 68.1233 73.2805 68.2781 73.4827 68.2781C73.6849 68.2781 73.8504 68.1233 73.8504 67.9342C73.8504 67.745 73.6849 67.5902 73.4827 67.5902C73.2805 67.5902 73.115 67.745 73.115 67.9342ZM62.0842 68.6423C62.0842 68.8205 61.9463 68.9659 61.7779 68.9659C61.6091 68.9659 61.4712 68.7407 61.4712 68.4652C61.4712 68.1897 61.6091 68.0442 61.7779 68.1415C61.9463 68.2389 62.0842 68.4642 62.0842 68.6423ZM65.2114 69.3068C65.0835 69.5007 65.2228 69.8873 65.521 70.1663C65.8192 70.4452 66.1479 70.8696 66.252 71.1093C66.3961 71.4426 66.5303 71.4243 66.8212 71.0319C67.1128 70.6385 67.0278 70.4582 66.4579 70.2608C66.0486 70.1195 65.81 69.8581 65.9273 69.6806C66.0446 69.5028 65.9839 69.2669 65.7924 69.1561C65.6008 69.0454 65.3394 69.1131 65.2114 69.3068ZM62.0628 70.5377C61.7135 70.9311 61.7507 71.0295 62.2478 71.0295C62.7019 71.0295 62.8063 71.2149 62.6357 71.7174C62.4824 72.1689 62.5695 72.4052 62.8894 72.4052C63.4196 72.4052 65.7611 74.6414 65.7611 75.148C65.7611 75.3196 65.5806 75.5642 65.3603 75.6918C64.775 76.0302 62.0842 73.4384 62.0842 72.5359C62.0842 72.1173 61.9389 71.7232 61.7613 71.6599C61.5837 71.597 61.319 71.0288 61.1734 70.3974C60.9204 69.3009 60.9439 69.2672 61.704 69.6476C62.3416 69.9668 62.4129 70.1432 62.0628 70.5377ZM44.3124 70.5711C43.9609 70.8995 44.0101 71.3734 44.3955 71.3734C44.576 71.3734 44.8191 71.1413 44.9356 70.8575C45.1507 70.3334 44.7588 70.1532 44.3124 70.5711ZM52.3726 71.8893C53.1749 72.6993 53.1826 72.7491 52.5065 72.7491C52.1119 72.7491 51.7887 72.5779 51.7887 72.3684C51.7887 72.159 51.549 72.0737 51.2559 72.1789C50.8868 72.3113 50.7908 72.205 50.9438 71.8322C51.1203 71.4023 50.9868 71.3411 50.2815 71.5282C49.6028 71.7084 49.5263 71.6788 49.9502 71.4013C50.8173 70.8335 51.453 70.9614 52.3726 71.8893ZM67.3161 71.4381C67.3963 71.6627 67.6584 71.9075 67.8985 71.9825C68.1673 72.0664 68.2493 71.9089 68.1122 71.5743C67.8555 70.949 67.0955 70.819 67.3161 71.4381ZM27.7066 73.1195C27.7077 74.0158 27.5834 74.6768 27.4308 74.5888C27.2782 74.5004 27.1532 74.2002 27.1532 73.9219C27.1532 73.6433 26.905 73.3262 26.6016 73.2176C25.9626 72.9882 25.8832 72.355 26.4299 71.8436C27.2661 71.0615 27.7047 71.5 27.7066 73.1195ZM50.1341 72.4052C50.2591 72.5944 50.1859 72.7491 49.9719 72.7491C49.7579 72.7491 49.5826 72.5944 49.5826 72.4052C49.5826 72.216 49.6554 72.0613 49.7447 72.0613C49.8341 72.0613 50.0091 72.216 50.1341 72.4052ZM44.1473 74.1778C44.2377 74.4327 44.6069 74.694 44.9673 74.7597C45.3864 74.8354 45.5633 74.7116 45.4578 74.4158C45.3673 74.161 44.9981 73.8996 44.6378 73.8339C44.2186 73.7582 44.0418 73.882 44.1473 74.1778ZM59.3265 74.1248C59.2014 74.314 59.2647 74.4688 59.4669 74.4688C59.6692 74.4688 59.9368 74.314 60.0618 74.1248C60.1869 73.9357 60.1236 73.7809 59.9214 73.7809C59.7192 73.7809 59.4515 73.9357 59.3265 74.1248ZM56.7526 74.4688C56.8776 74.6579 57.2181 74.8127 57.5097 74.8127C57.8013 74.8127 58.0395 74.6579 58.0395 74.4688C58.0395 74.2796 57.6987 74.1248 57.2824 74.1248C56.8662 74.1248 56.6276 74.2796 56.7526 74.4688ZM63.9226 74.4688C63.9226 74.6579 64.0782 74.8127 64.2686 74.8127C64.4591 74.8127 64.7169 74.6579 64.8419 74.4688C64.9669 74.2796 64.811 74.1248 64.4959 74.1248C64.1808 74.1248 63.9226 74.2796 63.9226 74.4688ZM58.2234 75.1566C58.0984 75.3458 58.1715 75.5006 58.3855 75.5006C58.5995 75.5006 58.7749 75.3458 58.7749 75.1566C58.7749 74.9675 58.7021 74.8127 58.6128 74.8127C58.5234 74.8127 58.3484 74.9675 58.2234 75.1566ZM45.1702 75.5006C45.1702 75.6897 45.3456 75.8445 45.5596 75.8445C45.7736 75.8445 45.8468 75.6897 45.7218 75.5006C45.5967 75.3114 45.4217 75.1566 45.3324 75.1566C45.243 75.1566 45.1702 75.3114 45.1702 75.5006ZM59.4415 75.7355C59.7067 75.8348 60.024 75.8225 60.146 75.7083C60.2681 75.5941 60.0512 75.5129 59.6636 75.5277C59.2353 75.5442 59.1481 75.6257 59.4415 75.7355ZM66.2024 76.2572C65.9663 76.478 65.6512 76.5444 65.5023 76.4047C65.353 76.2651 65.4695 76.013 65.7611 75.8445C66.448 75.4476 66.7579 75.7375 66.2024 76.2572ZM61.3488 76.3604C61.0936 76.6482 61.0535 76.8763 61.2587 76.8763C61.4609 76.8763 61.8323 76.6441 62.0842 76.3604C62.3393 76.0725 62.3794 75.8445 62.1743 75.8445C61.972 75.8445 61.6007 76.0766 61.3488 76.3604ZM45.9056 76.3903C45.9056 76.9946 46.9326 78.0938 47.2341 77.8121C47.3911 77.6652 47.1561 77.2054 46.7123 76.7903C46.2689 76.3752 45.9056 76.1953 45.9056 76.3903ZM48.1118 76.9543C48.1118 77.5813 48.7637 78.101 49.1255 77.7622C49.2516 77.6442 49.0751 77.2862 48.7332 76.9664C48.1603 76.4302 48.1118 76.4292 48.1118 76.9543ZM61.7165 77.7361C61.2197 78.296 61.3385 78.3661 62.2379 78.0432C62.5578 77.9283 62.8196 77.6962 62.8196 77.5273C62.8196 77.0517 62.2239 77.1645 61.7165 77.7361ZM29.7837 79.5984C29.7701 81.23 29.9988 81.6665 30.5819 81.121C30.715 80.9965 30.629 80.6753 30.3911 80.407C30.0561 80.0294 30.0679 79.8557 30.443 79.639C30.8379 79.4107 30.8231 79.2188 30.3632 78.6041C29.8226 77.8829 29.7976 77.9263 29.7837 79.5984ZM50.3003 78.9092C50.7981 79.779 51.5232 79.8622 51.3519 79.0296C51.2842 78.7008 50.9272 78.3775 50.5592 78.3111C49.9855 78.2079 49.9484 78.2936 50.3003 78.9092ZM62.4519 79.4557C62.1967 79.7436 62.1566 79.9716 62.3618 79.9716C62.564 79.9716 62.9354 79.7394 63.1873 79.4557C63.4424 79.1678 63.4825 78.9398 63.2773 78.9398C63.0751 78.9398 62.7037 79.172 62.4519 79.4557ZM50.3179 80.4672C50.3179 80.9834 50.978 81.5323 51.2703 81.2589C51.5269 81.0192 51.0191 79.9716 50.6463 79.9716C50.4658 79.9716 50.3179 80.1945 50.3179 80.4672ZM63.1799 80.8397C62.4695 81.6407 62.9762 81.7913 63.7366 81.0054C64.1039 80.6261 64.2333 80.3155 64.0245 80.3155C63.816 80.3155 63.4358 80.5515 63.1799 80.8397ZM66.0163 83.2867C65.6758 83.6052 66.0858 84.0987 66.6907 84.0987C67.0003 84.0987 67.1238 83.891 66.9973 83.5828C66.7726 83.0356 66.4038 82.9246 66.0163 83.2867ZM63.9226 84.0987C63.9226 84.2879 64.0782 84.4426 64.2686 84.4426C64.4591 84.4426 64.7169 84.2879 64.8419 84.0987C64.9669 83.9096 64.811 83.7548 64.4959 83.7548C64.1808 83.7548 63.9226 83.9096 63.9226 84.0987ZM54.1703 85.5504C54.0195 85.9136 54.2221 86.4959 54.695 87.0582C55.3443 87.8303 55.4635 87.8726 55.4528 87.3265C55.4454 86.9698 55.2094 86.2913 54.9277 85.8184C54.4836 85.0724 54.3832 85.037 54.1703 85.5504ZM64.658 85.4947C64.658 85.6949 64.8235 85.7633 65.0257 85.6464C65.228 85.5295 65.3934 85.3658 65.3934 85.2822C65.3934 85.1986 65.228 85.1305 65.0257 85.1305C64.8235 85.1305 64.658 85.2946 64.658 85.4947ZM64.2903 87.2144C64.2903 87.4145 64.4558 87.483 64.658 87.366C64.8603 87.2491 65.0257 87.0854 65.0257 87.0018C65.0257 86.9182 64.8603 86.8501 64.658 86.8501C64.4558 86.8501 64.2903 87.0142 64.2903 87.2144ZM31.9446 88.0539C31.9446 88.4322 32.1049 88.9739 32.3009 89.2576C32.5962 89.6848 32.6572 89.6552 32.6572 89.0857C32.6572 88.7073 32.4969 88.1657 32.3009 87.8819C32.0056 87.4548 31.9446 87.4843 31.9446 88.0539ZM64.8419 88.9137C64.7169 89.1029 64.79 89.2576 65.004 89.2576C65.218 89.2576 65.3934 89.1029 65.3934 88.9137C65.3934 88.7245 65.3206 88.5698 65.2313 88.5698C65.1419 88.5698 64.9669 88.7245 64.8419 88.9137ZM55.8451 89.6218C55.8385 89.9166 56.0764 90.4583 56.3731 90.8256C56.8048 91.3594 56.9155 91.3855 56.9247 90.957C56.9313 90.6622 56.6934 90.1205 56.3967 89.7532C55.965 89.2195 55.8543 89.1933 55.8451 89.6218ZM53.6272 89.9455C53.6272 90.1346 53.7927 90.2894 53.9949 90.2894C54.1971 90.2894 54.3626 90.1346 54.3626 89.9455C54.3626 89.7563 54.1971 89.6016 53.9949 89.6016C53.7927 89.6016 53.6272 89.7563 53.6272 89.9455ZM67.7044 90.6392C67.5981 91.0202 67.3654 91.4161 67.1874 91.519C66.8201 91.7312 66.7384 90.1776 67.0992 89.8402C67.5272 89.4403 67.9015 89.9345 67.7044 90.6392ZM33.0484 91.2352C33.0628 91.9361 34.4229 93.578 34.742 93.2795C34.9487 93.0862 33.5103 90.6333 33.19 90.6333C33.1054 90.6333 33.0418 90.9044 33.0484 91.2352ZM54.7593 91.5217C54.777 91.9224 54.8641 92.0039 54.9814 91.7298C55.0877 91.4815 55.0744 91.1846 54.9524 91.0705C54.8303 90.9563 54.7435 91.1592 54.7593 91.5217ZM62.6971 91.5506C62.3456 91.879 62.3949 92.353 62.7802 92.353C62.9608 92.353 63.2038 92.1208 63.3204 91.8371C63.5355 91.3129 63.1435 91.1327 62.6971 91.5506ZM64.7753 91.7428C64.333 92.289 64.2311 93.7287 64.6349 93.7287C64.9401 93.7287 65.5074 91.6572 65.2644 91.4299C65.1908 91.3611 64.9706 91.5018 64.7753 91.7428ZM63.0034 93.0408C62.8784 93.23 62.9416 93.3848 63.1439 93.3848C63.3461 93.3848 63.6138 93.23 63.7388 93.0408C63.8638 92.8517 63.8006 92.6969 63.5983 92.6969C63.3961 92.6969 63.1284 92.8517 63.0034 93.0408ZM36.1974 93.675C36.0701 93.8676 36.1452 94.1287 36.3639 94.2552C36.9294 94.582 37.2942 94.1345 36.8221 93.6929C36.5581 93.446 36.3525 93.4401 36.1974 93.675ZM57.3299 94.3305C57.3159 94.9455 57.4696 95.4483 57.6718 95.4483C58.1083 95.4483 58.1083 94.8509 57.6718 93.9006C57.4071 93.3242 57.3516 93.3937 57.3299 94.3305ZM58.6797 94.5307C58.2532 95.5164 58.33 96.346 58.8062 95.9006C59.0253 95.6956 59.1481 95.1615 59.0786 94.714C58.9672 93.998 58.9194 93.976 58.6797 94.5307ZM62.1132 94.961C62.1309 95.3616 62.218 95.4431 62.3353 95.169C62.4416 94.9207 62.4283 94.6239 62.3063 94.5097C62.1842 94.3955 62.0974 94.5985 62.1132 94.961ZM63.0339 95.4022C62.8755 95.6419 62.8453 95.9308 62.9666 96.0443C63.2957 96.3521 63.6546 95.8995 63.4766 95.4008C63.3523 95.0514 63.2656 95.0514 63.0339 95.4022ZM34.8748 96.1362C34.8748 96.5145 35.0248 96.824 35.2079 96.824C35.3914 96.824 35.4546 96.5145 35.3491 96.1362C35.2432 95.7578 35.0932 95.4483 35.0156 95.4483C34.9384 95.4483 34.8748 95.7578 34.8748 96.1362ZM63.0192 96.8003C62.7681 97.1803 63.3479 97.591 63.6877 97.2732C64.037 96.9461 63.9719 96.4801 63.5766 96.4801C63.3862 96.4801 63.1354 96.6242 63.0192 96.8003ZM57.8185 98.3878C57.477 99.6604 57.8858 99.7949 58.3455 98.5612C58.5738 97.9483 58.5947 97.5119 58.3951 97.5119C58.2072 97.5119 57.9476 97.906 57.8185 98.3878ZM36.5651 98.1461C36.4378 98.3387 36.5129 98.5997 36.7316 98.7263C37.2971 99.053 37.6619 98.6056 37.1898 98.164C36.9258 97.917 36.7202 97.9112 36.5651 98.1461ZM59.4107 98.0635C59.2632 98.2014 59.1478 98.6368 59.1536 99.031C59.1639 99.6924 59.1945 99.7003 59.5474 99.1325C59.9589 98.4714 59.8537 97.6494 59.4107 98.0635ZM38.6462 99.6569C38.5977 100.262 38.6584 100.317 38.9301 99.9149C39.3551 99.2862 39.3812 98.8876 38.9977 98.8876C38.8385 98.8876 38.6804 99.2339 38.6462 99.6569ZM61.8066 99.7474C61.6962 100.286 61.7988 100.607 62.0812 100.607C62.7545 100.607 62.1912 102.321 61.2315 103.191C60.7902 103.591 60.242 104.218 60.0129 104.584C59.7839 104.951 59.4765 105.143 59.3294 105.012C59.1827 104.881 59.4228 104.301 59.8629 103.723C60.6608 102.674 60.4593 102.284 59.5427 103.101C59.1478 103.452 59.1099 103.374 59.3345 102.671C59.4857 102.198 59.7111 101.734 59.8357 101.639C59.96 101.544 60.3773 100.887 60.763 100.177C61.5687 98.6964 62.0628 98.4924 61.8066 99.7474ZM36.4257 99.9723C36.6165 100.508 37.4391 100.602 37.4681 100.091C37.4788 99.9022 37.2115 99.6941 36.8743 99.6284C36.4908 99.5545 36.3228 99.6831 36.4257 99.9723ZM57.8594 100.339C57.5667 101.011 53.3378 103.101 52.8462 102.816C52.669 102.714 52.5241 102.876 52.5241 103.177C52.5241 103.478 52.7561 103.807 53.04 103.909C53.7945 104.18 56.3261 102.868 57.4417 101.628C58.0605 100.94 58.4072 100.745 58.4072 101.085C58.4072 101.377 57.8888 102.167 57.2552 102.842C56.6217 103.517 56.2305 104.181 56.3864 104.316C56.5419 104.452 56.7438 104.368 56.8342 104.13C56.925 103.893 57.1221 103.769 57.2725 103.856C57.4225 103.943 57.8406 103.388 58.2017 102.623C58.6907 101.586 58.7635 101.044 58.4874 100.49C58.1572 99.8275 58.0895 99.811 57.8594 100.339ZM35.8098 101.271C35.6933 101.447 35.7664 101.689 35.972 101.808C36.1775 101.926 36.3456 101.782 36.3456 101.487C36.3456 100.883 36.1249 100.794 35.8098 101.271ZM60.8086 101.396C60.6513 101.735 60.6259 102.109 60.7516 102.227C61.1252 102.576 61.4264 102.086 61.2543 101.408C61.1021 100.807 61.0822 100.807 60.8086 101.396ZM38.9194 101.619C38.9194 101.797 39.0849 102.038 39.2871 102.155C39.4893 102.272 39.6548 102.126 39.6548 101.831C39.6548 101.536 39.4893 101.295 39.2871 101.295C39.0849 101.295 38.9194 101.441 38.9194 101.619ZM37.0809 102.003C37.0809 102.203 37.2464 102.272 37.4486 102.155C37.6509 102.038 37.8163 101.874 37.8163 101.791C37.8163 101.707 37.6509 101.639 37.4486 101.639C37.2464 101.639 37.0809 101.803 37.0809 102.003ZM36.2294 103.617C36.1418 103.759 36.2029 104.184 36.3658 104.562C36.6239 105.163 36.6647 105.13 36.6875 104.304C36.7129 103.371 36.5408 103.113 36.2294 103.617ZM40.2063 103.703C40.3314 103.892 40.5064 104.046 40.5957 104.046C40.6851 104.046 40.7579 103.892 40.7579 103.703C40.7579 103.513 40.5825 103.359 40.3685 103.359C40.1545 103.359 40.0813 103.513 40.2063 103.703ZM54.7303 104.562C54.4703 104.855 54.3405 105.172 54.4416 105.267C54.5428 105.361 54.838 105.199 55.098 104.906C55.3579 104.613 55.4877 104.297 55.3866 104.202C55.2855 104.107 54.9902 104.269 54.7303 104.562ZM38.2131 104.935C38.2307 105.336 38.3179 105.417 38.4352 105.143C38.5414 104.895 38.5282 104.598 38.4061 104.484C38.284 104.369 38.1973 104.572 38.2131 104.935ZM54.7932 106.487C54.5284 106.884 54.4074 107.299 54.5247 107.408C54.7439 107.613 55.8006 106.485 55.8216 106.024C55.8448 105.518 55.2667 105.778 54.7932 106.487ZM56.2411 106.656C55.3789 107.682 55.2197 108.344 55.9253 107.971C56.293 107.777 56.293 107.821 55.9253 108.192C55.3759 108.746 55.3142 109.893 55.8334 109.893C56.1977 109.893 56.2996 109.491 56.3559 107.831C56.3768 107.213 56.5897 106.973 57.1203 106.972C57.5248 106.971 57.8557 106.751 57.8557 106.483C57.8557 105.62 57.0387 105.708 56.2411 106.656ZM37.8163 106.798C37.8163 106.987 37.9818 107.142 38.184 107.142C38.3863 107.142 38.5517 106.987 38.5517 106.798C38.5517 106.609 38.3863 106.454 38.184 106.454C37.9818 106.454 37.8163 106.609 37.8163 106.798ZM38.9194 106.778C38.9194 106.956 39.0849 107.197 39.2871 107.314C39.4893 107.431 39.6548 107.285 39.6548 106.99C39.6548 106.695 39.4893 106.454 39.2871 106.454C39.0849 106.454 38.9194 106.599 38.9194 106.778ZM58.2234 107.486C58.0951 107.864 57.8358 108.174 57.6472 108.174C57.4586 108.174 57.3041 108.406 57.3041 108.689C57.3041 108.973 57.5424 109.205 57.834 109.205C58.4521 109.205 58.5885 109.021 58.915 107.744C59.1911 106.663 58.58 106.435 58.2234 107.486ZM39.2871 108.841C39.2871 109.23 39.4526 109.549 39.6548 109.549C39.857 109.549 40.0225 109.326 40.0225 109.054C40.0225 108.781 39.857 108.463 39.6548 108.346C39.4526 108.229 39.2871 108.452 39.2871 108.841ZM37.8163 108.861C37.8163 109.051 37.9818 109.205 38.184 109.205C38.3863 109.205 38.5517 109.051 38.5517 108.861C38.5517 108.672 38.3863 108.518 38.184 108.518C37.9818 108.518 37.8163 108.672 37.8163 108.861ZM35.4002 110.728C35.1531 111.648 35.487 112.989 35.9628 112.989C36.4834 112.989 36.75 111.288 36.3415 110.574C35.8352 109.689 35.6719 109.715 35.4002 110.728ZM37.4486 110.237C37.4486 110.426 37.6141 110.581 37.8163 110.581C38.0186 110.581 38.184 110.426 38.184 110.237C38.184 110.048 38.0186 109.893 37.8163 109.893C37.6141 109.893 37.4486 110.048 37.4486 110.237ZM56.3514 110.71C56.04 111.47 56.4544 111.857 57.0162 111.332C57.3479 111.022 57.349 110.829 57.0221 110.524C56.6949 110.218 56.5353 110.262 56.3514 110.71ZM36.8577 112.501C36.9806 112.8 37.0809 113.196 37.0809 113.381C37.0809 113.566 37.231 113.63 37.4141 113.524C37.8366 113.28 37.4858 111.957 36.9986 111.957C36.7985 111.957 36.7349 112.202 36.8577 112.501ZM54.9446 112.255C54.7862 112.494 54.756 112.783 54.8774 112.897C55.2064 113.205 55.5653 112.752 55.3873 112.253C55.2631 111.904 55.1763 111.904 54.9446 112.255ZM36.5805 114.947C36.1411 115.358 36.3433 116.084 36.8971 116.084C37.2004 116.084 37.4486 115.861 37.4486 115.588C37.4486 115.014 36.9239 114.626 36.5805 114.947ZM33.7548 116.457C33.2819 117.284 33.6397 117.866 34.1537 117.106C34.5144 116.572 34.6255 115.74 34.3361 115.74C34.2423 115.74 33.9805 116.063 33.7548 116.457ZM36.1047 117.646C35.9848 117.938 35.9837 118.268 36.1018 118.378C36.2198 118.488 36.0746 119.016 35.7793 119.55C35.1472 120.693 35.12 120.899 35.6006 120.899C36.1683 120.899 37.256 118.718 36.7647 118.565C36.4728 118.474 36.4625 118.242 36.7291 117.776C36.992 117.317 36.9875 117.116 36.7147 117.116C36.4989 117.116 36.2246 117.354 36.1047 117.646ZM53.6272 117.976C53.6272 118.259 53.7927 118.491 53.9949 118.491C54.1971 118.491 54.3626 118.259 54.3626 117.976C54.3626 117.692 54.1971 117.46 53.9949 117.46C53.7927 117.46 53.6272 117.692 53.6272 117.976ZM34.3626 118.348C34.2398 118.647 34.1453 119.15 34.1523 119.465C34.1618 119.875 34.3155 119.794 34.6909 119.179C34.9799 118.706 35.2222 118.204 35.2296 118.062C35.2539 117.58 34.5869 117.8 34.3626 118.348ZM31.7343 118.514C31.3387 119.113 31.7891 119.24 32.2936 118.672C32.5837 118.345 32.6116 118.147 32.3675 118.147C32.1527 118.147 31.8674 118.313 31.7343 118.514ZM32.3744 119.541C31.8626 120.307 31.8233 120.555 32.2123 120.555C32.6451 120.555 33.4249 119.232 33.1025 119.045C32.9447 118.954 32.6171 119.177 32.3744 119.541ZM33.2051 120.578C33.0716 120.78 33.051 121.027 33.1587 121.128C33.4224 121.375 34.1394 120.941 34.1394 120.535C34.1394 120.095 33.5047 120.124 33.2051 120.578ZM52.4245 120.419C52.277 120.557 52.1616 120.992 52.1674 121.386C52.1777 122.048 52.2083 122.056 52.5612 121.488C52.9727 120.827 52.8675 120.005 52.4245 120.419ZM33.8985 121.773C33.6007 122.499 34.0978 122.891 34.5214 122.265C34.9715 121.599 34.9626 121.243 34.4957 121.243C34.2868 121.243 34.0184 121.482 33.8985 121.773ZM35.6102 122.295C35.6102 122.495 35.7756 122.563 35.9779 122.447C36.1801 122.33 36.3456 122.166 36.3456 122.082C36.3456 121.999 36.1801 121.931 35.9779 121.931C35.7756 121.931 35.6102 122.095 35.6102 122.295ZM51.6354 122.572C51.4769 122.812 51.4468 123.101 51.5681 123.215C51.8972 123.522 52.2561 123.07 52.0781 122.571C51.9538 122.222 51.867 122.222 51.6354 122.572ZM49.7969 123.528C49.6697 123.838 49.641 124.163 49.7333 124.25C50.0256 124.523 50.6856 123.974 50.6856 123.458C50.6856 122.783 50.083 122.831 49.7969 123.528ZM50.7713 124.338C50.522 124.711 50.4768 125.077 50.6665 125.187C50.8504 125.293 51.11 125.057 51.2442 124.661C51.5703 123.7 51.314 123.525 50.7713 124.338ZM35.6102 124.358C35.6102 124.559 35.7756 124.627 35.9779 124.51C36.1801 124.393 36.3456 124.229 36.3456 124.146C36.3456 124.062 36.1801 123.994 35.9779 123.994C35.7756 123.994 35.6102 124.158 35.6102 124.358ZM48.357 125.255C48.2221 125.381 48.1118 125.696 48.1118 125.955C48.1118 126.319 48.2783 126.343 48.8472 126.058C49.2516 125.855 49.5826 125.54 49.5826 125.358C49.5826 124.981 48.7273 124.909 48.357 125.255ZM43.8991 126.378C43.7825 126.554 43.8384 126.785 44.0226 126.892C44.2069 126.998 44.4525 126.854 44.5687 126.572C44.7974 126.014 44.2447 125.855 43.8991 126.378Z" fill="#232316"/>
</svg>
